# Blender 4.4.0
# www.blender.org
mtllib monkey_lod4.mtl
o Suzanne
v -0.411817 0.091356 0.571884
v 0.430928 0.179981 0.541769
v 0.222729 0.191284 0.600051
v -0.220278 0.160757 0.604375
v -0.386706 0.235554 0.524203
v 0.371238 0.296885 0.537650
v -0.347710 0.201717 0.668189
v 0.348986 0.236815 0.663737
v 0.000000 -0.187500 0.796875
v 0.088207 -0.120572 -0.502044
v -0.183104 -0.781950 0.518550
v 0.168315 -0.186157 0.701916
v 0.342874 0.496651 0.717418
v 0.000000 -0.185059 0.756409
v 0.000000 -0.140625 0.742188
v -0.716152 0.092559 0.421919
v -0.313955 0.542188 0.720795
v -0.009662 0.431490 0.703909
v -0.106902 -0.426692 0.692582
v 0.007466 -0.720124 0.656961
v -0.341968 0.321057 0.783269
v -0.470821 0.257894 0.730286
v 0.352697 0.320764 0.789839
v 0.359460 0.191780 0.793682
v 0.478796 0.252428 0.723173
v -0.352861 0.185628 0.787309
v -0.632667 0.426054 0.520073
v 0.028732 0.783692 0.181881
v -0.761368 0.409912 -0.263873
v -0.230769 -0.227353 0.554846
v 0.173154 -0.791194 0.529794
v 0.149068 -0.433342 0.262906
v 0.258194 0.512978 -0.537664
v 0.674308 0.323570 0.423600
v -0.630285 -0.011633 -0.275065
v -0.878248 0.106068 -0.207114
v 0.818377 0.412283 -0.218752
v 0.730850 0.026617 -0.201754
v -0.971830 0.257413 -0.368499
v 1.021051 0.245336 -0.346050
v 0.834336 0.090957 -0.401156
v -0.383504 0.156821 0.650165
v 0.393789 0.211784 0.633208
v 0.285835 0.217644 0.663428
v -0.298383 0.098682 0.604111
v -0.284187 0.192807 0.667013
v 0.263497 0.260110 0.575621
v -0.276411 0.224856 0.562390
v 0.362839 0.272401 0.631072
v 0.445671 0.250221 0.524624
v 0.011042 -0.876292 0.499483
v 0.215292 -0.575532 0.593743
v -0.197348 -0.608881 0.621246
v 0.592965 0.271244 0.601390
v -0.216181 0.516928 0.725051
v -0.307723 0.505512 0.746477
v 0.439150 0.420237 0.704996
v -0.623046 0.307059 0.624197
v -0.519186 0.075238 0.642573
v -0.027861 -0.019245 0.766981
v -0.304297 -0.047145 0.675409
v 0.147355 0.376850 0.773106
v 0.325399 0.257233 0.808907
v -0.111926 0.276895 0.775723
v 0.110191 -0.814849 0.600300
v -0.108002 -0.824503 0.595383
v -0.060046 -0.569456 0.695308
v 0.037221 -0.135008 0.746844
v 0.000000 -0.166667 0.746908
v 0.000000 -0.190104 0.774251
v -0.078961 -0.195166 0.698908
v 0.043992 -0.181989 0.742345
v -0.037386 -0.210850 0.678349
v 0.003317 -0.308928 0.718263
v -0.136909 -0.043143 0.749829
v 0.227985 0.023911 0.763335
v -0.429309 0.196938 0.752680
v -0.419778 0.315438 0.749145
v 0.429818 0.310300 0.747212
v 0.435736 0.197438 0.750574
v 0.495570 0.440497 0.622510
v -0.437940 0.517087 0.667362
v -0.522376 -0.061534 0.440026
v 0.504021 0.043213 0.516172
v -0.103197 -0.376300 0.306912
v -0.057173 -0.672185 0.416022
v 0.177755 -0.668226 0.441045
v -0.223350 -0.539254 0.528504
v -0.419265 -0.153408 0.076265
v 0.155721 0.202465 -0.614150
v -0.356628 0.147247 -0.492528
v -0.733535 0.453930 0.163539
v 0.475414 0.658127 -0.027390
v 0.009466 0.624831 0.489395
v 0.357510 0.450061 0.572399
v -0.328464 0.494807 0.607545
v 0.767803 0.392857 0.083624
v -0.830911 0.248004 0.093422
v 0.430787 -0.185462 0.033592
v 0.718935 0.121512 0.123310
v -0.717998 0.174105 -0.368316
v 0.519986 -0.039549 -0.497373
v 0.994566 0.311814 -0.321357
v -0.790673 0.055891 0.063102
v -0.909778 0.243340 -0.231610
v 0.864036 0.241690 -0.190404
v 0.953368 0.187226 -0.320151
v 1.011273 0.182083 -0.357059
v -0.958633 0.332794 -0.355004
v 0.890186 0.268067 -0.355124
v -0.884302 0.171723 -0.359712
v -0.444008 0.164129 0.533960
v 0.315726 0.157819 0.579225
v -0.370483 0.231591 0.625442
v 0.403651 0.072875 0.690483
v 0.221052 0.481559 0.720313
v -0.182599 0.394788 0.766102
v -0.502229 0.408515 0.678557
v -0.632249 0.173441 0.609811
v 0.042571 0.141492 0.795176
v 0.093055 -0.525153 0.691237
v 0.000000 -0.164063 0.769531
v -0.126741 -0.152546 0.689240
v -0.155825 -0.333676 0.653293
v 0.292124 0.464366 0.766066
v -0.316562 0.252205 0.799040
v 0.275972 -0.315221 0.449828
v -0.307761 -0.118778 -0.346624
v 0.106221 -0.285484 -0.141991
v 0.120786 0.739536 -0.245169
v -0.397322 0.686983 -0.047025
v -0.230219 0.520240 -0.457118
v 0.571882 0.523129 -0.395317
v 0.426042 0.598404 0.326254
v -0.386646 0.641118 0.356127
v -0.755408 0.252798 0.447499
v 0.597049 0.268145 -0.520441
v 0.447751 -0.142166 -0.357348
v -0.772207 0.013319 -0.204636
v -0.965369 0.202604 -0.340854
v 0.814243 0.011290 -0.344837
v -0.303221 0.230385 0.632590
v 0.415563 0.250499 0.606927
v 0.085757 0.259151 0.790695
v 0.198634 0.464359 0.763495
v -0.205743 0.492966 0.756686
v -0.431367 0.494977 0.698640
v 0.537874 0.394621 0.636776
v -0.690751 0.235975 0.570947
v 0.067885 0.034416 0.780613
v -0.000207 -0.892407 0.561934
v 0.162232 -0.653483 0.638430
v -0.143465 -0.687650 0.642175
v 0.000000 -0.174154 0.763224
v -0.075498 -0.178119 0.712268
v -0.045940 -0.066232 0.757420
v -0.187828 -0.081141 0.708669
v 0.353446 0.079723 0.739035
v -0.541729 0.142368 0.668423
v 0.049238 -0.774937 0.437086
v -0.139957 -0.539801 0.435600
v -0.189947 0.695835 -0.265338
v 0.578803 0.570173 0.144652
v -0.538844 0.618009 0.159339
v 0.278349 0.567331 0.474984
v 0.365124 0.455878 0.645193
v -0.337604 0.510247 0.673099
v 0.331319 -0.224844 -0.185833
v 0.713981 0.352620 -0.439668
v -0.478188 0.050679 -0.428902
v 0.819683 0.246983 -0.005545
v -0.975905 0.286200 -0.333703
v -0.857126 0.177476 -0.034905
v 0.948931 0.264633 -0.297059
v 0.959500 0.124106 -0.340559
v 1.005265 0.258417 -0.342228
v -0.892926 0.120393 -0.333679
v -0.414287 0.190141 0.613750
v 0.329449 0.189265 0.643111
v -0.317782 0.146769 0.660238
v 0.294836 0.257053 0.640723
v -0.219526 -0.495020 0.605668
v 0.519002 0.126513 0.611572
v -0.530877 0.345745 0.680031
v -0.449309 -0.017630 0.611607
v -0.167179 -0.249915 -0.033042
v -0.204168 0.302936 0.780047
v 0.018973 -0.448726 0.718671
v 0.045204 -0.165137 0.754638
v -0.022898 -0.195552 0.704298
v -0.059437 -0.252479 0.689142
v 0.378681 0.419546 0.747086
v 0.230840 -0.527552 0.504018
v -0.635623 -0.056678 0.102993
v 0.441243 0.128377 -0.573596
v -0.165580 0.291916 -0.562179
v 0.397788 0.680378 -0.238407
v -0.249713 0.597137 0.501234
v -0.803661 0.310197 0.237017
v 0.488961 -0.080887 0.296914
v 0.602790 -0.085200 -0.411544
v -0.885614 0.254383 -0.364192
vn 0.0292 0.7604 0.6488
vn 0.6712 0.6933 0.2623
vn 0.0681 0.9977 -0.0049
vn 0.9116 -0.1536 0.3812
vn 0.5127 0.8281 0.2264
vn 0.5759 0.3205 0.7521
vn -0.0265 0.1124 0.9933
vn -0.0250 -0.0573 0.9980
vn -0.0478 0.2205 0.9742
vn -0.1385 0.3832 0.9132
vn -0.0624 0.8985 0.4345
vn -0.3066 0.5917 0.7455
vn -0.0374 0.1414 0.9892
vn -0.0116 0.1618 0.9868
vn 0.3502 0.3835 0.8545
vn 0.0801 0.6963 0.7133
vn -0.6725 0.4581 0.5813
vn -0.4161 0.2159 0.8833
vn -0.3750 0.6017 0.7053
vn 0.8203 0.4242 0.3836
vn 0.5547 0.6366 0.5358
vn 0.6591 0.1711 0.7324
vn -0.8224 -0.3334 0.4610
vn -0.5830 -0.0472 0.8111
vn -0.7942 0.3714 0.4809
vn 0.0538 -0.1812 0.9820
vn -0.0402 -0.1555 0.9870
vn 0.0656 -0.3087 0.9489
vn 0.5076 -0.8612 0.0257
vn 0.0016 -0.4830 0.8756
vn -0.4874 -0.8619 -0.1396
vn 0.5896 -0.1163 0.7993
vn 0.2317 -0.2788 0.9320
vn 0.7952 -0.3354 0.5051
vn -0.1627 -0.3333 0.9287
vn -0.4476 -0.1087 0.8876
vn -0.7582 -0.3779 0.5314
vn -1.0000 -0.0000 -0.0000
vn -0.6989 0.2862 0.6554
vn -0.4842 0.3276 0.8113
vn -0.5538 -0.4640 0.6914
vn -0.1285 -0.2745 0.9530
vn 0.2294 -0.0402 0.9725
vn -0.1001 -0.2367 0.9664
vn -0.4102 -0.6011 0.6859
vn -0.2998 -0.4834 0.8225
vn -0.3519 -0.4583 0.8162
vn 0.4451 -0.4203 0.7907
vn 0.6920 -0.4504 0.5642
vn 0.4000 -0.4190 0.8151
vn -0.5662 -0.0912 0.8192
vn -0.6311 -0.5411 0.5559
vn -0.4097 -0.4268 0.8062
vn 0.1011 -0.4752 -0.8740
vn 0.4497 -0.5565 -0.6986
vn -0.2847 -0.4428 -0.8502
vn -0.3715 -0.3715 -0.8508
vn -0.6327 -0.1477 -0.7602
vn -0.8598 -0.0562 -0.5075
vn -0.3937 0.7844 -0.4793
vn -0.1460 0.9818 -0.1215
vn -0.0834 0.7584 -0.6465
vn 0.3662 0.9078 0.2044
vn 0.6555 0.6630 0.3617
vn 0.6478 0.7554 0.0989
vn -0.5681 0.7786 0.2665
vn -0.2826 0.9522 0.1158
vn -0.5998 0.7965 -0.0762
vn 0.4894 0.6799 0.5460
vn 0.2290 0.8661 0.4443
vn 0.1979 0.7134 0.6723
vn -0.1090 0.9470 -0.3022
vn -0.0500 0.8631 -0.5026
vn 0.1773 0.9340 -0.3103
vn 0.1572 0.7827 -0.6022
vn 0.2493 0.8802 -0.4039
vn -0.0429 0.9080 -0.4168
vn 0.1294 -0.9078 -0.3989
vn 0.5293 -0.8455 -0.0707
vn 0.4042 -0.8812 -0.2452
vn 0.4889 0.0973 -0.8669
vn 0.3344 0.4416 -0.8326
vn 0.5903 0.6644 -0.4584
vn -0.3069 0.1868 -0.9332
vn -0.2581 -0.5006 -0.8263
vn -0.4123 -0.6265 -0.6614
vn 0.9338 -0.1188 0.3375
vn 0.8386 -0.5096 0.1927
vn 0.9476 0.2552 0.1920
vn -0.5326 0.5710 0.6248
vn -0.9888 0.0354 -0.1451
vn -0.8643 -0.1264 0.4869
vn -0.9401 -0.2358 0.2463
vn -0.8258 0.5301 0.1928
vn -0.9422 -0.2524 0.2202
vn 0.6828 -0.3745 0.6273
vn 0.5236 -0.1651 0.8358
vn 0.6471 0.1792 0.7410
vn 0.4728 -0.5921 -0.6526
vn 0.5101 -0.2213 0.8311
vn 0.5920 -0.5507 0.5884
vn 0.1315 0.2070 -0.9695
vn -0.0067 0.6209 -0.7838
vn -0.0152 0.2635 -0.9645
vn -0.7000 -0.7141 0.0004
vn -0.3535 -0.4164 -0.8376
vn -0.2495 -0.7618 -0.5978
vn -0.8727 -0.2088 0.4413
vn -0.6300 0.3405 0.6980
vn -0.7415 0.6623 0.1075
vn 0.3191 -0.8600 0.3983
vn 0.2158 -0.4618 0.8603
vn -0.2220 -0.8303 0.5112
vn 0.4760 -0.5371 0.6963
vn -0.0956 -0.1934 0.9765
vn -0.1632 -0.7483 0.6430
vn -0.1050 0.6112 0.7845
vn -0.2288 0.9530 0.1987
vn -0.7279 0.5262 0.4396
vn -0.9747 -0.1683 0.1469
vn -0.6109 -0.0000 0.7917
vn -0.9060 0.0419 0.4212
vn 0.6505 -0.5923 0.4754
vn 0.8632 -0.4334 0.2588
vn 0.6763 -0.3557 0.6450
vn -0.6462 0.4328 0.6285
vn -0.5233 0.1245 0.8430
vn -0.4351 0.2667 0.8600
vn -0.5170 -0.6796 0.5205
vn -0.3958 -0.4858 0.7793
vn -0.5966 -0.6607 0.4555
vn -0.1919 -0.9143 -0.3566
vn -0.2501 -0.9197 -0.3027
vn -0.5618 -0.8267 -0.0290
vn -0.3772 -0.9097 -0.1739
vn 0.1241 -0.0962 0.9876
vn 0.2295 0.2150 0.9493
vn 0.0470 0.1827 0.9820
vn 0.1883 -0.0445 0.9811
vn -0.2087 -0.0353 0.9773
vn 0.0907 -0.2245 0.9702
vn 0.5832 0.2688 0.7665
vn 0.3888 -0.0321 0.9208
vn 0.0724 0.5546 0.8290
vn -0.1461 -0.9065 0.3961
vn 0.0503 -0.9328 0.3568
vn 0.0833 -0.9943 0.0659
vn -0.3916 0.1247 0.9117
vn -0.1458 0.3204 0.9360
vn -0.5402 0.3663 0.7577
vn 0.4559 0.4960 0.7390
vn 0.4170 0.2664 0.8690
vn 0.5919 0.2447 0.7680
vn 0.9382 -0.0281 0.3448
vn 0.9695 -0.2222 -0.1034
vn 0.8880 -0.2373 -0.3939
vn -0.6242 -0.7771 0.0805
vn -0.3474 -0.9305 -0.1158
vn -0.4695 -0.8785 0.0888
vn -0.6158 -0.7618 0.2010
vn 0.1794 0.1758 -0.9679
vn 0.3831 -0.1641 -0.9090
vn 0.0622 -0.3562 -0.9323
vn -0.4014 0.2204 -0.8890
vn -0.1149 0.3244 -0.9389
vn -0.1966 -0.2588 -0.9457
vn 0.2058 0.8100 -0.5491
vn 0.2399 0.9704 -0.0279
vn 0.5357 0.8284 -0.1635
vn -0.3238 0.7832 0.5307
vn -0.0520 0.7422 0.6682
vn -0.1077 0.8965 0.4298
vn -0.8173 0.4981 0.2898
vn -0.9051 0.4252 0.0082
vn -0.9559 -0.2088 0.2067
vn 0.7165 -0.6958 0.0496
vn 0.6894 -0.7007 0.1834
vn 0.8071 -0.4783 0.3462
vn 0.7226 -0.5397 0.4318
vn 0.1509 -0.8329 -0.5325
vn 0.4558 -0.5583 -0.6932
vn 0.3662 -0.8953 0.2536
vn -0.0433 -0.3545 -0.9341
vn 0.0517 0.0530 -0.9973
vn 0.2157 0.4017 -0.8900
vt 0.859379 0.877949
vt 0.831952 0.858821
vt 0.861287 0.854421
vt 0.888112 0.874751
vt 0.766181 0.817419
vt 0.859492 0.843886
vt 0.831952 0.858821
vt 0.952803 0.870353
vt 0.888112 0.874751
vt 0.859492 0.843886
vt 0.768136 0.588653
vt 0.836178 0.553429
vt 0.847570 0.574984
vt 0.835358 0.602171
vt 0.904220 0.518206
vt 0.876309 0.580972
vt 0.864023 0.607791
vt 0.835358 0.602171
vt 0.418896 0.282949
vt 0.510822 0.282343
vt 0.523807 0.315145
vt 0.472662 0.327605
vt 0.580287 0.284139
vt 0.583133 0.297732
vt 0.585978 0.311324
vt 0.542637 0.342969
vt 0.501381 0.387975
vt 0.591940 0.376098
vt 0.546660 0.382036
vt 0.558571 0.357409
vt 0.582146 0.343049
vt 0.546660 0.382036
vt 0.582146 0.343049
vt 0.415295 0.312044
vt 0.449302 0.347479
vt 0.439451 0.364369
vt 0.408656 0.353153
vt 0.453875 0.391006
vt 0.449302 0.347479
vt 0.406368 0.394036
vt 0.299081 0.318382
vt 0.365838 0.321147
vt 0.374461 0.342319
vt 0.352725 0.356209
vt 0.408656 0.353153
vt 0.352725 0.356209
vt 0.690720 0.295372
vt 0.641330 0.335735
vt 0.629151 0.321122
vt 0.633845 0.291989
vt 0.607381 0.329333
vt 0.641330 0.335735
vt 0.608310 0.296086
vt 0.633845 0.291989
vt 0.316547 0.241409
vt 0.355398 0.275487
vt 0.335906 0.285129
vt 0.303289 0.274955
vt 0.392523 0.295979
vt 0.349935 0.301339
vt 0.355398 0.275487
vt 0.349935 0.301339
vt 0.510822 0.282343
vt 0.516915 0.250995
vt 0.553930 0.244161
vt 0.494144 0.234254
vt 0.510822 0.282343
vt 0.546202 0.180258
vt 0.494144 0.234254
vt 0.531261 0.065855
vt 0.513998 0.085870
vt 0.500140 0.073916
vt 0.499963 0.064319
vt 0.502964 0.102356
vt 0.488674 0.084212
vt 0.513998 0.085870
vt 0.468665 0.062782
vt 0.488674 0.084212
vt 0.519700 0.130761
vt 0.525507 0.110225
vt 0.543224 0.114675
vt 0.502964 0.102356
vt 0.513998 0.085870
vt 0.519700 0.130761
vt 0.493834 0.127656
vt 0.483757 0.107392
vt 0.488674 0.084212
vt 0.481006 0.170241
vt 0.472532 0.117596
vt 0.493834 0.127656
vt 0.488674 0.084212
vt 0.472532 0.117596
vt 0.500000 0.192167
vt 0.500000 0.198017
vt 0.500000 0.197771
vt 0.500000 0.194723
vt 0.500000 0.203867
vt 0.500000 0.200573
vt 0.500000 0.197278
vt 0.500000 0.192167
vt 0.477260 0.186978
vt 0.475411 0.179112
vt 0.500000 0.203867
vt 0.463071 0.192549
vt 0.427163 0.158835
vt 0.475411 0.179113
vt 0.463071 0.192549
vt 0.510252 0.201023
vt 0.488954 0.221915
vt 0.464878 0.228904
vt 0.494144 0.234254
vt 0.510252 0.201023
vt 0.464878 0.228904
vt 0.463071 0.192549
vt 0.448906 0.214806
vt 0.419773 0.221285
vt 0.463071 0.192549
vt 0.419773 0.221285
vt 0.464878 0.228904
vt 0.588789 0.248612
vt 0.578506 0.256519
vt 0.553930 0.244161
vt 0.594299 0.290112
vt 0.588789 0.248612
vt 0.377061 0.273979
vt 0.405709 0.289464
vt 0.375550 0.256038
vt 0.355398 0.275487
vt 0.621745 0.074837
vt 0.568186 0.077447
vt 0.556506 0.057803
vt 0.570935 0.052331
vt 0.525693 0.047840
vt 0.520125 0.029824
vt 0.525693 0.047840
vt 0.380697 0.027237
vt 0.424681 0.045010
vt 0.421215 0.082173
vt 0.378689 0.089509
vt 0.443747 0.108298
vt 0.180359 0.205377
vt 0.152592 0.275258
vt 0.105344 0.251150
vt 0.103298 0.199610
vt 0.124438 0.353880
vt 0.065790 0.275278
vt 0.152592 0.275258
vt 0.007141 0.196676
vt 0.103298 0.199610
vt 0.891638 0.374542
vt 0.798836 0.335224
vt 0.800495 0.290380
vt 0.845903 0.282125
vt 0.701954 0.293065
vt 0.755422 0.249769
vt 0.798836 0.335224
vt 0.808890 0.206472
vt 0.845903 0.282125
vt 0.207649 0.336049
vt 0.200254 0.292930
vt 0.235579 0.269250
vt 0.207649 0.336049
vt 0.235579 0.269250
vt 0.152592 0.275258
vt 0.800778 0.382078
vt 0.764837 0.389848
vt 0.847284 0.425181
vt 0.802929 0.475819
vt 0.764837 0.389848
vt 0.768730 0.461452
vt 0.748156 0.406055
vt 0.734532 0.447085
vt 0.718243 0.370075
vt 0.764837 0.389848
vt 0.265611 0.446814
vt 0.235945 0.455916
vt 0.255389 0.410311
vt 0.282346 0.382598
vt 0.206279 0.465018
vt 0.240850 0.393457
vt 0.240850 0.393457
vt 0.846675 0.049571
vt 0.797010 0.113875
vt 0.748601 0.102002
vt 0.734210 0.062204
vt 0.784330 0.178082
vt 0.705539 0.133868
vt 0.797010 0.113875
vt 0.734210 0.062204
vt 0.825762 0.147055
vt 0.878244 0.166044
vt 0.861268 0.185688
vt 0.817326 0.176764
vt 0.956426 0.202762
vt 0.877387 0.215647
vt 0.878244 0.166044
vt 0.817326 0.176764
vt 0.877387 0.215647
vt 0.157083 0.130476
vt 0.181263 0.132884
vt 0.187680 0.178257
vt 0.159908 0.032776
vt 0.208585 0.103673
vt 0.157083 0.130476
vt 0.195001 0.151137
vt 0.187680 0.178257
vt 0.208585 0.103673
vt 0.723776 0.218439
vt 0.759106 0.223947
vt 0.749805 0.250922
vt 0.796610 0.192277
vt 0.808890 0.206472
vt 0.749805 0.250922
vt 0.318905 0.903519
vt 0.229910 0.853338
vt 0.245178 0.808946
vt 0.297309 0.811841
vt 0.140914 0.803156
vt 0.208314 0.761659
vt 0.275714 0.720162
vt 0.297309 0.811841
vt 0.249721 0.229019
vt 0.237014 0.208447
vt 0.262644 0.202626
vt 0.197580 0.191828
vt 0.249721 0.229019
vt 0.214801 0.178280
vt 0.262644 0.202626
vt 0.197580 0.191828
vt 0.442034 0.714031
vt 0.516160 0.744549
vt 0.486838 0.781889
vt 0.430124 0.788874
vt 0.602785 0.765899
vt 0.510500 0.814808
vt 0.516159 0.744549
vt 0.418214 0.863717
vt 0.430124 0.788874
vt 0.566147 0.664707
vt 0.580262 0.699791
vt 0.535595 0.713422
vt 0.504090 0.689369
vt 0.516159 0.744549
vt 0.580262 0.699791
vt 0.504090 0.689369
vt 0.626573 0.613940
vt 0.618089 0.662463
vt 0.580262 0.699791
vt 0.686999 0.563174
vt 0.644892 0.664537
vt 0.626573 0.613940
vt 0.644892 0.664537
vt 0.157403 0.709892
vt 0.168379 0.671250
vt 0.230345 0.657085
vt 0.039093 0.699621
vt 0.125124 0.646713
vt 0.157403 0.709892
vt 0.184976 0.594008
vt 0.230345 0.657085
vt 0.840055 0.974229
vt 0.854183 0.906010
vt 0.883860 0.902336
vt 0.896429 0.922291
vt 0.888112 0.874751
vt 0.896429 0.922291
vt 0.835358 0.602171
vt 0.850516 0.634264
vt 0.840997 0.650432
vt 0.879210 0.639353
vt 0.835358 0.602171
vt 0.913858 0.712211
vt 0.879210 0.639353
vt 0.826837 0.886161
vt 0.803118 0.895824
vt 0.854183 0.906010
vt 0.803118 0.895824
vt 0.854183 0.906010
vt 0.876309 0.580972
vt 0.892097 0.612738
vt 0.909039 0.615209
vt 0.876309 0.580972
vt 0.879210 0.639353
vt 0.472532 0.117596
vt 0.458142 0.130415
vt 0.443747 0.108298
vt 0.454085 0.164538
vt 0.472532 0.117596
vt 0.629114 0.228229
vt 0.616082 0.256673
vt 0.588789 0.248612
vt 0.629114 0.228229
vt 0.633845 0.291989
vt 0.349935 0.301339
vt 0.370687 0.308813
vt 0.365838 0.321147
vt 0.403909 0.304011
vt 0.419773 0.221285
vt 0.385241 0.227861
vt 0.353027 0.203723
vt 0.375550 0.256038
vt 0.270303 0.030007
vt 0.290116 0.092308
vt 0.208585 0.103673
vt 0.298741 0.145653
vt 0.472662 0.327605
vt 0.445861 0.326225
vt 0.417096 0.297497
vt 0.449302 0.347479
vt 0.472662 0.327605
vt 0.449302 0.347479
vt 0.513604 0.175250
vt 0.508855 0.144789
vt 0.519700 0.130761
vt 0.493834 0.127656
vt 0.510958 0.185510
vt 0.511979 0.193226
vt 0.510252 0.201023
vt 0.510252 0.201023
vt 0.486683 0.169547
vt 0.491122 0.177412
vt 0.510958 0.185510
vt 0.510958 0.185510
vt 0.481006 0.170241
vt 0.484790 0.169778
vt 0.546202 0.180258
vt 0.427163 0.158835
vt 0.595524 0.326880
vt 0.607381 0.329333
vt 0.597144 0.303705
vt 0.582146 0.343049
vt 0.607381 0.329333
vt 0.568265 0.108147
vt 0.600140 0.136342
vt 0.568186 0.077447
vt 0.543224 0.114675
vt 0.600140 0.136342
vt 0.568186 0.077447
vt 0.204901 0.164708
vt 0.284965 0.181386
vt 0.878244 0.166044
vt 0.875478 0.134385
vt 0.901551 0.126166
vt 0.842459 0.116845
vt 0.901551 0.126166
vt 0.103298 0.199610
vt 0.115230 0.146252
vt 0.083525 0.114726
vt 0.083525 0.114726
vt 0.924032 0.288652
vt 0.884400 0.261636
vt 0.877387 0.215647
vt 0.845903 0.282125
vt 0.240850 0.393457
vt 0.207819 0.379308
vt 0.207649 0.336049
vt 0.165358 0.409449
vt 0.235579 0.269250
vt 0.264204 0.256572
vt 0.235579 0.269250
vt 0.249721 0.229019
vt 0.662158 0.181113
vt 0.842459 0.116845
vt 0.817323 0.127381
vt 0.797010 0.113875
vt 0.805046 0.162568
vt 0.805046 0.162568
vt 0.102097 0.622019
vt 0.130921 0.583239
vt 0.057979 0.636046
vt 0.125124 0.646713
vt 0.076866 0.572470
vt 0.130921 0.583239
s 0
f 7/1/1 46/2/1 142/3/1 114/4/1
f 4/5/2 48/6/2 142/3/2 46/7/2
f 5/8/3 114/9/3 142/3/3 48/10/3
f 2/11/4 50/12/4 143/13/4 43/14/4
f 6/15/5 49/16/5 143/13/5 50/12/5
f 8/17/6 43/18/6 143/13/6 49/16/6
f 26/19/7 120/20/7 144/21/7 64/22/7
f 120/20/8 24/23/8 63/24/8 144/21/8
f 144/21/9 63/24/9 23/25/9 62/26/9
f 64/22/10 144/21/10 62/26/10 18/27/10
f 13/28/11 116/29/11 145/30/11 125/31/11
f 18/27/12 62/26/12 145/30/12 116/32/12
f 23/25/13 125/33/13 145/30/13 62/26/13
f 21/34/14 117/35/14 146/36/14 56/37/14
f 18/27/15 55/38/15 146/36/15 117/39/15
f 17/40/16 56/37/16 146/36/16 55/38/16
f 27/41/17 118/42/17 147/43/17 82/44/17
f 21/34/18 56/45/18 147/43/18 118/42/18
f 17/40/19 82/46/19 147/43/19 56/45/19
f 34/47/20 81/48/20 148/49/20 54/50/20
f 13/28/21 57/51/21 148/49/21 81/52/21
f 25/53/22 54/54/22 148/49/22 57/51/22
f 16/55/23 119/56/23 149/57/23 136/58/23
f 22/59/24 58/60/24 149/57/24 119/61/24
f 27/41/25 136/58/25 149/57/25 58/62/25
f 24/23/26 120/63/26 150/64/26 76/65/26
f 26/19/27 60/66/27 150/64/27 120/67/27
f 12/68/28 76/65/28 150/64/28 60/69/28
f 31/70/29 65/71/29 151/72/29 51/73/29
f 20/74/30 66/75/30 151/72/30 65/76/30
f 11/77/31 51/73/31 151/72/31 66/78/31
f 12/68/32 121/79/32 152/80/32 52/81/32
f 20/82/33 65/83/33 152/80/33 121/84/33
f 31/70/34 52/81/34 152/80/34 65/76/34
f 20/82/35 67/85/35 153/86/35 66/87/35
f 19/88/36 53/89/36 153/86/36 67/90/36
f 11/77/37 66/91/37 153/86/37 53/92/37
f 9/93/38 122/94/38 154/95/38 70/96/38
f 15/97/38 69/98/38 154/95/38 122/94/38
f 14/99/38 70/96/38 154/95/38 69/98/38
f 9/100/39 122/94/39 155/101/39 71/102/39
f 15/103/40 123/104/40 155/101/40 122/94/40
f 30/105/41 71/106/41 155/101/41 123/107/41
f 15/103/42 68/108/42 156/109/42 75/110/42
f 12/68/43 60/111/43 156/109/43 68/112/43
f 26/19/44 75/113/44 156/109/44 60/66/44
f 30/105/45 123/114/45 157/115/45 61/116/45
f 15/103/46 75/110/46 157/115/46 123/117/46
f 26/19/47 61/118/47 157/115/47 75/119/47
f 12/68/48 115/120/48 158/121/48 76/122/48
f 25/53/49 80/123/49 158/121/49 115/124/49
f 24/23/50 76/65/50 158/121/50 80/123/50
f 22/59/51 119/61/51 159/125/51 77/126/51
f 16/55/52 59/127/52 159/125/52 119/128/52
f 26/19/53 77/126/53 159/125/53 59/127/53
f 32/129/54 87/130/54 160/131/54 86/132/54
f 31/70/55 51/133/55 160/131/55 87/130/55
f 11/134/56 86/132/56 160/131/56 51/135/56
f 32/136/57 86/137/57 161/138/57 85/139/57
f 11/77/58 88/140/58 161/138/58 86/137/58
f 30/105/59 85/139/59 161/138/59 88/140/59
f 29/141/60 131/142/60 162/143/60 132/144/60
f 28/145/61 130/146/61 162/143/61 131/147/61
f 33/148/62 132/149/62 162/143/62 130/146/62
f 28/150/63 134/151/63 163/152/63 93/153/63
f 34/154/64 97/155/64 163/152/64 134/156/64
f 37/157/65 93/158/65 163/152/65 97/155/65
f 27/41/66 135/159/66 164/160/66 92/161/66
f 28/145/67 131/147/67 164/160/67 135/162/67
f 29/141/68 92/163/68 164/160/68 131/164/68
f 34/154/69 134/156/69 165/165/69 95/166/69
f 28/150/70 94/167/70 165/165/70 134/156/70
f 18/168/71 95/169/71 165/165/71 94/167/71
f 18/168/72 116/170/72 166/171/72 95/169/72
f 13/172/73 81/173/73 166/171/73 116/170/73
f 34/154/74 95/174/74 166/171/74 81/173/74
f 17/175/75 55/176/75 167/177/75 82/178/75
f 18/179/76 96/180/76 167/177/76 55/176/76
f 27/41/77 82/178/77 167/177/77 96/181/77
f 10/182/78 138/183/78 168/184/78 129/185/78
f 38/186/79 99/187/79 168/184/79 138/188/79
f 32/129/80 129/189/80 168/184/80 99/187/80
f 41/190/81 137/191/81 169/192/81 110/193/81
f 33/194/82 133/195/82 169/192/82 137/196/82
f 37/157/83 110/197/83 169/192/83 133/198/83
f 29/141/84 91/199/84 170/200/84 101/201/84
f 10/202/85 128/203/85 170/200/85 91/204/85
f 35/205/86 101/206/86 170/200/86 128/207/86
f 34/47/87 100/208/87 171/209/87 97/210/87
f 38/186/88 106/211/88 171/209/88 100/208/88
f 37/212/89 97/213/89 171/209/89 106/211/89
f 29/214/90 109/215/90 172/216/90 105/217/90
f 39/218/91 140/219/91 172/216/91 109/215/91
f 36/220/92 105/221/92 172/216/92 140/219/92
f 16/55/93 98/222/93 173/223/93 104/224/93
f 29/141/94 105/225/94 173/223/94 98/226/94
f 36/227/95 104/228/95 173/223/95 105/229/95
f 38/230/96 107/231/96 174/232/96 106/233/96
f 40/234/97 103/235/97 174/232/97 107/236/97
f 37/237/98 106/238/98 174/232/98 103/235/98
f 41/239/99 108/240/99 175/241/99 141/242/99
f 40/234/100 107/243/100 175/241/100 108/244/100
f 38/230/101 141/245/101 175/241/101 107/243/101
f 41/239/102 110/246/102 176/247/102 108/248/102
f 37/249/103 103/250/103 176/247/103 110/251/103
f 40/234/104 108/244/104 176/247/104 103/252/104
f 36/220/105 140/253/105 177/254/105 139/255/105
f 39/256/106 111/257/106 177/254/106 140/258/106
f 35/259/107 139/260/107 177/254/107 111/257/107
f 1/261/108 42/262/108 178/263/108 112/264/108
f 7/1/109 114/265/109 178/263/109 42/262/109
f 5/8/110 112/266/110 178/263/110 114/9/110
f 2/11/111 43/267/111 179/268/111 113/269/111
f 8/17/112 44/270/112 179/268/112 43/271/112
f 3/272/113 113/269/113 179/268/113 44/273/113
f 4/5/114 46/2/114 180/274/114 45/275/114
f 7/1/115 42/276/115 180/274/115 46/2/115
f 1/261/116 45/277/116 180/274/116 42/278/116
f 8/17/117 49/279/117 181/280/117 44/270/117
f 6/15/118 47/281/118 181/280/118 49/282/118
f 3/272/119 44/283/119 181/280/119 47/281/119
f 11/77/120 53/284/120 182/285/120 88/286/120
f 19/88/121 124/287/121 182/285/121 53/288/121
f 30/105/122 88/286/122 182/285/122 124/287/122
f 12/68/123 84/289/123 183/290/123 115/291/123
f 34/47/124 54/50/124 183/290/124 84/292/124
f 25/53/125 115/291/125 183/290/125 54/293/125
f 27/41/126 58/294/126 184/295/126 118/296/126
f 22/59/127 78/297/127 184/295/127 58/60/127
f 21/34/128 118/42/128 184/295/128 78/297/128
f 30/105/129 61/298/129 185/299/129 83/300/129
f 26/19/130 59/127/130 185/299/130 61/118/130
f 16/55/131 83/300/131 185/299/131 59/301/131
f 10/202/132 129/302/132 186/303/132 128/304/132
f 129/302/133 32/136/133 85/139/133 186/303/133
f 186/303/134 85/139/134 30/105/134 89/305/134
f 128/304/135 186/303/135 89/305/135 35/205/135
f 26/19/136 64/306/136 187/307/136 126/308/136
f 18/27/137 117/309/137 187/307/137 64/310/137
f 21/34/138 126/308/138 187/307/138 117/311/138
f 12/68/139 74/312/139 188/313/139 121/314/139
f 19/88/140 67/90/140 188/313/140 74/312/140
f 20/82/141 121/84/141 188/313/141 67/315/141
f 9/100/142 72/316/142 189/317/142 122/94/142
f 12/68/143 68/318/143 189/317/143 72/316/143
f 15/103/144 122/94/144 189/317/144 68/319/144
f 30/105/145 73/320/145 190/321/145 71/106/145
f 12/68/146 72/322/146 190/321/146 73/320/146
f 9/100/147 71/102/147 190/321/147 72/323/147
f 19/324/148 74/312/148 191/325/148 124/287/148
f 12/326/149 73/320/149 191/325/149 74/312/149
f 30/327/150 124/287/150 191/325/150 73/320/150
f 13/28/151 125/31/151 192/328/151 57/329/151
f 23/25/152 79/330/152 192/328/152 125/331/152
f 25/53/153 57/332/153 192/328/153 79/330/153
f 12/68/154 52/81/154 193/333/154 127/334/154
f 31/70/155 87/335/155 193/333/155 52/336/155
f 32/129/156 127/337/156 193/333/156 87/338/156
f 36/227/157 139/339/157 194/340/157 104/224/157
f 139/339/158 35/205/158 89/305/158 194/340/158
f 194/340/159 89/305/159 30/105/159 83/300/159
f 104/224/160 194/340/160 83/300/160 16/55/160
f 33/194/161 137/341/161 195/342/161 90/343/161
f 41/190/162 102/344/162 195/342/162 137/341/162
f 10/182/163 90/345/163 195/342/163 102/344/163
f 29/141/164 132/346/164 196/347/164 91/199/164
f 33/148/165 90/348/165 196/347/165 132/346/165
f 10/202/166 91/199/166 196/347/166 90/349/166
f 33/194/167 130/350/167 197/351/167 133/352/167
f 28/150/168 93/153/168 197/351/168 130/350/168
f 37/157/169 133/195/169 197/351/169 93/353/169
f 27/41/170 96/354/170 198/355/170 135/356/170
f 18/179/171 94/357/171 198/355/171 96/180/171
f 28/145/172 135/162/172 198/355/172 94/357/172
f 27/41/173 92/358/173 199/359/173 136/58/173
f 29/141/174 98/222/174 199/359/174 92/360/174
f 16/55/175 136/58/175 199/359/175 98/361/175
f 32/129/176 99/187/176 200/362/176 127/334/176
f 99/187/177 38/186/177 100/208/177 200/362/177
f 200/362/178 100/208/178 34/47/178 84/289/178
f 127/334/179 200/362/179 84/289/179 12/68/179
f 10/182/180 102/363/180 201/364/180 138/365/180
f 41/190/181 141/366/181 201/364/181 102/363/181
f 38/186/182 138/365/182 201/364/182 141/367/182
f 35/259/183 111/257/183 202/368/183 101/369/183
f 39/256/184 109/370/184 202/368/184 111/371/184
f 29/372/185 101/373/185 202/368/185 109/370/185
