# Blender 4.4.0
# www.blender.org
mtllib monkey_lod3.mtl
o Suzanne
v 0.528282 0.070161 0.584198
v -0.528264 0.070148 0.584191
v -0.349736 -0.008365 0.621863
v 0.349736 -0.008365 0.621863
v 0.249166 0.167805 0.761792
v 0.173241 0.070055 0.647373
v -0.173318 0.069989 0.647312
v -0.096141 0.242748 0.658791
v 0.095832 0.243013 0.659034
v 0.293122 0.338913 0.765420
v 0.173698 0.417850 0.645878
v -0.173775 0.417783 0.645818
v 0.351563 0.489583 0.615885
v -0.351563 0.489583 0.615885
v -0.291666 0.338354 0.765491
v -0.466745 0.304901 0.722836
v 0.528739 0.417955 0.582704
v -0.528721 0.417943 0.582697
v 0.604537 0.243435 0.570397
v -0.604467 0.243385 0.570371
v 0.467286 0.304706 0.722821
v -0.248814 0.167617 0.762043
v 0.416288 0.153449 0.751185
v -0.416048 0.153414 0.751227
v 0.000000 -0.187500 0.796875
v 0.009948 0.829704 -0.433605
v 0.210892 0.437437 -0.741735
v -0.009973 -0.319378 -0.296779
v -0.259861 -0.243093 0.549964
v 0.280623 -0.222219 0.542283
v -0.274520 -0.829380 0.567284
v 0.268052 -0.779899 0.563624
v 0.485906 -0.033991 0.604171
v -0.526682 -0.061086 0.530917
v 0.705764 0.420103 0.563958
v -0.723369 0.415769 0.562887
v 0.306695 0.647180 0.694813
v -0.324150 0.652429 0.705198
v -0.001037 0.516697 0.740435
v 0.596755 0.172272 0.654455
v -0.294462 0.446638 0.761800
v 0.324347 0.441338 0.757403
v 0.000000 -0.185059 0.756409
v 0.000000 -0.140625 0.742188
v 0.084607 -0.129054 0.778826
v -0.509459 0.040953 0.646399
v -0.612186 0.403164 0.691413
v 0.617255 0.398785 0.691238
v -0.277055 0.561747 0.801212
v 0.296154 0.551445 0.791286
v -0.019325 0.368606 0.808647
v -0.109698 -0.114640 0.761424
v 0.001744 -0.944671 0.573947
v -0.098493 0.106922 0.748865
v 0.138907 -0.355718 0.717602
v -0.007942 -0.358292 0.756019
v -0.122118 -0.292893 0.728682
v 0.087335 -0.754390 0.697793
v -0.071447 -0.720379 0.706261
v 0.025554 -0.795546 0.683661
v -0.051555 -0.857369 0.666606
v -0.413477 0.375424 0.743809
v -0.524692 0.301440 0.693809
v -0.530234 0.212151 0.687076
v -0.460038 0.129813 0.706951
v -0.364001 0.099571 0.729430
v 0.218241 0.291224 0.762736
v -0.215398 0.284972 0.762587
v 0.297587 0.381516 0.770951
v 0.243926 0.153340 0.752514
v 0.363191 0.099279 0.728782
v 0.460742 0.127704 0.702102
v 0.532981 0.210728 0.677691
v 0.526039 0.302548 0.687666
v 0.414941 0.377422 0.743669
v -0.288815 0.378241 0.766229
v -0.246443 0.153218 0.754852
v -0.001356 0.536952 0.576710
v -0.240490 0.622432 0.616730
v 0.239655 0.622062 0.616520
v -0.409082 0.584953 0.472285
v -0.713956 0.389861 0.320995
v -0.739338 0.143072 0.433717
v -0.462374 -0.112923 0.380105
v 0.715039 0.107079 0.406221
v -0.000584 0.859237 0.130547
v 0.001384 -0.031024 -0.688811
v -0.748954 0.072108 0.134703
v -0.820419 0.342257 -0.407064
v -0.443831 0.389629 -0.629649
v 0.769158 0.103422 0.114194
v 0.498215 0.040476 -0.516946
v -0.736796 -0.016357 -0.372884
v -0.224022 -0.463991 0.337195
v -0.250529 -0.825948 0.421461
v 0.217709 -0.798736 0.405417
v 0.026245 -0.541793 0.249033
v -0.051036 -0.875078 0.418350
v 0.245723 -0.428429 0.255568
v 0.299544 -0.218719 -0.363397
v 0.390972 0.789185 -0.382252
v -0.421971 0.778949 -0.369835
v -0.474377 0.799378 0.070067
v 0.469215 0.800713 0.082341
v 0.409458 0.584529 0.473184
v 0.715603 0.387706 0.324089
v -0.735806 0.559225 0.043668
v 0.733791 0.553818 0.047749
v 0.693698 0.601071 -0.310735
v -0.720365 0.601785 -0.300176
v -0.400191 -0.037764 -0.521999
v 0.828139 0.305593 -0.182333
v 0.561053 -0.117975 -0.113612
v -0.348235 -0.233575 -0.154268
v -0.679853 -0.105791 -0.153428
v -1.010524 -0.050744 -0.329415
v -1.243429 0.106516 -0.469174
v -1.295117 0.322615 -0.457594
v -1.167480 0.430976 -0.389152
v -0.971351 0.342239 -0.288584
v 1.199976 0.431983 -0.412718
v 1.185453 0.276498 -0.426264
v 1.155674 0.040447 -0.398316
v 0.812576 -0.080710 -0.205377
v 0.996237 0.390697 -0.313514
v 0.879436 0.020944 -0.292475
v -1.102963 0.065845 -0.399562
v -1.181158 0.294040 -0.422821
v -0.989574 0.276812 -0.346123
v -0.836526 0.151089 -0.281879
v 0.839752 0.147519 -0.295728
v -0.786928 0.001243 -0.179186
v 0.736042 0.006876 -0.160367
v -0.867606 0.354506 -0.205348
v 0.999570 0.290261 -0.356196
v -0.896369 0.048544 -0.309665
v 1.100802 0.081738 -0.409593
v 1.029146 0.181568 -0.376957
v -1.052534 0.190007 -0.382378
v -1.167255 0.382744 -0.485253
v 1.174246 0.395270 -0.482918
v 1.291849 0.283109 -0.455667
v 1.166609 0.084287 -0.475895
v -1.047845 0.016176 -0.447113
v 0.829398 -0.013198 -0.365672
v 0.808757 0.333784 -0.413518
v 0.533150 0.276936 0.666971
v 0.517111 0.187362 0.675461
v -0.517002 0.187396 0.675451
v 0.480444 0.097388 0.665278
v 0.584194 0.150497 0.573571
v -0.480412 0.097378 0.665278
v 0.445639 0.013273 0.602362
v -0.445637 0.013272 0.602361
v 0.383650 0.064552 0.702665
v -0.383597 0.064536 0.702718
v 0.294255 0.077566 0.713446
v -0.294127 0.077513 0.713628
v 0.203493 0.115412 0.707879
v -0.254784 0.013252 0.636619
v -0.203417 0.115315 0.708020
v -0.117059 0.150003 0.655415
v -0.171895 0.209958 0.729776
v 0.264060 0.252860 0.784178
v 0.187131 0.302230 0.729429
v 0.224163 0.392717 0.705901
v 0.116893 0.337223 0.655403
v -0.117116 0.337032 0.655228
v 0.332200 0.426346 0.695502
v 0.256087 0.470851 0.632330
v -0.256097 0.470843 0.632322
v -0.331304 0.426050 0.695539
v 0.393931 0.332632 0.753500
v -0.392868 0.332502 0.753544
v 0.492974 0.366925 0.663411
v 0.446952 0.470864 0.598066
v -0.446950 0.470863 0.598065
v -0.492611 0.367063 0.663420
v 0.584251 0.337526 0.573385
v -0.532907 0.277131 0.666963
v 0.444867 0.237563 0.754154
v 0.327177 0.158238 0.776918
v -0.326791 0.158089 0.777115
v 0.354515 0.246758 0.789751
v -0.353499 0.246446 0.789843
v -0.444401 0.237685 0.754170
v -0.139455 -0.936018 0.572608
v 0.147548 -0.917099 0.572224
v 0.264298 -0.499078 0.549092
v 0.191864 -0.287196 0.650681
v 0.220612 -0.562662 0.652410
v -0.207212 -0.535546 0.660933
v -0.263530 -0.511098 0.552993
v 0.197867 -0.161342 0.667694
v -0.305445 -0.049426 0.691450
v -0.390787 -0.126927 0.551688
v -0.213428 -0.153534 0.660042
v 0.687357 0.159197 0.555946
v -0.669668 0.108664 0.546285
v -0.639340 0.020302 0.493192
v 0.762434 0.284838 0.502264
v 0.670269 0.415374 0.643071
v 0.656305 0.288325 0.656079
v -0.636446 0.218308 0.643323
v -0.771069 0.287186 0.505255
v 0.534787 0.554828 0.633434
v 0.474861 0.507236 0.745172
v -0.567919 0.545790 0.625602
v -0.436758 0.528718 0.761087
v 0.131092 0.575897 0.735884
v 0.146396 0.484076 0.807904
v -0.145648 0.496502 0.814055
v -0.132708 0.576775 0.737846
v 0.307606 0.491239 0.779854
v -0.282123 0.513611 0.792444
v 0.432320 0.405285 0.727828
v 0.567791 0.365418 0.701286
v -0.577280 0.325482 0.688405
v 0.585304 0.252695 0.673776
v 0.354910 0.021577 0.685730
v 0.170905 0.007677 0.753873
v -0.293323 0.053449 0.708278
v 0.016709 -0.002094 0.767501
v -0.131974 -0.011184 0.750126
v 0.118016 0.326644 0.787949
v 0.215663 0.219239 0.758277
v -0.032102 0.235162 0.778760
v -0.022518 -0.911598 0.628390
v -0.168942 -0.879745 0.632805
v -0.180189 -0.750082 0.666768
v 0.174895 -0.793088 0.652054
v -0.051710 -0.538020 0.730947
v 0.024105 -0.113971 0.771190
v 0.000000 -0.166667 0.746908
v 0.000000 -0.190104 0.774251
v -0.029498 -0.148886 0.788020
v 0.024535 -0.152603 0.792292
v -0.016385 -0.142272 0.790040
v 0.058159 -0.349711 0.752703
v -0.026603 -0.200050 0.776089
v -0.041710 -0.030296 0.753679
v -0.104121 -0.182122 0.749195
v 0.004241 -0.816293 0.678701
v 0.052136 -0.791325 0.689126
v -0.004809 -0.774012 0.692404
v -0.087551 -0.807527 0.684312
v -0.209086 0.136299 0.743348
v 0.450220 0.036521 0.663948
v -0.301743 0.114247 0.743293
v -0.413189 0.066319 0.696142
v -0.416050 0.105834 0.717662
v -0.500254 0.167569 0.695898
v -0.541053 0.257166 0.684481
v 0.373719 0.413101 0.747156
v -0.477638 0.343499 0.717569
v -0.356219 0.413740 0.750122
v 0.302897 0.415119 0.763631
v 0.249017 0.347602 0.768721
v -0.280908 0.414911 0.764091
v 0.353633 0.390824 0.763215
v -0.348012 0.388622 0.760056
v 0.478001 0.345268 0.714253
v 0.561927 0.195881 0.672684
v 0.543499 0.257047 0.675943
v 0.519608 0.146126 0.686408
v 0.502145 0.165351 0.688099
v 0.416029 0.104769 0.715621
v 0.299661 0.113659 0.741983
v -0.160944 0.570212 0.618199
v -0.246414 0.655522 0.656198
v 0.404143 0.615389 0.582197
v 0.307995 0.609750 0.569414
v -0.308003 0.610303 0.569795
v -0.405427 0.616757 0.584442
v -0.581258 0.522384 0.391534
v -0.714261 0.417248 0.465822
v 0.709399 0.413208 0.463176
v -0.763956 0.269408 0.368239
v -0.628545 0.016066 0.413635
v -0.504489 -0.078776 0.486091
v 0.610744 0.016419 0.516444
v 0.137017 -0.480574 0.210007
v -0.106358 -0.491238 0.241960
v -0.000360 -0.708253 0.354036
v 0.139033 -0.690592 0.350397
v -0.131299 -0.683934 0.367772
v 0.125500 -0.872206 0.420634
v 0.003413 -0.945893 0.503527
v 0.260191 -0.849010 0.472293
v -0.190129 -0.864211 0.414995
v 0.273294 -0.628092 0.439147
v 0.236784 -0.656811 0.365180
v -0.245383 -0.710220 0.395529
v -0.277221 -0.643051 0.458599
v -0.347965 -0.173596 0.476904
v 0.183484 -0.153229 -0.558522
v -0.227037 -0.054325 -0.610972
v -0.021004 -0.211831 -0.514643
v -0.170119 -0.295678 -0.251900
v 0.000327 -0.406557 -0.020604
v 0.262463 -0.317230 -0.067385
v -0.260250 -0.326385 0.083281
v 0.756301 0.101984 0.247970
v -0.615720 -0.033253 0.241852
v -0.746754 0.111803 0.304655
v 0.069674 0.191350 -0.770369
v -0.219941 0.173064 -0.718413
v -0.150186 0.434499 -0.726365
v -0.233487 0.847387 0.116974
v 0.000954 0.900764 -0.157194
v 0.421046 0.847032 -0.152827
v 0.215235 0.831246 -0.408140
v -0.214990 0.812427 -0.411462
v -0.428494 0.844675 -0.159465
v 0.047206 0.673763 -0.633967
v 0.319715 0.662971 -0.582722
v -0.419501 0.632052 -0.533814
v -0.715128 0.478025 0.181063
v 0.741088 0.595284 -0.104188
v -0.746503 0.599854 -0.107006
v 0.735164 0.460958 -0.398856
v 0.529720 0.376653 -0.589895
v -0.654838 0.340298 -0.504722
v -0.772014 0.463917 -0.378848
v 0.610324 0.742592 -0.108591
v -0.617845 0.740559 -0.116919
v 0.628180 0.678280 0.103601
v 0.434963 0.678854 0.303656
v 0.582338 0.522232 0.393208
v -0.437227 0.678433 0.296301
v -0.000919 0.704606 0.369328
v 0.227705 0.577344 0.501480
v -0.229141 0.577642 0.500348
v 0.768785 0.252809 0.216853
v -0.762724 0.250655 0.212936
v 0.799185 0.209712 0.000074
v 0.793147 0.428916 -0.040935
v -0.798699 0.448977 -0.044154
v -0.801052 0.220350 -0.003567
v 0.796919 0.462308 -0.240700
v -0.807823 0.483724 -0.241731
v -0.872110 0.393714 -0.323438
v 0.390851 -0.235856 0.076429
v -0.422063 -0.182254 0.115147
v -0.321341 -0.256073 0.340679
v 0.687670 -0.015902 0.031096
v -0.524071 -0.152537 -0.152131
v -0.675079 -0.056457 0.004726
v 0.611683 -0.041188 0.175253
v 0.490475 -0.074562 0.431262
v 0.639224 0.188108 -0.492261
v -0.442435 0.140919 -0.595707
v -0.569106 -0.024572 -0.427222
v -0.783657 0.152246 -0.421823
v -0.366479 -0.159819 -0.390284
v -0.697519 -0.101100 -0.283540
v 0.398920 -0.097146 -0.473107
v 1.114856 0.432119 -0.369525
v -1.065593 0.399211 -0.327001
v -1.042279 0.419888 -0.317960
v 1.191721 0.379791 -0.409169
v 1.260141 0.291727 -0.435149
v -1.261783 0.296707 -0.441987
v -1.185693 0.377088 -0.404905
v -1.261824 0.394862 -0.436572
v 1.201788 0.155505 -0.424836
v -1.210088 0.086717 -0.441318
v -1.292399 0.223944 -0.470031
v -1.153908 0.002098 -0.413852
v 0.991498 -0.044360 -0.306359
v -0.839130 -0.088486 -0.246722
v 1.000645 0.033806 -0.355492
v 0.863265 -0.037866 -0.240598
v -0.941655 0.003976 -0.297629
v -1.075910 -0.002346 -0.364992
v 1.114655 0.041772 -0.394878
v -1.183471 0.186920 -0.433794
v 1.001974 0.343567 -0.332332
v -1.084587 0.312244 -0.382345
v -0.987038 0.319577 -0.320575
v 0.746075 0.041796 -0.034368
v 0.664795 -0.063048 -0.122493
v -0.759493 0.032371 -0.033481
v 0.676309 -0.099257 -0.187057
v 0.747054 -0.059782 -0.167480
v -0.933810 0.350672 -0.255041
v -0.835571 0.010501 -0.257778
v 0.775592 0.071252 -0.237231
v -0.789510 0.072096 -0.233426
v 0.780676 0.135418 -0.156707
v -0.796823 0.150503 -0.155972
v -0.835195 0.224572 -0.240084
v 0.903142 0.275238 -0.290174
v -0.895369 0.258821 -0.281298
v 0.840324 0.066047 -0.294634
v 1.090745 0.315954 -0.388745
v 1.158623 0.162013 -0.432261
v 0.924775 0.156648 -0.339825
v -0.970704 0.117733 -0.348975
v 1.013297 0.244834 -0.370292
v 0.957754 0.096835 -0.345127
v -1.088722 0.137328 -0.400120
v 1.080712 0.131347 -0.404132
v 1.114912 0.237940 -0.409432
v -1.119674 0.244846 -0.407808
v 0.819927 -0.078756 -0.286014
v 1.005516 0.019182 -0.415266
v -0.901201 -0.003339 -0.395354
v -1.019934 -0.054640 -0.386810
v 1.262382 0.172541 -0.484944
v 1.205144 0.448784 -0.447807
v 1.267388 0.354852 -0.487684
v 1.092491 0.436410 -0.405739
v -1.030643 0.414976 -0.371917
v 1.018582 0.342790 -0.443103
v -0.985331 0.336624 -0.431638
v 1.172654 0.227610 -0.500004
v 0.841677 0.132676 -0.407577
v -1.097873 0.180258 -0.485482
v 0.681635 -0.002161 -0.392784
v -0.584143 0.150461 0.573552
v 0.254774 0.013260 0.636626
v 0.116836 0.150194 0.655589
v 0.172090 0.210253 0.729719
v -0.263054 0.252408 0.784366
v -0.186355 0.301708 0.729382
v -0.223301 0.392313 0.705899
v -0.584200 0.337490 0.573366
v -0.519850 -0.033580 0.582160
v 0.577188 0.060550 0.610909
v -0.700485 0.394839 0.628948
v -0.498448 0.557753 0.712458
v 0.297814 0.603969 0.763763
v -0.272704 0.613097 0.778738
v -0.002927 0.476853 0.787531
v -0.155854 0.417372 0.795995
v -0.468676 0.438856 0.731686
v -0.544022 0.143253 0.669038
v 0.298194 -0.086014 0.680005
v -0.119392 0.311825 0.785521
v -0.144753 0.213993 0.760462
v 0.071393 0.130691 0.760658
v 0.115361 -0.566310 0.715506
v 0.111154 -0.212482 0.747902
v 0.000000 -0.164063 0.769531
v -0.072357 -0.351594 0.746701
v 0.032593 -0.238527 0.775045
v -0.048108 -0.109470 0.765483
v -0.187734 -0.285267 0.650753
v 0.045449 -0.838752 0.676193
v 0.018315 -0.698394 0.716222
v -0.488983 0.082173 0.680602
v -0.437777 0.387378 0.722019
v 0.242922 0.399656 0.770364
v -0.216238 0.379423 0.769302
v -0.241914 0.342100 0.765612
v 0.494021 0.108673 0.683856
v -0.216434 0.215794 0.760173
v -0.001108 0.526804 0.680972
v 0.244884 0.654238 0.654746
v 0.759604 0.255981 0.366568
v -0.179028 -0.926651 0.489539
v -0.281958 -0.855997 0.465137
v 0.295711 -0.319820 0.390200
v 0.398551 -0.106994 0.567300
v 0.257894 0.010426 -0.648453
v 0.139924 -0.297172 -0.323452
v -0.257838 -0.351451 0.451481
v 0.230799 0.847933 0.124279
v 0.716464 0.475647 0.185760
v 0.498528 0.540241 -0.555004
v -0.624697 0.531453 -0.483028
v 0.540593 0.720191 -0.360533
v -0.578889 0.716573 -0.343420
v -0.631679 0.677787 0.094693
v 0.159039 0.569982 0.618223
v 0.360999 0.216975 -0.673933
v 0.551386 -0.074559 -0.334219
v 0.425462 -0.183842 -0.250647
v 1.264421 0.390421 -0.437811
v -0.891907 -0.045152 -0.248905
v -0.738597 -0.063031 -0.134581
v 0.899155 0.337294 -0.258963
v 0.788872 -0.002532 -0.227705
v -0.849432 0.081078 -0.295626
v 0.826244 0.207962 -0.243329
v 0.918493 0.230825 -0.331403
v -0.905948 0.209571 -0.319177
v -0.980346 0.043700 -0.346410
v -1.010234 0.233191 -0.363707
v 1.154959 0.020078 -0.429522
v -1.162093 0.047374 -0.472407
v 1.251648 0.150676 -0.436032
v -1.275110 0.369032 -0.482869
v -1.187015 0.444790 -0.438665
v 0.939331 0.385946 -0.344332
v -1.243729 0.242328 -0.501749
v 0.842850 0.366317 -0.297281
v 0.501584 0.229746 0.704884
v -0.501356 0.229910 0.704879
v 0.436087 0.052621 0.662213
v -0.436074 0.052617 0.662221
v 0.334886 0.095026 0.737818
v -0.334747 0.094974 0.737978
v 0.158946 0.159298 0.703084
v 0.204432 0.259652 0.754279
v -0.203703 0.259185 0.754355
v -0.173537 0.345719 0.702017
v -0.268731 0.434737 0.685035
v 0.543644 0.328415 0.636210
v 0.316325 0.223026 0.794432
v -0.315445 0.222685 0.794618
v 0.394272 0.269707 0.778767
v -0.393342 0.269601 0.778812
v 0.293307 -0.126110 0.637969
v -0.407091 0.584779 0.756612
v -0.181646 0.481000 0.808788
v -0.406005 0.499349 0.763937
v 0.283350 -0.023418 0.708768
v 0.076109 0.045037 0.764966
v -0.124595 -0.918287 0.613866
v 0.184260 -0.648712 0.677684
v 0.000000 -0.174154 0.763224
v -0.028567 -0.145413 0.775849
v 0.070118 -0.249026 0.766846
v -0.018274 -0.247637 0.771260
v -0.003298 -0.047767 0.763498
v -0.068469 -0.045952 0.757826
v 0.026436 -0.764674 0.698615
v -0.026614 -0.797645 0.685940
v 0.511772 0.063050 0.653711
v -0.449971 0.075055 0.694052
v -0.513208 0.119118 0.678772
v -0.414433 0.386874 0.731172
v 0.265573 0.390886 0.765590
v -0.322681 0.415367 0.760237
v 0.567017 0.231472 0.672193
v 0.534912 0.167892 0.680966
v -0.322426 0.649930 0.607018
v 0.764228 0.315009 0.438929
v 0.093351 -0.772976 0.374038
v -0.080110 -0.622467 0.337216
v -0.227146 -0.909233 0.457339
v 0.276373 -0.729484 0.426359
v -0.284574 -0.744132 0.438420
v 0.172585 -0.604268 0.324171
v -0.412511 -0.127639 0.506523
v 0.106663 -0.226716 -0.496037
v 0.588170 0.463704 -0.528999
v 0.667023 0.687659 -0.033756
v -0.672030 0.686758 -0.041689
v 0.235653 0.568956 0.567252
v -0.236771 0.569382 0.567291
v -0.765171 0.205220 0.294922
v 0.788124 0.498290 -0.139210
v -0.794486 0.515362 -0.140524
v 0.804422 0.427620 -0.310517
v 0.361074 -0.253475 -0.089400
v 0.700422 0.014066 0.148297
v -0.298913 -0.246697 0.433696
v 0.509751 0.269046 -0.596548
v -0.297522 0.086953 -0.661819
v -1.250029 0.364817 -0.428699
v 1.245581 0.201082 -0.430266
v -0.813380 -0.072570 -0.205240
v 0.692656 -0.023032 -0.046801
v -0.722370 -0.035418 -0.047207
v 0.688155 -0.082875 -0.153521
v 0.781960 0.123206 -0.062624
v 0.792772 -0.038232 -0.201896
v -0.799081 0.147296 -0.214829
v -0.880965 0.279917 -0.255311
v -0.789902 0.129562 -0.063489
v 0.931087 0.282441 -0.315334
v 0.903742 0.104689 -0.327090
v 0.945780 0.208454 -0.348458
v 1.015763 0.084455 -0.373072
v -1.019169 0.093262 -0.369925
v 1.129483 0.182975 -0.422347
v 1.077907 0.272299 -0.392464
v -1.076645 0.272765 -0.388186
v 1.257200 0.414263 -0.461831
v 1.142532 0.454492 -0.407201
v -0.965887 0.391849 -0.376001
v -1.181577 0.158144 -0.499774
v 1.254889 0.256851 -0.504275
v -1.286973 0.286048 -0.490325
v 0.720082 0.098291 -0.424190
v 0.529161 0.143497 0.642854
v -0.529113 0.143481 0.642842
v 0.250099 0.067095 0.690774
v -0.250015 0.067052 0.690917
v -0.158970 0.159118 0.703115
v 0.174130 0.346144 0.702099
v 0.269459 0.435026 0.685011
v -0.415170 0.403703 0.686414
v -0.357278 -0.096909 0.623778
v -0.543437 0.328570 0.636203
v 0.232694 -0.449727 0.619622
v -0.228821 -0.450545 0.621082
v 0.718714 0.281870 0.589327
v 0.640914 0.073934 0.555259
v -0.626202 0.027479 0.536403
v -0.716896 0.244949 0.581677
v 0.505066 0.545151 0.709216
v 0.132273 0.539401 0.785177
v -0.601471 0.512894 0.664869
v -0.131470 0.540708 0.788341
v 0.194112 0.434304 0.793556
v 0.449859 0.453270 0.742519
v -0.584153 0.228305 0.671199
v -0.504834 0.386194 0.710857
v 0.612852 0.297450 0.679124
v 0.084026 0.225248 0.771913
v -0.244068 0.001066 0.720961
v -0.158712 0.368375 0.783891
v 0.095396 -0.881841 0.637816
v -0.100117 0.251613 0.776393
v -0.139492 -0.553179 0.704004
v -0.161646 -0.828316 0.661453
v 0.033181 -0.530745 0.735594
v -0.308378 0.089277 0.719209
v 0.023548 -0.148935 0.779706
v -0.003962 -0.146395 0.794611
v -0.046135 -0.168110 0.779486
v 0.156007 -0.200377 0.694012
v -0.157109 -0.194368 0.690543
v 0.037959 -0.817343 0.681985
v 0.415853 0.403780 0.686388
v -0.181873 0.187166 0.754481
v 0.378323 0.050474 0.690114
v 0.129647 0.581752 0.678736
v 0.425029 0.389454 0.728152
v -0.246454 0.385811 0.765342
v 0.340036 0.415211 0.759730
v 0.479897 0.123184 0.697328
v -0.131536 0.582081 0.679157
v 0.564037 0.528260 0.522871
v 0.322362 0.649016 0.605832
v -0.568023 0.528574 0.524524
v 0.153951 -0.923978 0.493535
v -0.771230 0.326238 0.442296
v -0.598831 -0.011854 0.467913
v -0.114712 -0.945910 0.522081
v -0.191770 -0.191333 -0.468734
v -0.188014 -0.755165 0.385914
v 0.268011 -0.492805 0.465103
v -0.265363 -0.507150 0.484333
v 0.513016 -0.051696 0.506395
v 0.285639 -0.084649 -0.573144
v 0.136012 -0.377272 -0.046473
v -0.138555 -0.383345 0.012465
v 0.224915 0.889349 -0.147010
v -0.671913 0.032047 0.332913
v 0.228808 0.135695 -0.718427
v -0.107468 0.261118 -0.764642
v -0.226629 0.886553 -0.152480
v -0.191060 0.646361 -0.606941
v 0.199790 0.726281 -0.577105
v 0.599702 0.596663 0.253941
v -0.692029 0.454300 -0.466281
v 0.457917 0.638976 -0.521284
v -0.558469 0.630629 -0.465064
v 0.545741 0.785106 -0.198241
v -0.556287 0.782834 -0.202815
v -0.600320 0.596335 0.247676
v 0.228023 0.705847 0.347031
v -0.230225 0.705692 0.342258
v 0.780551 0.338978 0.094934
v 0.767850 0.199277 0.291287
v -0.778926 0.346999 0.089898
v -0.557029 -0.109748 0.055832
v -0.818175 0.445464 -0.311116
v -0.334464 -0.255932 0.181088
v 0.441058 -0.157486 0.271637
v -0.613037 0.151502 -0.491430
v -0.533657 -0.126696 -0.316648
v -1.250251 0.191865 -0.450880
v 0.467578 -0.114168 -0.365672
v -1.013745 0.400382 -0.290401
v 1.250948 0.363585 -0.428113
v 0.992976 -0.014007 -0.319849
v -1.159988 0.021689 -0.411242
v 1.099535 0.378946 -0.370602
v -0.972967 -0.016443 -0.303809
v 1.169043 0.115954 -0.425801
v -1.086461 0.363666 -0.360289
v -0.925089 0.157730 -0.332740
v 0.791603 0.036402 -0.255134
v -0.806486 0.037344 -0.256901
v 0.785890 0.134419 -0.218978
v 0.877332 0.277129 -0.260622
v -0.919688 0.261791 -0.304977
v -0.913587 0.011552 -0.297899
v 0.996017 -0.047839 -0.352472
v -1.138307 0.192364 -0.419040
v -0.865222 -0.081321 -0.322202
v 1.015145 0.177345 -0.449459
v -1.124303 -0.017048 -0.428917
v 1.241146 0.103189 -0.456976
v -1.254845 0.418035 -0.459861
v -1.091110 0.437482 -0.378526
v 1.019311 0.406315 -0.401935
v -0.951717 0.167195 -0.438161
v 0.672094 -0.075339 -0.291692
v 0.892879 0.362437 -0.291786
vn 0.6669 0.1295 0.7338
vn 0.6267 -0.2534 0.7369
vn 0.7953 -0.0855 0.6001
vn -0.6262 -0.2512 0.7381
vn -0.6655 0.1312 0.7348
vn -0.7949 -0.0840 0.6009
vn 0.4562 -0.5367 0.7098
vn 0.2804 -0.7733 0.5687
vn 0.5677 -0.6307 0.5291
vn -0.2805 -0.7734 0.5685
vn -0.4565 -0.5362 0.7100
vn -0.5678 -0.6306 0.5291
vn 0.2332 -0.5138 0.8256
vn -0.2331 -0.5408 0.8082
vn -0.0289 -0.7479 0.6632
vn 0.2322 -0.5422 0.8076
vn -0.2348 -0.5137 0.8252
vn 0.0278 -0.7485 0.6626
vn -0.7128 -0.1808 0.6777
vn -0.5859 -0.4946 0.6420
vn -0.4885 -0.3462 0.8009
vn -0.4521 -0.1483 0.8795
vn -0.3997 0.3269 0.8564
vn -0.6649 0.1111 0.7387
vn 0.4026 0.3271 0.8549
vn 0.4553 -0.1506 0.8775
vn 0.6695 0.1087 0.7348
vn 0.4184 0.3839 0.8231
vn 0.6669 0.1999 0.7179
vn 0.5716 0.5058 0.6461
vn 0.1191 0.6194 0.7760
vn 0.3727 0.7126 0.5944
vn 0.0283 0.7994 0.6001
vn 0.8190 0.1602 0.5509
vn 0.6964 0.4500 0.5591
vn 0.6642 0.3232 0.6741
vn 0.2572 -0.2160 0.9419
vn -0.0440 0.2343 0.9712
vn -0.2556 -0.2423 0.9359
vn 0.2553 -0.2444 0.9355
vn 0.0433 0.2356 0.9709
vn -0.2589 -0.2140 0.9419
vn 0.3487 -0.1533 0.9246
vn 0.4992 0.2731 0.8223
vn 0.1114 0.3427 0.9328
vn -0.1099 0.3432 0.9328
vn -0.4959 0.2750 0.8237
vn -0.3484 -0.1515 0.9250
vn 0.4730 -0.6522 0.5924
vn 0.4402 -0.7268 0.5272
vn 0.4241 -0.6653 0.6145
vn -0.2585 0.3113 0.9145
vn -0.3416 0.7972 0.4978
vn -0.5085 0.2822 0.8135
vn -0.2760 -0.3288 0.9032
vn -0.1398 -0.2032 0.9691
vn -0.1686 -0.1073 0.9798
vn -0.2260 -0.2295 0.9467
vn -0.1539 -0.3629 0.9190
vn -0.2101 -0.1435 0.9671
vn 0.4035 -0.1619 0.9006
vn 0.4302 -0.2726 0.8606
vn 0.3533 -0.1497 0.9235
vn 0.0720 0.0032 0.9974
vn -0.0642 0.0777 0.9949
vn 0.0825 0.0831 0.9931
vn -0.0375 -0.8842 0.4657
vn -0.1015 -0.5788 0.8091
vn -0.5562 -0.7254 0.4056
vn 0.5148 -0.0370 0.8565
vn 0.3654 -0.1606 0.9169
vn 0.7124 -0.1424 0.6872
vn -1.0000 -0.0000 -0.0000
vn 0.6157 0.6444 0.4534
vn 0.5893 0.5623 0.5801
vn 0.0409 0.5104 0.8590
vn 0.3635 -0.1359 0.9216
vn 0.1056 -0.1725 0.9793
vn 0.4300 -0.1348 0.8927
vn -0.1087 -0.1456 0.9834
vn -0.0152 -0.0505 0.9986
vn -0.3500 -0.0754 0.9337
vn -0.4931 -0.2112 0.8440
vn -0.1514 0.0226 0.9882
vn -0.2125 -0.0384 0.9764
vn -0.0710 0.0946 0.9930
vn 0.3619 0.1088 0.9258
vn -0.0281 0.0530 0.9982
vn 0.0570 -0.2603 0.9638
vn -0.0542 -0.2849 0.9570
vn -0.0799 -0.4327 0.8980
vn 0.0275 -0.3183 0.9476
vn 0.0536 -0.2975 0.9532
vn 0.0068 -0.2506 0.9681
vn 0.4127 -0.4990 0.7620
vn 0.4777 -0.3771 0.7934
vn 0.3221 -0.4285 0.8442
vn -0.3626 -0.2763 0.8900
vn -0.2784 -0.5820 0.7640
vn -0.2137 -0.4791 0.8513
vn -0.4498 -0.1607 0.8785
vn -0.5423 -0.3435 0.7667
vn -0.4236 -0.2136 0.8803
vn -0.4133 0.4140 0.8111
vn -0.5849 0.4639 0.6654
vn -0.5157 0.6151 0.5964
vn 0.0049 -0.0310 0.9995
vn -0.1154 0.1659 0.9794
vn 0.1000 0.0448 0.9940
vn -0.1829 0.1163 0.9762
vn -0.2853 0.2704 0.9195
vn -0.0902 0.0779 0.9929
vn 0.0304 -0.1959 0.9802
vn 0.1617 -0.0038 0.9868
vn 0.2906 -0.1378 0.9469
vn 0.3977 -0.0863 0.9134
vn 0.2084 0.0839 0.9744
vn 0.2162 0.1111 0.9700
vn -0.2245 0.9741 -0.0287
vn 0.3166 0.7289 -0.6071
vn -0.0051 0.9020 -0.4317
vn 0.9717 -0.2345 0.0296
vn 0.9131 0.3809 -0.1455
vn 0.9110 0.4030 0.0873
vn 0.0361 -0.4672 -0.8834
vn 0.1556 -0.3664 -0.9174
vn -0.0118 -0.3841 -0.9232
vn -0.2560 -0.5393 -0.8022
vn -0.1572 -0.3183 -0.9348
vn -0.4794 -0.4354 -0.7620
vn 0.0063 -0.7661 -0.6427
vn -0.5873 -0.7539 0.2945
vn -0.4574 -0.4570 -0.7628
vn 0.9978 -0.0530 0.0410
vn 0.6291 -0.3185 -0.7090
vn 0.9083 -0.1326 -0.3968
vn -0.7081 -0.1517 -0.6897
vn -0.9952 0.0250 0.0942
vn -0.8831 0.0215 -0.4687
vn 0.2498 -0.3234 -0.9127
vn 0.1872 -0.5447 -0.8175
vn 0.3939 -0.4716 -0.7889
vn -0.6211 -0.7734 0.1270
vn -0.4677 -0.8664 0.1747
vn -0.5110 -0.8535 0.1022
vn 0.3400 -0.8288 -0.4445
vn 0.0119 -0.9093 -0.4159
vn 0.0424 -0.6895 -0.7231
vn 0.4589 0.2682 -0.8470
vn 0.5836 0.5297 -0.6155
vn 0.5772 0.3076 -0.7565
vn 0.5701 0.7983 0.1940
vn 0.8106 0.5410 0.2244
vn 0.7431 0.6557 -0.1334
vn -0.7957 0.5570 0.2378
vn -0.5679 0.7985 0.1997
vn -0.7384 0.6694 -0.0820
vn -0.1345 0.9908 -0.0166
vn -0.3881 0.6424 -0.6609
vn -0.2026 0.9551 -0.2162
vn 0.3919 0.6418 -0.6592
vn 0.1371 0.9904 -0.0169
vn 0.2053 0.9546 -0.2158
vn -0.9816 -0.1532 0.1141
vn -0.9613 0.2724 -0.0405
vn -0.9932 -0.1166 -0.0036
vn 0.9801 0.1922 0.0506
vn 0.8433 0.5143 -0.1561
vn 0.9220 0.3508 0.1638
vn -0.8330 0.5457 -0.0913
vn -0.9207 0.3748 0.1084
vn -0.8996 0.3917 0.1933
vn 0.7997 0.5101 -0.3166
vn 0.9238 0.3477 0.1601
vn 0.7880 0.4713 -0.3962
vn 0.4639 -0.8598 -0.2132
vn 0.5533 -0.8297 -0.0734
vn 0.6498 -0.7432 -0.1596
vn 0.6220 -0.7472 0.2342
vn 0.5350 -0.8339 0.1357
vn 0.8031 -0.5920 0.0676
vn -0.6613 -0.6920 0.2897
vn -0.9024 -0.3912 0.1805
vn -0.8347 -0.4651 0.2948
vn 0.4977 -0.3076 -0.8110
vn 0.4403 0.0073 -0.8978
vn 0.5371 -0.1204 -0.8349
vn -0.4641 -0.1313 -0.8760
vn -0.2407 -0.4085 -0.8804
vn -0.4695 -0.4590 -0.7542
vn -0.3946 -0.0559 0.9172
vn -0.5069 -0.0477 0.8607
vn -0.2682 -0.1825 0.9459
vn 0.1044 0.0305 0.9941
vn 0.2248 0.0675 0.9721
vn 0.5309 -0.0373 0.8466
vn -0.6014 -0.0655 0.7962
vn -0.4857 -0.5577 0.6731
vn -0.3913 -0.7574 0.5227
vn 0.5133 -0.8389 0.1811
vn 0.7398 -0.6641 0.1077
vn 0.7666 -0.6289 0.1297
vn -0.5583 -0.7769 0.2912
vn -0.7533 -0.6085 0.2496
vn -0.8351 -0.4757 0.2763
vn 0.2606 -0.7614 0.5935
vn 0.4769 -0.1890 0.8584
vn 0.3733 -0.7792 0.5035
vn 0.9508 -0.3078 0.0344
vn 0.9332 -0.3592 -0.0109
vn 0.9696 -0.2446 0.0014
vn 0.5028 0.1649 0.8485
vn 0.3905 0.5538 0.7354
vn 0.6861 0.2262 0.6915
vn -0.9368 -0.3166 0.1486
vn -0.8541 -0.2357 0.4637
vn -0.9964 -0.0849 -0.0081
vn -0.5880 -0.3748 0.7168
vn -0.5599 -0.4358 0.7047
vn -0.6583 -0.3631 0.6594
vn -0.9634 -0.2339 0.1312
vn -0.9580 -0.2697 0.0970
vn -0.9767 -0.1557 0.1475
vn 0.6746 -0.3633 0.6426
vn 0.5070 -0.3690 0.7790
vn 0.5621 -0.3508 0.7490
vn 0.3153 0.2829 0.9058
vn 0.3187 0.0921 0.9434
vn 0.4524 0.0230 0.8915
vn 0.4719 -0.0599 0.8796
vn 0.3240 0.0017 0.9461
vn 0.3957 -0.1749 0.9016
vn 0.3948 0.1295 0.9096
vn 0.4381 -0.0244 0.8986
vn 0.4465 0.1590 0.8805
vn -0.4004 -0.0201 0.9161
vn -0.3633 0.1102 0.9251
vn -0.4137 0.0853 0.9064
vn 0.4116 -0.0870 0.9072
vn 0.3307 0.0252 0.9434
vn 0.2778 -0.1264 0.9523
vn 0.3796 -0.1778 0.9079
vn 0.3573 -0.0325 0.9334
vn 0.3017 -0.1560 0.9406
vn -0.3412 -0.1715 0.9242
vn -0.3775 -0.0451 0.9249
vn -0.4204 -0.1860 0.8881
vn 0.9612 0.2483 -0.1199
vn 0.1203 0.4544 -0.8826
vn 0.5897 0.6749 0.4436
vn 0.3481 0.7508 0.5613
vn -0.3219 0.6756 -0.6633
vn -0.2413 0.9350 0.2598
vn 0.0801 0.9824 0.1688
vn 0.1495 0.8013 -0.5792
vn 0.3234 0.6848 -0.6531
vn -0.2556 -0.2477 -0.9345
vn 0.1339 0.0554 -0.9894
vn 0.1846 -0.1842 -0.9654
vn -0.0429 0.1279 -0.9909
vn 0.8036 -0.0310 -0.5943
vn 0.0500 -0.1869 -0.9811
vn -0.4747 -0.2157 -0.8533
vn -0.9413 0.0832 -0.3272
vn -0.0643 0.1315 -0.9892
vn 0.3621 -0.0943 -0.9274
vn 0.1786 -0.3143 -0.9324
vn 0.4367 -0.3385 -0.8335
vn 0.7925 -0.1738 0.5846
vn 0.6361 -0.3377 0.6938
vn 0.7101 -0.4450 0.5457
vn -0.7102 -0.4447 0.5458
vn -0.6359 -0.3370 0.6943
vn -0.7924 -0.1733 0.5849
vn -0.0971 -0.7380 0.6677
vn -0.2795 -0.5551 0.7834
vn -0.3923 -0.6505 0.6503
vn 0.3936 -0.6517 0.6484
vn 0.2803 -0.5565 0.7821
vn 0.0974 -0.7391 0.6665
vn 0.7162 -0.1809 0.6740
vn 0.4911 -0.3472 0.7989
vn 0.5883 -0.4950 0.6394
vn -0.4154 0.3844 0.8245
vn -0.5675 0.5059 0.6496
vn -0.6616 0.2006 0.7225
vn -0.1183 0.6199 0.7757
vn -0.0284 0.8008 0.5983
vn -0.3712 0.7124 0.5956
vn -0.2616 0.7209 0.6418
vn -0.4923 0.6085 0.6225
vn -0.4719 0.5112 0.7183
vn -0.1803 0.6013 0.7784
vn -0.4723 -0.6274 0.6191
vn -0.4258 -0.5847 0.6905
vn -0.4070 -0.5668 0.7163
vn -0.4303 -0.7560 0.4933
vn -0.8185 0.1600 0.5518
vn -0.6629 0.3236 0.6752
vn -0.6958 0.4498 0.5599
vn 0.8290 0.0154 0.5590
vn 0.7586 0.0832 0.6463
vn 0.9141 0.0293 0.4045
vn -0.8822 0.0398 0.4693
vn -0.7673 0.0856 0.6355
vn -0.8465 0.0549 0.5295
vn 0.6663 -0.3503 0.6583
vn 0.8645 -0.3722 0.3379
vn 0.8878 0.1622 0.4307
vn 0.7058 -0.0050 0.7084
vn 0.5950 -0.6262 0.5039
vn 0.8084 -0.5134 0.2879
vn 0.6575 -0.3680 0.6575
vn -0.5858 -0.4464 0.6764
vn -0.8054 -0.4829 0.3437
vn -0.6018 -0.7001 0.3843
vn -0.6140 -0.4105 0.6741
vn -0.5963 -0.1521 0.7883
vn -0.8757 0.0199 0.4824
vn -0.8358 -0.3847 0.3917
vn 0.5546 0.3313 0.7633
vn 0.6624 0.6671 0.3409
vn 0.3944 0.8242 0.4064
vn 0.3369 0.4585 0.8224
vn -0.0643 0.4153 0.9074
vn -0.2265 0.8144 0.5343
vn -0.3232 0.7430 0.5861
vn -0.1428 0.2581 0.9555
vn -0.4639 0.8486 0.2542
vn -0.7239 0.6413 0.2544
vn -0.5339 0.2477 0.8085
vn 0.1404 0.4240 0.8947
vn 0.2099 0.2484 0.9456
vn 0.3480 0.7389 0.5771
vn 0.3350 0.8616 0.3815
vn 0.1142 -0.1452 0.9828
vn 0.2326 -0.1672 0.9581
vn 0.2706 -0.2864 0.9191
vn 0.1757 -0.1341 0.9753
vn 0.1432 -0.3521 0.9249
vn 0.0991 -0.2957 0.9501
vn 0.2506 -0.1325 0.9590
vn 0.2141 -0.1446 0.9660
vn -0.1820 -0.1523 0.9714
vn -0.3881 -0.1670 0.9064
vn -0.4729 -0.2983 0.8291
vn -0.3132 -0.1196 0.9421
vn -0.2021 -0.1743 0.9637
vn -0.1649 -0.1572 0.9737
vn -0.1526 -0.2701 0.9507
vn 0.3400 -0.2237 0.9134
vn 0.3619 -0.1261 0.9237
vn 0.0824 -0.2242 0.9711
vn -0.0084 -0.1788 0.9839
vn 0.0764 -0.0978 0.9923
vn 0.1382 -0.1450 0.9797
vn 0.0644 -0.2039 0.9769
vn -0.3138 -0.0326 0.9489
vn -0.2287 0.0583 0.9718
vn -0.2854 -0.1219 0.9506
vn -0.1725 -0.1561 0.9726
vn -0.2774 -0.2169 0.9359
vn -0.2273 -0.0931 0.9694
vn 0.1598 -0.8107 0.5632
vn 0.5788 -0.5278 0.6216
vn 0.3001 -0.3906 0.8703
vn 0.0606 -0.5865 0.8077
vn -0.1232 -0.1868 0.9746
vn -0.0999 -0.1997 0.9747
vn -0.1738 -0.2018 0.9639
vn -0.4863 -0.0503 0.8724
vn -0.6462 -0.0607 0.7608
vn -0.2962 -0.1077 0.9490
vn -0.2248 -0.1067 0.9685
vn -0.1594 -0.4479 0.8798
vn -0.2787 -0.1602 0.9469
vn -0.6191 -0.2488 0.7449
vn -0.0630 -0.1185 0.9910
vn 0.1745 -0.1229 0.9770
vn 0.3004 -0.0838 0.9501
vn 0.0035 -0.1168 0.9932
vn -0.1099 -0.2906 0.9505
vn 0.1377 -0.5807 0.8024
vn 0.0008 -0.7023 0.7119
vn -0.1439 -0.5939 0.7916
vn -0.6758 0.6020 0.4254
vn -0.1416 0.4733 0.8694
vn -0.7581 0.3465 0.5525
vn 0.2419 -0.1890 -0.9517
vn -0.0676 -0.4605 -0.8851
vn 0.0755 -0.0476 -0.9960
vn -0.3561 -0.1581 0.9210
vn 0.0787 -0.2471 0.9658
vn -0.3698 -0.1288 0.9201
vn 0.7582 -0.1227 0.6404
vn 0.7102 -0.1149 0.6945
vn 0.7735 0.0111 0.6337
vn -0.7547 -0.0142 0.6559
vn -0.6504 -0.2507 0.7170
vn -0.7594 -0.1920 0.6216
vn 0.0323 -0.2672 0.9631
vn -0.1341 -0.1517 0.9793
vn -0.0650 -0.2278 0.9715
vn 0.2628 0.7224 0.6396
vn 0.1828 0.6016 0.7776
vn 0.4753 0.5103 0.7167
vn 0.4938 0.6089 0.6208
vn 0.1088 -0.1962 0.9745
vn -0.0793 -0.1514 0.9853
vn -0.0061 -0.0847 0.9964
vn -0.0052 -0.5236 0.8520
vn 0.2667 -0.4992 0.8244
vn 0.1062 -0.5970 0.7951
vn -0.5205 0.7255 -0.4503
vn -0.2814 0.9578 -0.0592
vn -0.3921 0.9107 0.1298
vn -0.3528 0.8698 0.3451
vn 0.3234 0.0969 0.9413
vn 0.5285 0.4693 0.7075
vn 0.5033 0.1925 0.8424
vn -0.0716 -0.0493 0.9962
vn -0.0855 -0.0095 0.9963
vn 0.0157 0.0293 0.9994
vn 0.2269 0.2207 0.9486
vn 0.1020 0.1963 0.9752
vn 0.3499 0.3193 0.8807
vn 0.4518 -0.3641 0.8144
vn 0.2526 0.0499 0.9663
vn 0.3198 -0.6300 0.7077
vn 0.3981 0.9092 0.1223
vn 0.2838 0.9569 -0.0609
vn 0.5245 0.7246 -0.4470
vn 0.3629 0.8700 0.3337
vn 0.3700 0.9229 -0.1060
vn 0.4202 0.9074 0.0012
vn 0.6119 0.7904 -0.0299
vn 0.6598 0.7510 -0.0279
vn 0.2649 0.9620 0.0665
vn 0.0050 0.9006 -0.4346
vn -0.3155 0.7255 -0.6116
vn -0.3662 0.9231 -0.1178
vn -0.6402 0.7656 -0.0627
vn -0.5997 0.7951 -0.0904
vn -0.4132 0.9083 -0.0650
vn 0.0442 -0.7781 -0.6266
vn 0.3666 -0.6529 -0.6627
vn 0.6730 -0.6774 0.2970
vn 0.1668 -0.9840 0.0625
vn -0.9850 -0.1701 -0.0291
vn -0.9090 0.4134 0.0539
vn -0.8839 0.4254 -0.1943
vn -0.6015 -0.7987 -0.0155
vn -0.5899 -0.8062 0.0456
vn -0.7323 -0.6781 -0.0633
vn -0.0412 -0.8132 -0.5806
vn -0.0275 -0.9960 0.0855
vn -0.5490 -0.8185 0.1692
vn -0.2308 -0.8813 -0.4123
vn -0.3847 -0.8700 -0.3083
vn -0.3799 -0.7180 -0.5833
vn -0.2087 -0.6942 -0.6888
vn -0.1919 -0.1850 -0.9638
vn 0.0056 -0.2551 -0.9669
vn -0.2825 -0.2194 -0.9338
vn 0.9911 -0.0772 0.1088
vn 0.9981 0.0201 0.0581
vn 0.9867 -0.0929 -0.1335
vn -0.9654 0.0580 -0.2542
vn -0.9959 0.0482 0.0771
vn -0.9995 0.0250 -0.0167
vn 0.5989 -0.7697 0.2212
vn 0.6119 -0.7907 -0.0193
vn 0.5322 -0.7949 0.2915
vn 0.4882 -0.5120 -0.7068
vn 0.4008 -0.7597 -0.5121
vn 0.2254 -0.5459 -0.8070
vn 0.4361 -0.8477 -0.3020
vn 0.2164 -0.8850 -0.4123
vn 0.1182 -0.9501 -0.2887
vn 0.3781 -0.8912 -0.2507
vn -0.2206 -0.9329 -0.2847
vn -0.2759 -0.8764 -0.3948
vn -0.5093 -0.7943 -0.3313
vn -0.4576 -0.8659 -0.2024
vn 0.2271 0.9435 -0.2414
vn 0.0417 0.9715 -0.2335
vn 0.0480 0.9881 0.1462
vn 0.2149 0.9659 0.1444
vn -0.7059 -0.6956 0.1338
vn -0.5869 -0.7888 0.1827
vn -0.7296 -0.6462 0.2237
vn 0.3181 -0.0542 -0.9465
vn 0.4829 -0.3406 -0.8067
vn 0.1843 -0.4101 -0.8932
vn -0.3502 0.0650 -0.9344
vn -0.0186 0.1618 -0.9867
vn -0.1500 -0.3004 -0.9419
vn -0.0587 0.9881 0.1422
vn -0.0825 0.9610 -0.2638
vn -0.1971 0.9374 -0.2870
vn -0.2134 0.9667 0.1411
vn -0.1407 0.7573 -0.6378
vn -0.0852 0.4193 -0.9038
vn -0.3244 0.3954 -0.8593
vn -0.2495 0.7212 -0.6462
vn 0.0092 0.8170 -0.5766
vn 0.3127 0.7705 -0.5555
vn 0.1797 0.4923 -0.8517
vn 0.7558 0.5424 0.3669
vn 0.7709 0.4973 0.3980
vn 0.4986 0.7221 0.4795
vn 0.4936 0.7325 0.4688
vn -0.5089 0.1759 -0.8427
vn -0.5757 0.2478 -0.7792
vn -0.6394 0.5176 -0.5686
vn 0.4040 0.4031 -0.8212
vn 0.3973 0.7124 -0.5784
vn 0.6185 0.5056 -0.6016
vn -0.6390 0.5577 -0.5298
vn -0.3494 0.7123 -0.6087
vn -0.3945 0.3829 -0.8354
vn 0.3881 0.8689 -0.3072
vn 0.4675 0.8805 0.0785
vn 0.6750 0.6947 -0.2486
vn -0.6738 0.7136 -0.1915
vn -0.4651 0.8811 0.0862
vn -0.3641 0.8771 -0.3132
vn -0.4967 0.7252 0.4768
vn -0.7615 0.4977 0.4152
vn -0.7547 0.5450 0.3652
vn -0.4954 0.7374 0.4591
vn 0.0519 0.8399 0.5403
vn 0.0644 0.7722 0.6321
vn 0.1461 0.8096 0.5685
vn 0.2356 0.8267 0.5110
vn -0.0668 0.8408 0.5373
vn -0.2437 0.8287 0.5039
vn -0.1484 0.8181 0.5555
vn -0.0711 0.7754 0.6275
vn 0.9298 0.2597 0.2610
vn 0.9439 0.2515 0.2140
vn 0.9887 -0.0359 0.1458
vn 0.9851 0.0575 0.1622
vn 0.9413 -0.2184 0.2573
vn 0.9962 -0.0728 0.0468
vn 0.9646 0.2581 0.0537
vn -0.9799 -0.0768 0.1842
vn -0.9472 0.2296 0.2237
vn -0.9171 0.2534 0.3076
vn -0.9555 0.0611 0.2886
vn -0.3697 -0.9074 0.1999
vn -0.4526 -0.8886 0.0739
vn -0.5397 -0.8285 0.1494
vn -0.6185 -0.7518 0.2284
vn -0.8034 0.5226 -0.2853
vn -0.6627 0.5176 -0.5413
vn -0.8405 0.5374 0.0693
vn -0.6674 -0.7444 -0.0222
vn -0.8600 -0.5060 -0.0659
vn -0.6907 -0.7194 0.0730
vn 0.8056 -0.5860 0.0875
vn 0.6270 -0.7703 0.1163
vn 0.6282 -0.7520 0.1994
vn 0.7278 -0.6252 0.2819
vn -0.4991 -0.1416 -0.8549
vn -0.4813 -0.4167 -0.7712
vn -0.3280 -0.3715 -0.8685
vn -0.4442 -0.0887 -0.8915
vn -0.2387 -0.7523 -0.6140
vn -0.3840 -0.7298 -0.5656
vn -0.3493 -0.9147 -0.2032
vn -0.2276 -0.9705 -0.0795
vn -0.6173 -0.2117 0.7577
vn -0.3187 0.0135 0.9478
vn -0.2425 -0.1010 0.9649
vn -0.4925 -0.1248 0.8613
vn 0.4879 -0.7921 -0.3669
vn 0.5727 -0.6284 -0.5264
vn 0.5535 -0.8040 -0.2174
vn -0.5017 0.1974 0.8422
vn -0.5469 -0.3754 0.7483
vn -0.5042 -0.0052 0.8636
vn 0.3586 0.0576 0.9317
vn 0.2008 -0.1304 0.9709
vn 0.5564 -0.0017 0.8309
vn 0.3514 0.5458 0.7607
vn 0.4520 0.2481 0.8568
vn 0.2173 0.5311 0.8190
vn 0.2527 0.4948 0.8315
vn -0.3622 0.2287 0.9036
vn -0.7187 -0.2690 0.6412
vn -0.5308 -0.1539 0.8334
vn 0.4179 -0.0723 0.9056
vn 0.4536 -0.2149 0.8649
vn 0.4253 -0.3434 0.8374
vn 0.3274 -0.2242 0.9179
vn -0.5567 0.2284 0.7987
vn -0.4398 0.2931 0.8489
vn -0.5394 -0.0374 0.8412
vn -0.1666 0.0199 0.9858
vn 0.0959 0.2634 0.9599
vn -0.1569 0.3622 0.9188
vn -0.4967 -0.2403 0.8340
vn -0.3768 -0.2804 0.8828
vn -0.4700 -0.3955 0.7891
vn -0.5289 -0.4644 0.7103
vn -0.4130 -0.1222 0.9025
vn -0.3642 -0.0059 0.9313
vn -0.3764 0.0957 0.9215
vn -0.5005 -0.0619 0.8635
vn 0.6628 -0.0137 0.7487
vn 0.8114 0.2161 0.5431
vn 0.4149 0.4567 0.7869
vn -0.4397 0.3559 0.8246
vn -0.8016 0.4391 0.4057
vn -0.7224 -0.0392 0.6903
vn 0.9260 -0.2822 0.2507
vn 0.9418 -0.2894 0.1712
vn 0.8082 -0.2763 0.5201
vn 0.7341 -0.3430 0.5860
vn 0.6971 -0.3687 0.6149
vn 0.6227 -0.3193 0.7144
vn -0.6633 -0.3615 0.6553
vn -0.6018 -0.5115 0.6134
vn -0.5286 -0.3800 0.7591
vn -0.1803 0.6879 0.7031
vn -0.1505 0.9581 0.2438
vn -0.3934 0.4399 0.8073
vn -0.0959 -0.7222 -0.6850
vn -0.0699 -0.6313 -0.7724
vn 0.5245 -0.8060 0.2744
vn 0.2000 -0.9793 0.0305
vn -0.3937 -0.0477 0.9180
vn -0.3026 -0.0923 0.9486
vn -0.3058 0.0608 0.9501
vn -0.2073 -0.9778 0.0313
vn 0.2052 -0.6032 -0.7708
vn 0.0646 -0.6900 -0.7209
vn -0.0981 -0.9945 -0.0365
vn -0.1815 -0.0135 -0.9833
vn -0.2981 0.0715 -0.9519
vn -0.2695 -0.1693 -0.9480
vn -0.2001 -0.2243 -0.9538
vn 0.0636 -0.5880 -0.8064
vn -0.4131 -0.8948 0.1694
vn -0.5623 -0.6904 -0.4552
vn 0.7087 -0.4998 0.4979
vn 0.3317 -0.5199 -0.7872
vn 0.9585 -0.2708 0.0893
vn -0.9199 0.3894 0.0468
vn -0.4836 0.7439 0.4613
vn -0.0316 0.5309 -0.8469
vn -0.1272 0.9302 0.3444
vn 0.3540 0.9352 -0.0088
vn 0.3955 0.6715 -0.6266
vn -0.2762 0.9562 0.0968
vn -0.3478 0.5713 -0.7434
vn -0.2456 0.8004 -0.5468
vn 0.1238 0.0828 -0.9888
vn 0.0932 -0.2350 -0.9675
vn 0.3037 -0.1375 -0.9428
vn 0.3094 0.1028 -0.9454
vn 0.0285 -0.7944 -0.6067
vn 0.0466 -0.9894 -0.1374
vn 0.0475 -0.9777 -0.2044
vn 0.1937 -0.8036 -0.5627
vn 0.0991 0.8579 0.5042
vn -0.1513 0.8878 0.4347
vn -0.2310 0.9705 -0.0688
vt 0.853689 0.570721
vt 0.845525 0.592726
vt 0.826238 0.576148
vt 0.826042 0.554510
vt 0.831943 0.615846
vt 0.808100 0.578040
vt 0.845525 0.592726
vt 0.781448 0.527061
vt 0.826042 0.554511
vt 0.862339 0.899708
vt 0.885421 0.886116
vt 0.902064 0.905418
vt 0.900189 0.923557
vt 0.907416 0.877950
vt 0.923702 0.905615
vt 0.885421 0.886115
vt 0.951175 0.950206
vt 0.900189 0.923557
vt 0.923702 0.905615
vt 0.809739 0.651556
vt 0.788491 0.641734
vt 0.789851 0.614803
vt 0.781649 0.696591
vt 0.764095 0.654259
vt 0.809739 0.651556
vt 0.746541 0.611927
vt 0.764095 0.654259
vt 0.781649 0.950010
vt 0.826673 0.921927
vt 0.836504 0.943169
vt 0.823982 0.967564
vt 0.863433 0.941807
vt 0.866314 0.985118
vt 0.863433 0.941807
vt 0.852134 0.634775
vt 0.831492 0.652420
vt 0.809739 0.651556
vt 0.870693 0.653773
vt 0.832648 0.671005
vt 0.852134 0.634775
vt 0.832649 0.671005
vt 0.824367 0.860988
vt 0.843366 0.879532
vt 0.825786 0.900187
vt 0.807204 0.899036
vt 0.826672 0.921927
vt 0.843366 0.879532
vt 0.807204 0.899036
vt 0.826672 0.921927
vt 0.951265 0.696878
vt 0.908790 0.714289
vt 0.896224 0.690251
vt 0.905957 0.669292
vt 0.866314 0.731700
vt 0.869261 0.689269
vt 0.908790 0.714289
vt 0.905957 0.669292
vt 0.869261 0.689269
vt 0.886313 0.629644
vt 0.906178 0.646868
vt 0.905957 0.669292
vt 0.900125 0.604966
vt 0.924521 0.644731
vt 0.872881 0.831432
vt 0.848317 0.845303
vt 0.831139 0.825444
vt 0.833253 0.807074
vt 0.808850 0.825706
vt 0.848317 0.845303
vt 0.781356 0.780387
vt 0.833253 0.807074
vt 0.808850 0.825706
vt 0.841850 0.787194
vt 0.870223 0.788935
vt 0.823835 0.762980
vt 0.866314 0.745572
vt 0.870223 0.788935
vt 0.870223 0.788935
vt 0.897646 0.787863
vt 0.912570 0.810504
vt 0.908660 0.763113
vt 0.951006 0.780653
vt 0.912570 0.810504
vt 0.823881 0.509608
vt 0.836259 0.534393
vt 0.866314 0.492154
vt 0.862171 0.539198
vt 0.853689 0.570721
vt 0.826042 0.554511
vt 0.866213 0.610674
vt 0.868659 0.622407
vt 0.886313 0.629644
vt 0.866213 0.610674
vt 0.852134 0.634775
vt 0.886313 0.629644
vt 0.855600 0.862964
vt 0.843366 0.879532
vt 0.867303 0.865385
vt 0.848317 0.845303
vt 0.867303 0.865385
vt 0.863324 0.598869
vt 0.876726 0.582840
vt 0.845525 0.592726
vt 0.876726 0.582840
vt 0.895142 0.854868
vt 0.879147 0.868280
vt 0.867303 0.865385
vt 0.907416 0.877950
vt 0.885421 0.886115
vt 0.895142 0.854868
vt 0.867303 0.865385
vt 0.593088 0.166762
vt 0.611888 0.205152
vt 0.582496 0.199860
vt 0.560445 0.185065
vt 0.620557 0.237894
vt 0.576784 0.217229
vt 0.611888 0.205152
vt 0.516522 0.196042
vt 0.560445 0.185065
vt 0.576784 0.217229
vt 0.417884 0.359386
vt 0.415505 0.372354
vt 0.389770 0.359625
vt 0.387711 0.346974
vt 0.396550 0.382743
vt 0.373292 0.352897
vt 0.415505 0.372354
vt 0.361777 0.320887
vt 0.373292 0.352897
vt 0.417119 0.328112
vt 0.451550 0.336772
vt 0.443401 0.348045
vt 0.418221 0.346220
vt 0.495513 0.339441
vt 0.453262 0.357822
vt 0.417884 0.359386
vt 0.418221 0.346220
vt 0.453262 0.357822
vt 0.387150 0.326276
vt 0.394745 0.339819
vt 0.387711 0.346974
vt 0.418221 0.346220
vt 0.418221 0.346220
vt 0.576784 0.217229
vt 0.574089 0.238311
vt 0.546428 0.242628
vt 0.593344 0.255558
vt 0.573207 0.285679
vt 0.546428 0.242628
vt 0.522899 0.274317
vt 0.520915 0.249740
vt 0.470822 0.263762
vt 0.501371 0.233709
vt 0.522899 0.274317
vt 0.546428 0.242628
vt 0.500360 0.060235
vt 0.498088 0.069723
vt 0.489487 0.068561
vt 0.487708 0.062205
vt 0.493972 0.079094
vt 0.484949 0.074760
vt 0.498088 0.069723
vt 0.468020 0.077747
vt 0.487708 0.062205
vt 0.484949 0.074760
vt 0.528302 0.154373
vt 0.515860 0.121764
vt 0.522043 0.109614
vt 0.533777 0.121448
vt 0.507359 0.086406
vt 0.517309 0.087012
vt 0.515860 0.121764
vt 0.537065 0.083882
vt 0.533777 0.121448
vt 0.500000 0.192167
vt 0.500000 0.198017
vt 0.500000 0.197771
vt 0.500000 0.194723
vt 0.500000 0.203867
vt 0.500000 0.200573
vt 0.500000 0.197278
vt 0.493538 0.198834
vt 0.490590 0.195144
vt 0.500000 0.203867
vt 0.489115 0.206549
vt 0.481180 0.198122
vt 0.489115 0.206549
vt 0.506418 0.176345
vt 0.514786 0.173746
vt 0.527137 0.178251
vt 0.499921 0.155847
vt 0.511907 0.156720
vt 0.527137 0.178251
vt 0.511907 0.156720
vt 0.499921 0.155847
vt 0.496077 0.174917
vt 0.488156 0.157323
vt 0.493711 0.183192
vt 0.506418 0.176345
vt 0.473676 0.165735
vt 0.493711 0.183192
vt 0.503554 0.205792
vt 0.495756 0.222101
vt 0.486964 0.227450
vt 0.501371 0.233709
vt 0.503554 0.205792
vt 0.486964 0.227450
vt 0.489115 0.206549
vt 0.482262 0.222338
vt 0.467564 0.231491
vt 0.486964 0.227450
vt 0.489115 0.206549
vt 0.467564 0.231491
vt 0.501407 0.099480
vt 0.501364 0.089167
vt 0.506481 0.085651
vt 0.492429 0.096150
vt 0.498414 0.087667
vt 0.501407 0.099480
vt 0.505602 0.084897
vt 0.498414 0.087667
vt 0.499787 0.081996
vt 0.496384 0.084933
vt 0.491295 0.084180
vt 0.498414 0.087667
vt 0.499787 0.081996
vt 0.630967 0.259841
vt 0.616426 0.265113
vt 0.608993 0.262127
vt 0.624793 0.281044
vt 0.608750 0.275936
vt 0.630968 0.259841
vt 0.589867 0.280038
vt 0.608993 0.262127
vt 0.608750 0.275936
vt 0.401591 0.282882
vt 0.393272 0.273550
vt 0.398597 0.274148
vt 0.405862 0.281440
vt 0.384796 0.260265
vt 0.403088 0.271181
vt 0.393272 0.273550
vt 0.410133 0.279998
vt 0.403088 0.271181
vt 0.393884 0.291547
vt 0.385739 0.280099
vt 0.391813 0.278459
vt 0.397738 0.287215
vt 0.385739 0.280099
vt 0.397738 0.287215
vt 0.393272 0.273550
vt 0.398902 0.314785
vt 0.403553 0.313085
vt 0.409510 0.317372
vt 0.391378 0.299704
vt 0.397462 0.304592
vt 0.398902 0.314785
vt 0.403546 0.309479
vt 0.409510 0.317372
vt 0.397462 0.304592
vt 0.572673 0.304545
vt 0.578803 0.308563
vt 0.581030 0.315838
vt 0.575703 0.321502
vt 0.584933 0.312581
vt 0.585911 0.317934
vt 0.578803 0.308563
vt 0.588299 0.324910
vt 0.575703 0.321502
vt 0.585911 0.317934
vt 0.412598 0.317074
vt 0.417102 0.318770
vt 0.409807 0.311102
vt 0.409510 0.317372
vt 0.416067 0.312724
vt 0.417102 0.318770
vt 0.610225 0.300107
vt 0.608605 0.295662
vt 0.613498 0.291169
vt 0.619251 0.293447
vt 0.606985 0.291216
vt 0.612911 0.287109
vt 0.608605 0.295661
vt 0.608815 0.285180
vt 0.608255 0.282491
vt 0.602630 0.287150
vt 0.598275 0.283083
vt 0.608255 0.282491
vt 0.602630 0.287150
vt 0.406932 0.405940
vt 0.377816 0.400864
vt 0.359446 0.383737
vt 0.396224 0.423172
vt 0.365005 0.406063
vt 0.406932 0.405940
vt 0.333786 0.388954
vt 0.365005 0.406063
vt 0.689655 0.251684
vt 0.718446 0.281887
vt 0.706592 0.297087
vt 0.686536 0.292866
vt 0.743894 0.312859
vt 0.713892 0.315730
vt 0.683890 0.318600
vt 0.686536 0.292866
vt 0.619337 0.027004
vt 0.577337 0.046811
vt 0.558801 0.039587
vt 0.569731 0.028414
vt 0.537536 0.060658
vt 0.528831 0.045241
vt 0.577337 0.046811
vt 0.520125 0.029824
vt 0.528831 0.045241
vt 0.380697 0.027237
vt 0.436837 0.028643
vt 0.417489 0.047665
vt 0.372941 0.054877
vt 0.492977 0.030048
vt 0.435482 0.056040
vt 0.388815 0.089508
vt 0.435482 0.056040
vt 0.481495 0.052053
vt 0.472888 0.054388
vt 0.466869 0.052024
vt 0.460054 0.064400
vt 0.454974 0.061596
vt 0.460054 0.064400
vt 0.538158 0.065388
vt 0.563779 0.073261
vt 0.575576 0.087033
vt 0.579964 0.069585
vt 0.538158 0.065388
vt 0.632562 0.092422
vt 0.575576 0.087033
vt 0.579964 0.069585
vt 0.460054 0.064400
vt 0.440122 0.072779
vt 0.434668 0.069676
vt 0.429211 0.085701
vt 0.460054 0.064400
vt 0.434668 0.069676
vt 0.429211 0.085701
vt 0.577337 0.046811
vt 0.595312 0.058419
vt 0.636169 0.057480
vt 0.636169 0.057480
vt 0.409897 0.162435
vt 0.384473 0.200572
vt 0.368916 0.197872
vt 0.373042 0.177097
vt 0.360396 0.225067
vt 0.350791 0.214440
vt 0.333412 0.191802
vt 0.350791 0.214440
vt 0.787097 0.092290
vt 0.773943 0.053008
vt 0.819886 0.051799
vt 0.837144 0.073307
vt 0.774604 0.010837
vt 0.835717 0.029790
vt 0.773943 0.053008
vt 0.896830 0.048743
vt 0.837144 0.073307
vt 0.952304 0.162574
vt 0.888997 0.204201
vt 0.867672 0.196185
vt 0.872610 0.179301
vt 0.845648 0.236430
vt 0.836517 0.206965
vt 0.813499 0.190705
vt 0.872609 0.179301
vt 0.836517 0.206965
vt 0.850184 0.324899
vt 0.817961 0.305454
vt 0.830081 0.283552
vt 0.848334 0.281687
vt 0.801914 0.277567
vt 0.820883 0.260562
vt 0.848334 0.281687
vt 0.196910 0.276670
vt 0.180765 0.304320
vt 0.169127 0.282695
vt 0.178776 0.260040
vt 0.148599 0.323289
vt 0.151205 0.280814
vt 0.180765 0.304320
vt 0.158834 0.237202
vt 0.802929 0.475819
vt 0.768730 0.461452
vt 0.768431 0.433065
vt 0.792589 0.421423
vt 0.734532 0.447085
vt 0.748971 0.413108
vt 0.763410 0.379131
vt 0.792589 0.421423
vt 0.265611 0.446814
vt 0.235945 0.455916
vt 0.234620 0.429600
vt 0.251289 0.413082
vt 0.206279 0.465018
vt 0.210899 0.417178
vt 0.236968 0.379349
vt 0.251289 0.413082
vt 0.210899 0.417178
vt 0.309385 0.261377
vt 0.279447 0.283220
vt 0.268301 0.261682
vt 0.280366 0.241259
vt 0.251421 0.311186
vt 0.248293 0.258965
vt 0.279447 0.283220
vt 0.249428 0.214398
vt 0.248293 0.258965
vt 0.797447 0.204842
vt 0.816670 0.223087
vt 0.811464 0.241494
vt 0.795654 0.245263
vt 0.820883 0.260562
vt 0.816670 0.223087
vt 0.801914 0.277567
vt 0.182617 0.222155
vt 0.187597 0.240602
vt 0.178776 0.260040
vt 0.199606 0.202260
vt 0.202801 0.243868
vt 0.182617 0.222155
vt 0.196910 0.276670
vt 0.178776 0.260040
vt 0.818127 0.209598
vt 0.836518 0.206965
vt 0.805473 0.197773
vt 0.836517 0.206965
vt 0.772368 0.124218
vt 0.730235 0.114187
vt 0.714680 0.088620
vt 0.772068 0.156780
vt 0.700480 0.132337
vt 0.772368 0.124218
vt 0.700480 0.132337
vt 0.717426 0.197281
vt 0.737481 0.209386
vt 0.729813 0.235979
vt 0.758059 0.192382
vt 0.756370 0.218665
vt 0.729813 0.235979
vt 0.758059 0.192382
vt 0.354601 0.142296
vt 0.376624 0.150153
vt 0.373042 0.177097
vt 0.397698 0.127490
vt 0.354601 0.142296
vt 0.373042 0.177097
vt 0.397698 0.127490
vt 0.825762 0.147055
vt 0.881969 0.147875
vt 0.861525 0.166189
vt 0.819630 0.168880
vt 0.872610 0.179301
vt 0.819630 0.168880
vt 0.872609 0.179301
vt 0.118646 0.174793
vt 0.108073 0.118540
vt 0.133492 0.115799
vt 0.147823 0.142474
vt 0.105721 0.050929
vt 0.149363 0.089927
vt 0.170854 0.121164
vt 0.147823 0.142474
vt 0.149363 0.089927
vt 0.080037 0.876399
vt 0.075620 0.809771
vt 0.117597 0.807013
vt 0.148481 0.831087
vt 0.071203 0.743142
vt 0.132984 0.777260
vt 0.187534 0.799994
vt 0.148481 0.831087
vt 0.132984 0.777260
vt 0.560686 0.796564
vt 0.572670 0.759959
vt 0.603542 0.756487
vt 0.617530 0.777720
vt 0.576451 0.723934
vt 0.621339 0.734156
vt 0.678773 0.742428
vt 0.617530 0.777720
vt 0.621338 0.734156
vt 0.328503 0.692429
vt 0.263660 0.689831
vt 0.279178 0.662571
vt 0.321594 0.647269
vt 0.207749 0.687482
vt 0.250976 0.648503
vt 0.314685 0.602108
vt 0.250976 0.648503
vt 0.779287 0.169322
vt 0.770455 0.184609
vt 0.758059 0.192382
vt 0.786507 0.181864
vt 0.773024 0.194912
vt 0.773024 0.194912
vt 0.219887 0.169386
vt 0.238840 0.184435
vt 0.226727 0.186335
vt 0.216050 0.176095
vt 0.225882 0.194638
vt 0.238840 0.184435
vt 0.212214 0.182803
vt 0.225882 0.194638
vt 0.493699 0.663101
vt 0.447650 0.668764
vt 0.438114 0.642340
vt 0.461261 0.622931
vt 0.406790 0.680192
vt 0.407471 0.633850
vt 0.447650 0.668764
vt 0.408153 0.587507
vt 0.779610 0.201096
vt 0.776105 0.218855
vt 0.791977 0.193353
vt 0.773024 0.194912
vt 0.776105 0.218855
vt 0.791977 0.193353
vt 0.478746 0.701525
vt 0.452907 0.692175
vt 0.463283 0.732291
vt 0.437683 0.708261
vt 0.437683 0.708261
vt 0.318905 0.903519
vt 0.311187 0.823704
vt 0.319437 0.786651
vt 0.323704 0.797974
vt 0.303800 0.780171
vt 0.317697 0.745839
vt 0.311187 0.823704
vt 0.323704 0.797974
vt 0.317697 0.745839
vt 0.271488 0.874246
vt 0.295073 0.844815
vt 0.252593 0.856749
vt 0.286088 0.826213
vt 0.271488 0.874246
vt 0.311186 0.823704
vt 0.286089 0.826213
vt 0.222801 0.216585
vt 0.219045 0.199698
vt 0.225882 0.194639
vt 0.205910 0.192532
vt 0.447657 0.777327
vt 0.476343 0.801950
vt 0.479471 0.829195
vt 0.464040 0.836550
vt 0.502706 0.816553
vt 0.506750 0.849460
vt 0.492990 0.908676
vt 0.464040 0.836550
vt 0.506750 0.849460
vt 0.479269 0.760248
vt 0.465826 0.761461
vt 0.448803 0.746848
vt 0.499534 0.782042
vt 0.473117 0.776083
vt 0.448803 0.746848
vt 0.473117 0.776083
vt 0.482184 0.790175
vt 0.476343 0.801950
vt 0.500988 0.798071
vt 0.502706 0.816553
vt 0.476343 0.801950
vt 0.500988 0.798071
vt 0.521670 0.758314
vt 0.511123 0.771874
vt 0.494124 0.759424
vt 0.496394 0.742965
vt 0.479269 0.760248
vt 0.511123 0.771874
vt 0.496394 0.742965
vt 0.244502 0.782983
vt 0.234290 0.770490
vt 0.253829 0.759214
vt 0.266866 0.764179
vt 0.221226 0.746721
vt 0.262732 0.743285
vt 0.234290 0.770490
vt 0.286279 0.742003
vt 0.262732 0.743285
vt 0.511123 0.771874
vt 0.525994 0.782181
vt 0.525309 0.793200
vt 0.521670 0.758314
vt 0.538597 0.775340
vt 0.511123 0.771874
vt 0.525309 0.793200
vt 0.538596 0.775340
vt 0.519243 0.802775
vt 0.532079 0.817888
vt 0.525309 0.793200
vt 0.500987 0.798071
vt 0.223005 0.793857
vt 0.232478 0.802618
vt 0.220454 0.815894
vt 0.244502 0.782983
vt 0.252363 0.794492
vt 0.223005 0.793857
vt 0.252413 0.811248
vt 0.220454 0.815894
vt 0.252363 0.794492
vt 0.677822 0.706528
vt 0.694039 0.706098
vt 0.702952 0.720452
vt 0.676898 0.670689
vt 0.701523 0.684409
vt 0.677822 0.706528
vt 0.727131 0.698475
vt 0.708607 0.655767
vt 0.725543 0.643752
vt 0.697055 0.635952
vt 0.701523 0.684409
vt 0.723955 0.589028
vt 0.725543 0.643752
vt 0.030670 0.553627
vt 0.068788 0.569175
vt 0.071807 0.605748
vt 0.055501 0.621352
vt 0.106907 0.584723
vt 0.095096 0.622738
vt 0.078449 0.670305
vt 0.055501 0.621352
vt 0.095096 0.622738
vt 0.128241 0.706025
vt 0.098898 0.693227
vt 0.111343 0.679426
vt 0.130214 0.681541
vt 0.113632 0.660465
vt 0.098898 0.693227
vt 0.143595 0.658919
vt 0.130214 0.681541
vt 0.113632 0.660465
vt 0.677822 0.706528
vt 0.661319 0.699731
vt 0.650318 0.675112
vt 0.649594 0.709451
vt 0.627939 0.682458
vt 0.650318 0.675112
vt 0.649594 0.709451
vt 0.108527 0.727132
vt 0.090060 0.709659
vt 0.098898 0.693227
vt 0.072882 0.709242
vt 0.072882 0.709242
vt 0.643465 0.585020
vt 0.606646 0.603223
vt 0.580593 0.579732
vt 0.585171 0.562128
vt 0.573315 0.615387
vt 0.546394 0.582422
vt 0.606646 0.603223
vt 0.526877 0.539235
vt 0.585171 0.562128
vt 0.546394 0.582422
vt 0.808100 0.578040
vt 0.788204 0.586798
vt 0.763995 0.569494
vt 0.789851 0.614803
vt 0.789851 0.614803
vt 0.863433 0.941807
vt 0.891439 0.943454
vt 0.908745 0.967662
vt 0.863433 0.941807
vt 0.908745 0.967662
vt 0.900189 0.923557
vt 0.841277 0.690427
vt 0.823982 0.714146
vt 0.869261 0.689269
vt 0.832648 0.671005
vt 0.823982 0.714146
vt 0.869261 0.689269
vt 0.746541 0.865345
vt 0.788940 0.862422
vt 0.787792 0.890403
vt 0.764095 0.907677
vt 0.788940 0.862422
vt 0.807204 0.899036
vt 0.808850 0.825706
vt 0.787956 0.835451
vt 0.763949 0.822866
vt 0.808850 0.825706
vt 0.788940 0.862422
vt 0.942656 0.607772
vt 0.944409 0.636189
vt 0.924521 0.644731
vt 0.986087 0.611927
vt 0.968676 0.654403
vt 0.942656 0.607772
vt 0.924521 0.644731
vt 0.921091 0.565436
vt 0.943741 0.580398
vt 0.942656 0.607772
vt 0.951006 0.527235
vt 0.968547 0.569581
vt 0.921091 0.565436
vt 0.968547 0.822999
vt 0.927769 0.839288
vt 0.986087 0.865345
vt 0.938975 0.869475
vt 0.907416 0.877950
vt 0.895142 0.854868
vt 0.436055 0.188356
vt 0.405475 0.212272
vt 0.384472 0.200572
vt 0.427380 0.227250
vt 0.372792 0.236704
vt 0.360396 0.225067
vt 0.943823 0.895398
vt 0.968631 0.907776
vt 0.907416 0.877950
vt 0.938975 0.869475
vt 0.923702 0.905615
vt 0.938975 0.869475
vt 0.553527 0.160231
vt 0.550636 0.134966
vt 0.565020 0.121067
vt 0.533777 0.121448
vt 0.468075 0.126287
vt 0.449741 0.135342
vt 0.436199 0.119418
vt 0.446342 0.161103
vt 0.468075 0.126287
vt 0.436199 0.119418
vt 0.446342 0.161103
vt 0.657045 0.272877
vt 0.661686 0.295431
vt 0.640274 0.298847
vt 0.654785 0.321298
vt 0.637557 0.319081
vt 0.652232 0.241633
vt 0.649209 0.258107
vt 0.657045 0.272877
vt 0.630967 0.259841
vt 0.342625 0.265388
vt 0.348789 0.249647
vt 0.372792 0.236704
vt 0.337651 0.243057
vt 0.342625 0.265388
vt 0.360396 0.225067
vt 0.337651 0.243057
vt 0.360556 0.289107
vt 0.337046 0.289845
vt 0.340464 0.317656
vt 0.322905 0.320246
vt 0.312728 0.292959
vt 0.628134 0.349699
vt 0.617279 0.341425
vt 0.643747 0.354245
vt 0.600675 0.385314
vt 0.589633 0.369955
vt 0.585793 0.356024
vt 0.546378 0.372497
vt 0.548886 0.354320
vt 0.548546 0.389768
vt 0.501147 0.388390
vt 0.500694 0.369204
vt 0.349391 0.351048
vt 0.354504 0.342061
vt 0.373292 0.352897
vt 0.322905 0.320246
vt 0.340464 0.317655
vt 0.349391 0.351049
vt 0.373292 0.352897
vt 0.340464 0.317656
vt 0.417884 0.359386
vt 0.453262 0.357822
vt 0.455701 0.373138
vt 0.415505 0.372354
vt 0.500694 0.369204
vt 0.501147 0.388390
vt 0.453055 0.389714
vt 0.541286 0.320622
vt 0.562223 0.335980
vt 0.548886 0.354320
vt 0.586153 0.339867
vt 0.585793 0.356024
vt 0.601378 0.318050
vt 0.608191 0.329445
vt 0.586153 0.339867
vt 0.623165 0.312593
vt 0.637557 0.319081
vt 0.617279 0.341425
vt 0.585793 0.356024
vt 0.376511 0.305955
vt 0.377697 0.291603
vt 0.392631 0.295626
vt 0.360556 0.289107
vt 0.376511 0.305955
vt 0.385914 0.315651
vt 0.376511 0.305955
vt 0.640274 0.298847
vt 0.628030 0.300699
vt 0.619251 0.293447
vt 0.637557 0.319081
vt 0.623165 0.312593
vt 0.640274 0.298847
vt 0.619251 0.293447
vt 0.522899 0.274317
vt 0.529913 0.299164
vt 0.490669 0.302555
vt 0.572940 0.295112
vt 0.467564 0.231491
vt 0.442068 0.239820
vt 0.428774 0.258166
vt 0.467564 0.231491
vt 0.427380 0.227250
vt 0.428774 0.258166
vt 0.451550 0.336772
vt 0.448065 0.325385
vt 0.459484 0.318023
vt 0.429743 0.319200
vt 0.426658 0.303319
vt 0.459484 0.318023
vt 0.500360 0.060235
vt 0.514347 0.065012
vt 0.508126 0.074151
vt 0.498088 0.069723
vt 0.500665 0.082750
vt 0.465919 0.303841
vt 0.450451 0.290462
vt 0.459484 0.318023
vt 0.490669 0.302555
vt 0.468075 0.126287
vt 0.483048 0.124435
vt 0.488156 0.157323
vt 0.482223 0.093063
vt 0.494735 0.125934
vt 0.499921 0.155847
vt 0.485239 0.081658
vt 0.484949 0.074760
vt 0.482223 0.093063
vt 0.491295 0.084180
vt 0.484949 0.074760
vt 0.501407 0.099480
vt 0.505948 0.127006
vt 0.494735 0.125934
vt 0.437674 0.277558
vt 0.421057 0.272288
vt 0.428774 0.258166
vt 0.425430 0.285620
vt 0.417782 0.282809
vt 0.508261 0.194104
vt 0.504828 0.198170
vt 0.503554 0.205792
vt 0.481180 0.198122
vt 0.498851 0.197082
vt 0.499234 0.195443
vt 0.516522 0.196042
vt 0.493711 0.183192
vt 0.489602 0.189064
vt 0.473665 0.184357
vt 0.473665 0.184357
vt 0.560445 0.185065
vt 0.546438 0.176431
vt 0.553527 0.160231
vt 0.560445 0.185065
vt 0.553527 0.160231
vt 0.452465 0.178277
vt 0.436055 0.188356
vt 0.473665 0.184357
vt 0.436055 0.188356
vt 0.507359 0.086406
vt 0.502311 0.083466
vt 0.505602 0.084897
vt 0.493972 0.079094
vt 0.892330 0.550307
vt 0.908660 0.509695
vt 0.876726 0.582840
vt 0.853689 0.570721
vt 0.437674 0.277558
vt 0.439059 0.286017
vt 0.426044 0.294470
vt 0.450451 0.290462
vt 0.437674 0.277558
vt 0.450451 0.290462
vt 0.593344 0.255558
vt 0.597723 0.266507
vt 0.581537 0.282859
vt 0.608993 0.262127
vt 0.603425 0.423272
vt 0.552458 0.425954
vt 0.549813 0.407704
vt 0.593203 0.406116
vt 0.501492 0.428636
vt 0.501137 0.407516
vt 0.501147 0.388390
vt 0.548545 0.389768
vt 0.593290 0.316512
vt 0.598666 0.313131
vt 0.596435 0.309438
vt 0.603330 0.304772
vt 0.593290 0.316512
vt 0.601378 0.318050
vt 0.603330 0.304772
vt 0.429743 0.319200
vt 0.421503 0.315703
vt 0.421363 0.308022
vt 0.417102 0.318770
vt 0.589802 0.316324
vt 0.593290 0.316512
vt 0.590684 0.311009
vt 0.585911 0.317934
vt 0.590684 0.311009
vt 0.603719 0.280677
vt 0.594071 0.281561
vt 0.608255 0.282491
vt 0.501137 0.407516
vt 0.451681 0.407660
vt 0.453055 0.389714
vt 0.448858 0.425904
vt 0.666214 0.388954
vt 0.637519 0.384674
vt 0.665030 0.355110
vt 0.688143 0.355074
vt 0.643747 0.354245
vt 0.696981 0.319897
vt 0.710071 0.321194
vt 0.637519 0.384674
vt 0.621699 0.401040
vt 0.593203 0.406116
vt 0.634819 0.406113
vt 0.637519 0.384674
vt 0.593203 0.406116
vt 0.634819 0.406113
vt 0.292603 0.350070
vt 0.325764 0.352751
vt 0.297965 0.320403
vt 0.515257 0.045353
vt 0.516157 0.055017
vt 0.499747 0.049358
vt 0.312728 0.292959
vt 0.293304 0.298560
vt 0.322905 0.320246
vt 0.312728 0.292959
vt 0.279447 0.283220
vt 0.297965 0.320403
vt 0.335349 0.231101
vt 0.319188 0.229995
vt 0.360396 0.225067
vt 0.337651 0.243057
vt 0.319188 0.229995
vt 0.337651 0.243057
vt 0.499747 0.049358
vt 0.489131 0.053048
vt 0.481495 0.052053
vt 0.500360 0.060235
vt 0.487708 0.062205
vt 0.499747 0.049358
vt 0.225396 0.010837
vt 0.239248 0.061893
vt 0.186107 0.071556
vt 0.165558 0.030883
vt 0.249103 0.111422
vt 0.200257 0.109346
vt 0.170854 0.121164
vt 0.149363 0.089927
vt 0.435482 0.056040
vt 0.446400 0.059474
vt 0.466869 0.052024
vt 0.435482 0.056040
vt 0.583921 0.110168
vt 0.618128 0.132740
vt 0.575576 0.087033
vt 0.565021 0.121067
vt 0.618128 0.132740
vt 0.420474 0.108195
vt 0.397698 0.127490
vt 0.436199 0.119418
vt 0.397698 0.127490
vt 0.649376 0.201696
vt 0.639783 0.217962
vt 0.611888 0.205152
vt 0.652232 0.241633
vt 0.649376 0.201696
vt 0.611888 0.205152
vt 0.815542 0.117374
vt 0.839878 0.097521
vt 0.863943 0.104015
vt 0.837144 0.073307
vt 0.815542 0.117374
vt 0.636169 0.057480
vt 0.704415 0.054993
vt 0.714680 0.088619
vt 0.696971 0.018920
vt 0.303046 0.019037
vt 0.306335 0.057975
vt 0.239248 0.061893
vt 0.312888 0.097208
vt 0.907672 0.256978
vt 0.943135 0.262896
vt 0.918280 0.312610
vt 0.886060 0.294749
vt 0.999860 0.253531
vt 0.958736 0.327653
vt 0.917611 0.401774
vt 0.880915 0.360747
vt 0.286229 0.202201
vt 0.296924 0.225278
vt 0.319188 0.229995
vt 0.286229 0.202201
vt 0.881969 0.147875
vt 0.891089 0.119346
vt 0.924567 0.105659
vt 0.863943 0.104015
vt 0.924567 0.105659
vt 0.066365 0.166948
vt 0.078081 0.128554
vt 0.108073 0.118540
vt 0.012367 0.154243
vt 0.059044 0.102586
vt 0.066365 0.166948
vt 0.108073 0.118540
vt 0.082389 0.401774
vt 0.041264 0.327653
vt 0.081610 0.311552
vt 0.118941 0.359124
vt 0.000140 0.253531
vt 0.059417 0.259557
vt 0.099335 0.256553
vt 0.113965 0.293767
vt 0.006254 0.203887
vt 0.056973 0.212024
vt 0.098969 0.218540
vt 0.943135 0.262896
vt 0.950402 0.227533
vt 0.976082 0.208053
vt 0.907672 0.256978
vt 0.926346 0.218271
vt 0.976082 0.208053
vt 0.776944 0.293225
vt 0.789923 0.327092
vt 0.753652 0.345995
vt 0.801914 0.277567
vt 0.810496 0.359333
vt 0.157288 0.183431
vt 0.154914 0.200743
vt 0.138932 0.210026
vt 0.186501 0.190705
vt 0.170291 0.208249
vt 0.138932 0.210026
vt 0.926346 0.218271
vt 0.898477 0.220899
vt 0.888997 0.204201
vt 0.878989 0.247891
vt 0.878989 0.247892
vt 0.128364 0.249113
vt 0.123370 0.224997
vt 0.138932 0.210026
vt 0.907672 0.256978
vt 0.868386 0.276125
vt 0.878989 0.247892
vt 0.848334 0.281687
vt 0.886060 0.294749
vt 0.151205 0.280814
vt 0.132159 0.275573
vt 0.128364 0.249113
vt 0.113965 0.293767
vt 0.113965 0.293767
vt 0.180765 0.304320
vt 0.208442 0.325992
vt 0.189116 0.357684
vt 0.220911 0.291988
vt 0.244194 0.345267
vt 0.860270 0.438797
vt 0.835290 0.396936
vt 0.880915 0.360747
vt 0.810496 0.359333
vt 0.166520 0.393652
vt 0.144334 0.433396
vt 0.801914 0.277567
vt 0.776944 0.293225
vt 0.773745 0.253832
vt 0.795654 0.245263
vt 0.750263 0.260522
vt 0.731289 0.261040
vt 0.750262 0.260522
vt 0.718446 0.281887
vt 0.248293 0.258965
vt 0.224501 0.252021
vt 0.222801 0.216585
vt 0.220911 0.291988
vt 0.196910 0.276670
vt 0.231488 0.148020
vt 0.261139 0.171825
vt 0.238840 0.184435
vt 0.290642 0.152065
vt 0.170291 0.208249
vt 0.181967 0.208995
vt 0.182617 0.222155
vt 0.193053 0.196483
vt 0.182617 0.222155
vt 0.319958 0.131350
vt 0.312888 0.097208
vt 0.290642 0.152065
vt 0.700480 0.132337
vt 0.670694 0.167034
vt 0.169212 0.163989
vt 0.170854 0.121164
vt 0.185731 0.148647
vt 0.196211 0.171181
vt 0.191356 0.180943
vt 0.185731 0.148647
vt 0.205923 0.141913
vt 0.208049 0.170284
vt 0.200257 0.109346
vt 0.166779 0.731185
vt 0.150761 0.751482
vt 0.108527 0.727132
vt 0.195092 0.771975
vt 0.797512 0.132247
vt 0.772368 0.124218
vt 0.798915 0.151917
vt 0.815542 0.117374
vt 0.798915 0.151917
vt 0.193035 0.868340
vt 0.221002 0.882640
vt 0.199471 0.889959
vt 0.252593 0.856749
vt 0.193035 0.868340
vt 0.271488 0.874246
vt 0.670298 0.876448
vt 0.602786 0.833063
vt 0.632606 0.807213
vt 0.674535 0.809438
vt 0.602786 0.833062
vt 0.674535 0.809438
vt 0.512995 0.719009
vt 0.496394 0.742965
vt 0.539469 0.692638
vt 0.540511 0.740716
vt 0.166779 0.731185
vt 0.178061 0.717177
vt 0.211014 0.718179
vt 0.162433 0.699768
vt 0.211014 0.718179
vt 0.581644 0.892562
vt 0.554507 0.850095
vt 0.602786 0.833062
vt 0.502706 0.816553
vt 0.532079 0.817888
vt 0.268056 0.720862
vt 0.247515 0.712131
vt 0.263660 0.689831
vt 0.211014 0.718179
vt 0.268056 0.720862
vt 0.538597 0.775340
vt 0.550835 0.760238
vt 0.521670 0.758314
vt 0.538596 0.775340
vt 0.572670 0.759959
vt 0.200543 0.841483
vt 0.193035 0.868340
vt 0.252413 0.811248
vt 0.248013 0.835317
vt 0.252593 0.856749
vt 0.252363 0.794492
vt 0.277060 0.774689
vt 0.280103 0.793843
vt 0.244502 0.782983
vt 0.286279 0.742003
vt 0.298780 0.750950
vt 0.424528 0.737289
vt 0.434116 0.727822
vt 0.437683 0.708261
vt 0.424528 0.737289
vt 0.448803 0.746848
vt 0.437683 0.708261
vt 0.286279 0.742003
vt 0.302719 0.722250
vt 0.310760 0.732508
vt 0.298780 0.750950
vt 0.317697 0.745839
vt 0.302719 0.722250
vt 0.298780 0.750950
vt 0.402013 0.853976
vt 0.404401 0.767084
vt 0.417049 0.767747
vt 0.427034 0.807013
vt 0.424528 0.737289
vt 0.427034 0.807013
vt 0.445270 0.841864
vt 0.447501 0.881326
vt 0.427034 0.807013
vt 0.275239 0.817934
vt 0.280103 0.793843
vt 0.248013 0.835317
vt 0.286089 0.826213
vt 0.252413 0.811248
vt 0.280103 0.793843
vt 0.248013 0.835317
vt 0.268056 0.720862
vt 0.280076 0.727147
vt 0.262732 0.743285
vt 0.262732 0.743285
vt 0.601901 0.649910
vt 0.570659 0.667960
vt 0.535904 0.634760
vt 0.627939 0.682458
vt 0.603055 0.696585
vt 0.223005 0.793857
vt 0.218520 0.781262
vt 0.223005 0.793857
vt 0.234290 0.770490
vt 0.174552 0.667118
vt 0.209758 0.635110
vt 0.250976 0.648503
vt 0.143595 0.658919
vt 0.166494 0.627481
vt 0.188874 0.589016
vt 0.251779 0.595562
vt 0.658448 0.629838
vt 0.630877 0.639182
vt 0.606646 0.603223
vt 0.650318 0.675112
vt 0.143595 0.658919
vt 0.174552 0.667119
vt 0.152394 0.683809
vt 0.162433 0.699768
vt 0.603055 0.696585
vt 0.628007 0.714211
vt 0.627939 0.682458
vt 0.649594 0.709451
vt 0.649594 0.709451
vt 0.047149 0.720809
vt 0.056341 0.706024
vt 0.072882 0.709242
vt 0.023095 0.698475
vt 0.049542 0.680878
vt 0.047149 0.720809
vt 0.049542 0.680878
vt 0.026882 0.626051
vt 0.043261 0.643837
vt 0.049542 0.680878
vt 0.055501 0.621352
vt 0.697055 0.635951
vt 0.680819 0.618878
vt 0.686258 0.591718
vt 0.658448 0.629838
vt 0.686258 0.591718
vt 0.658448 0.629838
vt 0.147890 0.586870
vt 0.128364 0.626534
vt 0.095096 0.622738
vt 0.166494 0.627481
vt 0.143595 0.658919
vt 0.113632 0.660465
vt 0.573315 0.615387
vt 0.502069 0.599559
vt 0.467515 0.563371
vt 0.717709 0.538143
vt 0.720832 0.563585
vt 0.695406 0.571376
vt 0.680587 0.561582
vt 0.720832 0.563586
vt 0.680587 0.561582
s 0
f 21/1/1 181/2/1 499/3/1 147/4/1
f 23/5/2 148/6/2 499/3/2 181/7/2
f 19/8/3 147/9/3 499/3/3 148/6/3
f 24/10/4 186/11/4 500/12/4 149/13/4
f 16/14/5 180/15/5 500/12/5 186/16/5
f 20/17/6 149/18/6 500/12/6 180/19/6
f 23/5/7 155/20/7 501/21/7 150/22/7
f 4/23/8 153/24/8 501/21/8 155/25/8
f 1/26/9 150/22/9 501/21/9 153/27/9
f 3/28/10 156/29/10 502/30/10 154/31/10
f 24/10/11 152/32/11 502/30/11 156/29/11
f 2/33/12 154/31/12 502/30/12 152/34/12
f 23/5/13 182/35/13 503/36/13 155/37/13
f 5/38/14 157/39/14 503/36/14 182/40/14
f 4/23/15 155/20/15 503/36/15 157/41/15
f 22/42/16 183/43/16 504/44/16 158/45/16
f 24/10/17 156/46/17 504/44/17 183/47/17
f 3/28/18 158/48/18 504/44/18 156/49/18
f 9/50/19 423/51/19 505/52/19 424/53/19
f 6/54/20 159/55/20 505/52/20 423/56/20
f 5/38/21 424/57/21 505/52/21 159/58/21
f 5/38/22 164/59/22 506/60/22 424/61/22
f 10/62/23 165/63/23 506/60/23 164/59/23
f 9/50/24 424/61/24 506/60/24 165/63/24
f 15/64/25 425/65/25 507/66/25 426/67/25
f 22/42/26 163/68/26 507/66/26 425/69/26
f 8/70/27 426/71/27 507/66/27 163/72/27
f 15/64/28 426/67/28 508/73/28 427/74/28
f 8/70/29 168/75/29 508/73/29 426/67/29
f 12/76/30 427/77/30 508/73/30 168/75/30
f 15/64/31 427/78/31 509/79/31 172/80/31
f 12/76/32 171/81/32 509/79/32 427/78/32
f 14/82/33 172/83/33 509/79/33 171/81/33
f 19/8/34 179/84/34 510/85/34 147/9/34
f 17/86/35 175/87/35 510/85/35 179/84/35
f 21/88/36 147/89/36 510/85/36 175/87/36
f 23/5/37 184/90/37 511/91/37 182/35/37
f 10/62/38 164/92/38 511/91/38 184/93/38
f 5/38/39 182/94/39 511/91/39 164/95/39
f 22/42/40 425/65/40 512/96/40 183/97/40
f 15/64/41 185/98/41 512/96/41 425/99/41
f 24/10/42 183/97/42 512/96/42 185/100/42
f 23/5/43 181/2/43 513/101/43 184/90/43
f 21/1/44 173/102/44 513/101/44 181/103/44
f 10/62/45 184/90/45 513/101/45 173/104/45
f 15/64/46 174/105/46 514/106/46 185/107/46
f 16/108/47 186/109/47 514/106/47 174/110/47
f 24/10/48 185/111/48 514/106/48 186/16/48
f 30/112/49 465/113/49 515/114/49 194/115/49
f 33/116/50 439/117/50 515/114/50 465/118/50
f 45/119/51 194/120/51 515/114/51 439/121/51
f 49/122/52 434/123/52 516/124/52 209/125/52
f 38/126/53 432/127/53 516/124/53 434/128/53
f 47/129/54 209/125/54 516/124/54 432/130/54
f 41/131/55 436/132/55 517/133/55 215/134/55
f 51/135/56 212/136/56 517/133/56 436/132/56
f 49/137/57 215/138/57 517/133/57 212/139/57
f 47/129/58 437/140/58 518/141/58 209/142/58
f 41/131/59 215/143/59 518/141/59 437/140/59
f 49/122/60 209/142/60 518/141/60 215/144/60
f 45/119/61 439/145/61 519/146/61 221/147/61
f 33/116/62 220/148/62 519/146/62 439/117/62
f 70/149/63 221/150/63 519/146/63 220/148/63
f 70/149/64 442/151/64 520/152/64 221/150/64
f 54/153/65 223/154/65 520/152/65 442/155/65
f 45/119/66 221/156/66 520/152/66 223/154/66
f 53/157/67 228/158/67 521/159/67 187/160/67
f 61/161/68 229/162/68 521/159/68 228/163/68
f 31/164/69 187/165/69 521/159/69 229/166/69
f 55/167/70 443/168/70 522/169/70 191/170/70
f 58/171/71 231/172/71 522/169/71 443/173/71
f 32/174/72 191/175/72 522/169/72 231/172/72
f 25/176/73 445/177/73 523/178/73 235/179/73
f 44/180/73 234/181/73 523/178/73 445/177/73
f 43/182/73 235/179/73 523/178/73 234/181/73
f 25/176/74 445/177/74 524/183/74 236/184/74
f 44/185/75 448/186/75 524/183/75 445/177/75
f 52/187/76 236/184/76 524/183/76 448/188/76
f 45/119/77 447/189/77 525/190/77 444/191/77
f 56/192/78 239/193/78 525/190/78 447/189/78
f 55/167/79 444/194/79 525/190/79 239/195/79
f 56/196/80 447/189/80 526/197/80 446/198/80
f 45/119/81 240/199/81 526/197/81 447/200/81
f 57/201/82 446/198/82 526/197/82 240/202/82
f 44/185/83 233/203/83 527/204/83 241/205/83
f 45/119/84 223/206/84 527/204/84 233/207/84
f 54/153/85 241/208/85 527/204/85 223/154/85
f 52/187/86 448/209/86 528/210/86 224/211/86
f 44/185/87 241/212/87 528/210/87 448/213/87
f 54/153/88 224/214/88 528/210/88 241/212/88
f 58/171/89 451/215/89 529/216/89 244/217/89
f 59/218/90 245/219/90 529/216/90 451/220/90
f 60/221/91 244/217/91 529/216/91 245/222/91
f 61/161/92 243/223/92 530/224/92 246/225/92
f 60/221/93 245/226/93 530/224/93 243/227/93
f 59/218/94 246/225/94 530/224/94 245/219/94
f 33/116/95 430/228/95 531/229/95 248/230/95
f 40/231/96 457/232/96 531/229/96 430/233/96
f 71/234/97 248/235/97 531/229/97 457/236/97
f 65/237/98 452/238/98 532/239/98 251/240/98
f 46/241/99 250/242/99 532/239/99 452/243/99
f 66/244/100 251/240/100 532/239/100 250/245/100
f 64/246/101 438/247/101 533/248/101 252/249/101
f 46/241/102 452/243/102 533/248/102 438/250/102
f 65/237/103 252/251/103 533/248/103 452/252/103
f 41/131/104 453/253/104 534/254/104 256/255/104
f 63/256/105 255/257/105 534/254/105 453/258/105
f 62/259/106 256/260/106 534/254/106 255/261/106
f 67/262/107 258/263/107 535/264/107 454/265/107
f 69/266/108 257/267/108 535/264/108 258/268/108
f 42/269/109 454/270/109 535/264/109 257/271/109
f 41/131/110 256/260/110 536/272/110 259/273/110
f 62/259/111 261/274/111 536/272/111 256/275/111
f 76/276/112 259/277/112 536/272/112 261/274/112
f 74/278/113 264/279/113 537/280/113 219/281/113
f 73/282/114 263/283/114 537/280/114 264/284/114
f 40/231/115 219/281/115 537/280/115 263/283/115
f 40/231/116 263/283/116 538/285/116 265/286/116
f 73/282/117 266/287/117 538/285/117 263/283/117
f 72/288/118 265/289/118 538/285/118 266/290/118
f 38/126/119 270/291/119 539/292/119 274/293/119
f 79/294/120 273/295/120 539/292/120 270/296/120
f 81/297/121 274/293/121 539/292/121 273/298/121
f 85/299/122 461/300/122 540/301/122 201/302/122
f 106/303/123 277/304/123 540/301/123 461/300/123
f 35/305/124 201/306/124 540/301/124 277/304/124
f 97/307/125 285/308/125 541/309/125 284/310/125
f 96/311/126 287/312/126 541/309/126 285/313/126
f 98/314/127 284/310/127 541/309/127 287/315/127
f 97/316/128 284/317/128 542/318/128 283/319/128
f 98/320/129 286/321/129 542/318/129 284/317/129
f 94/322/130 283/319/130 542/318/130 286/323/130
f 98/320/131 462/324/131 543/325/131 290/326/131
f 31/164/132 463/327/132 543/325/132 462/324/132
f 95/328/133 290/326/133 543/325/133 463/329/133
f 32/174/134 289/330/134 544/331/134 291/332/134
f 96/311/135 292/333/135 544/331/135 289/334/135
f 99/335/136 291/336/136 544/331/136 292/337/136
f 95/328/137 463/338/137 545/339/137 293/340/137
f 31/164/138 294/341/138 545/339/138 463/342/138
f 94/322/139 293/343/139 545/339/139 294/344/139
f 96/311/140 285/345/140 546/346/140 292/337/140
f 97/307/141 282/347/141 546/346/141 285/313/141
f 99/335/142 292/333/142 546/346/142 282/348/142
f 29/349/143 196/350/143 547/351/143 295/352/143
f 34/353/144 280/354/144 547/351/144 196/350/144
f 84/355/145 295/352/145 547/351/145 280/356/145
f 100/357/146 467/358/146 548/359/146 296/360/146
f 28/361/147 298/362/147 548/359/147 467/363/147
f 87/364/148 296/365/148 548/359/148 298/362/148
f 27/366/149 471/367/149 549/368/149 322/369/149
f 109/370/150 321/371/150 549/368/150 471/367/150
f 146/372/151 322/373/151 549/368/151 321/374/151
f 104/375/152 327/376/152 550/377/152 325/378/152
f 108/379/153 319/380/153 550/377/153 327/376/153
f 109/370/154 325/381/154 550/377/154 319/380/154
f 107/382/155 475/383/155 551/384/155 320/385/155
f 103/386/156 326/387/156 551/384/156 475/388/156
f 110/389/157 320/385/157 551/384/157 326/387/157
f 78/390/158 476/391/158 552/392/158 332/393/158
f 80/394/159 272/395/159 552/392/159 476/391/159
f 105/396/160 332/397/160 552/392/160 272/395/160
f 79/398/161 269/399/161 553/400/161 273/401/161
f 78/402/162 333/403/162 553/400/162 269/399/162
f 81/404/163 273/405/163 553/400/163 333/406/163
f 83/407/164 278/408/164 554/409/164 305/410/164
f 82/411/165 335/412/165 554/409/165 278/413/165
f 88/414/166 305/410/166 554/409/166 335/415/166
f 112/416/167 340/417/167 555/418/167 337/419/167
f 109/370/168 319/420/168 555/418/168 340/421/168
f 108/422/169 337/419/169 555/418/169 319/420/169
f 110/389/170 341/423/170 556/424/170 320/425/170
f 134/426/171 338/427/171 556/424/171 341/428/171
f 107/429/172 320/430/172 556/424/172 338/427/172
f 109/370/173 340/417/173 557/431/173 321/432/173
f 112/416/174 498/433/174 557/431/174 340/417/174
f 146/372/175 321/434/175 557/431/175 498/433/175
f 100/357/176 479/435/176 558/436/176 301/437/176
f 113/438/177 343/439/177 558/436/177 479/440/177
f 99/335/178 301/437/178 558/436/178 343/441/178
f 85/299/179 349/442/179 559/443/179 303/444/179
f 113/438/180 346/445/180 559/443/180 349/442/180
f 91/446/181 303/447/181 559/443/181 346/448/181
f 84/355/182 345/449/182 560/450/182 295/451/182
f 94/322/183 468/452/183 560/450/183 345/453/183
f 29/349/184 295/454/184 560/450/184 468/455/184
f 92/456/185 477/457/185 561/458/185 351/459/185
f 27/366/186 322/460/186 561/458/186 477/457/186
f 146/372/187 351/461/187 561/458/187 322/462/187
f 90/463/188 307/464/188 562/465/188 352/466/188
f 87/467/189 297/468/189 562/465/189 307/464/189
f 111/469/190 352/470/190 562/465/190 297/471/190
f 119/472/191 365/473/191 563/474/191 364/475/191
f 118/476/192 363/477/192 563/474/192 365/473/192
f 128/478/193 364/479/193 563/474/193 363/480/193
f 122/481/194 366/482/194 564/483/194 362/484/194
f 123/485/195 493/486/195 564/483/195 366/482/195
f 142/487/196 362/488/196 564/483/196 493/489/196
f 132/490/197 481/491/197 565/492/197 482/493/197
f 116/494/198 371/495/198 565/492/198 481/491/198
f 115/496/199 482/493/199 565/492/199 371/497/199
f 113/438/200 382/498/200 566/499/200 346/500/200
f 133/501/201 381/502/201 566/499/201 382/498/201
f 91/446/202 346/500/202 566/499/202 381/503/202
f 115/504/203 348/505/203 567/506/203 482/507/203
f 88/414/204 383/508/204 567/506/204 348/509/204
f 132/510/205 482/507/205 567/506/205 383/511/205
f 124/512/206 385/513/206 568/514/206 384/515/206
f 133/516/207 382/517/207 568/514/207 385/518/207
f 113/519/208 384/515/208 568/514/208 382/517/208
f 91/446/209 381/503/209 569/520/209 336/521/209
f 133/501/210 390/522/210 569/520/210 381/523/210
f 112/416/211 336/524/211 569/520/211 390/525/211
f 124/512/212 373/526/212 570/527/212 385/518/212
f 126/528/213 484/529/213 570/527/213 373/526/213
f 133/516/214 385/518/214 570/527/214 484/530/214
f 134/531/215 392/532/215 571/533/215 391/534/215
f 130/535/216 389/536/216 571/533/216 392/537/216
f 132/490/217 391/538/217 571/533/217 389/539/217
f 134/531/218 386/540/218 572/541/218 392/532/218
f 120/542/219 394/543/219 572/541/219 386/544/219
f 130/535/220 392/545/220 572/541/220 394/546/220
f 88/414/221 339/547/221 573/548/221 383/549/221
f 134/426/222 391/550/222 573/548/222 339/547/222
f 132/510/223 383/549/223 573/548/223 391/550/223
f 131/551/224 487/552/224 574/553/224 393/554/224
f 135/555/225 378/556/225 574/553/225 487/552/225
f 125/557/226 393/558/226 574/553/226 378/559/226
f 126/528/227 401/560/227 575/561/227 395/562/227
f 138/563/228 398/564/228 575/561/228 401/560/228
f 131/551/229 395/565/229 575/561/229 398/566/229
f 131/551/230 398/564/230 576/567/230 487/568/230
f 138/563/231 400/569/231 576/567/231 398/564/231
f 135/570/232 487/571/232 576/567/232 400/572/232
f 137/573/233 403/574/233 577/575/233 372/576/233
f 138/563/234 401/577/234 577/575/234 403/578/234
f 126/528/235 372/579/235 577/575/235 401/577/235
f 139/580/236 402/581/236 578/582/236 399/583/236
f 127/584/237 489/585/237 578/582/237 402/586/237
f 136/587/238 399/583/238 578/582/238 489/588/238
f 138/563/239 403/589/239 579/590/239 404/591/239
f 137/592/240 397/593/240 579/590/240 403/594/240
f 122/481/241 404/595/241 579/590/241 397/596/241
f 135/555/242 400/572/242 580/597/242 396/598/242
f 138/563/243 404/599/243 580/597/243 400/600/243
f 122/481/244 396/598/244 580/597/244 404/591/244
f 128/478/245 405/601/245 581/602/245 379/603/245
f 139/604/246 490/605/246 581/602/246 405/606/246
f 129/607/247 379/608/247 581/602/247 490/609/247
f 142/487/248 412/610/248 582/611/248 480/612/248
f 141/613/249 411/614/249 582/611/249 412/615/249
f 121/616/250 480/612/250 582/611/250 411/614/250
f 121/616/251 411/614/251 583/617/251 358/618/251
f 141/613/252 413/619/252 583/617/252 411/620/252
f 125/621/253 358/622/253 583/617/253 413/619/253
f 134/623/254 342/624/254 584/625/254 414/626/254
f 89/627/255 416/628/255 584/625/255 342/624/255
f 140/629/256 414/630/256 584/625/256 416/631/256
f 117/632/257 497/633/257 585/634/257 492/635/257
f 140/629/258 419/636/258 585/634/258 497/637/258
f 144/638/259 492/639/259 585/634/259 419/640/259
f 141/613/260 412/641/260 586/642/260 417/643/260
f 142/487/261 410/644/261 586/642/261 412/610/261
f 143/645/262 417/646/262 586/642/262 410/647/262
f 117/632/263 368/648/263 587/649/263 497/650/263
f 118/476/264 494/651/264 587/649/264 368/648/264
f 140/629/265 497/650/265 587/649/265 494/652/265
f 146/653/266 418/654/266 588/655/266 351/656/266
f 145/657/267 420/658/267 588/655/267 418/659/267
f 92/660/268 351/661/268 588/655/268 420/662/268
f 19/8/269 148/663/269 589/664/269 151/665/269
f 23/5/270 150/666/270 589/664/270 148/663/270
f 1/26/271 151/665/271 589/664/271 150/667/271
f 2/33/272 152/668/272 590/669/272 421/670/272
f 24/10/273 149/13/273 590/669/273 152/671/273
f 20/17/274 421/672/274 590/669/274 149/673/274
f 4/23/275 157/39/275 591/674/275 422/675/275
f 5/38/276 159/676/276 591/674/276 157/677/276
f 6/54/277 422/678/277 591/674/277 159/679/277
f 7/680/278 161/681/278 592/682/278 160/683/278
f 22/42/279 158/45/279 592/682/279 161/684/279
f 3/28/280 160/683/280 592/682/280 158/685/280
f 8/70/281 163/686/281 593/687/281 162/688/281
f 22/42/282 161/681/282 593/687/282 163/689/282
f 7/680/283 162/688/283 593/687/283 161/690/283
f 10/62/284 166/691/284 594/692/284 165/693/284
f 11/694/285 167/695/285 594/692/285 166/696/285
f 9/50/286 165/697/286 594/692/286 167/695/286
f 10/62/287 169/698/287 595/699/287 166/700/287
f 13/701/288 170/702/288 595/699/288 169/703/288
f 11/694/289 166/691/289 595/699/289 170/702/289
f 14/82/290 177/704/290 596/705/290 172/80/290
f 177/704/291 18/706/291 178/707/291 596/705/291
f 596/705/292 178/707/292 16/708/292 174/709/292
f 172/80/293 596/705/293 174/709/293 15/64/293
f 29/349/294 197/710/294 597/711/294 196/712/294
f 197/710/295 52/187/295 195/713/295 597/711/295
f 597/711/296 195/713/296 46/241/296 429/714/296
f 196/712/297 597/711/297 429/714/297 34/715/297
f 20/17/298 180/19/298 598/716/298 428/717/298
f 16/718/299 178/719/299 598/716/299 180/720/299
f 18/706/300 428/717/300 598/716/300 178/721/300
f 30/112/301 190/722/301 599/723/301 189/724/301
f 55/167/302 191/175/302 599/723/302 190/722/302
f 32/174/303 189/724/303 599/723/303 191/725/303
f 31/164/304 192/726/304 600/727/304 193/728/304
f 57/201/305 449/729/305 600/727/305 192/730/305
f 29/349/306 193/731/306 600/727/306 449/732/306
f 40/231/307 198/733/307 601/734/307 203/735/307
f 198/733/308 85/299/308 201/302/308 601/734/308
f 601/734/309 201/302/309 35/305/309 202/736/309
f 203/735/310 601/734/310 202/736/310 48/737/310
f 33/116/311 281/738/311 602/739/311 430/228/311
f 85/299/312 198/740/312 602/739/312 281/738/312
f 40/231/313 430/741/313 602/739/313 198/740/313
f 46/241/314 199/742/314 603/743/314 429/744/314
f 83/407/315 200/745/315 603/743/315 199/746/315
f 34/747/316 429/714/316 603/743/316 200/748/316
f 46/241/317 204/749/317 604/750/317 199/742/317
f 204/749/318 47/129/318 431/751/318 604/750/318
f 604/750/319 431/751/319 36/752/319 205/753/319
f 199/742/320 604/750/320 205/753/320 83/407/320
f 48/737/321 202/736/321 605/754/321 207/755/321
f 202/736/322 35/305/322 206/756/322 605/754/322
f 605/754/323 206/756/323 37/757/323 433/758/323
f 207/755/324 605/754/324 433/758/324 50/759/324
f 50/759/325 433/758/325 606/760/325 211/761/325
f 433/758/326 37/757/326 210/762/326 606/760/326
f 606/760/327 210/762/327 39/763/327 435/764/327
f 211/761/328 606/760/328 435/764/328 51/135/328
f 38/126/329 208/765/329 607/766/329 432/767/329
f 36/768/330 431/769/330 607/766/330 208/770/330
f 47/129/331 432/771/331 607/766/331 431/772/331
f 49/773/332 212/774/332 608/775/332 434/776/332
f 212/774/333 51/135/333 435/777/333 608/775/333
f 608/775/334 435/777/334 39/778/334 213/779/334
f 434/776/335 608/775/335 213/779/335 38/126/335
f 51/135/336 225/780/336 609/781/336 211/782/336
f 225/780/337 67/262/337 454/265/337 609/781/337
f 609/781/338 454/265/338 42/269/338 214/783/338
f 211/782/339 609/781/339 214/783/339 50/784/339
f 42/269/340 216/785/340 610/786/340 214/787/340
f 216/785/341 74/278/341 217/788/341 610/786/341
f 610/786/342 217/788/342 48/789/342 207/790/342
f 214/787/343 610/786/343 207/790/343 50/791/343
f 63/256/344 218/792/344 611/793/344 253/794/344
f 218/792/345 47/129/345 204/795/345 611/793/345
f 611/793/346 204/795/346 46/241/346 438/247/346
f 253/794/347 611/793/347 438/247/347 64/246/347
f 47/129/348 218/796/348 612/797/348 437/140/348
f 63/256/349 453/258/349 612/797/349 218/798/349
f 41/131/350 437/140/350 612/797/350 453/258/350
f 40/231/351 203/799/351 613/800/351 219/801/351
f 48/802/352 217/803/352 613/800/352 203/804/352
f 74/278/353 219/805/353 613/800/353 217/803/353
f 54/153/354 442/806/354 614/807/354 227/808/354
f 442/806/355 70/149/355 226/809/355 614/807/355
f 614/807/356 226/809/356 67/262/356 225/780/356
f 227/808/357 614/807/357 225/780/357 51/135/357
f 52/187/358 224/810/358 615/811/358 195/713/358
f 54/153/359 222/812/359 615/811/359 224/813/359
f 46/241/360 195/814/360 615/811/360 222/815/360
f 51/135/361 436/816/361 616/817/361 440/818/361
f 41/131/362 455/819/362 616/817/362 436/132/362
f 68/820/363 440/821/363 616/817/363 455/819/363
f 53/822/364 188/823/364 617/824/364 228/825/364
f 188/823/365 32/174/365 231/172/365 617/824/365
f 617/824/366 231/172/366 58/171/366 450/826/366
f 228/825/367 617/824/367 450/826/367 61/161/367
f 54/153/368 227/808/368 618/827/368 441/828/368
f 51/135/369 440/829/369 618/827/369 227/830/369
f 68/820/370 441/828/370 618/827/370 440/821/370
f 57/201/371 192/831/371 619/832/371 446/833/371
f 192/831/372 31/164/372 230/834/372 619/832/372
f 619/832/373 230/834/373 59/218/373 232/835/373
f 446/833/374 619/832/374 232/835/374 56/836/374
f 61/161/375 246/225/375 620/837/375 229/838/375
f 59/218/376 230/839/376 620/837/376 246/840/376
f 31/164/377 229/841/377 620/837/377 230/834/377
f 59/218/378 451/842/378 621/843/378 232/844/378
f 451/842/379 58/171/379 443/173/379 621/843/379
f 621/843/380 443/173/380 55/167/380 239/193/380
f 232/844/381 621/843/381 239/193/381 56/836/381
f 54/153/382 247/845/382 622/846/382 222/847/382
f 247/845/383 77/848/383 249/849/383 622/846/383
f 622/846/384 249/849/384 66/244/384 250/242/384
f 222/847/385 622/846/385 250/242/385 46/241/385
f 25/176/386 237/850/386 623/851/386 445/177/386
f 45/119/387 233/207/387 623/851/387 237/850/387
f 44/185/388 445/177/388 623/851/388 233/852/388
f 52/853/389 238/854/389 624/855/389 236/184/389
f 45/856/390 237/850/390 624/855/390 238/854/390
f 25/176/391 236/184/391 624/855/391 237/850/391
f 57/201/392 240/857/392 625/858/392 242/859/392
f 45/119/393 238/854/393 625/858/393 240/857/393
f 52/187/394 242/860/394 625/858/394 238/854/394
f 30/112/395 194/861/395 626/862/395 190/863/395
f 45/119/396 444/194/396 626/862/396 194/864/396
f 55/167/397 190/865/397 626/862/397 444/194/397
f 57/201/398 242/860/398 627/866/398 449/732/398
f 52/187/399 197/867/399 627/866/399 242/868/399
f 29/349/400 449/732/400 627/866/400 197/869/400
f 58/870/401 244/217/401 628/871/401 450/826/401
f 60/872/402 243/227/402 628/871/402 244/217/402
f 61/873/403 450/826/403 628/871/403 243/223/403
f 13/701/404 169/703/404 629/874/404 176/875/404
f 169/703/405 10/62/405 173/876/405 629/874/405
f 629/874/406 173/876/406 21/877/406 175/87/406
f 176/875/407 629/874/407 175/87/407 17/86/407
f 77/848/408 247/878/408 630/879/408 458/880/408
f 54/153/409 441/881/409 630/879/409 247/882/409
f 68/820/410 458/880/410 630/879/410 441/883/410
f 70/149/411 220/884/411 631/885/411 268/886/411
f 33/116/412 248/887/412 631/885/412 220/148/412
f 71/234/413 268/886/413 631/885/413 248/887/413
f 80/888/414 476/889/414 632/890/414 460/891/414
f 476/889/415 78/892/415 459/893/415 632/890/415
f 632/890/416 459/893/416 39/894/416 210/895/416
f 460/891/417 632/890/417 210/895/417 37/757/417
f 42/269/418 254/896/418 633/897/418 216/785/418
f 75/898/419 262/899/419 633/897/419 254/900/419
f 74/278/420 216/901/420 633/897/420 262/902/420
f 68/820/421 455/903/421 634/904/421 456/905/421
f 41/131/422 259/906/422 634/904/422 455/819/422
f 76/276/423 456/905/423 634/904/423 259/277/423
f 42/269/424 257/267/424 635/907/424 254/908/424
f 69/266/425 260/909/425 635/907/425 257/910/425
f 75/898/426 254/900/426 635/907/426 260/911/426
f 40/231/427 265/289/427 636/912/427 457/232/427
f 72/288/428 267/913/428 636/912/428 265/914/428
f 71/234/429 457/236/429 636/912/429 267/913/429
f 39/763/430 459/915/430 637/916/430 213/917/430
f 459/915/431 78/892/431 269/918/431 637/916/431
f 637/916/432 269/918/432 79/294/432 270/291/432
f 213/917/433 637/916/433 270/291/433 38/126/433
f 105/919/434 271/920/434 638/921/434 329/922/434
f 271/920/435 37/757/435 206/923/435 638/921/435
f 638/921/436 206/923/436 35/305/436 277/924/436
f 329/922/437 638/921/437 277/924/437 106/925/437
f 37/757/438 271/926/438 639/927/438 460/928/438
f 105/919/439 272/929/439 639/927/439 271/930/439
f 80/888/440 460/931/440 639/927/440 272/932/440
f 81/297/441 275/933/441 640/934/441 274/293/441
f 275/933/442 82/411/442 276/935/442 640/934/442
f 640/934/443 276/935/443 36/768/443 208/770/443
f 274/293/444 640/934/444 208/770/444 38/126/444
f 98/320/445 287/936/445 641/937/445 288/938/445
f 287/936/446 96/311/446 289/334/446 641/937/446
f 641/937/447 289/334/447 32/174/447 188/823/447
f 288/938/448 641/937/448 188/823/448 53/822/448
f 83/407/449 205/939/449 642/940/449 278/408/449
f 36/941/450 276/935/450 642/940/450 205/942/450
f 82/411/451 278/943/451 642/940/451 276/944/451
f 84/355/452 280/356/452 643/945/452 279/946/452
f 34/947/453 200/948/453 643/945/453 280/356/453
f 83/407/454 279/949/454 643/945/454 200/950/454
f 98/320/455 288/951/455 644/952/455 462/953/455
f 53/954/456 187/955/456 644/952/456 288/956/456
f 31/164/457 462/324/457 644/952/457 187/160/457
f 28/957/458 299/958/458 645/959/458 298/960/458
f 299/958/459 114/961/459 355/962/459 645/959/459
f 645/959/460 355/962/460 111/963/460 297/964/460
f 298/960/461 645/959/461 297/964/461 87/467/461
f 94/322/462 286/965/462 646/966/462 293/340/462
f 98/320/463 290/967/463 646/966/463 286/968/463
f 95/328/464 293/340/464 646/966/464 290/326/464
f 30/112/465 189/724/465 647/969/465 464/970/465
f 32/174/466 291/971/466 647/969/466 189/972/466
f 99/335/467 464/973/467 647/969/467 291/332/467
f 94/322/468 294/344/468 648/974/468 468/975/468
f 31/164/469 193/976/469 648/974/469 294/341/469
f 29/349/470 468/977/470 648/974/470 193/731/470
f 30/112/471 350/978/471 649/979/471 465/980/471
f 85/299/472 281/981/472 649/979/472 350/982/472
f 33/116/473 465/983/473 649/979/473 281/981/473
f 92/456/474 357/984/474 650/985/474 466/986/474
f 100/357/475 296/987/475 650/985/475 357/988/475
f 87/364/476 466/986/476 650/985/476 296/987/476
f 99/335/477 282/989/477 651/990/477 301/991/477
f 282/989/478 97/307/478 300/992/478 651/990/478
f 651/990/479 300/992/479 28/361/479 467/358/479
f 301/991/480 651/990/480 467/358/480 100/357/480
f 28/957/481 300/993/481 652/994/481 299/995/481
f 300/993/482 97/316/482 283/319/482 652/994/482
f 652/994/483 283/319/483 94/322/483 302/996/483
f 299/995/484 652/994/484 302/996/484 114/961/484
f 101/997/485 312/998/485 653/999/485 311/1000/485
f 312/998/486 26/1001/486 310/1002/486 653/999/486
f 653/999/487 310/1002/487 86/1003/487 469/1004/487
f 311/1000/488 653/999/488 469/1004/488 104/375/488
f 88/414/489 304/1005/489 654/1006/489 305/410/489
f 84/355/490 279/1007/490 654/1006/490 304/1008/490
f 83/407/491 305/410/491 654/1006/491 279/946/491
f 27/366/492 477/1009/492 655/1010/492 306/1011/492
f 92/456/493 466/1012/493 655/1010/493 477/1009/493
f 87/364/494 306/1013/494 655/1010/494 466/986/494
f 90/463/495 308/1014/495 656/1015/495 307/1016/495
f 27/1017/496 306/1018/496 656/1015/496 308/1019/496
f 87/467/497 307/1020/497 656/1015/497 306/1018/497
f 86/1021/498 310/1022/498 657/1023/498 309/1024/498
f 310/1022/499 26/1025/499 313/1026/499 657/1023/499
f 657/1023/500 313/1026/500 102/1027/500 314/1028/500
f 309/1024/501 657/1023/501 314/1028/501 103/386/501
f 26/1025/502 315/1029/502 658/1030/502 313/1026/502
f 315/1029/503 27/1017/503 308/1019/503 658/1030/503
f 658/1030/504 308/1019/504 90/463/504 317/1031/504
f 313/1026/505 658/1030/505 317/1031/505 102/1027/505
f 26/1001/506 312/1032/506 659/1033/506 315/1034/506
f 101/1035/507 316/1036/507 659/1033/507 312/1032/507
f 27/366/508 315/1037/508 659/1033/508 316/1036/508
f 106/303/509 470/1038/509 660/1039/509 329/1040/509
f 470/1038/510 108/1041/510 327/376/510 660/1039/510
f 660/1039/511 327/376/511 104/375/511 328/1042/511
f 329/1040/512 660/1039/512 328/1042/512 105/396/512
f 90/463/513 323/1043/513 661/1044/513 472/1045/513
f 89/1046/514 324/1047/514 661/1044/514 323/1043/514
f 110/389/515 472/1048/515 661/1044/515 324/1047/515
f 27/366/516 316/1049/516 662/1050/516 471/1051/516
f 101/997/517 473/1052/517 662/1050/517 316/1036/517
f 109/370/518 471/1051/518 662/1050/518 473/1053/518
f 110/389/519 474/1054/519 663/1055/519 472/1045/519
f 102/1027/520 317/1031/520 663/1055/520 474/1054/520
f 90/463/521 472/1056/521 663/1055/521 317/1031/521
f 101/1057/522 311/1000/522 664/1058/522 473/1059/522
f 104/375/523 325/1060/523 664/1058/523 311/1061/523
f 109/370/524 473/1053/524 664/1058/524 325/378/524
f 110/389/525 326/1062/525 665/1063/525 474/1064/525
f 103/386/526 314/1065/526 665/1063/526 326/387/526
f 102/1027/527 474/1064/527 665/1063/527 314/1066/527
f 103/386/528 475/1067/528 666/1068/528 330/1069/528
f 475/1067/529 107/382/529 318/1070/529 666/1068/529
f 666/1068/530 318/1070/530 82/411/530 275/1071/530
f 330/1069/531 666/1068/531 275/1071/531 81/404/531
f 86/1003/532 331/1072/532 667/1073/532 469/1074/532
f 331/1072/533 78/390/533 332/393/533 667/1073/533
f 667/1073/534 332/393/534 105/396/534 328/1075/534
f 469/1074/535 667/1073/535 328/1075/535 104/375/535
f 86/1021/536 309/1024/536 668/1076/536 331/1077/536
f 309/1024/537 103/386/537 330/1069/537 668/1076/537
f 668/1076/538 330/1069/538 81/404/538 333/403/538
f 331/1077/539 668/1076/539 333/403/539 78/402/539
f 108/1078/540 470/1079/540 669/1080/540 337/1081/540
f 470/1079/541 106/303/541 334/1082/541 669/1080/541
f 669/1080/542 334/1082/542 91/446/542 336/524/542
f 337/1081/543 669/1080/543 336/524/543 112/416/543
f 85/299/544 303/447/544 670/1083/544 461/300/544
f 91/446/545 334/1084/545 670/1083/545 303/447/545
f 106/303/546 461/1085/546 670/1083/546 334/1082/546
f 88/414/547 335/1086/547 671/1087/547 339/1088/547
f 335/1086/548 82/411/548 318/1089/548 671/1087/548
f 671/1087/549 318/1089/549 107/1090/549 338/427/549
f 339/1088/550 671/1087/550 338/427/550 134/426/550
f 115/504/551 347/1091/551 672/1092/551 348/1093/551
f 347/1091/552 114/961/552 344/1094/552 672/1092/552
f 672/1092/553 344/1094/553 84/355/553 304/1005/553
f 348/1093/554 672/1092/554 304/1005/554 88/414/554
f 110/389/555 324/1095/555 673/1096/555 341/1097/555
f 89/1046/556 342/1098/556 673/1096/556 324/1047/556
f 134/426/557 341/1099/557 673/1096/557 342/1098/557
f 114/961/558 302/996/558 674/1100/558 344/1094/558
f 94/322/559 345/453/559 674/1100/559 302/1101/559
f 84/355/560 344/1102/560 674/1100/560 345/449/560
f 99/335/561 343/1103/561 675/1104/561 464/973/561
f 343/1103/562 113/438/562 349/442/562 675/1104/562
f 675/1104/563 349/442/563 85/299/563 350/978/563
f 464/973/564 675/1104/564 350/978/564 30/112/564
f 90/463/565 352/470/565 676/1105/565 323/1043/565
f 352/470/566 111/1106/566 353/1107/566 676/1105/566
f 676/1105/567 353/1107/567 93/1108/567 354/1109/567
f 323/1043/568 676/1105/568 354/1109/568 89/1046/568
f 93/1108/569 353/1110/569 677/1111/569 356/1112/569
f 353/1110/570 111/1106/570 355/1113/570 677/1111/570
f 677/1111/571 355/1113/571 114/961/571 347/1091/571
f 356/1112/572 677/1111/572 347/1091/572 115/504/572
f 117/632/573 367/1114/573 678/1115/573 368/1116/573
f 367/1114/574 127/584/574 377/1117/574 678/1115/574
f 678/1115/575 377/1117/575 128/478/575 363/477/575
f 368/1116/576 678/1115/576 363/477/576 118/476/576
f 100/357/577 357/988/577 679/1118/577 479/1119/577
f 92/456/578 478/1120/578 679/1118/578 357/1121/578
f 113/438/579 479/1119/579 679/1118/579 478/1122/579
f 119/472/580 359/1123/580 680/1124/580 360/1125/580
f 120/1126/581 386/544/581 680/1124/581 359/1127/581
f 134/531/582 360/1125/582 680/1124/582 386/1128/582
f 121/1129/583 361/1130/583 681/1131/583 480/1132/583
f 122/481/584 362/488/584 681/1131/584 361/1133/584
f 142/487/585 480/1134/585 681/1131/585 362/488/585
f 126/528/586 373/526/586 682/1135/586 372/1136/586
f 373/526/587 124/512/587 370/1137/587 682/1135/587
f 682/1135/588 370/1137/588 123/485/588 376/1138/588
f 372/1136/589 682/1135/589 376/1138/589 137/592/589
f 127/584/590 367/1139/590 683/1140/590 375/1141/590
f 117/632/591 369/1142/591 683/1140/591 367/1114/591
f 116/494/592 375/1143/592 683/1140/592 369/1142/592
f 121/1129/593 358/1144/593 684/1145/593 361/1146/593
f 358/1144/594 125/557/594 378/556/594 684/1145/594
f 684/1145/595 378/556/595 135/1147/595 396/1148/595
f 361/1146/596 684/1145/596 396/1148/596 122/481/596
f 132/490/597 374/1149/597 685/1150/597 481/1151/597
f 127/584/598 375/1152/598 685/1150/598 374/1153/598
f 116/494/599 481/491/599 685/1150/599 375/1143/599
f 122/481/600 397/1154/600 686/1155/600 366/482/600
f 137/1156/601 376/1138/601 686/1155/601 397/1157/601
f 123/485/602 366/1158/602 686/1155/602 376/1138/602
f 119/472/603 364/479/603 687/1159/603 359/1160/603
f 364/479/604 128/478/604 379/603/604 687/1159/604
f 687/1159/605 379/603/605 129/1161/605 380/1162/605
f 359/1160/606 687/1159/606 380/1162/606 120/1163/606
f 129/1161/607 490/1164/607 688/1165/607 488/1166/607
f 490/1164/608 139/1167/608 399/583/608 688/1165/608
f 688/1165/609 399/583/609 136/1168/609 485/1169/609
f 488/1166/610 688/1165/610 485/1169/610 130/535/610
f 131/551/611 388/1170/611 689/1171/611 395/565/611
f 133/516/612 484/1172/612 689/1171/612 388/1173/612
f 126/528/613 395/1174/613 689/1171/613 484/1175/613
f 136/1176/614 387/1177/614 690/1178/614 485/1179/614
f 132/490/615 389/1180/615 690/1178/615 387/1181/615
f 130/535/616 485/1182/616 690/1178/616 389/1180/616
f 112/1183/617 390/1184/617 691/1185/617 486/1186/617
f 133/516/618 388/1187/618 691/1185/618 390/1184/618
f 131/551/619 486/1188/619 691/1185/619 388/1170/619
f 112/1183/620 486/1188/620 692/1189/620 483/1190/620
f 131/551/621 393/554/621 692/1189/621 486/1191/621
f 125/557/622 483/1190/622 692/1189/622 393/558/622
f 130/535/623 394/546/623 693/1192/623 488/1193/623
f 120/1163/624 380/1194/624 693/1192/624 394/1195/624
f 129/1196/625 488/1197/625 693/1192/625 380/1198/625
f 127/584/626 374/1199/626 694/1200/626 489/1201/626
f 132/490/627 387/1181/627 694/1200/627 374/1153/627
f 136/1176/628 489/1202/628 694/1200/628 387/1181/628
f 145/657/629 407/1203/629 695/1204/629 406/1205/629
f 407/1203/630 143/1206/630 491/1207/630 695/1204/630
f 695/1204/631 491/1207/631 123/485/631 370/1137/631
f 406/1205/632 695/1204/632 370/1137/632 124/512/632
f 139/604/633 405/1208/633 696/1209/633 402/581/633
f 128/478/634 377/1117/634 696/1209/634 405/1210/634
f 127/584/635 402/1211/635 696/1209/635 377/1117/635
f 116/494/636 409/1212/636 697/1213/636 371/1214/636
f 409/1212/637 144/1215/637 408/1216/637 697/1213/637
f 697/1213/638 408/1216/638 93/1217/638 356/1218/638
f 371/1214/639 697/1213/639 356/1218/639 115/496/639
f 146/653/640 415/1219/640 698/1220/640 418/1221/640
f 415/1219/641 141/613/641 417/1222/641 698/1220/641
f 698/1220/642 417/1222/642 143/1206/642 407/1203/642
f 418/1221/643 698/1220/643 407/1203/643 145/657/643
f 144/1223/644 409/1224/644 699/1225/644 492/639/644
f 116/494/645 369/1226/645 699/1225/645 409/1212/645
f 117/632/646 492/639/646 699/1225/646 369/1142/646
f 123/485/647 491/1227/647 700/1228/647 493/486/647
f 143/1229/648 410/1230/648 700/1228/648 491/1207/648
f 142/487/649 493/489/649 700/1228/649 410/1231/649
f 118/476/650 365/1232/650 701/1233/650 494/1234/650
f 119/1235/651 495/1236/651 701/1233/651 365/1237/651
f 140/629/652 494/1234/652 701/1233/652 495/1238/652
f 119/1235/653 360/1239/653 702/1240/653 495/1236/653
f 134/623/654 414/626/654 702/1240/654 360/1239/654
f 140/629/655 495/1241/655 702/1240/655 414/1242/655
f 125/621/656 413/1243/656 703/1244/656 496/1245/656
f 141/613/657 415/1246/657 703/1244/657 413/619/657
f 146/653/658 496/1247/658 703/1244/658 415/1248/658
f 89/627/659 354/1249/659 704/1250/659 416/1251/659
f 354/1249/660 93/1217/660 408/1252/660 704/1250/660
f 704/1250/661 408/1252/661 144/1253/661 419/1254/661
f 416/1251/662 704/1250/662 419/1254/662 140/629/662
f 145/1255/663 406/1205/663 705/1256/663 420/658/663
f 406/1205/664 124/512/664 384/515/664 705/1256/664
f 705/1256/665 384/515/665 113/519/665 478/1257/665
f 420/658/666 705/1256/666 478/1257/666 92/660/666
f 112/1258/667 483/1259/667 706/1260/667 498/1261/667
f 125/621/668 496/1247/668 706/1260/668 483/1262/668
f 146/653/669 498/1263/669 706/1260/669 496/1247/669
