# Blender 4.4.0
# www.blender.org
mtllib negr_lod5.mtl
o negr
v -0.542578 -0.951572 0.119313
v -0.001070 -0.787121 -0.657664
v 0.584376 -0.898430 0.073014
v 0.176659 -0.153710 0.567737
v 0.000977 -0.216033 -0.468237
v 0.306779 0.287531 0.475688
v 0.543038 0.419801 -0.277918
v -0.168116 1.030580 0.259994
v -0.195318 0.220078 0.551762
v -0.218539 -0.214187 0.427623
v -0.558724 0.442551 -0.347418
vn 0.6894 0.2012 0.6959
vn 0.4607 -0.3074 0.8326
vn 0.8468 0.2361 -0.4767
vn -0.1816 0.9462 0.2678
vn -0.5057 0.1062 0.8561
vn -0.8019 0.2245 -0.5537
vn 0.0133 0.0437 -0.9990
vn 0.9357 0.1179 0.3325
vn -0.7062 -0.3031 0.6399
vn -0.9151 0.0613 0.3985
vn -0.0580 0.3143 -0.9475
vt 0.618509 0.562911
vt 0.547233 0.369434
vt 0.838101 0.622042
vt 0.363606 0.857776
vt 0.433649 0.537877
vt 0.625359 0.889376
vt 0.936000 0.877000
vt 0.953182 0.267459
vt 0.982826 0.668791
vt 0.713816 0.002655
vt 0.441512 0.317404
vt 0.315571 0.006776
vt 0.970819 0.002307
vt 0.158861 0.620983
vt 0.089867 0.271669
vt 0.053775 0.002111
s 1
f 6/1/1 4/2/2 7/3/3
f 6/1/1 8/4/4 9/5/5
f 8/6/4 6/1/1 7/3/3
f 8/6/4 7/3/3 11/7/6
f 7/3/3 4/2/2 5/8/7
f 6/1/1 9/5/5 4/2/2
f 5/8/7 11/9/6 7/3/3
f 3/10/8 4/2/2 10/11/9
f 4/2/2 3/10/8 5/8/7
f 3/10/8 10/11/9 1/12/10
f 5/8/7 3/10/8 2/13/11
f 9/5/5 11/14/6 10/11/9
f 11/14/6 5/15/7 10/11/9
f 9/5/5 10/11/9 4/2/2
f 9/5/5 8/4/4 11/14/6
f 10/11/9 5/15/7 1/12/10
f 5/15/7 2/16/11 1/12/10
