# Blender 4.4.0
# www.blender.org
mtllib negr_lod2.mtl
o negr
v -0.000582 -0.734665 -0.623267
v -0.000035 -1.002342 0.284238
v -0.117277 -0.973564 0.306907
v -0.382144 -0.890788 0.221243
v -0.247144 -0.942602 0.276051
v -0.656078 -0.718512 -0.109025
v -0.609847 -0.786562 0.019807
v -0.662480 -0.632053 -0.244271
v -0.511812 -0.845392 0.127809
v -0.609326 -0.569868 -0.415710
v -0.428589 -0.645666 -0.572503
v -0.201076 -0.720822 -0.633205
v 0.117382 -0.973645 0.306766
v 0.382454 -0.890869 0.221097
v 0.247512 -0.942667 0.275986
v 0.656371 -0.718624 -0.109224
v 0.610273 -0.786562 0.019789
v 0.662480 -0.631463 -0.244119
v 0.511631 -0.845357 0.127832
v 0.608654 -0.568839 -0.416318
v 0.424663 -0.649937 -0.567418
v 0.198972 -0.720968 -0.633141
v 0.144043 -0.135566 0.491231
v -0.074350 -0.049126 0.500946
v 0.075062 -0.047331 0.499550
v 0.082516 -0.121039 0.574046
v 0.059809 -0.111430 0.545262
v 0.155240 -0.138547 0.506976
v 0.158971 -0.105661 0.472975
v 0.162598 -0.132652 0.473077
v -0.048892 -0.110160 0.549746
v 0.219716 -0.302706 0.415236
v 0.235733 -0.329340 0.306973
v 0.295009 -0.082677 0.453830
v 0.339669 0.034092 0.432969
v 0.361001 -0.125285 -0.216021
v 0.296890 -0.094819 -0.349217
v 0.448621 0.155383 0.154893
v 0.197861 -0.435146 0.121487
v 0.204911 -0.353378 0.208200
v 0.102001 -0.419375 0.249690
v 0.104265 -0.486305 0.198198
v 0.138652 -0.374859 0.455541
v 0.126191 -0.379412 0.305782
v 0.443006 0.670867 -0.148445
v 0.438346 0.538422 0.047713
v 0.336975 0.422133 0.419414
v 0.392001 0.373847 0.312256
v 0.331843 0.335884 0.430604
v 0.280172 0.294973 0.456388
v 0.309542 0.284292 0.421846
v 0.291960 0.279539 0.431548
v 0.201090 0.442739 0.533719
v 0.264671 0.628727 0.429801
v 0.159927 0.403985 0.543852
v 0.204077 0.682735 0.455851
v 0.191107 0.314230 0.510439
v 0.145572 0.299732 0.499084
v 0.129375 0.309222 0.510817
v 0.045525 0.072418 0.622175
v 0.053807 0.082500 0.600078
v 0.398767 0.060765 0.328337
v 0.419894 0.002743 0.183108
v 0.349888 -0.081841 0.343341
v 0.187159 -0.120086 0.535325
v 0.210682 -0.176871 0.503052
v 0.240569 -0.148685 0.490893
v 0.162361 -0.141739 0.518194
v 0.348625 0.208512 0.390472
v 0.330249 0.112728 0.436970
v 0.282097 0.029767 0.494270
v 0.126518 -0.207493 0.559152
v 0.178396 -0.194521 0.524262
v 0.112807 -0.137326 0.576970
v 0.198253 -0.050475 0.529283
v 0.140775 -0.089126 0.572906
v 0.141257 0.113564 0.538585
v 0.103483 0.179693 0.559819
v 0.116029 0.255985 0.496391
v 0.334251 0.035571 -0.345740
v 0.400368 -0.153414 0.168425
v 0.456445 0.132851 0.046265
v 0.111654 0.773901 0.425972
v 0.170657 0.867943 0.295902
v 0.300525 0.793014 0.255949
v 0.341405 0.611393 0.337922
v 0.375916 0.744129 0.118509
v 0.079327 0.489095 0.558926
v 0.089873 0.664489 0.511560
v 0.117796 0.273818 0.491681
v 0.016420 0.220645 0.618046
v -0.030160 0.339375 0.560701
v 0.294082 0.419163 0.474402
v 0.200232 0.100516 0.525953
v 0.150626 0.223358 0.497310
v 0.104752 0.035695 0.565894
v 0.031370 0.018519 0.586619
v 0.148231 0.065685 0.535889
v 0.034210 -0.057671 0.637749
v 0.000284 -0.032347 0.609510
v 0.118572 0.273744 0.474781
v 0.208668 0.928044 0.134515
v 0.285903 0.921402 -0.213866
v 0.116573 0.988055 -0.181568
v 0.189930 0.968385 -0.022958
v 0.029079 0.999653 -0.007429
v 0.024215 0.960331 0.166314
v 0.110152 0.083348 0.607408
v 0.111710 0.118929 0.608256
v 0.024187 0.128142 0.673246
v 0.045654 0.081923 0.650637
v 0.079528 0.082098 0.567845
v 0.020244 0.035405 0.600153
v 0.069113 -0.100155 0.621410
v 0.052583 -0.117740 0.591580
v 0.023969 0.289463 0.567853
v -0.012115 0.082628 0.674954
v 0.381273 0.283763 0.337848
v -0.001711 -0.409354 0.312871
v 0.183348 -0.255107 0.505430
v 0.116546 -0.315931 0.531083
v 0.069836 -0.227596 0.569323
v 0.269852 0.213898 0.463122
v 0.355804 -0.192640 0.017542
v 0.375753 -0.206663 0.090026
v 0.293650 -0.279868 0.104617
v 0.394106 0.171846 0.329590
v 0.067272 0.563871 -0.661272
v 0.083312 0.724122 -0.604086
v 0.046470 -0.325881 0.556748
v 0.066106 -0.374553 0.504765
v -0.032541 0.999492 -0.178725
v 0.240539 0.922501 -0.311003
v 0.045885 0.958841 -0.339294
v 0.166707 0.262546 0.498126
v 0.017839 0.045509 0.637995
v 0.083738 -0.056578 -0.483915
v 0.192175 -0.022154 -0.458685
v 0.193196 -0.185744 -0.420723
v 0.241235 0.313081 0.495879
v 0.045180 -0.166240 0.626587
v 0.099876 0.068422 0.585186
v 0.133524 0.055153 0.575778
v 0.031574 -0.130955 0.617778
v 0.001430 -0.109279 0.576488
v 0.223168 0.259254 0.496884
v -0.000477 -0.371502 0.487055
v 0.095310 -0.385269 0.417822
v 0.363734 0.712842 -0.467571
v 0.321660 0.832542 -0.392653
v 0.386073 0.819738 -0.217061
v 0.427095 0.698004 -0.319575
v 0.317039 0.884629 -0.009641
v 0.185070 0.856962 -0.473249
v 0.246700 0.723207 -0.559263
v 0.102843 0.179025 -0.633180
v 0.237140 0.175881 -0.583365
v 0.346078 0.196985 -0.483078
v 0.440636 0.347467 -0.364846
v -0.072256 0.231229 -0.652881
v 0.075933 0.393016 -0.674755
v 0.460391 0.547448 -0.317729
v 0.383015 0.401930 -0.511868
v 0.385400 0.562496 -0.506472
v -0.000096 -0.406882 0.376985
v 0.381373 -0.136188 -0.122093
v -0.019247 0.879351 0.324063
v 0.259487 0.262936 0.476215
v 0.295519 0.293720 0.415426
v 0.263929 0.331377 0.472329
v 0.354403 -0.393129 -0.196792
v 0.339963 -0.256670 -0.333070
v 0.356725 -0.247925 -0.205557
v 0.292785 -0.321493 0.037743
v 0.420332 -0.029471 -0.020603
v -0.058476 -0.047861 -0.496152
v -0.064657 0.116355 -0.608088
v -0.066416 0.860851 -0.492877
v -0.069973 -0.157326 -0.459617
v 0.264186 0.569610 -0.608026
v 0.332767 -0.416182 -0.072111
v 0.092134 -0.270180 -0.437225
v 0.263397 0.402579 -0.621226
v 0.460473 0.320343 -0.044518
v 0.463039 0.311941 -0.143661
v -0.025737 0.778883 0.438186
v 0.036063 0.332596 0.554439
v 0.000154 -0.225681 0.575215
v 0.210993 -0.303216 -0.419831
v 0.278336 -0.450017 0.050930
v -0.089057 -0.275780 -0.437705
v 0.450735 0.148379 -0.051059
v 0.476467 0.170066 -0.014233
v 0.496244 0.232684 -0.017071
v 0.462975 0.243329 0.020372
v 0.517015 0.298681 -0.052388
v 0.492233 0.317880 -0.044174
v 0.526278 0.322725 -0.125184
v 0.540295 0.268210 -0.186761
v 0.511128 0.303650 -0.186838
v 0.511286 0.231199 -0.218992
v 0.507867 0.130331 -0.188274
v 0.490433 0.122168 -0.208603
v 0.487188 -0.013442 -0.025166
v 0.462782 -0.043813 -0.037746
v 0.470790 0.039994 -0.154257
v 0.494035 0.043114 -0.129235
v 0.474888 0.238927 -0.041999
v 0.502204 0.298675 -0.074179
v 0.514955 0.279992 -0.163935
v 0.449027 0.039689 0.043393
v 0.434143 -0.013197 0.031029
v 0.442259 0.068377 -0.027315
v 0.448793 0.232520 -0.195632
v 0.428222 0.139911 -0.196040
v 0.423348 0.013309 -0.120924
v 0.474468 0.042192 -0.006566
v 0.481517 0.082717 -0.101349
v -0.066318 -0.179508 0.497660
v 0.123103 -0.188067 0.471051
v 0.065853 0.017128 0.376055
v 0.151359 -0.142646 0.400947
v 0.074840 -0.218144 0.372349
v 0.130929 0.263161 0.460826
v 0.116841 0.290048 0.456292
v 0.245977 0.259994 0.434028
v 0.134630 0.316793 0.467129
v 0.225190 0.345932 0.452456
v 0.000909 -0.205715 0.379849
v 0.048204 -0.099348 0.270774
v 0.266425 -0.425792 -0.456003
v 0.402737 -0.357918 -0.327090
v 0.453655 -0.417300 -0.356160
v 0.072385 -0.702816 0.173631
v 0.170513 -0.639143 0.134040
v 0.384404 -0.506009 -0.189425
v 0.372989 -0.619402 -0.037357
v 0.462218 -0.709540 -0.046238
v 0.164727 -0.819992 0.206785
v 0.088348 -0.859919 0.221018
v 0.555004 -0.584226 -0.219366
v 0.378209 -0.764276 0.066273
v 0.530566 -0.740868 -0.055712
v 0.274837 -0.806199 0.115503
v 0.320508 -0.838061 0.183769
v 0.345748 -0.541903 -0.524911
v 0.002010 -0.349572 -0.441926
v -0.087674 -0.570661 -0.539889
v 0.274843 -0.684891 0.078152
v 0.001737 -0.733446 0.180067
v 0.000313 -0.874904 0.179121
v -0.142678 -0.135537 0.491859
v -0.162085 -0.132803 0.472665
v -0.057755 -0.099072 0.554312
v -0.157674 -0.105841 0.473254
v -0.154878 -0.137099 0.503713
v -0.235727 -0.328872 0.305771
v -0.216773 -0.305048 0.418155
v -0.246545 -0.024189 0.512169
v -0.358413 0.073175 0.415246
v -0.309732 -0.068626 0.433864
v -0.295054 -0.095891 -0.348823
v -0.359016 -0.126791 -0.215868
v -0.451072 0.156649 0.140504
v -0.432784 0.346464 0.154495
v -0.103311 -0.419241 0.249936
v -0.203701 -0.353384 0.208147
v -0.198484 -0.436288 0.120203
v -0.103653 -0.487445 0.200815
v -0.139503 -0.375019 0.456786
v -0.126994 -0.378999 0.306065
v -0.438432 0.540082 0.042589
v -0.441549 0.670589 -0.147144
v -0.391400 0.365206 0.323746
v -0.326633 0.480502 0.411312
v -0.316946 0.293859 0.422802
v -0.269817 0.331811 0.488656
v -0.338243 0.353863 0.430214
v -0.298818 0.279580 0.432563
v -0.170526 0.483148 0.536352
v -0.263957 0.630431 0.429613
v -0.276982 0.421487 0.490952
v -0.167415 0.405837 0.541847
v -0.146679 0.666881 0.498822
v -0.145154 0.299743 0.499371
v -0.129292 0.309023 0.509858
v -0.190279 0.314727 0.510353
v -0.091994 0.078130 0.588770
v -0.049374 0.088780 0.593591
v -0.055140 0.077942 0.635113
v -0.427586 0.064827 0.201141
v -0.424898 0.168873 0.238828
v -0.371554 -0.032415 0.312826
v -0.396932 -0.155991 0.174513
v -0.201654 -0.153361 0.514516
v -0.223498 -0.131338 0.513800
v -0.164112 -0.144372 0.517161
v -0.363731 0.233738 0.366612
v -0.306171 0.073184 0.467968
v -0.390999 0.049906 0.344820
v -0.182243 -0.192491 0.525185
v -0.135446 -0.200477 0.562709
v -0.094691 -0.157897 0.610148
v -0.197398 -0.043939 0.531491
v -0.235025 -0.192920 0.472621
v -0.091143 -0.125980 0.591590
v -0.103497 0.180826 0.560060
v -0.142688 0.112087 0.538104
v -0.113938 0.260202 0.494728
v -0.329598 0.033640 -0.349378
v -0.455677 0.132752 0.046423
v -0.189829 0.862994 0.285720
v -0.170654 0.763265 0.409992
v -0.339714 0.611352 0.337480
v -0.298171 0.794408 0.254821
v -0.375049 0.743682 0.118041
v -0.087866 0.490849 0.558250
v -0.043357 0.196083 0.616797
v -0.166504 0.195826 0.505577
v -0.034875 0.022005 0.587952
v -0.105482 0.049280 0.574294
v -0.146871 0.062848 0.534706
v -0.060929 -0.009527 0.602088
v -0.039195 -0.050629 0.635607
v -0.116886 0.273029 0.477591
v -0.227685 0.940440 0.049773
v -0.131842 0.947896 0.156253
v -0.114302 0.989551 -0.013853
v -0.215583 0.957930 -0.187182
v -0.140160 -0.091496 0.577119
v -0.042226 0.127653 0.665465
v -0.128419 0.109497 0.595696
v -0.117594 0.082035 0.606693
v -0.081008 0.082460 0.567973
v -0.020502 0.035304 0.606533
v -0.059942 -0.096445 0.624594
v -0.060784 -0.119185 0.590289
v -0.031240 0.287622 0.566860
v -0.182724 -0.256764 0.506993
v -0.089447 -0.226901 0.567120
v -0.214255 0.089903 0.521613
v -0.257797 0.193084 0.473347
v -0.374522 -0.206562 0.089750
v -0.354245 -0.192675 0.017676
v -0.292388 -0.279891 0.104617
v -0.126064 0.567371 -0.651942
v -0.117096 0.725914 -0.596082
v -0.067374 -0.375085 0.505343
v -0.090841 -0.327353 0.544893
v -0.147912 0.943317 -0.337161
v -0.187275 0.258916 0.500426
v -0.153740 0.264391 0.492873
v -0.129420 -0.131825 0.547228
v -0.191871 -0.187159 -0.420387
v -0.190227 -0.023290 -0.457171
v -0.236489 0.317425 0.498423
v -0.136833 0.054399 0.574241
v -0.224595 0.255361 0.497630
v -0.292078 0.280312 0.423180
v -0.095068 -0.385959 0.418065
v -0.384524 0.819457 -0.216774
v -0.319800 0.831958 -0.392208
v -0.362179 0.712818 -0.467507
v -0.425879 0.698185 -0.319692
v -0.286883 0.911561 -0.256159
v -0.316492 0.884500 -0.008648
v -0.212687 0.850449 -0.463771
v -0.245244 0.723306 -0.559461
v -0.235539 0.175480 -0.582917
v -0.344784 0.200066 -0.484282
v -0.438741 0.346615 -0.365224
v -0.123907 0.397932 -0.664658
v -0.381641 0.401913 -0.512072
v -0.458995 0.548673 -0.316354
v -0.384366 0.562601 -0.506817
v -0.379643 -0.136186 -0.122596
v -0.260708 0.262227 0.476935
v -0.297490 0.293791 0.415629
v -0.338829 -0.256922 -0.332746
v -0.352704 -0.394014 -0.197702
v -0.354936 -0.247872 -0.205511
v -0.291610 -0.321499 0.038029
v -0.418940 -0.029308 -0.020726
v -0.263209 0.569914 -0.609242
v -0.337019 -0.364143 -0.081299
v -0.261795 0.402579 -0.621448
v -0.461584 0.311984 -0.143664
v -0.459044 0.320368 -0.044559
v -0.209892 -0.303200 -0.420120
v -0.277627 -0.453242 0.052048
v -0.475602 0.170335 -0.014323
v -0.449131 0.149124 -0.051796
v -0.461804 0.243288 0.020392
v -0.494987 0.232631 -0.016977
v -0.491035 0.317921 -0.044197
v -0.515688 0.298728 -0.052358
v -0.525011 0.322745 -0.125233
v -0.509930 0.303592 -0.186815
v -0.539094 0.268486 -0.186825
v -0.510152 0.231181 -0.218910
v -0.489340 0.122068 -0.208720
v -0.507066 0.130203 -0.188322
v -0.469632 0.039953 -0.154240
v -0.461142 -0.044000 -0.037641
v -0.485667 -0.013521 -0.025215
v -0.492940 0.043075 -0.129179
v -0.501061 0.298822 -0.074480
v -0.473502 0.238904 -0.042046
v -0.513984 0.279961 -0.164018
v -0.432782 -0.013188 0.031196
v -0.447805 0.039507 0.043473
v -0.440785 0.068055 -0.027364
v -0.447429 0.232493 -0.195616
v -0.426976 0.139820 -0.195910
v -0.421968 0.013432 -0.120896
v -0.473400 0.042622 -0.006723
v -0.480406 0.083870 -0.102215
v -0.152942 -0.169021 0.452201
v -0.068830 0.012189 0.376371
v -0.126228 -0.116368 0.360528
v -0.073039 -0.218144 0.372349
v -0.283513 0.320341 0.451290
v -0.127510 0.264202 0.460329
v -0.214762 0.253899 0.455218
v -0.122581 0.307214 0.462967
v -0.223541 0.346043 0.452307
v -0.051654 -0.100847 0.272110
v -0.455003 -0.417206 -0.355448
v -0.402169 -0.356131 -0.326030
v -0.267734 -0.422678 -0.454910
v -0.170486 -0.637917 0.135023
v -0.071242 -0.701679 0.174457
v -0.337345 -0.494639 -0.054609
v -0.382372 -0.507049 -0.188099
v -0.373053 -0.619338 -0.037304
v -0.462812 -0.708912 -0.047803
v -0.088182 -0.859616 0.221382
v -0.163979 -0.819839 0.207133
v -0.556272 -0.584635 -0.219460
v -0.377182 -0.764042 0.065967
v -0.530807 -0.740574 -0.056885
v -0.273546 -0.798737 0.109586
v -0.319391 -0.838020 0.183769
v 0.172833 0.300014 0.415640
v -0.171097 0.299996 0.415616
vn -0.3126 -0.7790 -0.5436
vn -0.0483 -0.9986 -0.0225
vn 0.3114 -0.7832 -0.5382
vn -0.7557 0.5643 -0.3324
vn -0.8726 -0.4568 -0.1729
vn -0.9572 0.2683 -0.1083
vn 0.8188 -0.0926 0.5666
vn 0.5861 0.0189 0.8100
vn 0.7892 -0.2606 0.5561
vn 0.9757 0.1385 0.1697
vn 0.9826 -0.0379 0.1818
vn 0.9329 0.0737 0.3526
vn 0.6741 -0.6975 0.2430
vn 0.4628 -0.6591 0.5928
vn 0.6058 -0.3490 0.7150
vn 0.7266 -0.2688 0.6324
vn 0.3899 -0.9016 0.1873
vn 0.6451 -0.7513 0.1393
vn -0.3113 -0.7994 0.5138
vn 0.6969 -0.1706 0.6965
vn 0.7561 -0.1705 0.6319
vn -0.4027 0.6962 0.5943
vn 0.6730 0.3278 0.6630
vn 0.4901 0.4532 0.7446
vn 0.4327 0.0281 0.9011
vn 0.2404 -0.8462 0.4756
vn 0.2063 -0.4932 0.8451
vn 0.4760 -0.8596 0.1860
vn 0.9259 -0.1163 0.3593
vn 0.9639 -0.1619 0.2113
vn 0.3624 -0.3550 0.8617
vn 0.3357 -0.1928 0.9220
vn 0.4732 -0.1450 0.8689
vn 0.6844 -0.2649 0.6793
vn 0.7200 0.1286 0.6820
vn 0.5966 -0.0270 0.8021
vn 0.5579 0.5506 0.6209
vn 0.4938 -0.2317 0.8381
vn 0.4312 0.0580 0.9004
vn 0.5522 -0.1499 0.8201
vn 0.7557 -0.0776 -0.6503
vn 0.8173 -0.3112 -0.4850
vn 0.9489 -0.0861 -0.3036
vn 0.7679 -0.5055 0.3935
vn 0.9154 -0.3627 0.1748
vn 0.8695 -0.3139 0.3814
vn 0.9350 -0.1422 0.3249
vn 0.9740 -0.0506 0.2209
vn 0.7115 0.5584 0.4266
vn 0.8545 0.2745 0.4410
vn 0.8949 0.3799 0.2341
vn 0.9685 0.2408 0.0634
vn 0.1631 0.4109 0.8969
vn 0.1232 0.1269 0.9842
vn -0.1252 0.1380 0.9825
vn -0.1488 -0.0442 0.9879
vn 0.1518 0.1925 0.9695
vn 0.3236 -0.0742 0.9433
vn 0.0363 0.6107 0.7911
vn 0.3699 0.1264 0.9204
vn 0.6432 0.4264 0.6360
vn 0.5755 0.0115 0.8177
vn 0.4760 0.4014 0.7825
vn 0.9578 0.2851 0.0373
vn 0.7985 -0.3520 0.4884
vn 0.2036 0.9721 -0.1165
vn 0.3619 0.9267 0.1016
vn 0.5551 0.8259 -0.0986
vn 0.0635 0.9905 0.1217
vn 0.0563 0.9393 0.3385
vn 0.4323 0.8529 0.2928
vn 0.2566 -0.1462 0.9554
vn 0.7484 0.2262 0.6234
vn 0.2868 0.2061 0.9356
vn 0.5530 -0.4880 0.6753
vn 0.4681 -0.4794 0.7423
vn -0.0688 -0.7549 0.6522
vn 0.4566 -0.8532 0.2520
vn 0.3903 -0.7060 0.5909
vn 0.2511 0.0392 0.9672
vn 0.1748 -0.7863 -0.5926
vn -0.0099 -0.9709 0.2392
vn 0.2184 0.5372 0.8147
vn -0.1591 -0.3967 0.9041
vn 0.8322 0.0195 0.5542
vn 0.9350 0.0896 0.3431
vn 0.9020 0.0518 0.4286
vn -0.0057 -0.8882 0.4595
vn 0.2204 -0.4037 0.8879
vn 0.4805 -0.4424 0.7572
vn -0.2412 0.9083 -0.3416
vn 0.1049 0.9684 -0.2263
vn 0.8072 -0.5760 -0.1293
vn 0.7716 -0.6209 0.1380
vn 0.8837 -0.4535 -0.1159
vn 0.8399 0.1230 0.5287
vn 0.2327 0.6650 0.7097
vn 0.3512 0.7742 0.5265
vn 0.0958 -0.8694 0.4847
vn 0.4657 -0.8273 0.3142
vn 0.1273 -0.4797 0.8682
vn -0.0658 0.9901 -0.1243
vn 0.0655 0.9186 -0.3898
vn 0.3905 0.8663 -0.3114
vn 0.6699 -0.3377 0.6612
vn 0.8658 -0.4632 0.1894
vn 0.5056 -0.3854 -0.7719
vn 0.4245 -0.0754 -0.9023
vn 0.1708 -0.3825 -0.9080
vn 0.2197 -0.1550 0.9632
vn -0.3192 -0.7653 0.5590
vn 0.6797 -0.5195 0.5177
vn 0.5575 -0.0150 0.8301
vn 0.6505 0.0700 0.7563
vn 0.1334 0.6334 0.7622
vn 0.8237 -0.5492 0.1412
vn 0.2898 -0.8096 0.5105
vn 0.1882 -0.9788 0.0813
vn 0.0256 -0.9381 0.3455
vn 0.6322 0.6479 -0.4250
vn 0.8351 0.5465 -0.0631
vn 0.9195 0.3272 -0.2176
vn 0.7396 0.4045 -0.5379
vn 0.7129 0.6863 0.1443
vn 0.2693 0.7392 -0.6173
vn 0.4220 0.4657 -0.7779
vn 0.4970 -0.3759 -0.7821
vn 0.1822 -0.3572 -0.9161
vn 0.7773 -0.3477 -0.5243
vn 0.9472 -0.1483 -0.2842
vn 0.1218 -0.0339 -0.9920
vn -0.1357 -0.2415 -0.9609
vn 0.3103 0.2302 0.9224
vn 0.8123 -0.0921 -0.5759
vn 0.8055 0.1408 -0.5757
vn 0.9801 0.0869 -0.1786
vn 0.0021 -0.9917 0.1286
vn 0.5598 0.0572 0.8266
vn 0.2414 0.5018 0.8306
vn 0.2343 -0.9307 0.2810
vn 0.3254 -0.4687 0.8213
vn -0.0393 0.8225 0.5674
vn 0.0385 0.6893 0.7234
vn -0.6259 -0.6745 -0.3915
vn 0.3225 0.3760 0.8687
vn 0.8267 0.1880 -0.5303
vn 0.9932 -0.0766 -0.0875
vn 0.9529 0.1776 0.2457
vn 0.9735 -0.2242 -0.0439
vn 0.5724 -0.6134 -0.5442
vn 0.8906 -0.2638 0.3704
vn 0.5289 -0.8450 -0.0797
vn -0.1288 -0.4368 -0.8903
vn -0.1170 -0.4865 -0.8658
vn 0.1044 0.4820 -0.8699
vn -0.0705 0.7472 -0.6608
vn -0.1326 -0.2188 -0.9667
vn 0.4580 0.1930 -0.8677
vn 0.0975 0.2016 -0.9746
vn 0.9467 0.0525 0.3179
vn 0.1120 -0.0984 -0.9888
vn 0.4861 -0.0618 -0.8717
vn 0.8156 0.5303 0.2316
vn 0.7127 0.6370 -0.2938
vn -0.0561 0.6643 0.7454
vn 0.7634 0.1112 0.6363
vn 0.3645 0.6495 0.6673
vn 0.2487 -0.0244 0.9683
vn -0.0696 0.9510 -0.3013
vn 0.0194 0.9682 0.2494
vn -0.0267 -0.4395 0.8979
vn 0.3004 0.1984 -0.9330
vn 0.7936 0.0002 0.6084
vn -0.1101 -0.0868 -0.9901
vn 0.9855 -0.1606 -0.0542
vn 0.9748 -0.1769 0.1356
vn 0.3294 0.8076 0.4891
vn 0.9685 0.0328 0.2467
vn 0.7708 0.6343 0.0598
vn 0.1280 0.7244 -0.6774
vn 0.9889 0.0973 -0.1124
vn 0.2894 0.0568 -0.9555
vn 0.2817 -0.3580 -0.8902
vn 0.9430 -0.2453 -0.2249
vn 0.2632 -0.9629 -0.0598
vn 0.2039 -0.6380 -0.7425
vn 0.9228 -0.3325 -0.1946
vn 0.9014 -0.3574 0.2445
vn 0.7916 -0.6015 -0.1081
vn 0.8799 -0.3791 -0.2865
vn 0.7443 -0.3998 0.5349
vn 0.5582 0.0308 -0.8291
vn 0.5145 -0.3267 -0.7928
vn 0.9746 -0.1893 0.1194
vn 0.9070 0.3801 -0.1812
vn 0.9597 0.1710 0.2232
vn 0.9345 0.0980 0.3421
vn -0.4666 0.7984 -0.3806
vn 0.1574 0.7933 -0.5882
vn -0.3990 -0.8928 0.2089
vn -0.9091 0.1715 0.3796
vn -0.2393 0.9148 0.3255
vn -0.7675 -0.0781 0.6362
vn 0.4599 0.8347 0.3029
vn 0.9251 -0.1340 0.3554
vn 0.6281 -0.7778 -0.0234
vn -0.0918 0.8701 0.4842
vn -0.0247 -0.9812 0.1913
vn -0.0276 0.9744 0.2229
vn -0.3462 -0.0242 0.9378
vn 0.7999 0.5877 -0.1219
vn 0.6374 0.7520 -0.1681
vn 0.2163 0.5030 -0.8368
vn 0.6725 0.4229 0.6074
vn 0.7392 0.4799 0.4725
vn 0.4654 0.6155 0.6361
vn 0.4625 0.7389 0.4900
vn 0.2103 0.7169 0.6647
vn 0.2280 0.7931 0.5648
vn 0.1544 0.4657 0.8714
vn 0.1443 0.7973 0.5860
vn 0.3039 0.6813 0.6659
vn -0.0022 0.4652 -0.8852
vn 0.0063 0.2196 -0.9756
vn 0.2123 0.5529 -0.8057
vn 0.6360 0.2015 0.7449
vn 0.4357 0.1395 0.8892
vn 0.1366 0.0806 0.9873
vn -0.2251 0.4350 0.8718
vn 0.0014 0.4102 0.9120
vn 0.0084 -0.0875 0.9961
vn 0.0016 0.5836 0.8120
vn 0.0140 0.4841 -0.8749
vn -0.0387 0.5403 -0.8406
vn 0.5702 0.7887 -0.2299
vn 0.4436 0.8209 0.3597
vn 0.2581 0.5322 -0.8063
vn 0.0689 0.5539 0.8297
vn -0.1221 0.5775 0.8072
vn 0.2010 0.7693 0.6064
vn 0.1897 0.6775 0.7106
vn 0.1996 0.7740 0.6009
vn 0.1303 0.8666 0.4816
vn 0.9902 -0.0331 0.1357
vn 0.9855 0.1634 0.0465
vn 0.8910 -0.4292 -0.1483
vn 0.1984 0.9294 -0.3113
vn 0.1021 -0.9720 0.2117
vn -0.8134 0.0024 0.5817
vn -0.8087 -0.2537 0.5307
vn -0.5444 -0.0497 0.8373
vn -0.9762 0.0803 0.2013
vn -0.9330 0.0783 0.3513
vn -0.9856 -0.0457 0.1629
vn -0.6785 -0.6928 0.2443
vn -0.7273 -0.2574 0.6363
vn -0.6089 -0.3506 0.7116
vn -0.4748 -0.6467 0.5970
vn -0.3952 -0.8996 0.1857
vn -0.6461 -0.7511 0.1356
vn -0.7894 -0.0529 0.6115
vn -0.8165 0.1922 0.5444
vn -0.9297 0.0796 0.3597
vn -0.6518 0.3563 0.6695
vn -0.6060 0.0980 0.7894
vn -0.3827 0.1631 0.9094
vn -0.2887 -0.1108 0.9510
vn -0.3156 0.4207 0.8505
vn -0.2699 -0.8179 0.5080
vn -0.3411 -0.9094 0.2379
vn -0.2575 -0.4887 0.8336
vn -0.4868 -0.8354 0.2550
vn -0.5682 -0.6696 0.4784
vn 0.3010 -0.9202 0.2504
vn -0.9537 0.0137 0.3005
vn -0.9675 -0.1356 0.2134
vn -0.9075 -0.2630 0.3276
vn -0.9105 -0.3724 0.1796
vn -0.5962 -0.2543 0.7615
vn -0.9267 -0.1417 0.3480
vn -0.6403 -0.0419 0.7670
vn -0.5096 -0.3627 0.7802
vn -0.4155 0.0246 0.9093
vn -0.2684 -0.1988 0.9426
vn -0.4521 0.0647 0.8896
vn -0.5103 -0.2105 0.8338
vn -0.4013 -0.3024 0.8646
vn -0.7597 -0.3086 0.5723
vn -0.3877 0.7593 0.5227
vn -0.7558 -0.0760 -0.6504
vn -0.9490 -0.0836 -0.3040
vn -0.8118 -0.3136 -0.4925
vn -0.7698 -0.5068 0.3880
vn -0.9380 -0.1524 0.3114
vn -0.9762 -0.0516 0.2106
vn -0.4031 0.6268 0.6668
vn -0.4030 0.7642 0.5036
vn -0.7128 0.5612 0.4207
vn -0.8948 0.3788 0.2363
vn -0.8563 0.2780 0.4353
vn -0.9678 0.2435 0.0631
vn -0.9762 0.1399 0.1658
vn -0.2918 -0.3148 0.9032
vn -0.4701 -0.0810 0.8789
vn -0.0680 0.5061 0.8598
vn -0.1835 0.0459 0.9820
vn -0.1568 0.2728 0.9492
vn -0.2485 0.9087 0.3354
vn -0.4864 0.8514 0.1964
vn -0.3838 0.9199 -0.0810
vn -0.2070 0.9734 0.0982
vn -0.8084 0.2844 0.5153
vn -0.4264 -0.4167 0.8028
vn -0.4441 0.1869 0.8763
vn 0.1279 -0.6144 0.7785
vn -0.3385 -0.7649 0.5481
vn -0.2677 -0.4622 0.8454
vn 0.0211 -0.9900 0.1392
vn -0.8320 0.0059 0.5548
vn -0.6313 -0.2260 0.7419
vn -0.6360 0.0890 0.7666
vn -0.5115 0.0404 0.8583
vn -0.8085 -0.5735 -0.1320
vn -0.8836 -0.4533 -0.1176
vn -0.7724 -0.6198 0.1387
vn -0.1679 0.2035 -0.9646
vn -0.1484 0.4874 -0.8605
vn -0.0969 -0.8803 0.4645
vn -0.3299 -0.4581 0.8254
vn -0.4730 -0.8233 0.3138
vn -0.2258 0.9019 -0.3682
vn -0.1366 0.6632 0.7359
vn -0.3932 0.2603 0.8818
vn -0.5344 0.2927 0.7929
vn -0.9402 0.2834 0.1889
vn -0.0599 0.9374 0.3432
vn -0.6586 -0.3473 0.6676
vn -0.8649 -0.4643 0.1910
vn -0.4835 0.4970 0.7205
vn -0.4962 -0.3832 -0.7790
vn -0.4105 -0.0636 -0.9096
vn -0.5139 -0.3066 0.8012
vn -0.0971 -0.8117 0.5760
vn -0.6295 0.3112 0.7120
vn -0.4113 0.1464 0.8997
vn -0.5782 0.0422 0.8148
vn -0.3882 0.3444 0.8548
vn -0.2614 -0.3974 0.8796
vn -0.6221 -0.6849 0.3795
vn -0.1878 -0.9790 0.0790
vn -0.6279 0.6598 -0.4128
vn -0.7433 0.4022 -0.5346
vn -0.9189 0.3283 -0.2186
vn -0.8330 0.5502 -0.0590
vn -0.5551 0.8107 -0.1859
vn -0.7189 0.6822 0.1333
vn -0.3372 0.7272 -0.5978
vn -0.4182 0.4707 -0.7768
vn -0.4918 -0.3776 -0.7846
vn -0.7778 -0.3455 -0.5250
vn -0.9469 -0.1498 -0.2843
vn -0.1872 -0.0298 -0.9819
vn -0.9803 0.0864 -0.1774
vn -0.8069 0.1409 -0.5737
vn -0.8127 -0.0936 -0.5751
vn -0.2106 0.3117 0.9265
vn -0.3669 0.6277 0.6866
vn 0.7130 0.5890 0.3804
vn -0.8275 0.1935 -0.5270
vn -0.9541 0.1738 0.2440
vn -0.9940 -0.0749 -0.0802
vn -0.5698 -0.6138 -0.5463
vn -0.9726 -0.2278 -0.0457
vn -0.8943 -0.2621 0.3627
vn -0.5241 -0.8478 -0.0807
vn -0.4728 0.1938 -0.8596
vn -0.9666 -0.0336 0.2540
vn -0.4955 -0.0689 -0.8659
vn -0.8177 0.5286 0.2279
vn -0.7131 0.6358 -0.2955
vn 0.5507 0.5993 0.5811
vn -0.2985 0.2025 -0.9327
vn -0.7774 0.0294 0.6283
vn -0.9750 -0.1762 0.1358
vn -0.9854 -0.1583 -0.0623
vn -0.3294 0.8077 0.4889
vn -0.9680 0.0357 0.2482
vn -0.7697 0.6357 0.0596
vn -0.1270 0.7238 -0.6782
vn -0.9879 0.1012 -0.1175
vn -0.2899 0.0572 -0.9553
vn -0.2781 -0.3575 -0.8916
vn -0.9424 -0.2456 -0.2270
vn -0.2586 -0.9642 -0.0591
vn -0.9006 -0.3600 0.2434
vn -0.9229 -0.3332 -0.1930
vn -0.2028 -0.6398 -0.7413
vn -0.7920 -0.6016 -0.1043
vn -0.8776 -0.3811 -0.2909
vn -0.7470 -0.3970 0.5332
vn -0.5585 0.0321 -0.8289
vn -0.5105 -0.3279 -0.7949
vn -0.9747 -0.1893 0.1188
vn -0.9019 0.3916 -0.1825
vn -0.9332 0.0960 0.3463
vn -0.9611 0.1672 0.2197
vn 0.8041 0.5877 -0.0901
vn 0.8596 -0.0010 0.5110
vn 0.4207 -0.8840 0.2036
vn 0.2725 0.9099 0.3129
vn 0.7892 -0.0517 0.6119
vn 0.7585 -0.6144 -0.2173
vn -0.5829 0.7112 0.3929
vn -0.8148 -0.5589 0.1540
vn 0.0026 0.9517 0.3071
vn 0.0365 -0.9859 0.1633
vn 0.3488 -0.0226 0.9369
vn -0.7962 0.5954 -0.1078
vn -0.2292 0.4939 -0.8388
vn -0.6375 0.7541 -0.1582
vn -0.7390 0.4806 0.4722
vn -0.6457 0.4410 0.6234
vn -0.8983 0.1749 0.4032
vn -0.4658 0.6145 0.6367
vn -0.4626 0.7385 0.4905
vn -0.2114 0.7177 0.6635
vn -0.2265 0.7925 0.5663
vn -0.1591 0.4691 0.8687
vn -0.3199 0.6498 0.6895
vn -0.1538 0.7910 0.5922
vn -0.1984 0.5793 -0.7906
vn -0.4136 0.1350 0.9004
vn -0.1323 0.0748 0.9884
vn 0.2248 0.4316 0.8736
vn 0.0028 0.5263 -0.8503
vn -0.5795 0.7849 -0.2193
vn -0.4488 0.8197 0.3558
vn -0.0693 0.5525 0.8306
vn 0.1222 0.5756 0.8085
vn -0.2000 0.7702 0.6056
vn -0.1894 0.6795 0.7088
vn -0.1968 0.7745 0.6012
vn -0.1297 0.8669 0.4814
vn 0.3204 -0.1119 0.9407
vn -0.3259 -0.0836 0.9417
vt 0.521000 0.984000
vt 0.525372 0.995194
vt 0.478874 0.983994
vt 0.548205 0.955378
vt 0.536792 0.956006
vt 0.543752 0.938389
vt 0.643872 0.450716
vt 0.618585 0.445296
vt 0.629616 0.392887
vt 0.747037 0.677474
vt 0.737603 0.509624
vt 0.785820 0.575649
vt 0.644000 0.213000
vt 0.561000 0.175000
vt 0.565170 0.141517
vt 0.641690 0.163896
vt 0.567833 0.206398
vt 0.625827 0.255859
vt 0.616089 0.573811
vt 0.635983 0.572339
vt 0.639815 0.597466
vt 0.624941 0.569543
vt 0.616607 0.752218
vt 0.587784 0.778933
vt 0.580239 0.666599
vt 0.586152 0.579587
vt 0.550202 0.592617
vt 0.568327 0.577366
vt 0.682264 0.459156
vt 0.720397 0.430014
vt 0.575414 0.377080
vt 0.563780 0.365662
vt 0.582701 0.350359
vt 0.597897 0.363229
vt 0.640762 0.493277
vt 0.565336 0.340053
vt 0.534639 0.349393
vt 0.540963 0.328339
vt 0.585865 0.403237
vt 0.549323 0.382095
vt 0.557329 0.364847
vt 0.892082 0.344069
vt 0.895087 0.434981
vt 0.849278 0.328121
vt 0.598390 0.282902
vt 0.711447 0.350920
vt 0.672101 0.382277
vt 0.764921 0.447641
vt 0.768322 0.508828
vt 0.657519 0.809519
vt 0.656530 0.737032
vt 0.710818 0.777017
vt 0.802225 0.727405
vt 0.538875 0.771769
vt 0.530217 0.693547
vt 0.467443 0.696810
vt 0.486924 0.620768
vt 0.514076 0.384116
vt 0.543449 0.433537
vt 0.500260 0.400319
vt 0.591809 0.470771
vt 0.547905 0.514762
vt 0.556166 0.473287
vt 0.552847 0.556944
vt 0.558277 0.568126
vt 0.549161 0.569251
vt 0.773094 0.933563
vt 0.718502 0.905322
vt 0.792872 0.866598
vt 0.683071 0.964522
vt 0.605941 0.936368
vt 0.665481 0.878931
vt 0.561122 0.641798
vt 0.533947 0.473685
vt 0.507220 0.474173
vt 0.513465 0.456393
vt 0.532911 0.456018
vt 0.530000 0.438000
vt 0.522283 0.443309
vt 0.509090 0.433052
vt 0.512985 0.423199
vt 0.478415 0.362000
vt 0.530086 0.364064
vt 0.517526 0.366553
vt 0.506879 0.532254
vt 0.497239 0.457000
vt 0.673814 0.572516
vt 0.690670 0.616851
vt 0.680499 0.515404
vt 0.500000 0.182764
vt 0.517007 0.313953
vt 0.541713 0.281433
vt 0.555738 0.363661
vt 0.524579 0.361531
vt 0.723146 0.319548
vt 0.706000 0.252000
vt 0.754463 0.311442
vt 0.648576 0.648835
vt 0.553817 0.827956
vt 0.601192 0.861623
vt 0.525000 0.254000
vt 0.558601 0.259575
vt 0.515232 0.273692
vt 0.762000 0.981000
vt 0.850089 0.928878
vt 0.826013 0.874952
vt 0.569935 0.311107
vt 0.557000 0.364000
vt 0.772731 0.416159
vt 0.940810 0.402614
vt 0.929268 0.281168
vt 0.973621 0.377458
vt 0.510445 0.337492
vt 0.535664 0.445961
vt 0.545000 0.448000
vt 0.555718 0.449479
vt 0.617026 0.640686
vt 0.509699 0.347386
vt 0.517668 0.446114
vt 0.506215 0.444194
vt 0.544587 0.234456
vt 0.500000 0.242942
vt 0.857000 0.816000
vt 0.810134 0.801522
vt 0.851000 0.737000
vt 0.886000 0.748000
vt 0.733609 0.842538
vt 0.890441 0.840099
vt 0.919000 0.761000
vt 0.947000 0.540623
vt 0.974523 0.549339
vt 0.916172 0.539167
vt 0.884663 0.594694
vt 0.983482 0.633403
vt 0.999000 0.579000
vt 0.574564 0.538796
vt 0.911000 0.622000
vt 0.901000 0.679000
vt 0.860973 0.670197
vt 0.500000 0.205000
vt 0.621180 0.537907
vt 0.599429 0.556571
vt 0.605257 0.576949
vt 0.520795 0.373608
vt 0.524000 0.902000
vt 0.576557 0.562601
vt 0.609292 0.568549
vt 0.510259 0.581441
vt 0.873297 0.235940
vt 0.825000 0.258000
vt 0.816934 0.183503
vt 0.811998 0.329835
vt 0.831884 0.429612
vt 0.726000 0.227000
vt 0.790315 0.402385
vt 0.999000 0.386861
vt 0.999000 0.524000
vt 0.960957 0.773826
vt 0.936000 0.877000
vt 0.999000 0.302014
vt 0.935000 0.689000
vt 0.982331 0.695479
vt 0.763301 0.181215
vt 0.967119 0.221676
vt 0.943000 0.628000
vt 0.811822 0.602594
vt 0.848065 0.587518
vt 0.486458 0.836948
vt 0.655197 0.538090
vt 0.611845 0.560818
vt 0.513356 0.610818
vt 0.480373 0.361457
vt 0.500964 0.355768
vt 0.500000 0.312259
vt 0.919140 0.200007
vt 0.705713 0.163624
vt 0.999000 0.218000
vt 0.787859 0.530534
vt 0.797000 0.562000
vt 0.813000 0.591000
vt 0.815000 0.578000
vt 0.836436 0.577230
vt 0.850000 0.569000
vt 0.845805 0.549943
vt 0.855000 0.539000
vt 0.850000 0.501000
vt 0.835131 0.503800
vt 0.793069 0.427534
vt 0.836000 0.464000
vt 0.825664 0.474044
vt 0.789754 0.446552
vt 0.820553 0.565968
vt 0.807000 0.550000
vt 0.838802 0.551115
vt 0.862705 0.546423
vt 0.862445 0.498747
vt 0.798985 0.517061
vt 0.789164 0.487845
vt 0.786983 0.478313
vt 0.813000 0.487000
vt 0.512934 0.910010
vt 0.523486 0.932495
vt 0.488259 0.929468
vt 0.541930 0.923191
vt 0.514756 0.970000
vt 0.521389 0.947362
vt 0.512000 0.942000
vt 0.617400 0.569000
vt 0.577255 0.966536
vt 0.570051 0.978047
vt 0.560805 0.965892
vt 0.577539 0.954038
vt 0.570000 0.569000
vt 0.601435 0.964095
vt 0.616000 0.967000
vt 0.615241 0.977184
vt 0.599584 0.993256
vt 0.593232 0.987730
vt 0.562000 0.570000
vt 0.575932 0.990579
vt 0.584000 0.996000
vt 0.592000 0.953000
vt 0.500000 0.943000
vt 0.509850 0.956000
vt 0.868905 0.144978
vt 0.867000 0.089089
vt 0.917679 0.114473
vt 0.747000 0.102000
vt 0.814172 0.123759
vt 0.749274 0.058183
vt 0.821000 0.050000
vt 0.709611 0.046830
vt 0.755434 0.029321
vt 0.604661 0.036967
vt 0.652000 0.022000
vt 0.659000 0.043000
vt 0.999000 0.053000
vt 0.992616 0.139211
vt 0.914696 0.055000
vt 0.674000 0.083000
vt 0.616751 0.092397
vt 0.555403 0.076169
vt 0.551711 0.032791
vt 0.500000 0.037000
vt 0.500000 0.069437
vt 0.500000 0.001992
vt 0.999000 0.002000
vt 0.958000 0.002000
vt 0.867000 0.002000
vt 0.823000 0.002000
vt 0.908000 0.002000
vt 0.601000 0.002000
vt 0.550000 0.002000
vt 0.697000 0.002000
vt 0.650000 0.002000
vt 0.782000 0.002000
vt 0.740000 0.002000
vt 0.451451 0.953237
vt 0.456431 0.937431
vt 0.463156 0.955968
vt 0.458085 0.923134
vt 0.467000 0.994000
vt 0.349699 0.471951
vt 0.361999 0.403473
vt 0.395931 0.416609
vt 0.269061 0.600574
vt 0.214184 0.575655
vt 0.258316 0.511568
vt 0.356000 0.213000
vt 0.358411 0.163453
vt 0.434856 0.141377
vt 0.439000 0.175000
vt 0.431337 0.206795
vt 0.373625 0.255963
vt 0.357982 0.609056
vt 0.357566 0.679137
vt 0.319253 0.619985
vt 0.383168 0.752829
vt 0.392105 0.642685
vt 0.432597 0.688245
vt 0.436768 0.640883
vt 0.438722 0.772794
vt 0.413829 0.579862
vt 0.431687 0.577433
vt 0.450885 0.593718
vt 0.479000 0.441000
vt 0.482749 0.452393
vt 0.469015 0.448754
vt 0.285279 0.513139
vt 0.287290 0.454615
vt 0.322258 0.409639
vt 0.293565 0.348291
vt 0.409256 0.375886
vt 0.325292 0.455525
vt 0.434889 0.339982
vt 0.457851 0.332164
vt 0.478483 0.340474
vt 0.434508 0.363408
vt 0.416657 0.405102
vt 0.452644 0.381609
vt 0.421968 0.361481
vt 0.400283 0.342177
vt 0.473519 0.350566
vt 0.108064 0.343301
vt 0.150967 0.327187
vt 0.103765 0.435166
vt 0.403277 0.282171
vt 0.235113 0.447590
vt 0.231699 0.508774
vt 0.419100 0.818428
vt 0.466225 0.897400
vt 0.389059 0.856114
vt 0.342155 0.809845
vt 0.289091 0.777048
vt 0.343417 0.737090
vt 0.198159 0.727326
vt 0.244665 0.676829
vt 0.457974 0.439368
vt 0.443859 0.448397
vt 0.475062 0.412184
vt 0.485293 0.423324
vt 0.484787 0.384866
vt 0.359280 0.901924
vt 0.301155 0.878679
vt 0.219089 0.896847
vt 0.297463 0.931502
vt 0.462164 0.467266
vt 0.465874 0.455775
vt 0.487586 0.473101
vt 0.470000 0.438000
vt 0.490929 0.434609
vt 0.482569 0.374000
vt 0.481397 0.366528
vt 0.335174 0.546733
vt 0.362233 0.581007
vt 0.444392 0.363602
vt 0.371058 0.469181
vt 0.384797 0.531490
vt 0.276776 0.319638
vt 0.245581 0.311462
vt 0.294000 0.252000
vt 0.001000 0.696000
vt 0.033000 0.695000
vt 0.050000 0.772000
vt 0.014000 0.778000
vt 0.475000 0.254000
vt 0.469411 0.276577
vt 0.441458 0.259721
vt 0.324000 0.977000
vt 0.234331 0.965866
vt 0.161810 0.898657
vt 0.413991 0.559790
vt 0.420312 0.528190
vt 0.447605 0.559624
vt 0.443112 0.568152
vt 0.427832 0.565050
vt 0.430292 0.310367
vt 0.457321 0.369545
vt 0.227256 0.416198
vt 0.483308 0.516327
vt 0.059284 0.401335
vt 0.018281 0.390274
vt 0.024289 0.304929
vt 0.070813 0.280141
vt 0.388781 0.592371
vt 0.394721 0.573191
vt 0.453314 0.514803
vt 0.408323 0.467569
vt 0.443381 0.472785
vt 0.486774 0.580711
vt 0.444020 0.365575
vt 0.474486 0.311825
vt 0.455000 0.448000
vt 0.455496 0.234380
vt 0.143000 0.816000
vt 0.114000 0.748000
vt 0.149000 0.737000
vt 0.189956 0.801507
vt 0.189541 0.861417
vt 0.266685 0.842463
vt 0.082644 0.861685
vt 0.116000 0.835000
vt 0.081000 0.761000
vt 0.053000 0.540395
vt 0.016635 0.520873
vt 0.083777 0.540678
vt 0.115290 0.594353
vt 0.001000 0.634000
vt 0.016227 0.577731
vt 0.027000 0.633000
vt 0.139313 0.670164
vt 0.099000 0.679000
vt 0.089000 0.622000
vt 0.399768 0.555059
vt 0.402000 0.945000
vt 0.388740 0.562047
vt 0.372441 0.569513
vt 0.126743 0.235514
vt 0.183114 0.183148
vt 0.175000 0.258000
vt 0.168086 0.429709
vt 0.187966 0.329924
vt 0.274000 0.227000
vt 0.209662 0.402439
vt 0.144000 0.945000
vt 0.065000 0.689000
vt 0.233251 0.202994
vt 0.057000 0.628000
vt 0.188179 0.602597
vt 0.151934 0.587531
vt 0.379039 0.569054
vt 0.032118 0.218972
vt 0.080864 0.199963
vt 0.294939 0.162377
vt 0.203000 0.562000
vt 0.212021 0.530621
vt 0.187000 0.591000
vt 0.185000 0.578000
vt 0.163573 0.577210
vt 0.150000 0.569000
vt 0.154202 0.550025
vt 0.145000 0.539000
vt 0.150000 0.501000
vt 0.164795 0.503774
vt 0.206966 0.427517
vt 0.210253 0.446568
vt 0.174350 0.474056
vt 0.164000 0.464000
vt 0.179411 0.565951
vt 0.193000 0.550000
vt 0.161200 0.551103
vt 0.137295 0.546423
vt 0.137611 0.498768
vt 0.201277 0.517654
vt 0.210831 0.487841
vt 0.187150 0.487192
vt 0.213009 0.478343
vt 0.473601 0.936669
vt 0.480000 0.955000
vt 0.484000 0.970000
vt 0.488000 0.942000
vt 0.382598 0.569000
vt 0.388000 0.569000
vt 0.423302 0.967185
vt 0.439932 0.966212
vt 0.430979 0.984920
vt 0.422719 0.954116
vt 0.397183 0.956090
vt 0.405000 0.960000
vt 0.384465 0.967000
vt 0.436071 0.569786
vt 0.384606 0.977163
vt 0.406925 0.987778
vt 0.395000 0.991000
vt 0.407000 0.996000
vt 0.416000 0.996000
vt 0.408000 0.953000
vt 0.489000 0.956000
vt 0.131029 0.145915
vt 0.083146 0.119756
vt 0.133000 0.089231
vt 0.185865 0.124242
vt 0.253000 0.102000
vt 0.242000 0.148000
vt 0.250260 0.058494
vt 0.179000 0.050000
vt 0.290333 0.046972
vt 0.244236 0.029448
vt 0.395335 0.036989
vt 0.339947 0.045807
vt 0.348000 0.022000
vt 0.091973 0.002283
vt 0.024786 0.060627
vt 0.011579 0.153780
vt 0.383179 0.092729
vt 0.444560 0.076442
vt 0.448290 0.032789
vt 0.001000 0.002000
vt 0.042000 0.002000
vt 0.133000 0.002000
vt 0.177000 0.002000
vt 0.399000 0.002000
vt 0.450000 0.002000
vt 0.303000 0.002000
vt 0.350000 0.002000
vt 0.218000 0.002000
vt 0.260000 0.002000
vt 0.484054 0.996633
vt 0.489679 0.910146
vt 0.603595 0.956557
vt 0.588000 0.975000
vt 0.412000 0.975000
s 1
f 25/1/1 26/2/2 24/3/3
f 28/4/4 29/5/5 30/6/6
f 25/1/1 29/5/5 28/4/4
f 25/1/1 28/4/4 26/2/2
f 35/7/7 71/8/8 34/9/9
f 46/10/10 38/11/11 195/12/12
f 40/13/13 41/14/14 42/15/15
f 40/13/13 42/15/15 39/16/16
f 41/14/14 40/13/13 44/17/17
f 40/13/13 33/18/18 44/17/17
f 50/19/19 51/20/20 49/21/21
f 50/19/19 52/22/22 51/20/20
f 54/23/23 56/24/24 53/25/25
f 57/26/26 59/27/27 58/28/28
f 38/11/11 62/29/29 63/30/30
f 65/31/31 68/32/32 66/33/33
f 34/9/9 71/8/8 67/34/34
f 67/34/34 65/31/31 66/33/33
f 70/35/35 71/8/8 35/7/7
f 35/7/7 34/9/9 62/29/29
f 73/36/36 68/32/32 74/37/37
f 73/36/36 74/37/37 72/38/38
f 75/39/39 76/40/40 65/31/31
f 74/37/37 68/32/32 28/41/4
f 37/42/41 80/43/42 36/44/43
f 67/34/34 32/45/44 34/9/9
f 34/9/9 32/45/44 81/46/45
f 34/9/9 81/46/45 64/47/46
f 63/30/30 81/46/45 211/48/47
f 82/49/48 38/11/11 63/30/30
f 82/49/48 63/30/30 211/48/47
f 85/50/49 86/51/50 87/52/51
f 45/53/52 87/52/51 46/10/10
f 53/25/25 89/54/53 88/55/54
f 317/56/55 92/57/56 88/55/54
f 99/58/57 96/59/58 100/60/59
f 94/61/60 78/62/61 77/63/62
f 79/64/63 101/65/64 90/66/65
f 104/67/66 105/68/67 103/69/68
f 105/68/67 106/70/69 107/71/70
f 105/68/67 107/71/70 102/72/71
f 55/73/72 53/25/25 88/55/54
f 88/55/54 92/57/56 55/73/72
f 68/32/32 65/31/31 76/40/40
f 109/74/73 110/75/74 111/76/75
f 109/74/73 111/76/75 108/77/76
f 112/78/77 61/79/78 113/80/79
f 112/78/77 113/80/79 97/81/80
f 96/59/58 97/81/80 100/60/59
f 254/82/81 26/83/2 115/84/82
f 109/74/73 91/85/83 110/75/74
f 117/86/84 111/76/75 110/75/74
f 46/10/10 87/52/51 86/51/50
f 49/21/21 51/20/20 118/87/85
f 38/11/11 46/10/10 48/88/86
f 48/88/86 127/89/87 38/11/11
f 119/90/88 42/15/15 41/14/14
f 72/38/38 122/91/89 121/92/90
f 74/37/37 23/93/91 27/94/92
f 71/8/8 75/39/39 65/31/31
f 125/95/93 126/96/94 124/97/95
f 47/98/96 49/21/21 118/87/85
f 83/99/97 89/54/53 56/24/24
f 84/100/98 56/24/24 85/50/49
f 74/37/37 28/41/4 23/93/91
f 131/101/99 43/102/100 121/92/90
f 131/101/99 121/92/90 130/103/101
f 33/18/18 125/95/93 81/46/45
f 33/18/18 81/46/45 32/45/44
f 62/29/29 127/89/87 35/7/7
f 106/70/69 104/67/66 132/104/102
f 134/105/103 104/67/66 133/106/104
f 64/47/46 81/46/45 63/30/30
f 54/23/23 47/98/96 86/51/50
f 59/27/27 90/66/65 58/28/28
f 120/107/105 43/102/100 32/45/44
f 94/61/60 75/39/39 71/8/8
f 30/108/6 23/93/91 28/41/4
f 40/13/13 126/96/94 125/95/93
f 40/13/13 125/95/93 33/18/18
f 81/46/45 125/95/93 212/109/106
f 81/46/45 212/109/106 211/48/47
f 138/110/107 139/111/108 137/112/109
f 90/66/65 101/65/64 58/28/28
f 141/113/110 122/91/89 72/38/38
f 141/113/110 72/38/38 74/37/37
f 78/62/61 91/85/83 109/74/73
f 142/114/111 143/115/112 108/77/76
f 109/74/73 98/116/113 77/63/62
f 53/25/25 55/73/72 93/117/114
f 144/118/115 141/113/110 74/37/37
f 60/119/116 136/120/117 113/80/79
f 60/119/116 113/80/79 61/79/78
f 148/121/118 131/101/99 147/122/119
f 150/123/120 151/124/121 152/125/122
f 150/123/120 152/125/122 149/126/123
f 150/123/120 133/106/104 103/69/68
f 150/123/120 103/69/68 151/124/121
f 152/125/122 151/124/121 45/53/52
f 103/69/68 105/68/67 153/127/124
f 134/105/103 133/106/104 154/128/125
f 154/128/125 150/123/120 149/126/123
f 154/128/125 149/126/123 155/129/126
f 157/130/127 138/110/107 137/112/109
f 157/130/127 137/112/109 156/131/128
f 158/132/129 159/133/130 80/43/42
f 161/134/131 156/131/128 160/135/132
f 95/136/133 79/64/63 78/62/61
f 159/133/130 163/137/134 164/138/135
f 159/133/130 164/138/135 162/139/136
f 152/125/122 45/53/52 162/139/136
f 46/10/10 162/139/136 45/53/52
f 49/21/21 47/98/96 93/117/114
f 102/72/71 153/127/124 105/68/67
f 85/50/49 87/52/51 153/127/124
f 102/72/71 84/100/98 85/50/49
f 102/72/71 85/50/49 153/127/124
f 148/121/118 147/122/119 165/140/137
f 95/136/133 123/141/138 146/142/139
f 49/21/21 140/143/140 50/19/19
f 76/40/40 99/58/57 114/144/141
f 114/144/141 115/84/82 26/83/2
f 107/71/70 167/145/142 84/100/98
f 79/64/63 135/146/143 101/65/64
f 121/92/90 43/102/100 120/107/105
f 121/92/90 122/91/89 130/103/101
f 140/143/140 57/26/26 170/147/144
f 120/107/105 67/34/34 66/33/33
f 148/121/118 43/102/100 131/101/99
f 68/32/32 73/36/36 66/33/33
f 94/61/60 95/136/133 78/62/61
f 116/148/145 91/85/83 78/62/61
f 57/26/26 55/73/72 59/27/27
f 93/117/114 47/98/96 54/23/23
f 93/117/114 54/23/23 53/25/25
f 172/149/146 173/150/147 171/151/148
f 124/97/95 166/152/149 216/153/150
f 124/97/95 126/96/94 174/154/151
f 124/97/95 216/153/150 175/155/152
f 176/156/153 177/157/154 156/131/128
f 176/156/153 156/131/128 137/112/109
f 129/158/155 178/159/156 154/128/125
f 134/105/103 154/128/125 178/159/156
f 137/112/109 179/160/157 176/156/153
f 180/161/158 128/162/159 129/158/155
f 180/161/158 129/158/155 155/129/126
f 134/105/103 132/104/102 104/67/66
f 174/154/151 181/163/160 166/152/149
f 174/154/151 166/152/149 124/97/95
f 166/152/149 181/163/160 173/150/147
f 166/152/149 173/150/147 36/44/43
f 172/149/146 37/42/41 36/44/43
f 172/149/146 36/44/43 173/150/147
f 37/42/41 172/149/146 139/111/108
f 137/112/109 182/164/161 179/160/157
f 162/139/136 164/138/135 149/126/123
f 162/139/136 149/126/123 152/125/122
f 164/138/135 163/137/134 183/165/162
f 164/138/135 183/165/162 180/161/158
f 184/166/163 185/167/164 162/139/136
f 184/166/163 162/139/136 46/10/10
f 53/25/25 56/24/24 89/54/53
f 167/145/142 186/168/165 83/99/97
f 167/145/142 83/99/97 84/100/98
f 89/54/53 83/99/97 186/168/165
f 69/169/166 70/35/35 127/89/87
f 32/45/44 67/34/34 120/107/105
f 52/22/22 168/170/167 51/20/20
f 85/50/49 54/23/23 86/51/50
f 56/24/24 54/23/23 85/50/49
f 48/88/86 86/51/50 47/98/96
f 49/21/21 93/117/114 140/143/140
f 140/143/140 93/117/114 55/73/72
f 140/143/140 55/73/72 57/26/26
f 67/34/34 71/8/8 65/31/31
f 120/107/105 72/38/38 121/92/90
f 120/107/105 73/36/36 72/38/38
f 112/78/77 97/81/80 96/59/58
f 112/78/77 96/59/58 142/114/111
f 143/115/112 98/116/113 109/74/73
f 143/115/112 109/74/73 108/77/76
f 143/115/112 142/114/111 96/59/58
f 187/171/168 59/27/27 55/73/72
f 70/35/35 35/7/7 127/89/87
f 27/94/92 31/172/169 145/173/170
f 145/173/170 144/118/115 74/37/37
f 145/173/170 74/37/37 27/94/92
f 141/113/110 188/174/171 122/91/89
f 122/91/89 188/174/171 130/103/101
f 123/141/138 70/35/35 69/169/166
f 123/141/138 95/136/133 94/61/60
f 136/120/117 111/76/75 117/86/84
f 146/142/139 135/146/143 95/136/133
f 95/136/133 135/146/143 79/64/63
f 168/170/167 146/142/139 123/141/138
f 79/64/63 116/148/145 78/62/61
f 142/114/111 108/77/76 61/79/78
f 48/88/86 47/98/96 118/87/85
f 118/87/85 127/89/87 48/88/86
f 64/47/46 62/29/29 34/9/9
f 63/30/30 62/29/29 64/47/46
f 195/12/12 184/166/163 46/10/10
f 51/20/20 168/170/167 123/141/138
f 62/29/29 38/11/11 127/89/87
f 98/116/113 94/61/60 77/63/62
f 96/59/58 76/40/40 75/39/39
f 96/59/58 75/39/39 98/116/113
f 76/40/40 96/59/58 99/58/57
f 76/40/40 114/144/141 68/32/32
f 114/144/141 26/83/2 28/41/4
f 114/144/141 28/41/4 68/32/32
f 111/76/75 60/119/116 61/79/78
f 111/76/75 61/79/78 108/77/76
f 109/74/73 77/63/62 78/62/61
f 187/171/168 116/148/145 79/64/63
f 187/171/168 79/64/63 90/66/65
f 104/67/66 106/70/69 105/68/67
f 84/100/98 102/72/71 107/71/70
f 83/99/97 56/24/24 84/100/98
f 162/139/136 185/167/164 159/133/130
f 73/36/36 120/107/105 66/33/33
f 181/163/160 171/151/148 173/150/147
f 139/111/108 189/175/172 182/164/161
f 174/154/151 190/176/173 181/163/160
f 174/154/151 126/96/94 40/13/13
f 174/154/151 40/13/13 39/16/16
f 182/164/161 191/177/174 179/160/157
f 103/69/68 133/106/104 104/67/66
f 37/42/41 139/111/108 138/110/107
f 154/128/125 155/129/126 129/158/155
f 138/110/107 157/130/127 158/132/129
f 138/110/107 158/132/129 80/43/42
f 138/110/107 80/43/42 37/42/41
f 163/137/134 158/132/129 157/130/127
f 163/137/134 157/130/127 183/165/162
f 164/138/135 180/161/158 155/129/126
f 164/138/135 155/129/126 149/126/123
f 139/111/108 182/164/161 137/112/109
f 180/161/158 183/165/162 161/134/131
f 180/161/158 161/134/131 128/162/159
f 189/175/172 139/111/108 172/149/146
f 127/89/87 118/87/85 69/169/166
f 48/88/86 46/10/10 86/51/50
f 151/124/121 103/69/68 153/127/124
f 150/123/120 154/128/125 133/106/104
f 94/61/60 71/8/8 70/35/35
f 94/61/60 98/116/113 75/39/39
f 143/115/112 96/59/58 98/116/113
f 195/12/12 193/178/175 194/179/176
f 197/180/177 195/12/12 194/179/176
f 197/180/177 194/179/176 196/181/178
f 198/182/179 197/180/177 196/181/178
f 200/183/180 198/182/179 199/184/181
f 201/185/182 200/183/180 199/184/181
f 203/186/183 201/185/182 199/184/181
f 203/186/183 199/184/181 202/187/184
f 205/188/185 206/189/186 207/190/187
f 205/188/185 207/190/187 204/191/188
f 209/192/189 196/181/178 194/179/176
f 209/192/189 194/179/176 208/193/190
f 209/192/189 198/182/179 196/181/178
f 210/194/191 199/184/181 198/182/179
f 210/194/191 198/182/179 209/192/189
f 199/184/181 210/194/191 202/187/184
f 211/48/47 212/109/106 204/191/188
f 82/49/48 193/178/175 195/12/12
f 195/12/12 197/180/177 184/166/163
f 185/167/164 184/166/163 197/180/177
f 185/167/164 197/180/177 198/182/179
f 214/195/192 185/167/164 200/183/180
f 214/195/192 200/183/180 201/185/182
f 214/195/192 201/185/182 203/186/183
f 214/195/192 203/186/183 215/196/193
f 206/189/186 205/188/185 216/153/150
f 205/188/185 175/155/152 216/153/150
f 205/188/185 212/109/106 175/155/152
f 194/179/176 193/178/175 192/197/194
f 194/179/176 192/197/194 208/193/190
f 213/198/195 217/199/196 218/200/197
f 213/198/195 218/200/197 192/197/194
f 213/198/195 192/197/194 193/178/175
f 213/198/195 193/178/175 217/199/196
f 209/192/189 202/187/184 210/194/191
f 202/187/184 207/190/187 206/189/186
f 202/187/184 206/189/186 203/186/183
f 216/153/150 215/196/193 203/186/183
f 216/153/150 203/186/183 206/189/186
f 218/200/197 207/190/187 202/187/184
f 211/48/47 204/191/188 217/199/196
f 218/200/197 217/199/196 204/191/188
f 218/200/197 204/191/188 207/190/187
f 193/178/175 82/49/48 217/199/196
f 82/49/48 211/48/47 217/199/196
f 159/133/130 185/167/164 214/195/192
f 36/44/43 80/43/42 216/153/150
f 36/44/43 216/153/150 166/152/149
f 80/43/42 215/196/193 216/153/150
f 165/140/137 119/90/88 44/17/17
f 165/140/137 44/17/17 148/121/118
f 187/171/168 90/66/65 59/27/27
f 118/87/85 51/20/20 69/169/166
f 51/20/20 123/141/138 69/169/166
f 111/76/75 136/120/117 60/119/116
f 70/35/35 123/141/138 94/61/60
f 174/154/151 39/16/16 190/176/173
f 158/132/129 163/137/134 159/133/130
f 160/135/132 156/131/128 177/157/154
f 156/131/128 161/134/131 183/165/162
f 156/131/128 183/165/162 157/130/127
f 215/196/193 80/43/42 159/133/130
f 215/196/193 159/133/130 214/195/192
f 82/49/48 195/12/12 38/11/11
f 87/52/51 45/53/52 151/124/121
f 153/127/124 87/52/51 151/124/121
f 55/73/72 92/57/56 187/171/168
f 27/201/92 220/202/198 219/203/199
f 30/6/6 220/202/198 23/204/91
f 29/5/5 221/205/200 222/206/201
f 220/202/198 222/206/201 223/207/202
f 52/22/22 50/19/19 170/147/144
f 52/22/22 170/147/144 169/208/203
f 170/147/144 50/19/19 140/143/140
f 224/209/204 225/210/205 101/211/64
f 224/209/204 101/211/64 135/212/143
f 57/26/26 58/28/28 227/213/206
f 226/214/207 52/215/22 169/216/203
f 169/216/203 170/217/144 228/218/208
f 101/65/64 225/219/205 227/213/206
f 101/65/64 227/213/206 58/28/28
f 227/220/206 228/218/208 57/221/26
f 135/212/143 146/222/139 226/214/207
f 135/212/143 226/214/207 224/209/204
f 32/45/44 43/102/100 33/18/18
f 131/101/99 130/103/101 147/122/119
f 119/90/88 41/14/14 44/17/17
f 33/18/18 43/102/100 148/121/118
f 33/18/18 148/121/118 44/17/17
f 124/97/95 175/155/152 212/109/106
f 124/97/95 212/109/106 125/95/93
f 218/200/197 202/187/184 209/192/189
f 218/200/197 209/192/189 192/197/194
f 142/114/111 61/79/78 112/78/77
f 25/1/1 24/3/3 221/205/200
f 220/202/198 223/207/202 229/223/209
f 220/202/198 229/223/209 219/203/199
f 223/207/202 230/224/210 229/223/209
f 232/225/211 233/226/212 231/227/213
f 171/151/148 181/163/160 237/228/214
f 171/151/148 237/228/214 236/229/215
f 238/230/216 236/229/215 237/228/214
f 233/226/212 236/229/215 241/231/217
f 242/232/218 243/233/219 238/230/216
f 239/234/220 245/235/221 244/236/222
f 245/235/221 242/232/218 244/236/222
f 248/237/223 247/238/224 231/227/213
f 248/237/223 231/227/213 246/239/225
f 233/226/212 246/239/225 231/227/213
f 236/229/215 233/226/212 232/225/211
f 237/228/214 242/232/218 238/230/216
f 241/231/217 236/229/215 238/230/216
f 241/231/217 238/230/216 243/233/219
f 189/175/172 247/238/224 182/164/161
f 249/240/226 237/228/214 181/163/160
f 249/240/226 181/163/160 190/176/173
f 249/240/226 190/176/173 235/241/227
f 247/238/224 191/177/174 182/164/161
f 234/242/228 240/243/229 239/234/220
f 234/242/228 239/234/220 235/241/227
f 244/236/222 242/232/218 237/228/214
f 244/236/222 237/228/214 249/240/226
f 249/240/226 235/241/227 239/234/220
f 249/240/226 239/234/220 244/236/222
f 251/244/230 240/243/229 234/242/228
f 251/244/230 234/242/228 250/245/231
f 171/151/148 236/229/215 232/225/211
f 240/243/229 251/244/230 2/246/232
f 171/151/148 232/225/211 172/149/146
f 250/245/231 234/242/228 42/15/15
f 250/245/231 42/15/15 119/90/88
f 232/225/211 189/175/172 172/149/146
f 234/242/228 235/241/227 39/16/16
f 234/242/228 39/16/16 42/15/15
f 231/227/213 247/238/224 189/175/172
f 235/241/227 190/176/173 39/16/16
f 232/225/211 231/227/213 189/175/172
f 1/247/233 248/237/223 246/239/225
f 1/247/233 246/239/225 22/248/234
f 20/249/235 233/226/212 241/231/217
f 20/249/235 241/231/217 18/250/236
f 233/226/212 20/249/235 21/251/237
f 233/226/212 21/251/237 246/239/225
f 15/252/238 239/234/220 240/243/229
f 15/252/238 240/243/229 13/253/239
f 19/254/240 242/232/218 245/235/221
f 19/254/240 245/235/221 14/255/241
f 241/231/217 243/233/219 16/256/242
f 241/231/217 16/256/242 18/250/236
f 17/257/243 243/233/219 242/232/218
f 17/257/243 242/232/218 19/254/240
f 21/251/237 22/248/234 246/239/225
f 13/253/239 240/243/229 2/246/232
f 239/234/220 15/252/238 14/255/241
f 239/234/220 14/255/241 245/235/221
f 17/257/243 16/256/242 243/233/219
f 30/6/6 29/5/5 222/206/201
f 30/6/6 222/206/201 220/202/198
f 256/258/244 253/259/245 255/260/246
f 253/259/245 256/258/244 252/261/247
f 24/3/3 353/262/248 256/258/244
f 24/3/3 256/258/244 255/260/246
f 260/263/249 261/264/250 259/265/251
f 265/266/252 393/267/253 264/268/254
f 267/269/255 268/270/256 269/271/257
f 267/269/255 269/271/257 266/272/258
f 266/272/258 271/273/259 267/269/255
f 267/269/255 271/273/259 257/274/260
f 278/275/261 275/276/262 274/277/263
f 281/278/264 282/279/265 280/280/266
f 280/280/266 282/279/265 283/281/267
f 281/278/264 280/280/266 284/282/268
f 287/283/269 285/284/270 286/285/271
f 289/286/272 290/287/273 288/288/274
f 292/289/275 264/268/254 291/290/276
f 261/264/250 293/291/277 294/292/278
f 293/291/277 291/290/276 294/292/278
f 261/264/250 296/293/279 259/265/251
f 260/263/249 300/294/280 261/264/250
f 301/295/281 302/296/282 303/297/283
f 301/295/281 303/297/283 297/298/284
f 304/299/285 296/293/279 330/300/286
f 301/295/281 295/301/287 305/302/288
f 303/297/283 306/303/289 297/298/284
f 262/304/290 263/305/291 310/306/292
f 261/264/250 294/292/278 258/307/293
f 291/290/276 411/308/294 294/292/278
f 311/309/295 411/308/294 291/290/276
f 311/309/295 291/290/276 264/268/254
f 313/310/296 186/168/165 167/311/142
f 313/310/296 167/311/142 312/312/297
f 315/313/298 316/314/299 314/315/300
f 273/316/301 272/317/302 316/314/299
f 275/276/262 278/275/261 282/279/265
f 321/318/303 322/319/304 323/320/305
f 321/318/303 323/320/305 320/321/306
f 324/322/307 100/60/59 323/320/305
f 186/168/165 313/310/296 284/282/268
f 312/312/297 327/323/308 326/324/309
f 329/325/310 326/324/309 328/326/311
f 283/281/267 317/56/55 280/280/266
f 317/56/55 283/281/267 92/57/56
f 297/298/284 330/300/286 295/301/287
f 332/327/312 333/328/313 290/287/273
f 332/327/312 290/287/273 331/329/314
f 334/330/315 320/321/306 335/331/316
f 334/330/315 335/331/316 289/286/272
f 336/332/317 114/144/141 99/58/57
f 336/332/317 99/58/57 324/322/307
f 254/82/81 115/84/82 337/333/318
f 290/287/273 117/86/84 331/329/314
f 117/86/84 110/75/74 331/329/314
f 272/317/302 314/315/300 316/314/299
f 278/275/261 298/334/319 276/335/320
f 298/334/319 278/275/261 274/277/263
f 264/268/254 292/289/275 265/266/252
f 265/266/252 292/289/275 274/277/263
f 119/90/88 266/272/258 269/271/257
f 306/303/289 31/172/169 252/336/247
f 259/265/251 299/337/321 260/263/249
f 260/263/249 342/338/322 298/334/319
f 343/339/323 344/340/324 345/341/325
f 128/342/159 346/343/326 347/344/327
f 128/342/159 347/344/327 129/345/155
f 312/312/297 315/313/298 313/310/296
f 306/303/289 252/336/247 297/298/284
f 348/346/328 349/347/329 270/348/330
f 257/274/260 258/307/293 294/292/278
f 257/274/260 294/292/278 343/339/323
f 328/326/311 106/349/69 132/350/102
f 350/351/331 329/325/310 132/350/102
f 351/352/332 342/338/322 319/353/333
f 351/352/332 319/353/333 309/354/334
f 281/278/264 314/315/300 275/276/262
f 286/285/271 285/284/270 325/355/335
f 352/356/336 351/352/332 309/354/334
f 339/357/337 258/307/293 270/348/330
f 330/300/286 297/298/284 353/358/248
f 267/269/255 257/274/260 343/339/323
f 267/269/255 343/339/323 345/341/325
f 294/292/278 411/308/294 410/359/338
f 294/292/278 410/359/338 343/339/323
f 335/331/316 117/86/84 290/287/273
f 331/329/314 110/75/74 91/85/83
f 331/329/314 91/85/83 318/360/339
f 355/361/340 176/362/153 179/363/157
f 355/361/340 179/363/157 354/364/341
f 287/283/269 277/365/342 356/366/343
f 307/367/344 341/368/345 308/369/346
f 338/370/347 318/360/339 91/85/83
f 338/370/347 91/85/83 116/148/145
f 256/371/244 353/358/248 297/298/284
f 303/297/283 302/296/282 340/372/348
f 288/288/274 333/328/313 357/373/349
f 288/288/274 357/373/349 321/318/303
f 332/327/312 308/369/346 322/319/304
f 318/360/339 308/369/346 332/327/312
f 318/360/339 332/327/312 331/329/314
f 145/173/170 306/303/289 144/118/115
f 335/331/316 113/80/79 136/120/117
f 290/287/273 289/286/272 335/331/316
f 360/374/350 147/122/119 348/346/328
f 362/375/351 363/376/352 364/377/353
f 362/375/351 364/377/353 361/378/354
f 362/375/351 361/378/354 365/379/355
f 364/377/353 273/316/301 361/378/354
f 329/325/310 365/379/355 366/380/356
f 329/325/310 366/380/356 326/324/309
f 350/351/331 178/381/156 367/382/357
f 367/382/357 368/383/358 363/376/352
f 367/382/357 363/376/352 362/375/351
f 369/384/359 177/385/154 176/362/153
f 369/384/359 176/362/153 355/361/340
f 370/386/360 310/306/292 371/387/361
f 161/388/131 160/389/132 372/390/362
f 319/353/333 307/367/344 309/354/334
f 371/387/361 374/391/363 375/392/364
f 371/387/361 375/392/364 373/393/365
f 364/377/353 374/391/363 273/316/301
f 272/317/302 273/316/301 374/391/363
f 272/317/302 393/267/253 265/266/252
f 315/313/298 366/380/356 316/314/299
f 326/324/309 366/380/356 315/313/298
f 326/324/309 315/313/298 312/312/297
f 360/374/350 165/140/137 147/122/119
f 349/347/329 340/372/348 339/357/337
f 342/338/322 351/352/332 358/394/366
f 330/300/286 353/358/248 336/332/317
f 330/300/286 336/332/317 324/322/307
f 100/60/59 324/322/307 99/58/57
f 336/332/317 353/358/248 337/333/318
f 353/358/248 254/82/81 337/333/318
f 114/144/141 336/332/317 337/333/318
f 114/144/141 337/333/318 115/84/82
f 107/395/70 327/323/308 167/311/142
f 377/396/367 358/394/366 351/352/332
f 276/335/320 279/397/368 356/366/343
f 276/335/320 356/366/343 277/365/342
f 309/354/334 325/355/335 352/356/336
f 349/347/329 339/357/337 270/348/330
f 360/374/350 348/346/328 270/348/330
f 258/307/293 305/302/288 261/264/250
f 297/298/284 295/301/287 301/295/281
f 319/353/333 341/368/345 307/367/344
f 338/370/347 307/367/344 318/360/339
f 287/283/269 286/285/271 283/281/267
f 282/279/265 281/278/264 275/276/262
f 325/355/335 309/354/334 286/285/271
f 379/398/369 380/399/370 381/400/371
f 344/340/324 415/401/372 376/402/373
f 344/340/324 382/403/374 345/341/325
f 344/340/324 383/404/375 415/401/372
f 369/384/359 160/389/132 177/385/154
f 347/344/327 178/381/156 129/345/155
f 134/405/103 178/381/156 350/351/331
f 384/406/376 368/383/358 347/344/327
f 384/406/376 347/344/327 346/343/326
f 134/405/103 350/351/331 132/350/102
f 382/403/374 344/340/324 376/402/373
f 382/403/374 376/402/373 385/407/377
f 376/402/373 263/305/291 381/400/371
f 376/402/373 381/400/371 385/407/377
f 379/398/369 381/400/371 263/305/291
f 379/398/369 263/305/291 262/304/290
f 262/304/290 354/364/341 379/398/369
f 374/391/363 364/377/353 363/376/352
f 374/391/363 363/376/352 375/392/364
f 128/342/159 161/388/131 372/390/362
f 128/342/159 372/390/362 346/343/326
f 375/392/364 384/406/376 386/408/378
f 375/392/364 386/408/378 373/393/365
f 388/409/379 272/317/302 374/391/363
f 388/409/379 374/391/363 387/410/380
f 280/280/266 317/56/55 284/282/268
f 89/54/53 284/282/268 317/56/55
f 89/54/53 317/56/55 88/55/54
f 284/282/268 89/54/53 186/168/165
f 291/290/276 293/291/277 300/294/280
f 258/307/293 339/357/337 305/302/288
f 297/298/284 252/336/247 256/371/244
f 377/396/367 279/397/368 276/335/320
f 377/396/367 276/335/320 298/334/319
f 279/397/368 377/396/367 359/411/381
f 315/313/298 314/315/300 281/278/264
f 313/310/296 315/313/298 281/278/264
f 313/310/296 281/278/264 284/282/268
f 274/277/263 275/276/262 314/315/300
f 277/365/342 278/275/261 276/335/320
f 277/365/342 282/279/265 278/275/261
f 277/365/342 287/283/269 283/281/267
f 277/365/342 283/281/267 282/279/265
f 296/293/279 304/299/285 259/265/251
f 339/357/337 340/372/348 302/296/282
f 339/357/337 302/296/282 301/295/281
f 330/300/286 322/319/304 304/299/285
f 334/330/315 321/318/303 320/321/306
f 357/373/349 333/328/313 332/327/312
f 357/373/349 332/327/312 322/319/304
f 92/57/56 283/281/267 286/285/271
f 145/173/170 31/172/169 306/303/289
f 141/113/110 303/297/283 340/372/348
f 141/113/110 340/372/348 188/174/171
f 340/372/348 349/347/329 130/103/101
f 340/372/348 130/103/101 188/174/171
f 342/338/322 358/394/366 377/396/367
f 136/120/117 117/86/84 335/331/316
f 309/354/334 307/367/344 338/370/347
f 292/289/275 300/294/280 260/263/249
f 292/289/275 260/263/249 298/334/319
f 261/264/250 300/294/280 293/291/277
f 261/264/250 305/302/288 296/293/279
f 305/302/288 295/301/287 296/293/279
f 393/267/253 272/317/302 388/409/379
f 298/334/319 342/338/322 377/396/367
f 291/290/276 300/294/280 292/289/275
f 320/321/306 323/320/305 100/60/59
f 320/321/306 100/60/59 97/81/80
f 341/368/345 259/265/251 308/369/346
f 304/299/285 322/319/304 308/369/346
f 322/319/304 330/300/286 324/322/307
f 322/319/304 324/322/307 323/320/305
f 290/287/273 333/328/313 288/288/274
f 318/360/339 307/367/344 308/369/346
f 92/57/56 309/354/334 338/370/347
f 187/171/168 92/57/56 338/370/347
f 187/171/168 338/370/347 116/148/145
f 132/350/102 329/325/310 328/326/311
f 312/312/297 167/311/142 327/323/308
f 374/391/363 371/387/361 387/410/380
f 301/295/281 305/302/288 339/357/337
f 303/297/283 141/113/110 144/118/115
f 303/297/283 144/118/115 306/303/289
f 385/407/377 381/400/371 380/399/370
f 354/364/341 179/363/157 191/412/174
f 354/364/341 191/412/174 389/413/382
f 382/403/374 385/407/377 390/414/383
f 382/403/374 268/270/256 267/269/255
f 382/403/374 267/269/255 345/341/325
f 329/325/310 350/351/331 365/379/355
f 262/304/290 355/361/340 354/364/341
f 178/381/156 347/344/327 368/383/358
f 178/381/156 368/383/358 367/382/357
f 355/361/340 310/306/292 370/386/360
f 355/361/340 370/386/360 369/384/359
f 355/361/340 262/304/290 310/306/292
f 373/393/365 386/408/378 369/384/359
f 373/393/365 369/384/359 370/386/360
f 375/392/364 363/376/352 368/383/358
f 375/392/364 368/383/358 384/406/376
f 384/406/376 346/343/326 372/390/362
f 384/406/376 372/390/362 386/408/378
f 389/413/382 379/398/369 354/364/341
f 299/337/321 342/338/322 260/263/249
f 274/277/263 314/315/300 272/317/302
f 274/277/263 272/317/302 265/266/252
f 361/378/354 366/380/356 365/379/355
f 362/375/351 365/379/355 350/351/331
f 362/375/351 350/351/331 367/382/357
f 341/368/345 319/353/333 299/337/321
f 308/369/346 259/265/251 304/299/285
f 341/368/345 299/337/321 259/265/251
f 320/321/306 97/81/80 113/80/79
f 320/321/306 113/80/79 335/331/316
f 357/373/349 322/319/304 321/318/303
f 393/267/253 394/415/384 391/416/385
f 395/417/386 396/418/387 394/415/384
f 395/417/386 394/415/384 393/267/253
f 397/419/388 396/418/387 395/417/386
f 398/420/389 399/421/390 397/419/388
f 400/422/391 399/421/390 398/420/389
f 401/423/392 402/424/393 399/421/390
f 401/423/392 399/421/390 400/422/391
f 404/425/394 405/426/395 406/427/396
f 404/425/394 406/427/396 403/428/397
f 407/429/398 408/430/399 394/415/384
f 407/429/398 394/415/384 396/418/387
f 407/429/398 396/418/387 397/419/388
f 409/431/400 407/429/398 397/419/388
f 409/431/400 397/419/388 399/421/390
f 399/421/390 402/424/393 409/431/400
f 411/308/294 405/426/395 410/359/338
f 311/309/295 393/267/253 391/416/385
f 393/267/253 388/409/379 395/417/386
f 387/410/380 397/419/388 395/417/386
f 387/410/380 395/417/386 388/409/379
f 413/432/401 400/422/391 398/420/389
f 413/432/401 398/420/389 387/410/380
f 413/432/401 414/433/402 401/423/392
f 413/432/401 401/423/392 400/422/391
f 403/428/397 415/401/372 404/425/394
f 404/425/394 415/401/372 383/404/375
f 404/425/394 383/404/375 410/359/338
f 394/415/384 408/430/399 392/434/403
f 394/415/384 392/434/403 391/416/385
f 412/435/404 417/436/405 416/437/406
f 412/435/404 416/437/406 391/416/385
f 412/435/404 391/416/385 392/434/403
f 407/429/398 409/431/400 402/424/393
f 402/424/393 401/423/392 403/428/397
f 402/424/393 403/428/397 406/427/396
f 415/401/372 403/428/397 401/423/392
f 415/401/372 401/423/392 414/433/402
f 417/436/405 402/424/393 406/427/396
f 392/434/403 417/436/405 412/435/404
f 411/308/294 416/437/406 405/426/395
f 417/436/405 406/427/396 405/426/395
f 417/436/405 405/426/395 416/437/406
f 391/416/385 416/437/406 311/309/295
f 311/309/295 416/437/406 411/308/294
f 371/387/361 413/432/401 387/410/380
f 263/305/291 376/402/373 415/401/372
f 263/305/291 415/401/372 310/306/292
f 310/306/292 415/401/372 414/433/402
f 165/140/137 360/374/350 271/273/259
f 165/140/137 271/273/259 119/90/88
f 92/57/56 286/285/271 309/354/334
f 274/277/263 292/289/275 298/334/319
f 330/300/286 296/293/279 295/301/287
f 299/337/321 319/353/333 342/338/322
f 382/403/374 390/414/383 268/270/256
f 370/386/360 371/387/361 373/393/365
f 160/389/132 369/384/359 386/408/378
f 160/389/132 386/408/378 372/390/362
f 414/433/402 413/432/401 371/387/361
f 414/433/402 371/387/361 310/306/292
f 311/309/295 264/268/254 393/267/253
f 327/323/308 328/326/311 326/324/309
f 316/314/299 361/378/354 273/316/301
f 366/380/356 361/378/354 316/314/299
f 107/395/70 106/349/69 328/326/311
f 107/395/70 328/326/311 327/323/308
f 418/438/407 252/261/247 219/203/199
f 253/259/245 252/261/247 418/438/407
f 255/260/246 420/439/408 419/440/409
f 418/438/407 219/203/199 421/441/410
f 359/411/381 378/442/411 422/443/412
f 359/411/381 422/443/412 279/397/368
f 356/366/343 279/397/368 422/443/412
f 423/444/413 325/445/335 425/446/414
f 423/444/413 352/447/336 325/445/335
f 377/448/367 424/449/415 359/450/381
f 287/283/269 425/451/414 285/284/270
f 378/452/411 426/453/416 422/454/412
f 426/453/416 356/455/343 422/454/412
f 325/355/335 285/284/270 425/451/414
f 425/446/414 287/456/269 426/453/416
f 352/447/336 423/444/413 424/449/415
f 352/447/336 424/449/415 351/457/332
f 258/307/293 257/274/260 270/348/330
f 348/346/328 147/122/119 130/103/101
f 348/346/328 130/103/101 349/347/329
f 119/90/88 271/273/259 266/272/258
f 257/274/260 271/273/259 360/374/350
f 257/274/260 360/374/350 270/348/330
f 344/340/324 343/339/323 410/359/338
f 344/340/324 410/359/338 383/404/375
f 417/436/405 407/429/398 402/424/393
f 288/288/274 334/330/315 289/286/272
f 321/318/303 334/330/315 288/288/274
f 24/3/3 419/440/409 221/205/200
f 219/203/199 229/223/209 421/441/410
f 421/441/410 229/223/209 230/224/210
f 421/441/410 230/224/210 427/458/417
f 419/440/409 427/458/417 230/224/210
f 419/440/409 230/224/210 221/205/200
f 429/459/418 430/460/419 428/461/420
f 380/399/370 434/462/421 435/463/422
f 380/399/370 435/463/422 433/464/423
f 436/465/424 435/463/422 434/462/421
f 428/461/420 439/466/425 434/462/421
f 440/467/426 436/465/424 441/468/427
f 438/469/428 442/470/429 443/471/430
f 443/471/430 442/470/429 440/467/426
f 11/472/431 430/460/419 248/473/223
f 248/473/223 430/460/419 247/474/224
f 428/461/420 430/460/419 11/472/431
f 434/462/421 429/459/418 428/461/420
f 435/463/422 436/465/424 440/467/426
f 439/466/425 441/468/427 436/465/424
f 439/466/425 436/465/424 434/462/421
f 389/413/382 191/412/174 247/474/224
f 442/470/429 390/414/383 433/464/423
f 442/470/429 433/464/423 435/463/422
f 442/470/429 431/475/432 390/414/383
f 432/476/433 431/475/432 438/469/428
f 432/476/433 438/469/428 437/477/434
f 442/470/429 435/463/422 440/467/426
f 442/470/429 438/469/428 431/475/432
f 251/244/230 250/245/231 432/476/433
f 251/244/230 432/476/433 437/477/434
f 380/399/370 429/459/418 434/462/421
f 437/477/434 2/246/232 251/244/230
f 380/399/370 379/398/369 429/459/418
f 250/245/231 119/90/88 269/271/257
f 250/245/231 269/271/257 432/476/433
f 429/459/418 379/398/369 389/413/382
f 432/476/433 269/271/257 268/270/256
f 432/476/433 268/270/256 431/475/432
f 380/399/370 433/464/423 385/407/377
f 430/460/419 389/413/382 247/474/224
f 390/414/383 385/407/377 433/464/423
f 431/475/432 268/270/256 390/414/383
f 429/459/418 389/413/382 430/460/419
f 1/478/233 12/479/435 248/473/223
f 10/480/436 8/481/437 439/466/425
f 10/480/436 439/466/425 428/461/420
f 428/461/420 11/472/431 10/480/436
f 5/482/438 3/483/439 437/477/434
f 5/482/438 437/477/434 438/469/428
f 9/484/440 4/485/441 443/471/430
f 9/484/440 443/471/430 440/467/426
f 439/466/425 8/481/437 6/486/442
f 439/466/425 6/486/442 441/468/427
f 7/487/443 9/484/440 440/467/426
f 7/487/443 440/467/426 441/468/427
f 11/472/431 248/473/223 12/479/435
f 3/483/439 2/246/232 437/477/434
f 438/469/428 443/471/430 4/485/441
f 438/469/428 4/485/441 5/482/438
f 7/487/443 441/468/427 6/486/442
f 253/259/245 418/438/407 255/260/246
f 221/205/200 29/5/5 25/1/1
f 26/2/2 254/488/81 24/3/3
f 205/188/185 204/191/188 212/109/106
f 198/182/179 200/183/180 185/167/164
f 27/201/92 23/204/91 220/202/198
f 27/201/92 219/203/199 31/489/169
f 170/217/144 57/221/26 228/218/208
f 168/490/167 226/214/207 146/222/139
f 444/491/444 226/214/207 169/216/203
f 444/491/444 228/218/208 227/220/206
f 444/491/444 169/216/203 228/218/208
f 444/491/444 224/209/204 226/214/207
f 227/220/206 225/210/205 444/491/444
f 226/214/207 168/490/167 52/215/22
f 224/209/204 444/491/444 225/210/205
f 192/197/194 209/192/189 208/193/190
f 230/224/210 223/207/202 222/206/201
f 230/224/210 222/206/201 221/205/200
f 255/260/246 419/440/409 24/3/3
f 24/3/3 254/488/81 353/262/248
f 405/426/395 404/425/394 410/359/338
f 398/420/389 397/419/388 387/410/380
f 252/261/247 31/489/169 219/203/199
f 287/456/269 356/455/343 426/453/416
f 424/449/415 377/448/367 351/457/332
f 359/450/381 445/492/445 378/452/411
f 426/453/416 445/492/445 425/446/414
f 378/452/411 445/492/445 426/453/416
f 423/444/413 445/492/445 424/449/415
f 445/492/445 359/450/381 424/449/415
f 445/492/445 423/444/413 425/446/414
f 407/429/398 392/434/403 408/430/399
f 417/436/405 392/434/403 407/429/398
f 421/441/410 427/458/417 420/439/408
f 420/439/408 427/458/417 419/440/409
f 418/438/407 420/439/408 255/260/246
f 418/438/407 421/441/410 420/439/408
