# Blender 4.4.0
# www.blender.org
mtllib negr_lod4.mtl
o negr
v -0.076768 -0.999723 0.287201
v -0.401094 -0.881462 0.237249
v -0.624834 -0.805272 -0.047980
v -0.662864 -0.597647 -0.277139
v -0.263320 -0.723222 -0.623898
v 0.229649 -0.933711 0.320022
v 0.610398 -0.835300 -0.018564
v 0.662496 -0.596844 -0.277513
v 0.294488 -0.705142 -0.619687
v -0.143151 -0.128418 0.523012
v 0.164692 -0.140126 0.500084
v 0.127194 -0.371702 0.504430
v 0.275099 -0.201640 -0.347690
v 0.372929 0.058272 0.421536
v -0.000941 -0.711352 0.196514
v 0.286242 -0.355756 0.078342
v 0.287968 0.272357 0.446875
v 0.349054 0.638110 0.349249
v 0.280091 0.345666 0.499182
v 0.133572 -0.152731 0.575359
v 0.115488 0.273184 0.488137
v 0.020248 0.773868 0.479559
v 0.163659 0.086259 0.544744
v 0.026960 0.035639 0.594754
v 0.029932 1.044080 -0.087432
v 0.013118 0.083232 0.691143
v 0.000817 -0.108890 0.641485
v -0.138633 0.675604 -0.665435
v 0.320190 0.712350 -0.574235
v 0.425418 0.834603 -0.190089
v 0.100884 0.157398 -0.645288
v -0.038049 -0.422679 0.307145
v 0.465317 0.177673 -0.023978
v 0.502160 0.320344 -0.156198
v 0.446747 0.041519 -0.136042
v 0.460501 -0.013203 0.009991
v 0.001059 0.032680 0.367488
v -0.039396 -0.167535 0.284889
v 0.263954 -0.795157 0.172838
v -0.136580 -0.373810 0.488064
v -0.230450 -0.041797 -0.462843
v -0.296380 0.761578 0.339315
v -0.283899 0.286948 0.469169
v -0.462152 -0.033351 0.019128
v -0.377023 0.106885 0.419895
v -0.008170 0.324028 0.576320
v -0.133473 0.068183 0.559644
v -0.115287 0.274393 0.486826
v -0.186280 -0.160241 0.543694
v -0.305295 -0.315229 -0.005016
v -0.377974 0.880846 -0.232011
v -0.445813 0.479776 -0.443193
v -0.296751 -0.304436 -0.407590
v -0.448093 0.121357 -0.025080
v -0.500304 0.322453 -0.142209
v -0.447182 0.033516 -0.126518
v -0.262630 -0.795381 0.172960
vn 0.7980 0.6001 -0.0553
vn 0.8289 -0.0904 0.5520
vn 0.9878 -0.0039 0.1557
vn 0.3725 -0.6938 0.6164
vn 0.9084 -0.3469 0.2334
vn 0.9622 -0.2722 0.0108
vn 0.6171 -0.1491 0.7726
vn 0.0559 0.6189 0.7834
vn -0.0456 0.1930 0.9801
vn 0.5376 -0.0147 0.8431
vn 0.7667 0.4074 0.4962
vn -0.2465 -0.8642 0.4386
vn -0.0172 0.1461 0.9891
vn 0.2705 -0.1772 0.9463
vn -0.9641 0.2565 -0.0681
vn 0.9437 -0.1635 0.2876
vn 0.5040 0.1175 0.8557
vn 0.0646 0.9979 0.0078
vn 0.5655 0.4058 -0.7180
vn 0.0307 -0.2482 0.9682
vn 0.9294 -0.2592 -0.2627
vn -0.4666 -0.2639 -0.8442
vn 0.1953 -0.3058 -0.9319
vn 0.7336 0.0039 -0.6796
vn -0.2569 0.3886 -0.8848
vn -0.6463 0.2568 -0.7186
vn 0.9982 -0.0097 -0.0597
vn 0.4240 -0.1040 0.8997
vn 0.1854 -0.3633 0.9130
vn 0.0276 -0.5900 0.8069
vn 0.1961 0.4853 0.8521
vn 0.3501 0.5006 0.7917
vn 0.6628 0.7112 0.2341
vn -0.2174 0.4397 -0.8714
vn 0.2288 0.4695 -0.8528
vn -0.0529 0.4435 0.8947
vn 0.4347 0.6150 0.6579
vn -0.0294 0.7312 0.6815
vn -0.4413 0.0191 0.8972
vn -0.6480 0.5353 0.5418
vn -0.8134 -0.0479 0.5798
vn -0.9516 -0.3063 0.0258
vn -0.4467 -0.7124 0.5413
vn -0.6981 0.6942 -0.1753
vn -0.9981 -0.0255 -0.0569
vn -0.4882 0.0765 0.8694
vn -0.9158 -0.2992 0.2681
vn -0.4848 -0.2431 0.8402
vn -0.8483 0.0288 -0.5288
vn -0.5738 0.0146 0.8189
vn -0.9504 -0.1863 -0.2489
vn -0.4771 -0.4018 -0.7816
vn -0.0278 -0.9040 0.4266
vn -0.5671 0.7800 0.2647
vn -0.2682 0.5383 0.7989
vn -0.1713 0.7517 0.6368
vn -0.3965 0.6769 0.6202
vt 0.802036 0.792990
vt 0.654539 0.442970
vt 0.793897 0.534375
vt 0.546336 0.264242
vt 0.709593 0.254129
vt 0.782929 0.442205
vt 0.605664 0.604107
vt 0.506025 0.815229
vt 0.492453 0.594027
vt 0.618224 0.566456
vt 0.647964 0.736894
vt 0.479943 0.185990
vt 0.478243 0.083567
vt 0.540092 0.347045
vt 0.559756 0.364804
vt 0.448588 0.363494
vt 0.560563 0.476002
vt 0.735826 0.932553
vt 0.905452 0.751446
vt 0.546757 0.858653
vt 0.504407 0.461345
vt 0.833486 0.448034
vt 0.999000 0.386861
vt 0.971898 0.547275
vt 0.896472 0.263534
vt 0.936000 0.877000
vt 0.988199 0.202133
vt 0.841023 0.564692
vt 0.557656 0.568128
vt 0.509839 0.431539
vt 0.503601 0.377098
vt 0.982826 0.668791
vt 0.544640 0.947676
vt 0.496678 0.949803
vt 0.469561 0.964257
vt 0.641959 0.045638
vt 0.834567 0.001757
vt 0.999000 0.002437
vt 0.938455 0.002158
vt 0.469714 0.001997
vt 0.744424 0.002000
vt 0.591678 0.002063
vt 0.386345 0.573322
vt 0.361060 0.787663
vt 0.342332 0.490002
vt 0.223142 0.432915
vt 0.447115 0.263488
vt 0.195173 0.816738
vt 0.163625 0.566176
vt 0.454114 0.451698
vt 0.270913 0.938006
vt 0.258463 0.242601
vt 0.442377 0.358737
vt 0.110863 0.642543
vt 0.443532 0.566705
vt 0.167592 0.444446
vt 0.103293 0.197002
vt 0.078017 0.416292
vt 0.061027 0.737261
vt 0.207606 0.509074
vt 0.016414 0.551651
vt 0.500114 0.970000
vt 0.165467 0.001757
vt 0.358572 0.045619
vt 0.053775 0.002111
vt 0.348074 0.002068
vt 0.245345 0.002000
vt 0.514145 0.995338
vt 0.570460 0.962317
vt 0.610477 0.965725
vt 0.589305 0.994211
s 1
f 30/1/1 14/2/2 33/3/3
f 14/2/2 12/4/4 16/5/5
f 14/2/2 16/5/5 36/6/6
f 19/7/7 22/8/8 46/9/9
f 19/7/7 17/10/10 18/11/11
f 14/2/2 30/1/1 18/11/11
f 32/12/12 15/13/13 16/5/5
f 20/14/14 11/15/15 10/16/16
f 23/17/17 20/14/14 14/2/2
f 25/18/18 30/1/1 29/19/19
f 25/18/18 22/20/8 18/11/11
f 25/18/18 18/11/11 30/1/1
f 46/9/9 26/21/20 23/17/17
f 16/5/5 35/22/21 36/6/6
f 41/23/22 31/24/23 13/25/24
f 25/18/18 29/19/19 28/26/25
f 13/25/24 53/27/26 41/23/22
f 35/22/21 16/5/5 13/25/24
f 34/28/27 29/19/19 30/1/1
f 33/3/3 34/28/27 30/1/1
f 19/7/7 18/11/11 22/8/8
f 12/4/4 14/2/2 20/14/14
f 46/9/9 21/29/28 19/7/7
f 17/10/10 14/2/2 18/11/11
f 17/10/10 21/29/28 23/17/17
f 21/29/28 46/9/9 23/17/17
f 24/30/29 23/17/17 26/21/20
f 24/30/29 20/14/14 23/17/17
f 20/14/14 24/30/29 27/31/30
f 20/14/14 27/31/30 11/15/15
f 29/19/19 13/25/24 31/24/23
f 33/3/3 36/6/6 35/22/21
f 13/25/24 34/28/27 35/22/21
f 32/12/12 16/5/5 12/4/4
f 14/2/2 17/10/10 23/17/17
f 13/25/24 29/19/19 34/28/27
f 31/24/23 28/32/25 29/19/19
f 36/6/6 33/3/3 14/2/2
f 35/22/21 34/28/27 33/3/3
f 11/33/15 38/34/31 10/35/16
f 13/25/24 39/36/32 8/37/33
f 5/38/34 53/27/26 13/25/24
f 5/38/34 13/25/24 9/39/35
f 39/36/32 16/5/5 15/13/13
f 16/5/5 39/36/32 13/25/24
f 39/36/32 15/13/13 1/40/36
f 13/25/24 8/37/33 9/39/35
f 7/41/37 39/36/32 6/42/38
f 8/37/33 39/36/32 7/41/37
f 6/42/38 39/36/32 1/40/36
f 43/43/39 42/44/40 45/45/41
f 42/44/40 43/43/39 46/9/9
f 42/44/40 46/9/9 22/8/8
f 45/45/41 44/46/42 40/47/43
f 51/48/44 55/49/45 42/44/40
f 47/50/46 27/31/30 24/30/29
f 42/44/40 25/51/18 51/48/44
f 32/12/12 40/47/43 44/46/42
f 32/12/12 44/46/42 50/52/47
f 46/9/9 45/45/41 47/50/46
f 46/9/9 47/50/46 26/21/20
f 10/16/16 49/53/48 20/14/14
f 26/21/20 47/50/46 24/30/29
f 55/49/45 51/48/44 52/54/49
f 40/47/43 32/12/12 12/4/4
f 49/53/48 10/16/16 27/31/30
f 40/47/43 49/53/48 45/45/41
f 48/55/50 45/45/41 46/9/9
f 43/43/39 48/55/50 46/9/9
f 50/52/47 44/46/42 56/56/51
f 56/56/51 53/57/26 50/52/47
f 53/57/26 56/56/51 41/58/22
f 49/53/48 40/47/43 12/4/4
f 49/53/48 12/4/4 20/14/14
f 47/50/46 49/53/48 27/31/30
f 42/44/40 22/8/8 25/51/18
f 50/52/47 15/13/13 32/12/12
f 52/54/49 28/59/25 41/58/22
f 52/54/49 51/48/44 28/59/25
f 45/45/41 42/44/40 55/49/45
f 51/48/44 25/51/18 28/59/25
f 47/50/46 45/45/41 49/53/48
f 44/46/42 55/49/45 54/60/52
f 54/60/52 56/56/51 44/46/42
f 41/58/22 56/56/51 55/49/45
f 45/45/41 48/55/50 43/43/39
f 31/61/23 41/58/22 28/59/25
f 55/49/45 52/54/49 41/58/22
f 44/46/42 45/45/41 55/49/45
f 10/35/16 38/34/31 37/62/53
f 53/57/26 4/63/54 57/64/55
f 57/64/55 15/13/13 50/52/47
f 50/52/47 53/57/26 57/64/55
f 57/64/55 1/40/36 15/13/13
f 53/57/26 5/65/34 4/63/54
f 2/66/56 1/40/36 57/64/55
f 4/63/54 3/67/57 57/64/55
f 3/67/57 2/66/56 57/64/55
f 37/62/53 11/33/15 27/68/30
f 21/69/28 17/70/10 19/71/7
f 38/34/31 11/33/15 37/62/53
f 10/35/16 37/62/53 27/68/30
f 56/56/51 54/60/52 55/49/45
