# Blender 4.4.0
# www.blender.org
mtllib negr_lod3.mtl
o negr
v -0.004106 -0.733078 -0.625813
v -0.000035 -1.002342 0.284238
v -0.117277 -0.973564 0.306907
v -0.375179 -0.889767 0.231173
v -0.247144 -0.942602 0.276051
v -0.656078 -0.718512 -0.109025
v -0.609847 -0.786562 0.019807
v -0.662480 -0.632053 -0.244271
v -0.511812 -0.845392 0.127809
v -0.609326 -0.569868 -0.415710
v -0.428589 -0.645666 -0.572503
v -0.201076 -0.720822 -0.633205
v 0.117382 -0.973645 0.306766
v 0.375794 -0.889711 0.230916
v 0.247512 -0.942667 0.275986
v 0.656371 -0.718624 -0.109224
v 0.610273 -0.786562 0.019789
v 0.662480 -0.631463 -0.244119
v 0.511631 -0.845357 0.127832
v 0.608654 -0.568839 -0.416318
v 0.425229 -0.644883 -0.575683
v 0.198972 -0.720968 -0.633141
v 0.072746 -0.118651 0.581549
v 0.001358 -0.103264 0.563069
v 0.156469 -0.141967 0.517020
v 0.165158 -0.134812 0.477574
v 0.208073 -0.337508 0.394674
v 0.266737 -0.117782 0.476551
v 0.305106 0.034009 0.478256
v 0.384007 -0.121088 -0.148429
v 0.309504 -0.031099 -0.342662
v 0.445946 0.130104 0.168767
v 0.137610 -0.485870 0.169371
v 0.151172 -0.382218 0.257332
v 0.135660 -0.376073 0.453133
v 0.438346 0.538422 0.047713
v 0.325455 0.374085 0.450150
v 0.294798 0.280170 0.434333
v 0.228667 0.671716 0.444970
v 0.193201 0.426026 0.540243
v 0.215554 0.317654 0.508566
v 0.135906 0.297084 0.501725
v 0.051176 0.079512 0.608909
v 0.349888 -0.081841 0.343341
v 0.208247 -0.207509 0.499680
v 0.396400 0.320929 0.312756
v 0.126518 -0.207493 0.559152
v 0.112807 -0.137326 0.576970
v 0.179686 -0.103926 0.543679
v 0.152543 0.084334 0.534302
v 0.103483 0.179693 0.559819
v 0.115163 0.267287 0.492285
v 0.394979 -0.186157 0.128693
v 0.035804 0.829526 0.399200
v 0.170657 0.867943 0.295902
v 0.337272 0.774914 0.216314
v 0.341405 0.611393 0.337922
v -0.028742 0.494725 0.563674
v 0.089873 0.664489 0.511560
v 0.200232 0.100516 0.525953
v 0.150626 0.223358 0.497310
v 0.104752 0.035695 0.565894
v 0.022178 0.025646 0.589386
v 0.034210 -0.057671 0.637749
v -0.022119 -0.043329 0.620306
v 0.118532 0.270697 0.471142
v 0.200461 0.954742 0.067202
v 0.270430 0.924426 -0.269015
v 0.041477 1.005077 -0.170829
v -0.044978 1.003210 -0.008578
v -0.053883 0.965589 0.164793
v 0.131525 0.066851 0.584895
v 0.111710 0.118929 0.608256
v 0.022810 0.138201 0.669434
v 0.027813 0.063901 0.653795
v 0.087872 0.070409 0.578732
v 0.069113 -0.100155 0.621410
v 0.028925 0.313255 0.555906
v -0.026397 0.107838 0.679716
v 0.047451 -0.226962 0.574285
v 0.269852 0.213898 0.463122
v 0.345853 -0.216205 0.034601
v 0.396070 0.078433 0.341223
v 0.064668 0.490910 -0.677401
v 0.185063 0.724603 -0.592384
v 0.072961 -0.328271 0.551909
v 0.046213 -0.367379 0.509532
v -0.058706 0.965404 -0.340041
v 0.166707 0.262546 0.498126
v 0.146701 -0.042830 -0.476294
v 0.196321 -0.258442 -0.413534
v 0.036841 -0.148642 0.629845
v 0.244991 0.258973 0.489453
v 0.349444 0.784869 -0.430467
v 0.360902 0.863345 -0.146376
v 0.444557 0.698402 -0.239079
v 0.185070 0.856962 -0.473249
v 0.198052 0.177381 -0.610735
v 0.346078 0.196985 -0.483078
v -0.070442 0.176059 -0.638406
v 0.463110 0.439973 -0.354265
v 0.385929 0.498425 -0.521777
v -0.001631 -0.412714 0.311958
v 0.294149 0.278307 0.416213
v 0.253789 0.343196 0.466010
v 0.340623 -0.441407 -0.094615
v 0.343216 -0.262293 -0.329958
v 0.282032 -0.348805 0.040351
v -0.058476 -0.047861 -0.496152
v -0.157325 0.856373 -0.488897
v -0.076677 -0.233709 -0.441251
v 0.264188 0.495702 -0.625188
v 0.057047 -0.334354 -0.437203
v 0.463039 0.311941 -0.143661
v 0.450735 0.148379 -0.051059
v 0.481659 0.197393 -0.017388
v 0.463085 0.287936 0.000350
v 0.503987 0.307345 -0.062576
v 0.526278 0.322725 -0.125184
v 0.529881 0.273048 -0.183836
v 0.513633 0.282046 -0.207219
v 0.507867 0.130331 -0.188274
v 0.482362 0.092737 -0.201007
v 0.484518 -0.033014 -0.027232
v 0.491836 0.058579 -0.131343
v 0.451486 0.059468 0.048403
v 0.429217 -0.022153 0.022797
v 0.442259 0.068377 -0.027315
v 0.440508 0.192271 -0.204386
v 0.423348 0.013309 -0.120924
v 0.474468 0.042192 -0.006566
v -0.066318 -0.179508 0.497660
v 0.123103 -0.188067 0.471051
v 0.065853 0.017128 0.376055
v 0.151359 -0.142646 0.400947
v 0.074840 -0.218144 0.372349
v 0.118477 0.301133 0.460671
v -0.071736 -0.211455 0.372606
v 0.048204 -0.099348 0.270774
v 0.266425 -0.425792 -0.456003
v 0.418893 -0.385395 -0.338484
v 0.109220 -0.667076 0.165866
v 0.371302 -0.628963 -0.039906
v 0.497950 -0.739295 -0.043288
v 0.136104 -0.829000 0.216503
v 0.555004 -0.584226 -0.219366
v 0.378209 -0.764276 0.066273
v 0.273582 -0.798053 0.109364
v 0.001713 -0.826883 0.163830
v -0.155956 -0.134599 0.490997
v -0.067628 -0.116220 0.581538
v -0.165525 -0.125401 0.475055
v -0.205234 -0.338988 0.398435
v -0.367127 0.046207 0.404176
v -0.305912 -0.033862 -0.343833
v -0.382037 -0.122112 -0.148745
v -0.442866 0.127714 0.183838
v -0.149636 -0.382493 0.258544
v -0.132889 -0.492612 0.172537
v -0.135632 -0.376834 0.454528
v -0.438432 0.540082 0.042589
v -0.399257 0.353879 0.306068
v -0.315196 0.389333 0.466683
v -0.181957 0.424116 0.542753
v -0.310239 0.602830 0.396432
v -0.146679 0.666881 0.498822
v -0.133854 0.296795 0.501078
v -0.190279 0.314727 0.510353
v -0.071198 0.083680 0.582241
v -0.055140 0.077942 0.635113
v -0.395067 -0.185317 0.140032
v -0.214163 -0.149103 0.514555
v -0.363731 0.233738 0.366612
v -0.266734 0.041761 0.504413
v -0.157481 -0.199210 0.547889
v -0.092210 -0.138136 0.606190
v -0.198488 -0.249201 0.493034
v -0.103497 0.180826 0.560060
v -0.151714 0.083348 0.534165
v -0.113951 0.259609 0.498225
v -0.183221 0.834561 0.334149
v -0.336432 0.775962 0.212979
v -0.043357 0.196083 0.616797
v -0.020658 0.026440 0.593949
v -0.105482 0.049280 0.574294
v -0.034840 -0.072392 0.645158
v -0.116656 0.269650 0.478104
v -0.282738 0.914016 0.019498
v -0.259991 0.936183 -0.230701
v -0.182708 -0.097534 0.545675
v -0.140703 0.074274 0.588735
v -0.029324 0.313458 0.558929
v -0.089447 -0.226901 0.567120
v -0.257797 0.193084 0.473347
v -0.344165 -0.216578 0.034926
v -0.232296 0.501671 -0.642567
v -0.210380 0.723681 -0.580048
v -0.079845 -0.356884 0.533572
v -0.208747 0.258040 0.501071
v -0.160151 -0.141703 0.518390
v -0.194986 -0.259087 -0.413680
v -0.190227 -0.023290 -0.457171
v -0.252307 0.318561 0.493446
v -0.299171 0.279933 0.431490
v -0.384524 0.819457 -0.216774
v -0.347905 0.783937 -0.430674
v -0.443427 0.697962 -0.240212
v -0.235539 0.175480 -0.582917
v -0.344784 0.200066 -0.484282
v -0.461568 0.439595 -0.354264
v -0.384987 0.500278 -0.521859
v -0.263590 0.260693 0.473443
v -0.300605 0.297775 0.418887
v -0.341818 -0.261821 -0.329727
v -0.339256 -0.444374 -0.093872
v -0.280617 -0.349821 0.041006
v -0.461584 0.311984 -0.143664
v -0.480633 0.197993 -0.017601
v -0.449131 0.149124 -0.051796
v -0.461718 0.288013 0.000331
v -0.502828 0.307499 -0.062855
v -0.525011 0.322745 -0.125233
v -0.512503 0.282150 -0.207069
v -0.528886 0.273151 -0.183974
v -0.481317 0.092840 -0.201197
v -0.507066 0.130203 -0.188322
v -0.482817 -0.033337 -0.027097
v -0.490531 0.055263 -0.125915
v -0.427855 -0.022081 0.023011
v -0.450664 0.060428 0.048451
v -0.440785 0.068055 -0.027364
v -0.439208 0.192178 -0.204365
v -0.421968 0.013432 -0.120896
v -0.473400 0.042622 -0.006723
v -0.152942 -0.169021 0.452201
v -0.068830 0.012189 0.376371
v -0.082098 -0.096214 0.289515
v -0.122581 0.307214 0.462967
v -0.223541 0.346043 0.452307
v -0.419749 -0.384832 -0.337760
v -0.267734 -0.422678 -0.454910
v -0.108194 -0.665962 0.167069
v -0.371455 -0.629100 -0.041579
v -0.498510 -0.738773 -0.044785
v -0.135265 -0.828902 0.216931
v -0.556272 -0.584635 -0.219460
v -0.377182 -0.764042 0.065967
v -0.273546 -0.798737 0.109586
v 0.172833 0.300014 0.415640
v -0.171097 0.299996 0.415616
vn -0.0990 -0.9937 0.0517
vn -0.9263 0.0324 -0.3755
vn 0.4196 -0.1589 0.8937
vn 0.9736 0.1579 0.1646
vn 0.9792 -0.0588 0.1944
vn 0.9518 0.1491 0.2679
vn 0.4475 -0.2358 0.8626
vn 0.6643 -0.2992 0.6849
vn 0.7453 -0.2668 0.6110
vn 0.6898 -0.0259 0.7235
vn 0.9148 -0.1026 0.3905
vn 0.5388 0.5566 0.6324
vn 0.4951 -0.2256 0.8390
vn 0.7084 -0.6457 0.2851
vn 0.8690 -0.4939 0.0304
vn 0.8725 -0.3131 0.3752
vn 0.9558 -0.1201 0.2683
vn 0.9526 0.2921 -0.0847
vn 0.7917 0.5025 0.3475
vn 0.3670 0.0139 0.9301
vn 0.1829 0.4239 0.8870
vn -0.0301 0.1366 0.9902
vn 0.2028 0.2441 0.9483
vn 0.4113 -0.0800 0.9080
vn 0.0022 0.5613 0.8276
vn 0.3670 0.1279 0.9214
vn 0.6454 0.4016 0.6497
vn 0.5095 -0.0125 0.8604
vn 0.0828 0.9903 -0.1118
vn 0.4129 0.8858 0.2118
vn 0.4688 0.8543 -0.2244
vn -0.1027 0.9899 0.0978
vn -0.1155 0.9308 0.3469
vn -0.2345 0.1535 0.9599
vn 0.7218 0.2228 0.6553
vn 0.2914 0.2734 0.9167
vn 0.2934 -0.6243 0.7240
vn 0.6841 -0.4674 0.5599
vn 0.0895 -0.7100 0.6985
vn 0.3008 -0.9439 0.1361
vn 0.3261 -0.2187 0.9197
vn -0.2709 -0.0825 0.9591
vn 0.8497 0.2649 0.4559
vn 0.7476 -0.0501 0.6623
vn 0.2922 -0.0227 0.9561
vn 0.9168 0.0610 0.3946
vn -0.0006 -0.8706 0.4920
vn 0.6688 -0.3107 0.6754
vn 0.5720 -0.7662 0.2928
vn 0.1022 -0.3800 0.9193
vn 0.2731 -0.4920 0.8267
vn -0.0005 0.9981 -0.0609
vn 0.0663 0.7298 0.6804
vn 0.5461 0.4337 0.7167
vn 0.3796 0.7741 0.5067
vn 0.0947 -0.8872 0.4516
vn 0.4384 -0.8146 0.3798
vn -0.0927 0.9220 -0.3759
vn 0.8622 -0.5048 -0.0426
vn 0.8525 -0.5167 0.0795
vn 0.6328 0.1708 0.7553
vn 0.7806 0.5552 0.2872
vn 0.4926 -0.7201 0.4887
vn 0.1646 0.1896 0.9680
vn 0.7094 0.5134 -0.4828
vn 0.7694 0.6381 0.0288
vn 0.2497 0.7645 -0.5943
vn 0.2782 0.4598 -0.8433
vn 0.7793 -0.3270 -0.5346
vn 0.9688 -0.0239 -0.2465
vn 0.8005 -0.2033 -0.5638
vn 0.0636 0.0905 -0.9939
vn 0.3821 -0.3540 -0.8536
vn -0.1021 -0.3392 -0.9352
vn 0.3248 0.2448 0.9135
vn 0.5771 0.0804 0.8127
vn 0.3503 0.3916 0.8508
vn 0.3249 -0.7603 0.5625
vn 0.3261 -0.4801 0.8144
vn 0.0413 0.5778 0.8151
vn 0.2713 0.1826 0.9450
vn 0.9783 -0.1688 -0.1204
vn 0.6501 -0.5867 -0.4828
vn -0.1046 -0.4149 -0.9038
vn 0.3517 -0.3701 -0.8599
vn -0.2306 0.7524 -0.6171
vn -0.1309 -0.2144 -0.9679
vn 0.4825 0.0704 -0.8730
vn 0.8701 -0.2026 0.4492
vn 0.9271 0.1202 0.3550
vn 0.8357 0.2050 -0.5095
vn 0.3652 0.0744 -0.9279
vn 0.0256 0.1668 -0.9857
vn 0.7923 0.0734 -0.6057
vn 0.7711 0.5819 -0.2584
vn 0.6224 0.6651 0.4127
vn 0.9877 -0.1147 0.1059
vn 0.2555 0.4492 -0.8561
vn 0.6873 0.7219 0.0807
vn 0.9702 0.0577 -0.2354
vn 0.1886 -0.4738 -0.8602
vn 0.8912 -0.1656 -0.4223
vn 0.5927 -0.8017 0.0768
vn 0.9733 -0.2284 -0.0239
vn 0.5592 -0.1841 -0.8083
vn 0.9176 0.3050 -0.2549
vn 0.9729 0.1693 0.1573
vn 0.9712 -0.2140 0.1045
vn -0.4687 0.7840 -0.4071
vn 0.1695 0.7908 -0.5881
vn -0.4070 -0.8997 0.1579
vn -0.9185 0.1478 0.3667
vn -0.3047 0.8958 0.3236
vn -0.4539 -0.8837 -0.1147
vn -0.6629 0.2531 0.7046
vn 0.8408 -0.4744 0.2607
vn 0.0008 -0.9849 0.1732
vn 0.3394 0.8786 0.3360
vn -0.3065 -0.0294 0.9514
vn 0.7277 0.6615 -0.1814
vn 0.5611 0.4646 0.6851
vn 0.4854 0.7309 0.4798
vn 0.0055 0.5141 0.8577
vn 0.1286 0.7550 0.6430
vn 0.3164 0.6053 0.7304
vn 0.1897 0.7233 0.6640
vn -0.0026 0.4958 -0.8685
vn 0.2366 0.4733 -0.8485
vn 0.1787 0.5898 -0.7875
vn 0.2999 0.7592 0.5777
vn 0.2072 0.0949 0.9737
vn -0.0006 0.3043 0.9526
vn 0.0017 0.5602 0.8284
vn -0.0679 0.7223 -0.6883
vn 0.5690 0.7935 -0.2158
vn 0.4436 0.8209 0.3597
vn 0.0799 0.5225 0.8489
vn -0.1443 0.5372 0.8310
vn 0.1962 0.7770 0.5982
vn 0.2205 0.7735 0.5942
vn 0.1400 0.8570 0.4959
vn -0.3443 -0.0517 0.9374
vn 0.7219 0.2533 -0.6440
vn 0.9620 -0.2151 -0.1682
vn -0.9349 0.0800 0.3458
vn -0.9494 0.1513 0.2751
vn -0.9749 -0.0451 0.2181
vn -0.7106 0.0216 0.7033
vn -0.7628 0.3106 0.5671
vn -0.3516 0.0091 0.9361
vn -0.3352 0.4338 0.8364
vn -0.8476 -0.0732 0.5256
vn -0.8680 -0.4943 0.0463
vn -0.5684 -0.1842 0.8019
vn -0.5542 0.0527 0.8307
vn -0.5503 -0.1790 0.8156
vn -0.4143 0.4050 0.8151
vn -0.7021 -0.3701 0.6084
vn -0.7124 -0.6488 0.2675
vn -0.9578 -0.1159 0.2631
vn -0.9569 0.2785 -0.0818
vn -0.9727 0.1599 0.1681
vn -0.7997 0.4850 0.3539
vn -0.4764 -0.4068 0.7795
vn -0.5207 -0.0045 0.8537
vn -0.1879 -0.1804 0.9655
vn -0.4155 0.7143 0.5632
vn -0.5973 0.7835 0.1711
vn -0.4696 0.8651 -0.1761
vn -0.4446 -0.2371 0.8638
vn -0.7987 -0.3042 0.5192
vn -0.3697 -0.7763 0.5106
vn -0.1801 -0.1209 0.9762
vn -0.8361 0.0006 0.5486
vn -0.4138 0.1059 0.9042
vn -0.5798 -0.7593 0.2956
vn -0.6660 -0.3048 0.6808
vn -0.4999 0.0695 0.8633
vn -0.3874 0.0831 -0.9181
vn -0.3277 0.4436 -0.8342
vn -0.1285 0.4230 0.8970
vn -0.6058 0.2297 0.7618
vn -0.8295 0.4398 0.3441
vn -0.4270 -0.8343 0.3486
vn -0.8649 -0.5006 -0.0373
vn -0.8519 -0.5180 0.0770
vn -0.5107 0.4267 0.7464
vn -0.4906 -0.3832 -0.7826
vn -0.3208 0.0847 -0.9434
vn -0.6519 0.2970 0.6977
vn -0.2832 -0.3650 0.8869
vn -0.2583 -0.7655 0.5894
vn -0.2566 -0.6617 0.7045
vn -0.6947 0.5389 -0.4765
vn -0.8168 0.5744 -0.0529
vn -0.4928 -0.3599 -0.7922
vn -0.7930 -0.3206 -0.5181
vn -0.8088 -0.1967 -0.5542
vn -0.9689 -0.0255 -0.2463
vn -0.2119 -0.8223 0.5282
vn -0.6095 -0.6718 0.4208
vn -0.6480 -0.5877 -0.4844
vn -0.9783 -0.1675 -0.1224
vn -0.8706 -0.1997 0.4497
vn -0.9241 0.1262 0.3608
vn -0.8354 0.2108 -0.5076
vn -0.7903 0.0726 -0.6084
vn -0.7714 0.5810 -0.2594
vn -0.4572 0.4594 0.7615
vn -0.1938 -0.8061 0.5591
vn -0.6211 0.6662 0.4129
vn -0.9881 -0.1146 0.1028
vn -0.2533 0.4504 -0.8562
vn -0.9689 0.0619 -0.2394
vn -0.6864 0.7227 0.0805
vn -0.1891 -0.4750 -0.8594
vn -0.8900 -0.1671 -0.4243
vn -0.5861 -0.8065 0.0773
vn -0.9770 -0.2130 -0.0102
vn -0.5575 -0.1841 -0.8095
vn -0.9169 0.3068 -0.2555
vn -0.9743 0.1693 0.1486
vn -0.9685 -0.2147 0.1257
vn 0.7782 0.6278 -0.0183
vn 0.5310 -0.0496 0.8459
vn 0.4253 -0.8922 0.1519
vn 0.7807 -0.1823 0.5977
vn -0.8135 -0.5339 0.2305
vn 0.0690 -0.9832 0.1687
vn -0.7261 0.6653 -0.1735
vn -0.4864 0.7297 0.4805
vn -0.5610 0.4661 0.6841
vn -0.0074 0.5108 0.8597
vn -0.3166 0.6075 0.7285
vn -0.1283 0.7558 0.6421
vn -0.1867 0.7253 0.6626
vn -0.1860 0.5858 -0.7889
vn -0.2346 0.4730 -0.8493
vn -0.2970 0.7594 0.5789
vn -0.2144 0.0875 0.9728
vn -0.5715 0.7906 -0.2199
vn -0.4488 0.8197 0.3558
vn -0.0801 0.5210 0.8498
vn 0.1443 0.5355 0.8321
vn -0.1955 0.7777 0.5975
vn -0.2187 0.7740 0.5942
vn -0.1396 0.8570 0.4961
vn 0.0713 0.7484 -0.6594
vn 0.3216 -0.1093 0.9405
vn -0.3336 0.0467 0.9416
vt 0.525322 0.995066
vt 0.542732 0.936311
vt 0.548205 0.955378
vt 0.747037 0.677474
vt 0.734616 0.495802
vt 0.797951 0.588219
vt 0.569659 0.379609
vt 0.561901 0.365425
vt 0.576527 0.339120
vt 0.612475 0.376860
vt 0.626771 0.452734
vt 0.681980 0.468217
vt 0.534639 0.349393
vt 0.540963 0.328339
vt 0.604806 0.276578
vt 0.717537 0.334589
vt 0.672101 0.382277
vt 0.765651 0.460766
vt 0.828377 0.732550
vt 0.675513 0.798546
vt 0.574220 0.658791
vt 0.538875 0.771769
vt 0.489632 0.695656
vt 0.514076 0.384116
vt 0.543449 0.433537
vt 0.494194 0.403175
vt 0.591809 0.470771
vt 0.547905 0.514762
vt 0.555882 0.458184
vt 0.767430 0.957782
vt 0.688908 0.890592
vt 0.810351 0.871004
vt 0.683071 0.964522
vt 0.605941 0.936368
vt 0.486851 0.601171
vt 0.533947 0.473685
vt 0.507186 0.479907
vt 0.509895 0.450386
vt 0.541567 0.450277
vt 0.533256 0.442577
vt 0.520552 0.444361
vt 0.511274 0.427527
vt 0.492387 0.465093
vt 0.656530 0.737032
vt 0.635240 0.624437
vt 0.625112 0.569880
vt 0.681739 0.595333
vt 0.500000 0.182404
vt 0.588906 0.148459
vt 0.597405 0.199799
vt 0.511481 0.313403
vt 0.524374 0.276365
vt 0.556675 0.363913
vt 0.501918 0.359203
vt 0.502407 0.855710
vt 0.597178 0.770226
vt 0.601192 0.861623
vt 0.518367 0.251066
vt 0.557643 0.257858
vt 0.850089 0.928878
vt 0.743884 0.298466
vt 0.776329 0.413340
vt 0.550492 0.564808
vt 0.558277 0.568126
vt 0.562320 0.582421
vt 0.510096 0.342123
vt 0.869968 0.785593
vt 0.781836 0.816690
vt 0.890441 0.840099
vt 0.935892 0.766164
vt 0.916172 0.539167
vt 0.873852 0.629150
vt 0.893519 0.387539
vt 0.982826 0.668791
vt 0.955873 0.543433
vt 0.999000 0.553772
vt 0.574564 0.538796
vt 0.621180 0.537907
vt 0.606097 0.558852
vt 0.594904 0.578378
vt 0.520795 0.373608
vt 0.523307 0.857374
vt 0.576557 0.562601
vt 0.512025 0.598186
vt 0.822296 0.329361
vt 0.831884 0.429612
vt 0.999000 0.386861
vt 0.955517 0.391338
vt 0.936000 0.877000
vt 0.999000 0.247918
vt 0.938582 0.661684
vt 0.721559 0.213126
vt 0.771062 0.181546
vt 0.872128 0.236474
vt 0.923097 0.231714
vt 0.981691 0.174546
vt 0.905016 0.656106
vt 0.848065 0.587518
vt 0.526093 0.364855
vt 0.816950 0.575489
vt 0.792789 0.539867
vt 0.851767 0.558396
vt 0.836436 0.577230
vt 0.843720 0.550292
vt 0.845852 0.490039
vt 0.835131 0.503800
vt 0.791110 0.438774
vt 0.822723 0.477052
vt 0.862592 0.525756
vt 0.789164 0.487845
vt 0.786983 0.478313
vt 0.798985 0.517061
vt 0.505984 0.910051
vt 0.523486 0.932495
vt 0.488259 0.929468
vt 0.514756 0.970000
vt 0.521389 0.947362
vt 0.512000 0.942000
vt 0.609292 0.568549
vt 0.617400 0.569000
vt 0.564597 0.569675
vt 0.571960 0.982116
vt 0.597503 0.991446
vt 0.584000 0.996000
vt 0.577539 0.954038
vt 0.598227 0.954910
vt 0.613129 0.975181
vt 0.563760 0.966008
vt 0.483825 0.996075
vt 0.488383 0.942032
vt 0.509850 0.956000
vt 0.868143 0.122623
vt 0.745669 0.101569
vt 0.821000 0.050000
vt 0.586034 0.035498
vt 0.650027 0.002267
vt 0.660134 0.046023
vt 0.709611 0.046830
vt 0.999000 0.002437
vt 0.917679 0.114473
vt 0.908051 0.002404
vt 0.752864 0.041364
vt 0.580333 0.082764
vt 0.500000 0.047990
vt 0.500000 0.001992
vt 0.958000 0.002000
vt 0.867000 0.002000
vt 0.823000 0.002000
vt 0.601000 0.002000
vt 0.550000 0.002000
vt 0.697000 0.002000
vt 0.782000 0.002000
vt 0.740000 0.002000
vt 0.467000 0.994000
vt 0.454667 0.938641
vt 0.458104 0.942044
vt 0.313485 0.617754
vt 0.202034 0.588243
vt 0.273860 0.493894
vt 0.375095 0.625921
vt 0.361398 0.733990
vt 0.435760 0.652324
vt 0.438722 0.772794
vt 0.343706 0.456886
vt 0.286276 0.335852
vt 0.417122 0.366973
vt 0.386780 0.445492
vt 0.447834 0.335574
vt 0.475910 0.345705
vt 0.436601 0.363971
vt 0.423582 0.317479
vt 0.397140 0.276747
vt 0.234338 0.461467
vt 0.171352 0.732602
vt 0.244665 0.676829
vt 0.323421 0.798266
vt 0.457974 0.439368
vt 0.443666 0.458211
vt 0.488192 0.429128
vt 0.399533 0.842974
vt 0.380930 0.923754
vt 0.281718 0.858259
vt 0.201405 0.875644
vt 0.310425 0.953726
vt 0.435723 0.392656
vt 0.458935 0.453633
vt 0.482749 0.452393
vt 0.484116 0.381580
vt 0.335174 0.546733
vt 0.372850 0.570203
vt 0.403684 0.199622
vt 0.414645 0.147214
vt 0.444201 0.364619
vt 0.384797 0.531490
vt 0.001000 0.669344
vt 0.054118 0.665464
vt 0.071889 0.764233
vt 0.014000 0.778000
vt 0.153501 0.920278
vt 0.234331 0.965866
vt 0.405913 0.557103
vt 0.447307 0.559281
vt 0.442486 0.568025
vt 0.442550 0.257751
vt 0.256309 0.298287
vt 0.223698 0.413416
vt 0.483308 0.516327
vt 0.059284 0.401335
vt 0.018281 0.390274
vt 0.029330 0.249583
vt 0.076938 0.231277
vt 0.453314 0.514803
vt 0.474486 0.311825
vt 0.472581 0.442548
vt 0.472102 0.265706
vt 0.129867 0.785206
vt 0.189956 0.801507
vt 0.102731 0.845615
vt 0.053000 0.540395
vt 0.016414 0.551651
vt 0.083777 0.540678
vt 0.106053 0.386275
vt 0.126185 0.628735
vt 0.481025 0.365964
vt 0.413829 0.579862
vt 0.438967 0.583609
vt 0.168086 0.429709
vt 0.177839 0.329175
vt 0.278633 0.212703
vt 0.229154 0.182284
vt 0.127876 0.236041
vt 0.095097 0.656752
vt 0.151934 0.587531
vt 0.388740 0.562047
vt 0.392232 0.581228
vt 0.183007 0.575404
vt 0.207060 0.540058
vt 0.148244 0.558464
vt 0.156248 0.550340
vt 0.163573 0.577210
vt 0.154114 0.490126
vt 0.164795 0.503774
vt 0.208893 0.438684
vt 0.177441 0.477228
vt 0.137432 0.525752
vt 0.210831 0.487841
vt 0.213009 0.478343
vt 0.201277 0.517654
vt 0.473601 0.936669
vt 0.486530 0.955726
vt 0.484000 0.970000
vt 0.383041 0.569000
vt 0.436071 0.569786
vt 0.406925 0.987778
vt 0.407000 0.996000
vt 0.385460 0.978299
vt 0.430979 0.984920
vt 0.416000 0.996000
vt 0.436866 0.965855
vt 0.397054 0.956026
vt 0.408000 0.953000
vt 0.131837 0.122689
vt 0.179000 0.050000
vt 0.253884 0.101707
vt 0.414157 0.035496
vt 0.339947 0.045807
vt 0.349971 0.002292
vt 0.290333 0.046972
vt 0.091973 0.002283
vt 0.083146 0.119756
vt 0.001204 0.002502
vt 0.011579 0.153780
vt 0.246730 0.041471
vt 0.419817 0.083007
vt 0.133000 0.002000
vt 0.177000 0.002000
vt 0.399000 0.002000
vt 0.450000 0.002000
vt 0.303000 0.002000
vt 0.218000 0.002000
vt 0.260000 0.002000
vt 0.042000 0.002000
vt 0.588000 0.975000
vt 0.616000 0.967000
vt 0.384465 0.967000
vt 0.412000 0.975000
s 1
f 23/1/1 26/2/2 25/3/3
f 36/4/4 32/5/5 117/6/6
f 49/7/7 25/8/3 45/9/8
f 28/10/9 49/7/7 45/9/8
f 29/11/10 28/10/9 83/12/11
f 45/9/8 25/8/3 48/13/12
f 45/9/8 48/13/12 47/14/13
f 28/10/9 27/15/14 53/16/15
f 28/10/9 53/16/15 44/17/16
f 32/5/5 53/16/15 126/18/17
f 96/19/18 56/20/19 36/4/4
f 40/21/20 59/22/21 58/23/22
f 64/24/23 62/25/24 65/26/25
f 60/27/26 51/28/27 50/29/28
f 69/30/29 67/31/30 68/32/31
f 67/31/30 70/33/32 71/34/33
f 58/23/22 192/35/34 40/21/20
f 73/36/35 74/37/36 75/38/37
f 73/36/35 75/38/37 72/39/38
f 76/40/39 43/41/40 63/42/41
f 62/25/24 63/42/41 65/26/25
f 79/43/42 75/38/37 74/37/36
f 36/4/4 56/20/19 57/44/43
f 37/45/44 38/46/45 46/47/46
f 32/5/5 36/4/4 46/47/46
f 46/47/46 83/12/11 32/5/5
f 103/48/47 33/49/48 34/50/49
f 47/14/13 80/51/50 86/52/51
f 48/13/12 26/53/2 24/54/52
f 54/55/53 59/22/21 39/56/54
f 55/57/55 39/56/54 56/20/19
f 48/13/12 25/8/3 26/53/2
f 87/58/56 35/59/57 86/52/51
f 88/60/58 69/30/29 68/32/31
f 44/17/16 53/16/15 32/5/5
f 39/56/54 37/45/44 57/44/43
f 45/9/8 35/59/57 27/15/14
f 60/27/26 49/7/7 29/11/10
f 34/50/49 82/61/59 53/16/15
f 34/50/49 53/16/15 27/15/14
f 53/16/15 127/62/60 126/18/17
f 52/63/61 66/64/62 42/65/63
f 92/66/64 80/51/50 47/14/13
f 92/66/64 47/14/13 48/13/12
f 51/28/27 74/37/36 73/36/35
f 43/41/40 75/38/37 63/42/41
f 94/67/65 95/68/66 96/19/18
f 94/67/65 68/32/31 95/68/66
f 68/32/31 67/31/30 95/68/66
f 88/60/58 68/32/31 97/69/67
f 97/69/67 94/67/65 85/70/68
f 99/71/69 101/72/70 31/73/71
f 84/74/72 98/75/73 100/76/74
f 61/77/75 52/63/61 51/28/27
f 36/4/4 101/72/70 96/19/18
f 67/31/30 55/57/55 56/20/19
f 67/31/30 56/20/19 95/68/66
f 35/59/57 87/58/56 103/48/47
f 61/77/75 81/78/76 93/79/77
f 37/45/44 41/80/78 38/46/45
f 49/7/7 64/24/23 77/81/79
f 71/34/33 54/82/53 55/57/55
f 52/63/61 89/83/80 66/64/62
f 86/52/51 35/59/57 45/9/8
f 60/27/26 61/77/75 51/28/27
f 78/84/81 74/37/36 51/28/27
f 41/80/78 40/21/20 42/65/63
f 37/45/44 39/56/54 40/21/20
f 82/61/59 30/85/82 130/86/83
f 82/61/59 130/86/83 127/62/60
f 109/87/84 100/76/74 98/75/73
f 109/87/84 98/75/73 90/88/85
f 85/70/68 110/89/86 97/69/67
f 88/60/58 97/69/67 110/89/86
f 90/88/85 111/90/87 109/87/84
f 112/91/88 84/74/72 85/70/68
f 108/92/89 106/93/90 30/85/82
f 108/92/89 30/85/82 82/61/59
f 30/85/82 106/93/90 107/94/91
f 107/94/91 31/73/71 30/85/82
f 31/73/71 107/94/91 91/95/92
f 90/88/85 113/96/93 111/90/87
f 101/72/70 102/97/94 94/67/65
f 101/72/70 94/67/65 96/19/18
f 117/6/6 114/98/95 101/72/70
f 117/6/6 101/72/70 36/4/4
f 40/21/20 39/56/54 59/22/21
f 46/47/46 29/11/10 83/12/11
f 27/15/14 28/10/9 45/9/8
f 56/20/19 39/56/54 57/44/43
f 46/47/46 57/44/43 37/45/44
f 41/80/78 37/45/44 40/21/20
f 28/10/9 29/11/10 49/7/7
f 45/9/8 47/14/13 86/52/51
f 76/40/39 63/42/41 62/25/24
f 72/39/38 50/29/28 73/36/35
f 72/39/38 76/40/39 62/25/24
f 78/84/81 42/65/63 40/21/20
f 24/54/52 92/66/64 48/13/12
f 81/78/76 29/11/10 46/47/46
f 81/78/76 61/77/75 60/27/26
f 93/79/77 89/83/80 61/77/75
f 61/77/75 89/83/80 52/63/61
f 52/63/61 78/84/81 51/28/27
f 76/40/39 72/39/38 43/41/40
f 44/17/16 83/12/11 28/10/9
f 32/5/5 83/12/11 44/17/16
f 38/46/45 93/79/77 81/78/76
f 62/25/24 49/7/7 50/29/28
f 49/7/7 62/25/24 64/24/23
f 49/7/7 77/81/79 25/8/3
f 77/81/79 23/99/1 25/8/3
f 75/38/37 43/41/40 72/39/38
f 73/36/35 50/29/28 51/28/27
f 69/30/29 70/33/32 67/31/30
f 55/57/55 67/31/30 71/34/33
f 54/55/53 39/56/54 55/57/55
f 108/92/89 82/61/59 34/50/49
f 108/92/89 34/50/49 33/49/48
f 31/73/71 91/95/92 90/88/85
f 90/88/85 98/75/73 99/71/69
f 90/88/85 99/71/69 31/73/71
f 102/97/94 99/71/69 98/75/73
f 102/97/94 98/75/73 112/91/88
f 102/97/94 112/91/88 85/70/68
f 102/97/94 85/70/68 94/67/65
f 91/95/92 113/96/93 90/88/85
f 46/47/46 36/4/4 57/44/43
f 94/67/65 97/69/67 68/32/31
f 60/27/26 50/29/28 49/7/7
f 72/39/38 62/25/24 50/29/28
f 118/100/96 117/6/6 116/101/97
f 121/102/98 119/103/99 120/104/100
f 123/105/101 121/102/98 120/104/100
f 123/105/101 120/104/100 122/106/102
f 124/107/103 123/105/101 125/108/104
f 120/104/100 119/103/99 118/100/96
f 126/18/17 127/62/60 124/107/103
f 126/18/17 116/101/97 117/6/6
f 114/98/95 117/6/6 118/100/96
f 114/98/95 118/100/96 119/103/99
f 129/109/105 114/98/95 121/102/98
f 129/109/105 121/102/98 123/105/101
f 123/105/101 124/107/103 130/86/83
f 124/107/103 127/62/60 130/86/83
f 128/110/106 131/111/107 125/108/104
f 128/110/106 125/108/104 115/112/108
f 128/110/106 115/112/108 116/101/97
f 128/110/106 116/101/97 131/111/107
f 118/100/96 122/106/102 120/104/100
f 122/106/102 125/108/104 123/105/101
f 130/86/83 129/109/105 123/105/101
f 126/18/17 124/107/103 131/111/107
f 125/108/104 131/111/107 124/107/103
f 116/101/97 126/18/17 131/111/107
f 101/72/70 114/98/95 129/109/105
f 30/85/82 31/73/71 130/86/83
f 31/73/71 129/109/105 130/86/83
f 103/48/47 34/50/49 35/59/57
f 78/84/81 52/63/61 42/65/63
f 38/46/45 81/78/76 46/47/46
f 29/11/10 81/78/76 60/27/26
f 99/71/69 102/97/94 101/72/70
f 98/75/73 84/74/72 112/91/88
f 129/109/105 31/73/71 101/72/70
f 126/18/17 117/6/6 32/5/5
f 56/20/19 96/19/18 95/68/66
f 40/21/20 192/35/34 78/84/81
f 24/113/52 133/114/109 132/115/110
f 26/2/2 134/116/111 135/117/112
f 133/114/109 135/117/112 136/118/113
f 38/46/45 105/119/114 104/120/115
f 105/119/114 38/46/45 41/80/78
f 41/80/78 42/65/63 137/121/116
f 66/64/62 137/121/116 42/65/63
f 137/122/116 105/123/114 41/124/78
f 89/125/80 93/126/77 104/127/115
f 89/125/80 104/127/115 66/128/62
f 27/15/14 35/59/57 34/50/49
f 82/61/59 127/62/60 53/16/15
f 125/108/104 122/106/102 118/100/96
f 125/108/104 118/100/96 115/112/108
f 23/1/1 151/129/117 134/116/111
f 133/114/109 136/118/113 138/130/118
f 133/114/109 138/130/118 132/115/110
f 136/118/113 139/131/119 138/130/118
f 141/132/120 143/133/121 146/134/122
f 145/135/123 14/136/124 148/137/125
f 14/136/124 147/138/126 148/137/125
f 1/139/127 113/96/93 140/140/128
f 1/139/127 140/140/128 21/141/129
f 141/132/120 21/141/129 140/140/128
f 143/133/121 147/138/126 144/142/130
f 146/134/122 143/133/121 144/142/130
f 148/137/125 143/133/121 106/93/90
f 148/137/125 106/93/90 108/92/89
f 148/137/125 108/92/89 142/143/131
f 148/137/125 147/138/126 143/133/121
f 148/137/125 142/143/131 145/135/123
f 149/144/132 145/135/123 142/143/131
f 106/93/90 143/133/121 141/132/120
f 145/135/123 149/144/132 2/145/133
f 106/93/90 141/132/120 107/94/91
f 149/144/132 142/143/131 33/49/48
f 149/144/132 33/49/48 103/48/47
f 141/132/120 91/95/92 107/94/91
f 140/140/128 113/96/93 91/95/92
f 142/143/131 108/92/89 33/49/48
f 141/132/120 140/140/128 91/95/92
f 1/139/127 21/141/129 22/146/134
f 20/147/135 141/132/120 146/134/122
f 20/147/135 146/134/122 18/148/136
f 141/132/120 20/147/135 21/141/129
f 15/149/137 145/135/123 13/150/138
f 19/151/139 147/138/126 14/136/124
f 146/134/122 144/142/130 16/152/140
f 146/134/122 16/152/140 18/148/136
f 17/153/141 144/142/130 147/138/126
f 17/153/141 147/138/126 19/151/139
f 13/150/138 145/135/123 2/145/133
f 145/135/123 15/149/137 14/136/124
f 17/153/141 16/152/140 144/142/130
f 26/2/2 135/117/112 133/114/109
f 151/129/117 200/154/142 150/155/143
f 151/129/117 150/155/143 152/156/144
f 162/157/145 220/158/146 157/159/147
f 163/160/148 165/161/149 162/157/145
f 165/161/149 163/160/148 164/162/150
f 165/161/149 164/162/150 166/163/151
f 154/164/152 157/159/147 171/165/153
f 154/164/152 172/166/154 174/167/155
f 175/168/156 176/169/157 200/170/142
f 175/168/156 172/166/154 177/171/158
f 154/164/152 171/165/153 153/172/159
f 157/159/147 230/173/160 171/165/153
f 207/174/161 161/175/162 182/176/163
f 185/177/164 179/178/165 65/26/25
f 185/177/164 65/26/25 184/179/166
f 54/55/53 181/180/167 166/163/151
f 181/180/167 71/181/33 188/182/168
f 189/183/169 188/182/168 70/184/32
f 58/23/22 164/162/150 192/35/34
f 200/170/142 190/185/170 172/166/154
f 191/186/171 170/187/172 79/43/42
f 186/188/173 77/81/79 64/24/23
f 161/175/162 165/161/149 182/176/163
f 163/160/148 173/189/174 204/190/175
f 173/189/174 163/160/148 162/157/145
f 103/48/47 158/191/176 159/192/177
f 176/169/157 24/54/52 150/193/143
f 154/164/152 194/194/178 173/189/174
f 84/195/72 196/196/179 197/197/180
f 84/195/72 197/197/180 85/198/68
f 176/169/157 150/193/143 200/170/142
f 88/199/58 189/183/169 69/200/29
f 199/201/181 194/194/178 180/202/182
f 187/203/183 199/201/181 180/202/182
f 177/171/158 153/172/159 160/204/184
f 158/191/176 153/172/159 171/165/153
f 158/191/176 171/165/153 195/205/185
f 171/165/153 230/173/160 229/206/186
f 184/179/166 79/43/42 170/187/172
f 79/43/42 74/37/36 183/207/187
f 202/208/188 109/209/84 111/210/87
f 202/208/188 111/210/87 201/211/189
f 178/212/190 174/167/155 179/178/165
f 192/35/34 183/207/187 74/37/36
f 192/35/34 74/37/36 78/84/81
f 176/169/157 175/168/156 193/213/191
f 169/214/192 191/186/171 185/177/164
f 183/207/187 179/178/165 191/186/171
f 183/207/187 191/186/171 79/43/42
f 24/54/52 176/169/157 92/66/64
f 184/179/166 63/42/41 75/38/37
f 170/187/172 169/214/192 184/179/166
f 160/204/184 87/58/56 198/215/193
f 206/216/194 207/174/161 205/217/195
f 206/216/194 205/217/195 189/183/169
f 110/218/86 197/197/180 206/216/194
f 208/219/196 100/220/74 109/209/84
f 208/219/196 109/209/84 202/208/188
f 209/221/197 155/222/198 210/223/199
f 84/195/72 100/220/74 196/196/179
f 161/175/162 207/174/161 210/223/199
f 161/175/162 220/158/146 162/157/145
f 188/182/168 182/176/163 181/180/167
f 160/204/184 103/48/47 87/58/56
f 198/215/193 193/213/191 177/171/158
f 190/185/170 200/170/142 186/188/173
f 65/26/25 186/188/173 64/24/23
f 186/188/173 200/170/142 151/224/117
f 77/81/79 186/188/173 151/224/117
f 77/81/79 151/224/117 23/99/1
f 198/215/193 177/171/158 160/204/184
f 153/172/159 177/171/158 154/164/152
f 200/170/142 172/166/154 175/168/156
f 180/202/182 174/167/155 178/212/190
f 192/35/34 178/212/190 183/207/187
f 168/225/200 167/226/201 164/162/150
f 187/203/183 180/202/182 167/226/201
f 195/205/185 233/227/202 156/228/203
f 195/205/185 229/206/186 233/227/202
f 197/197/180 110/218/86 85/198/68
f 216/229/204 195/205/185 156/228/203
f 216/229/204 156/228/203 215/230/205
f 156/228/203 214/231/206 215/230/205
f 214/231/206 156/228/203 155/222/198
f 155/222/198 201/211/189 214/231/206
f 210/223/199 207/174/161 206/216/194
f 210/223/199 206/216/194 211/232/207
f 220/158/146 161/175/162 210/223/199
f 220/158/146 210/223/199 217/233/208
f 164/162/150 58/23/22 166/163/151
f 59/22/21 166/163/151 58/23/22
f 166/163/151 59/22/21 54/55/53
f 212/234/209 204/190/175 173/189/174
f 181/180/167 182/176/163 165/161/149
f 181/180/167 165/161/149 166/163/151
f 203/235/210 163/160/148 204/190/175
f 203/235/210 168/225/200 164/162/150
f 203/235/210 164/162/150 163/160/148
f 172/166/154 190/185/170 174/167/155
f 177/171/158 193/213/191 175/168/156
f 169/214/192 185/177/164 184/179/166
f 192/35/34 164/162/150 167/226/201
f 92/66/64 176/169/157 193/213/191
f 92/66/64 193/213/191 80/51/50
f 193/213/191 198/215/193 86/52/51
f 193/213/191 86/52/51 80/51/50
f 194/194/178 199/201/181 212/234/209
f 75/38/37 79/43/42 184/179/166
f 180/202/182 178/212/190 192/35/34
f 157/159/147 154/164/152 173/189/174
f 154/164/152 177/171/158 172/166/154
f 173/189/174 194/194/178 212/234/209
f 184/179/166 65/26/25 63/42/41
f 179/178/165 190/185/170 186/188/173
f 179/178/165 186/188/173 65/26/25
f 170/187/172 191/186/171 169/214/192
f 183/207/187 178/212/190 179/178/165
f 69/200/29 189/183/169 70/184/32
f 181/180/167 54/55/53 71/181/33
f 216/229/204 159/192/177 158/191/176
f 216/229/204 158/191/176 195/205/185
f 155/222/198 202/208/188 201/211/189
f 202/208/188 155/222/198 209/221/197
f 202/208/188 209/221/197 208/219/196
f 211/232/207 196/196/179 208/219/196
f 211/232/207 208/219/196 209/221/197
f 211/232/207 206/216/194 197/197/180
f 211/232/207 197/197/180 196/196/179
f 174/167/155 194/194/178 154/164/152
f 162/157/145 165/161/149 161/175/162
f 205/217/195 188/182/168 189/183/169
f 206/216/194 189/183/169 88/199/58
f 206/216/194 88/199/58 110/218/86
f 179/178/165 174/167/155 190/185/170
f 191/186/171 179/178/165 185/177/164
f 221/236/211 218/237/212 220/158/146
f 223/238/213 224/239/214 222/240/215
f 225/241/216 226/242/217 224/239/214
f 225/241/216 224/239/214 223/238/213
f 227/243/218 228/244/219 225/241/216
f 224/239/214 221/236/211 222/240/215
f 230/173/160 227/243/218 229/206/186
f 230/173/160 220/158/146 218/237/212
f 217/233/208 222/240/215 221/236/211
f 217/233/208 221/236/211 220/158/146
f 232/245/220 223/238/213 217/233/208
f 232/245/220 225/241/216 223/238/213
f 225/241/216 233/227/202 227/243/218
f 227/243/218 233/227/202 229/206/186
f 231/246/221 228/244/219 234/247/222
f 231/246/221 234/247/222 218/237/212
f 231/246/221 218/237/212 219/248/223
f 221/236/211 224/239/214 226/242/217
f 226/242/217 225/241/216 228/244/219
f 233/227/202 225/241/216 232/245/220
f 219/248/223 228/244/219 231/246/221
f 230/173/160 234/247/222 227/243/218
f 228/244/219 227/243/218 234/247/222
f 218/237/212 234/247/222 230/173/160
f 210/223/199 232/245/220 217/233/208
f 156/228/203 233/227/202 155/222/198
f 155/222/198 233/227/202 232/245/220
f 103/48/47 160/204/184 158/191/176
f 192/35/34 167/226/201 180/202/182
f 162/157/145 157/159/147 173/189/174
f 174/167/155 180/202/182 194/194/178
f 209/221/197 210/223/199 211/232/207
f 100/220/74 208/219/196 196/196/179
f 232/245/220 210/223/199 155/222/198
f 230/173/160 157/159/147 220/158/146
f 71/181/33 70/184/32 188/182/168
f 182/176/163 205/217/195 207/174/161
f 188/182/168 205/217/195 182/176/163
f 235/249/224 150/155/143 132/115/110
f 152/156/144 150/155/143 235/249/224
f 152/156/144 237/250/225 236/251/226
f 235/249/224 132/115/110 138/130/118
f 203/235/210 204/190/175 213/252/227
f 168/225/200 238/253/228 167/226/201
f 239/254/229 203/255/210 213/256/227
f 187/203/183 167/226/201 238/253/228
f 238/257/228 168/258/200 239/254/229
f 187/259/183 212/260/209 199/261/181
f 198/215/193 87/58/56 86/52/51
f 153/172/159 158/191/176 160/204/184
f 195/205/185 171/165/153 229/206/186
f 228/244/219 221/236/211 226/242/217
f 151/129/117 236/251/226 134/116/111
f 138/130/118 139/131/119 237/250/225
f 236/251/226 237/250/225 139/131/119
f 236/251/226 139/131/119 134/116/111
f 240/262/230 246/263/231 243/264/232
f 245/265/233 248/266/234 4/267/235
f 4/267/235 248/266/234 247/268/236
f 11/269/237 241/270/238 1/271/127
f 1/271/127 241/270/238 113/272/93
f 240/262/230 241/270/238 11/269/237
f 243/264/232 244/273/239 247/268/236
f 246/263/231 244/273/239 243/264/232
f 201/211/189 111/210/87 113/272/93
f 248/266/234 216/229/204 215/230/205
f 248/266/234 215/230/205 243/264/232
f 248/266/234 242/274/240 216/229/204
f 248/266/234 243/264/232 247/268/236
f 248/266/234 245/265/233 242/274/240
f 149/144/132 242/274/240 245/265/233
f 215/230/205 240/262/230 243/264/232
f 245/265/233 2/145/133 149/144/132
f 215/230/205 214/231/206 240/262/230
f 149/144/132 103/48/47 159/192/177
f 149/144/132 159/192/177 242/274/240
f 240/262/230 214/231/206 201/211/189
f 241/270/238 201/211/189 113/272/93
f 242/274/240 159/192/177 216/229/204
f 240/262/230 201/211/189 241/270/238
f 10/275/241 8/276/242 246/263/231
f 10/275/241 246/263/231 240/262/230
f 240/262/230 11/269/237 10/275/241
f 5/277/243 3/278/244 245/265/233
f 9/279/245 4/267/235 247/268/236
f 246/263/231 8/276/242 6/280/246
f 246/263/231 6/280/246 244/273/239
f 7/281/247 9/279/245 247/268/236
f 7/281/247 247/268/236 244/273/239
f 11/269/237 1/271/127 12/282/248
f 3/278/244 2/145/133 245/265/233
f 245/265/233 4/267/235 5/277/243
f 7/281/247 244/273/239 6/280/246
f 134/116/111 26/2/2 23/1/1
f 119/103/99 121/102/98 114/98/95
f 24/113/52 26/2/2 133/114/109
f 249/283/249 105/123/114 137/122/116
f 249/283/249 104/127/115 105/123/114
f 249/283/249 66/128/62 104/127/115
f 104/127/115 93/126/77 38/284/45
f 66/128/62 249/283/249 137/122/116
f 115/112/108 118/100/96 116/101/97
f 139/131/119 136/118/113 135/117/112
f 139/131/119 135/117/112 134/116/111
f 152/156/144 236/251/226 151/129/117
f 223/238/213 222/240/215 217/233/208
f 150/155/143 24/113/52 132/115/110
f 168/258/200 203/255/210 239/254/229
f 204/285/175 250/286/250 213/256/227
f 239/254/229 250/286/250 238/257/228
f 213/256/227 250/286/250 239/254/229
f 187/259/183 250/286/250 212/260/209
f 250/286/250 204/285/175 212/260/209
f 250/286/250 187/259/183 238/257/228
f 221/236/211 219/248/223 218/237/212
f 228/244/219 219/248/223 221/236/211
f 235/249/224 237/250/225 152/156/144
f 235/249/224 138/130/118 237/250/225
