# Blender 4.4.0
# www.blender.org
mtllib negr_lod1.mtl
o negr
v -0.000582 -0.734665 -0.623267
v -0.000035 -1.002342 0.284238
v -0.117277 -0.973564 0.306907
v -0.382144 -0.890788 0.221243
v -0.247144 -0.942602 0.276051
v -0.656078 -0.718512 -0.109025
v -0.609847 -0.786562 0.019807
v -0.662480 -0.632053 -0.244271
v -0.511812 -0.845392 0.127809
v -0.609326 -0.569868 -0.415710
v -0.426949 -0.649767 -0.567143
v -0.201076 -0.720822 -0.633205
v 0.117382 -0.973645 0.306766
v 0.382454 -0.890869 0.221097
v 0.247512 -0.942667 0.275986
v 0.656371 -0.718624 -0.109224
v 0.610273 -0.786562 0.019789
v 0.662480 -0.631463 -0.244119
v 0.511631 -0.845357 0.127832
v 0.608654 -0.568839 -0.416318
v 0.424663 -0.649937 -0.567418
v 0.198972 -0.720968 -0.633141
v 0.144043 -0.135566 0.491231
v -0.074350 -0.049126 0.500946
v 0.075062 -0.047331 0.499550
v 0.060321 -0.099878 0.554585
v 0.059809 -0.111430 0.545262
v 0.154931 -0.137114 0.504835
v 0.160900 -0.112934 0.466142
v 0.162598 -0.132652 0.473077
v 0.131606 -0.072674 0.476148
v -0.021729 -0.109897 0.552514
v 0.110110 -0.128733 0.554842
v 0.219716 -0.302706 0.415236
v 0.235733 -0.329340 0.306973
v 0.295009 -0.082677 0.453830
v 0.339669 0.034092 0.432969
v 0.264839 -0.010348 0.501255
v 0.357953 -0.159928 -0.223225
v 0.303981 -0.144611 -0.343644
v 0.296386 -0.054755 -0.357792
v 0.357339 -0.063343 -0.242780
v 0.457611 0.272437 0.023693
v 0.435905 0.373576 0.129894
v 0.451105 0.155030 0.140836
v 0.197493 -0.411308 0.138256
v 0.204911 -0.353378 0.208200
v 0.102001 -0.419375 0.249690
v 0.104265 -0.486305 0.198198
v 0.158326 -0.370401 0.419710
v 0.127011 -0.364799 0.482530
v 0.126191 -0.379412 0.305782
v 0.450320 0.492583 -0.000548
v 0.443006 0.670867 -0.148445
v 0.409727 0.592285 0.131265
v 0.345108 0.406705 0.408046
v 0.379466 0.449649 0.310669
v 0.316737 0.331933 0.447030
v 0.280172 0.294973 0.456388
v 0.311660 0.288791 0.421485
v 0.347192 0.330026 0.404711
v 0.291960 0.279539 0.431548
v 0.235539 0.427648 0.516826
v 0.264671 0.628727 0.429801
v 0.170226 0.484591 0.535748
v 0.146438 0.407029 0.549166
v 0.196896 0.657291 0.472505
v 0.184676 0.312576 0.508288
v 0.194581 0.333453 0.516374
v 0.145572 0.299732 0.499084
v 0.188616 0.378610 0.526833
v 0.129375 0.309222 0.510817
v 0.045525 0.072418 0.622175
v 0.047795 0.086711 0.593486
v 0.078084 0.081665 0.602518
v 0.431648 0.159117 0.215846
v 0.416720 0.086761 0.269808
v 0.419894 0.002743 0.183108
v 0.349888 -0.081841 0.343341
v 0.187159 -0.120086 0.535325
v 0.210682 -0.176871 0.503052
v 0.234917 -0.133930 0.500478
v 0.161637 -0.137704 0.523422
v 0.348625 0.208512 0.390472
v 0.330249 0.112728 0.436970
v 0.293535 0.053608 0.484094
v 0.382968 0.037623 0.355692
v 0.139981 -0.202196 0.552116
v 0.178396 -0.194521 0.524262
v 0.167824 -0.148604 0.516871
v 0.115972 -0.157835 0.581336
v 0.198253 -0.050475 0.529283
v 0.140775 -0.089126 0.572906
v 0.104490 -0.128266 0.571766
v 0.158568 -0.141591 0.511711
v 0.141257 0.113564 0.538585
v 0.112529 0.161261 0.557053
v 0.103437 0.196356 0.553724
v 0.090610 0.251013 0.527186
v 0.301408 0.036872 -0.387812
v 0.364728 0.041538 -0.275952
v 0.239542 -0.199330 0.458764
v 0.364021 -0.197455 0.213350
v 0.411416 -0.124798 0.140589
v 0.443651 0.031741 0.048445
v 0.456445 0.132851 0.046265
v 0.111654 0.773901 0.425972
v 0.123555 0.874028 0.304967
v 0.305372 0.809321 0.220430
v 0.289307 0.723856 0.335524
v 0.341405 0.611393 0.337922
v 0.375916 0.744129 0.118509
v 0.085141 0.468338 0.560142
v 0.116378 0.658054 0.507041
v 0.117796 0.273818 0.491681
v 0.033155 0.206563 0.615448
v 0.024227 0.566297 0.543527
v 0.029379 0.671189 0.512301
v -0.009141 0.381692 0.563372
v 0.294082 0.419163 0.474402
v 0.212857 0.141642 0.505997
v 0.169125 0.222215 0.495216
v 0.146399 0.218973 0.501410
v 0.074168 -0.000804 0.591096
v 0.111343 0.040467 0.565769
v 0.031370 0.018519 0.586619
v 0.144073 0.060267 0.537228
v 0.023555 -0.058014 0.637856
v 0.078140 -0.062959 0.614575
v 0.203802 0.084220 0.526063
v 0.000284 -0.032347 0.609510
v 0.115426 0.257737 0.495365
v 0.118572 0.273744 0.474781
v 0.224695 0.848444 0.271198
v 0.231324 0.918189 0.121063
v 0.146140 0.943900 0.150241
v 0.285903 0.921402 -0.213866
v 0.116573 0.988055 -0.181568
v 0.146906 0.980702 -0.017761
v 0.231950 0.948285 -0.040216
v 0.029079 0.999653 -0.007429
v 0.024215 0.960331 0.166314
v 0.142163 -0.128338 0.544112
v 0.110152 0.083348 0.607408
v 0.124602 0.110468 0.594930
v 0.040016 0.128789 0.664667
v 0.056085 0.083139 0.640601
v 0.079528 0.082098 0.567845
v 0.020244 0.035405 0.600153
v 0.103745 -0.108144 0.595521
v 0.031362 -0.095641 0.627714
v 0.052583 -0.117740 0.591580
v 0.029193 0.085302 0.665324
v 0.075411 0.151091 0.621999
v 0.023969 0.289463 0.567853
v -0.000355 0.130898 0.672761
v -0.012115 0.082628 0.674954
v 0.381273 0.283763 0.337848
v 0.405828 0.333518 0.278926
v 0.314134 0.273764 0.417905
v -0.001727 -0.459170 0.290850
v 0.191922 -0.282565 0.475083
v 0.179805 -0.244839 0.512943
v 0.116546 -0.315931 0.531083
v 0.109129 -0.217474 0.562199
v 0.069836 -0.227596 0.569323
v 0.281535 0.232838 0.452783
v 0.355804 -0.192640 0.017542
v 0.388534 -0.179618 0.074609
v 0.336544 -0.250830 0.156379
v 0.293650 -0.279868 0.104617
v 0.386056 0.131795 0.357045
v 0.402566 0.208799 0.297708
v 0.127262 0.566927 -0.649960
v 0.000868 0.562946 -0.661419
v 0.083312 0.724122 -0.604086
v 0.210950 0.754513 0.387525
v 0.067105 -0.326445 0.551902
v 0.066106 -0.374553 0.504765
v -0.032541 0.999492 -0.178725
v 0.179405 0.936399 -0.330549
v 0.045885 0.958841 -0.339294
v 0.145807 0.270088 0.489073
v 0.182269 0.259690 0.500630
v 0.312043 0.518258 0.416183
v 0.253801 0.335044 0.496138
v 0.149548 0.084758 0.549377
v 0.431665 -0.013799 0.026004
v 0.025611 0.049887 0.631674
v 0.000235 0.230375 0.612410
v 0.083738 -0.056578 -0.483915
v 0.192175 -0.022154 -0.458685
v 0.193196 -0.185744 -0.420723
v 0.238396 0.310671 0.495777
v 0.045180 -0.166240 0.626587
v 0.099876 0.068422 0.585186
v 0.133524 0.055153 0.575778
v 0.031574 -0.130955 0.617778
v 0.001430 -0.109279 0.576488
v -0.000564 0.047880 0.644208
v 0.222324 0.255372 0.498206
v -0.000477 -0.371502 0.487055
v 0.096454 -0.384236 0.439174
v 0.363734 0.712842 -0.467571
v 0.321660 0.832542 -0.392653
v 0.376508 0.821429 -0.265451
v 0.427095 0.698004 -0.319575
v 0.271780 0.909560 -0.296430
v 0.389019 0.807076 -0.128411
v 0.313311 0.894506 -0.078853
v 0.101279 -0.383761 0.384081
v 0.101656 0.861358 -0.486525
v 0.214084 0.849981 -0.463327
v 0.246700 0.723207 -0.559263
v 0.104913 0.117397 -0.600268
v 0.221579 0.117865 -0.555159
v 0.331241 0.130393 -0.444613
v 0.360829 0.250357 -0.491155
v 0.424003 0.258021 -0.333419
v 0.000868 0.239120 -0.655479
v 0.000892 0.393909 -0.675105
v 0.125626 0.397949 -0.664716
v 0.115418 0.240453 -0.645617
v 0.452175 0.547687 -0.348309
v 0.450217 0.395605 -0.350776
v 0.383015 0.401930 -0.511868
v 0.385400 0.562496 -0.506472
v 0.464078 0.528810 -0.195929
v 0.311698 0.866351 0.071908
v -0.000096 -0.406882 0.376985
v 0.373883 -0.183120 -0.115123
v 0.389189 -0.078947 -0.141776
v 0.247109 0.197607 0.475890
v -0.019247 0.879351 0.324063
v 0.257547 0.263401 0.478226
v 0.214746 0.259543 0.493269
v 0.295519 0.293720 0.415426
v 0.161038 0.257833 0.488506
v 0.256429 0.259034 0.468672
v 0.233686 0.331104 0.490740
v 0.354403 -0.393129 -0.196792
v 0.349365 -0.276331 -0.333858
v 0.323337 -0.214946 -0.338453
v 0.356725 -0.247925 -0.205557
v 0.423292 -0.004348 -0.090301
v 0.292785 -0.321493 0.037743
v 0.395175 -0.090434 -0.014352
v 0.243385 0.243183 -0.602957
v 0.000865 -0.046648 -0.497690
v 0.000810 0.119280 -0.611440
v -0.066416 0.860851 -0.492877
v -0.069973 -0.157326 -0.459617
v 0.264186 0.569610 -0.608026
v 0.338688 -0.363567 -0.081549
v 0.092134 -0.270180 -0.437225
v 0.263397 0.402579 -0.621226
v 0.460473 0.320343 -0.044518
v 0.457776 0.372302 -0.191281
v -0.025737 0.778883 0.438186
v 0.066660 0.313968 0.537174
v 0.000154 -0.225681 0.575215
v -0.000769 -0.325515 0.556860
v 0.016342 0.334702 0.556591
v 0.184795 -0.499655 0.121700
v 0.210993 -0.303216 -0.419831
v 0.278336 -0.450017 0.050930
v -0.089057 -0.275780 -0.437705
v 0.438191 0.124880 -0.036778
v 0.458664 0.160741 -0.056783
v 0.485388 0.177437 -0.027734
v 0.472304 0.161641 -0.003677
v 0.496244 0.232684 -0.017071
v 0.477425 0.247036 0.004466
v 0.517015 0.298681 -0.052388
v 0.492233 0.317880 -0.044174
v 0.534250 0.316407 -0.124009
v 0.511491 0.332595 -0.129276
v 0.535904 0.290111 -0.170685
v 0.511128 0.303650 -0.186838
v 0.538611 0.228878 -0.193017
v 0.511286 0.231199 -0.218992
v 0.520242 0.128838 -0.191421
v 0.490433 0.122168 -0.208603
v 0.483093 -0.024880 -0.022048
v 0.462782 -0.043813 -0.037746
v 0.470790 0.039994 -0.154257
v 0.494035 0.043114 -0.129235
v 0.474888 0.238927 -0.041999
v 0.495232 0.289088 -0.062858
v 0.508398 0.299996 -0.117660
v 0.514955 0.279992 -0.163935
v 0.503090 0.134995 -0.180733
v 0.483313 0.016020 -0.025566
v 0.464265 0.028038 0.024951
v 0.457519 -0.018579 0.019626
v 0.442798 0.062387 -0.025206
v 0.456320 0.084717 -0.060058
v 0.470222 0.311835 -0.142898
v 0.455063 0.232836 -0.195221
v 0.438390 0.131860 -0.191088
v 0.420222 0.040633 -0.144063
v 0.425377 -0.029208 -0.026214
v 0.472655 0.045017 -0.013394
v 0.481517 0.082717 -0.101349
v 0.479278 0.077696 0.004718
v 0.504692 0.223938 -0.101723
v 0.414719 0.138607 -0.218957
v 0.435461 0.249632 -0.229924
v -0.000202 -0.407876 0.310666
v 0.000348 -0.171521 0.505794
v 0.088421 -0.186598 0.484028
v 0.141147 -0.173807 0.465513
v 0.065853 0.017128 0.376055
v 0.128069 -0.116368 0.360528
v 0.143994 -0.166791 0.411840
v 0.074840 -0.218144 0.372349
v 0.281356 0.319879 0.451494
v 0.130929 0.263161 0.460826
v 0.116921 0.284697 0.447653
v 0.265916 0.273601 0.421176
v 0.214885 0.253946 0.455259
v 0.134630 0.316793 0.467129
v 0.252505 0.333881 0.433599
v 0.202023 0.342182 0.464578
v 0.121430 0.300056 0.463547
v 0.000909 -0.205715 0.379849
v 0.048204 -0.099348 0.270774
v 0.266425 -0.425792 -0.456003
v 0.402737 -0.357918 -0.327090
v 0.453655 -0.417300 -0.356160
v 0.081534 -0.637104 0.176286
v 0.072636 -0.738524 0.179519
v 0.170513 -0.639143 0.134040
v 0.384404 -0.506009 -0.189425
v 0.337538 -0.494803 -0.054837
v 0.372989 -0.619402 -0.037357
v 0.462218 -0.709540 -0.046238
v 0.173576 -0.814197 0.195654
v 0.073904 -0.845866 0.207340
v 0.096441 -0.904976 0.254455
v 0.197703 -0.864562 0.243353
v 0.555004 -0.584226 -0.219366
v 0.382594 -0.748240 0.044367
v 0.439805 -0.799196 0.097538
v 0.519108 -0.768071 -0.007694
v 0.274837 -0.806199 0.115503
v 0.320508 -0.838061 0.183769
v 0.354533 -0.544232 -0.525256
v 0.162503 -0.604343 -0.559076
v -0.020113 -0.359301 -0.444986
v -0.087674 -0.570661 -0.539889
v 0.546217 -0.696736 -0.117257
v 0.093915 -0.340812 -0.437929
v 0.274843 -0.684891 0.078152
v 0.000734 -0.746364 0.176765
v 0.000313 -0.874904 0.179121
v 0.000979 -0.650317 0.207112
v -0.142678 -0.135537 0.491859
v -0.162085 -0.132803 0.472665
v -0.057755 -0.099072 0.554312
v -0.070322 -0.113857 0.540064
v -0.159537 -0.112995 0.466409
v -0.155978 -0.136044 0.498838
v -0.130051 -0.072674 0.476189
v -0.113651 -0.129452 0.555913
v -0.140677 -0.134175 0.519972
v -0.235727 -0.328872 0.305771
v -0.216773 -0.305048 0.418155
v -0.257360 -0.048223 0.499721
v -0.340753 0.036649 0.430896
v -0.309732 -0.068626 0.433864
v -0.294668 -0.054779 -0.357622
v -0.302063 -0.144319 -0.343340
v -0.356012 -0.159916 -0.223184
v -0.355474 -0.063308 -0.242710
v -0.451072 0.156649 0.140504
v -0.432784 0.346464 0.154495
v -0.456319 0.272387 0.023856
v -0.103311 -0.419241 0.249936
v -0.203701 -0.353384 0.208147
v -0.196966 -0.411506 0.138841
v -0.103653 -0.487445 0.200815
v -0.159641 -0.370311 0.418374
v -0.128342 -0.365348 0.483367
v -0.126994 -0.378999 0.306065
v -0.408821 0.596104 0.125114
v -0.441549 0.670589 -0.147144
v -0.448647 0.493731 -0.001609
v -0.395712 0.358895 0.315466
v -0.326633 0.480502 0.411312
v -0.370983 0.463449 0.322857
v -0.314735 0.306411 0.433443
v -0.303457 0.324868 0.459020
v -0.348931 0.330815 0.408505
v -0.328139 0.376496 0.443388
v -0.283980 0.292713 0.454868
v -0.298328 0.278599 0.432226
v -0.170526 0.483148 0.536352
v -0.263957 0.630431 0.429613
v -0.237393 0.428535 0.515895
v -0.150634 0.408823 0.547934
v -0.195815 0.657882 0.473470
v -0.188183 0.311621 0.509600
v -0.145154 0.299743 0.499371
v -0.193050 0.381075 0.526717
v -0.155883 0.325230 0.515400
v -0.196312 0.334439 0.516427
v -0.080569 0.082747 0.603261
v -0.049374 0.088780 0.593591
v -0.047413 0.073953 0.622154
v -0.422927 0.077181 0.237185
v -0.424898 0.168873 0.238828
v -0.419126 0.001523 0.182897
v -0.371554 -0.032415 0.312826
v -0.374699 -0.179343 0.209403
v -0.201654 -0.153361 0.514516
v -0.199675 -0.115993 0.532555
v -0.237594 -0.125148 0.502097
v -0.171921 -0.144274 0.518986
v -0.346634 0.235529 0.386487
v -0.306171 0.073184 0.467968
v -0.390999 0.049906 0.344820
v -0.182243 -0.192491 0.525185
v -0.146748 -0.199574 0.554479
v -0.122964 -0.157434 0.581130
v -0.215179 -0.070042 0.520802
v -0.217244 -0.205172 0.486416
v -0.109806 -0.128391 0.572833
v -0.112696 0.160960 0.558403
v -0.135044 0.120863 0.546178
v -0.097441 0.201478 0.556474
v -0.090640 0.250756 0.527268
v -0.300099 0.036696 -0.387999
v -0.362554 0.041693 -0.275935
v -0.257969 -0.173996 0.448771
v -0.410176 -0.124757 0.140565
v -0.442420 0.031434 0.048552
v -0.455677 0.132752 0.046423
v -0.142135 0.869847 0.301633
v -0.170654 0.763265 0.409992
v -0.339714 0.611352 0.337480
v -0.287500 0.723792 0.335465
v -0.303530 0.809117 0.220313
v -0.375049 0.743682 0.118041
v -0.076904 0.468804 0.560285
v -0.091605 0.557152 0.541399
v -0.113722 0.253184 0.495720
v -0.035506 0.204244 0.616200
v -0.107081 0.670443 0.504698
v -0.293997 0.415015 0.476199
v -0.149047 0.215822 0.501127
v -0.237513 0.194178 0.480350
v -0.197480 0.168903 0.501547
v -0.034875 0.022005 0.587952
v -0.113337 0.040795 0.564875
v -0.142259 0.056940 0.536723
v -0.060929 -0.009527 0.602088
v -0.085200 -0.064576 0.613119
v -0.029565 -0.050255 0.635230
v -0.177552 0.118198 0.532597
v -0.149843 0.094992 0.535552
v -0.118537 0.272218 0.474101
v -0.116502 0.267148 0.492731
v -0.116735 0.273840 0.480873
v -0.229115 0.916634 0.120496
v -0.223379 0.848952 0.271461
v -0.131842 0.947896 0.156253
v -0.114302 0.989551 -0.013853
v -0.215583 0.957930 -0.187182
v -0.230512 0.948548 -0.040152
v -0.126524 0.306180 0.509031
v -0.154599 -0.104354 0.561588
v -0.042226 0.127653 0.665465
v -0.128419 0.109497 0.595696
v -0.117594 0.082035 0.606693
v -0.058313 0.084501 0.640951
v -0.081008 0.082460 0.567973
v -0.020357 0.033650 0.601774
v -0.059942 -0.096445 0.624594
v -0.060784 -0.119185 0.590289
v -0.076154 0.152944 0.620748
v -0.031240 0.287622 0.566860
v -0.383844 0.229343 0.334491
v -0.327232 0.287157 0.409811
v -0.179605 -0.244909 0.515342
v -0.191663 -0.283085 0.476684
v -0.064747 -0.227475 0.569520
v -0.087347 -0.243308 0.564301
v -0.160296 -0.141782 0.512310
v -0.239716 -0.000986 0.516083
v -0.235067 0.068741 0.515405
v -0.363750 0.112003 0.400557
v -0.295385 0.215043 0.441672
v -0.335386 -0.250836 0.156385
v -0.387207 -0.179618 0.074568
v -0.354245 -0.192675 0.017676
v -0.292388 -0.279891 0.104617
v -0.126064 0.567371 -0.651942
v -0.117096 0.725914 -0.596082
v -0.067374 -0.375085 0.505343
v -0.068526 -0.327012 0.553422
v -0.117722 -0.319453 0.530388
v -0.147912 0.943317 -0.337161
v -0.191736 0.260077 0.499623
v -0.145806 0.270099 0.489275
v -0.173123 0.239632 0.498768
v -0.254987 0.331169 0.495100
v -0.150635 0.084319 0.549231
v -0.110981 -0.197039 0.578654
v -0.172324 0.001921 0.535777
v -0.169837 -0.153622 0.518593
v -0.136448 -0.125163 0.553817
v -0.430294 -0.013737 0.026166
v -0.026765 0.050473 0.631066
v -0.191871 -0.187159 -0.420387
v -0.190227 -0.023290 -0.457171
v -0.084176 -0.039502 -0.494063
v -0.239763 0.311235 0.496292
v -0.073548 -0.165324 0.619338
v -0.104522 0.058129 0.584181
v -0.101867 0.071516 0.586237
v -0.136833 0.054399 0.574241
v -0.057529 -0.131258 0.610721
v -0.224595 0.255361 0.497630
v -0.292078 0.280312 0.423180
v -0.097091 -0.384924 0.440122
v -0.374667 0.821265 -0.265393
v -0.319800 0.831958 -0.392208
v -0.362179 0.712818 -0.467507
v -0.425879 0.698185 -0.319692
v -0.269938 0.909215 -0.296313
v -0.308015 0.900609 -0.210562
v -0.387417 0.807117 -0.128411
v -0.312037 0.894728 -0.078812
v -0.100697 -0.384265 0.383251
v -0.212687 0.850449 -0.463771
v -0.245244 0.723306 -0.559461
v -0.219860 0.118005 -0.554936
v -0.103270 0.117479 -0.600127
v -0.329178 0.130557 -0.444432
v -0.359227 0.250316 -0.491237
v -0.422325 0.258021 -0.333419
v -0.123907 0.397932 -0.664658
v -0.113699 0.240517 -0.645459
v -0.381641 0.401913 -0.512072
v -0.448592 0.395605 -0.350800
v -0.450574 0.547705 -0.348333
v -0.384366 0.562601 -0.506817
v -0.462722 0.528827 -0.195952
v -0.310604 0.866976 0.072130
v -0.372013 -0.183143 -0.115123
v -0.387686 -0.078999 -0.141781
v -0.131373 -0.086837 0.582832
v -0.259765 0.262665 0.478069
v -0.297490 0.293791 0.415629
v -0.160315 0.257954 0.488326
v -0.255263 0.257874 0.470103
v -0.234253 0.331396 0.490634
v -0.187624 0.326819 0.497170
v -0.321852 -0.214718 -0.338184
v -0.348166 -0.275840 -0.333396
v -0.352704 -0.394014 -0.197702
v -0.354936 -0.247872 -0.205511
v -0.421795 -0.004312 -0.090227
v -0.291610 -0.321499 0.038029
v -0.393638 -0.090440 -0.014329
v -0.241608 0.243201 -0.602916
v -0.263209 0.569914 -0.609242
v -0.337019 -0.364143 -0.081299
v -0.261795 0.402579 -0.621448
v -0.456233 0.372302 -0.191263
v -0.459044 0.320368 -0.044559
v -0.043424 0.329570 0.553207
v -0.183941 -0.499632 0.122144
v -0.209892 -0.303200 -0.420120
v -0.277627 -0.453242 0.052048
v -0.484037 0.177414 -0.027682
v -0.458618 0.163319 -0.055363
v -0.437233 0.124752 -0.036732
v -0.471526 0.161600 -0.003666
v -0.476232 0.247018 0.004455
v -0.494987 0.232631 -0.016977
v -0.491035 0.317921 -0.044197
v -0.515688 0.298728 -0.052358
v -0.510175 0.332513 -0.129300
v -0.532917 0.316524 -0.124050
v -0.509930 0.303592 -0.186815
v -0.534671 0.290233 -0.170849
v -0.510152 0.231181 -0.218910
v -0.537459 0.228895 -0.193058
v -0.489340 0.122068 -0.208720
v -0.519208 0.128879 -0.191363
v -0.469632 0.039953 -0.154240
v -0.461142 -0.044000 -0.037641
v -0.481463 -0.025049 -0.022032
v -0.492940 0.043075 -0.129179
v -0.494011 0.289082 -0.062893
v -0.473502 0.238904 -0.042046
v -0.507246 0.300137 -0.117724
v -0.513984 0.279961 -0.164018
v -0.502300 0.134952 -0.180817
v -0.482021 0.016160 -0.025699
v -0.456127 -0.018743 0.019696
v -0.462909 0.027933 0.024969
v -0.454923 0.084559 -0.060163
v -0.441223 0.061949 -0.025352
v -0.468843 0.311858 -0.142898
v -0.453707 0.232836 -0.195204
v -0.436969 0.131820 -0.191047
v -0.418947 0.040665 -0.143907
v -0.423991 -0.029120 -0.026091
v -0.471664 0.045317 -0.013479
v -0.480406 0.083870 -0.102215
v -0.478167 0.077643 0.004671
v -0.503592 0.223961 -0.101887
v -0.413357 0.138549 -0.218945
v -0.434023 0.249632 -0.229901
v -0.087123 -0.186639 0.484069
v -0.139686 -0.173807 0.465537
v -0.068830 0.012189 0.376371
v -0.126228 -0.116368 0.360528
v -0.142316 -0.166791 0.411840
v -0.073039 -0.218144 0.372349
v -0.283513 0.320341 0.451290
v -0.124558 0.295947 0.453259
v -0.127510 0.264202 0.460329
v -0.214762 0.253899 0.455218
v -0.122627 0.303557 0.473512
v -0.252014 0.333887 0.433371
v -0.201410 0.342405 0.464461
v -0.145333 0.322832 0.456154
v -0.051654 -0.100847 0.272110
v -0.455003 -0.417206 -0.355448
v -0.402169 -0.356131 -0.326030
v -0.267734 -0.422678 -0.454910
v -0.170486 -0.637917 0.135023
v -0.071554 -0.738454 0.180284
v -0.079827 -0.636725 0.177765
v -0.337345 -0.494639 -0.054609
v -0.382372 -0.507049 -0.188099
v -0.373053 -0.619338 -0.037304
v -0.462812 -0.708912 -0.047803
v -0.096588 -0.904778 0.254759
v -0.073600 -0.845567 0.207750
v -0.172974 -0.814080 0.195975
v -0.197300 -0.864375 0.243622
v -0.556272 -0.584635 -0.219460
v -0.439238 -0.799155 0.097579
v -0.381694 -0.748264 0.044267
v -0.519067 -0.768135 -0.007799
v -0.273785 -0.806328 0.115322
v -0.319391 -0.838020 0.183769
v -0.356672 -0.543712 -0.525361
v -0.546533 -0.697291 -0.117619
v -0.274931 -0.684651 0.079058
v 0.172833 0.300014 0.415640
v -0.171097 0.299996 0.415616
vn -0.2802 -0.7755 -0.5658
vn -0.2101 -0.7712 -0.6009
vn 0.2777 -0.7814 -0.5588
vn -0.6420 -0.7268 -0.2440
vn -0.9361 -0.3517 0.0096
vn -0.9675 0.2217 -0.1214
vn -0.7243 -0.6208 -0.2999
vn -0.1093 -0.9940 -0.0048
vn 0.8081 -0.0953 0.5814
vn 0.5634 -0.0698 0.8233
vn 0.7847 -0.2611 0.5623
vn 0.7609 0.0377 -0.6477
vn 0.7650 -0.1538 -0.6253
vn 0.9087 -0.1345 -0.3951
vn 0.9583 -0.0570 -0.2801
vn 0.9760 0.0904 0.1982
vn 0.9855 -0.0469 0.1629
vn 0.9565 0.1493 0.2505
vn 0.6595 -0.7166 0.2270
vn 0.4869 -0.6383 0.5962
vn 0.5992 -0.3578 0.7163
vn 0.7755 -0.3928 0.4943
vn 0.5001 -0.8499 0.1659
vn 0.7707 -0.5052 0.3883
vn 0.4732 -0.7417 0.4754
vn 0.3878 -0.9015 0.1921
vn 0.6328 -0.7613 0.1413
vn 0.9670 0.2498 0.0502
vn 0.9556 0.1814 0.2324
vn 0.9850 0.1012 0.1399
vn -0.3316 -0.8943 0.3005
vn 0.5901 -0.2748 0.7591
vn 0.7100 -0.2218 0.6684
vn -0.0147 0.5562 0.8309
vn 0.8596 0.1090 0.4991
vn 0.8210 -0.1384 0.5539
vn 0.6610 0.3304 0.6737
vn 0.3588 0.1900 0.9139
vn 0.5084 -0.0187 0.8609
vn 0.2544 -0.1358 0.9575
vn 0.4844 0.3961 0.7800
vn 0.1832 -0.3181 0.9302
vn 0.2517 -0.4827 0.8389
vn 0.5139 -0.8243 0.2377
vn 0.1745 -0.8875 0.4264
vn 0.3054 -0.2216 0.9261
vn 0.4767 -0.8540 0.2085
vn -0.0497 -0.9795 0.1950
vn 0.6491 -0.7599 -0.0365
vn 0.9659 -0.0124 0.2586
vn 0.9618 -0.0992 0.2552
vn 0.9635 -0.1599 0.2147
vn 0.3619 -0.3413 0.8675
vn 0.2405 -0.0300 0.9702
vn 0.5932 -0.2244 0.7732
vn 0.6426 -0.2501 0.7242
vn 0.7067 0.1386 0.6938
vn 0.6104 0.0727 0.7888
vn 0.9142 -0.1729 0.3665
vn 0.6082 -0.0080 0.7938
vn 0.6165 0.1313 0.7763
vn 0.5173 -0.2647 0.8138
vn 0.4334 0.0565 0.8994
vn 0.5740 -0.1167 0.8105
vn -0.5214 0.5706 0.6344
vn 0.4683 0.7528 0.4625
vn 0.7353 -0.4084 -0.5409
vn 0.8799 -0.2680 -0.3924
vn 0.7693 -0.3348 0.5442
vn 0.8612 -0.4447 0.2461
vn 0.8804 -0.2960 0.3706
vn 0.9475 -0.2939 0.1258
vn 0.9081 -0.2097 0.3625
vn 0.9665 -0.0301 0.2550
vn 0.7191 0.4679 0.5139
vn 0.8573 0.2646 0.4416
vn 0.8970 0.3714 0.2396
vn 0.7386 0.5556 0.3817
vn 0.2404 0.4062 0.8816
vn 0.1265 0.0978 0.9871
vn 0.6526 0.3472 0.6735
vn 0.5465 0.3727 0.7499
vn 0.8179 -0.3670 0.4432
vn 0.4746 0.5001 0.7244
vn 0.6335 0.2604 0.7286
vn 0.6016 0.3667 0.7096
vn 0.0417 0.4400 0.8970
vn 0.0363 0.2404 0.9700
vn -0.1097 0.0890 0.9900
vn -0.0147 -0.0710 0.9974
vn 0.1458 0.0667 0.9871
vn 0.4050 0.4133 0.8156
vn 0.4676 0.2540 0.8467
vn 0.4262 -0.3749 0.8233
vn 0.2066 0.0822 0.9750
vn 0.3004 0.3677 0.8801
vn 0.6284 -0.1337 0.7663
vn 0.1221 0.2147 0.9690
vn 0.4814 0.1136 0.8691
vn 0.0406 0.6103 0.7911
vn 0.3600 0.0905 0.9285
vn 0.5500 0.0288 0.8347
vn 0.9515 0.3043 -0.0453
vn 0.2340 0.6602 0.7137
vn 0.4882 0.7218 0.4906
vn 0.4897 0.8298 0.2675
vn 0.2730 0.9085 0.3163
vn 0.2433 0.8031 0.5439
vn 0.2077 0.9716 -0.1130
vn 0.2768 0.9549 0.1074
vn 0.4658 0.8808 0.0853
vn 0.5497 0.8293 -0.1001
vn 0.0492 0.9917 0.1187
vn 0.0381 0.9399 0.3394
vn -0.2258 -0.7794 0.5844
vn 0.0911 -0.8780 0.4698
vn 0.7864 0.3043 0.5376
vn 0.4433 0.1950 0.8749
vn 0.5988 -0.5437 0.5880
vn 0.4299 -0.4276 0.7952
vn -0.0910 -0.7416 0.6646
vn 0.3789 -0.6884 0.6186
vn 0.1421 -0.5341 0.8334
vn 0.3960 -0.5354 0.7460
vn -0.0239 -0.9905 0.1354
vn 0.1773 -0.7809 -0.5989
vn 0.4205 -0.3537 0.8355
vn 0.6534 0.4594 0.6017
vn -0.1581 -0.3636 0.9180
vn 0.0221 0.2874 0.9576
vn 0.6720 -0.0054 0.7405
vn 0.8737 -0.0030 0.4864
vn 0.9287 0.1477 0.3401
vn 0.9467 0.0832 0.3111
vn 0.9211 0.0474 0.3865
vn -0.0061 -0.4236 0.9058
vn 0.3997 -0.3427 0.8502
vn 0.1966 -0.4197 0.8861
vn 0.4933 -0.4190 0.7623
vn -0.1826 0.9213 -0.3434
vn 0.0604 0.9556 -0.2884
vn 0.8522 -0.4955 -0.1681
vn 0.7427 -0.6695 0.0137
vn 0.7698 -0.6321 0.0886
vn 0.8881 -0.4525 -0.0805
vn 0.7795 0.1275 0.6133
vn 0.8850 0.0690 0.4604
vn 0.0011 0.2021 -0.9794
vn 0.1076 0.4809 -0.8701
vn 0.1907 0.2035 -0.9603
vn 0.4942 0.5927 0.6360
vn 0.0999 -0.8777 0.4686
vn 0.2381 -0.4515 0.8599
vn -0.0658 0.9901 -0.1243
vn 0.0545 0.9203 -0.3875
vn 0.2777 0.8921 -0.3565
vn 0.8023 0.2116 0.5582
vn 0.2358 0.9690 0.0744
vn 0.0225 0.6775 0.7352
vn 0.9990 0.0406 0.0199
vn 0.7237 -0.4176 0.5494
vn 0.7762 -0.5516 0.3054
vn 0.5207 -0.7573 0.3942
vn 0.0042 0.5395 0.8420
vn 0.5039 -0.3994 -0.7659
vn 0.4287 -0.0762 -0.9002
vn 0.1842 -0.3983 -0.8986
vn -0.1802 -0.9279 0.3264
vn 0.4771 -0.1885 0.8584
vn 0.3124 0.3797 0.8708
vn 0.2359 -0.1498 0.9602
vn -0.3330 -0.8062 0.4890
vn 0.6105 -0.5859 0.5329
vn 0.6729 0.0814 0.7352
vn 0.1534 0.6267 0.7641
vn -0.0174 -0.8361 0.5484
vn 0.0831 -0.9921 0.0943
vn 0.0039 -0.9405 0.3399
vn 0.6273 0.6526 -0.4250
vn 0.8105 0.5670 -0.1469
vn 0.9253 0.3204 -0.2030
vn 0.7403 0.4030 -0.5382
vn 0.4942 0.8232 -0.2794
vn 0.8641 0.5001 0.0564
vn 0.6852 0.7241 0.0792
vn 0.2185 -0.9752 0.0360
vn 0.3389 0.7265 -0.5978
vn 0.1245 0.7501 -0.6494
vn 0.4146 0.4655 -0.7819
vn 0.4897 -0.4686 -0.7352
vn 0.2040 -0.4572 -0.8657
vn 0.7615 -0.4304 -0.4846
vn 0.7967 -0.2869 -0.5319
vn 0.9379 -0.2454 -0.2452
vn -0.0003 -0.0248 -0.9997
vn 0.1943 -0.0252 -0.9806
vn 0.2014 -0.2482 -0.9476
vn -0.0007 -0.2384 -0.9712
vn 0.9684 -0.1010 -0.2279
vn 0.8135 -0.0882 -0.5748
vn 0.7999 0.1420 -0.5831
vn 0.9689 0.0943 -0.2288
vn 0.9979 0.0635 -0.0125
vn 0.7269 0.6568 0.2007
vn 0.0003 -0.9882 0.1529
vn 0.6434 -0.2895 0.7087
vn 0.9556 -0.2317 -0.1820
vn 0.9851 -0.1695 0.0279
vn 0.4550 0.0573 0.8886
vn 0.2577 0.3055 0.9167
vn -0.0380 0.8208 0.5700
vn 0.3053 0.7302 0.6112
vn 0.0398 0.9767 0.2110
vn 0.2690 0.8758 -0.4008
vn -0.3289 -0.7083 -0.6246
vn 0.8222 0.3045 -0.4808
vn 0.7792 0.1779 -0.6011
vn 0.9950 -0.0398 -0.0915
vn 0.9567 0.1646 0.2399
vn 0.5304 -0.7137 -0.4574
vn 0.8875 -0.2745 0.3701
vn 0.9129 -0.3970 -0.0950
vn 0.4939 -0.2741 -0.8252
vn 0.0223 -0.4653 -0.8849
vn -0.0011 -0.4544 -0.8908
vn -0.0825 0.7462 -0.6606
vn -0.1334 -0.2248 -0.9652
vn 0.4682 0.1960 -0.8616
vn 0.9656 -0.0397 0.2570
vn 0.1009 -0.0721 -0.9923
vn 0.4966 -0.0487 -0.8666
vn 0.8318 0.4938 0.2535
vn 0.9946 -0.0451 -0.0931
vn -0.0562 0.6749 0.7357
vn 0.4304 -0.1315 0.8930
vn -0.0218 0.9240 -0.3817
vn 0.0037 0.9707 0.2404
vn -0.0115 -0.4379 0.8990
vn 0.0057 -0.4937 0.8696
vn 0.6458 0.0296 0.7629
vn 0.1222 0.0233 0.9922
vn 0.6351 -0.1028 0.7656
vn 0.3076 0.2036 -0.9295
vn 0.7594 0.0263 0.6501
vn -0.1078 -0.0576 -0.9925
vn 0.9221 -0.3071 0.2354
vn 0.9330 -0.3217 -0.1613
vn 0.9728 -0.2259 0.0506
vn 0.9863 -0.1649 -0.0088
vn 0.7989 0.1525 0.5818
vn 0.9692 -0.1829 0.1651
vn 0.3147 0.7957 0.5175
vn 0.9535 -0.0210 0.3008
vn 0.1345 0.9854 -0.1042
vn 0.9753 0.1759 0.1335
vn 0.0990 0.6751 -0.7311
vn 0.9960 0.0783 -0.0426
vn 0.1972 0.1262 -0.9722
vn 0.9975 -0.0590 -0.0397
vn 0.1106 -0.3203 -0.9408
vn 0.9721 -0.2067 -0.1110
vn 0.2036 -0.9722 -0.1156
vn 0.2221 -0.6803 -0.6984
vn 0.9223 -0.3449 -0.1744
vn 0.8529 -0.4810 0.2028
vn 0.8126 -0.5650 -0.1427
vn 0.9296 -0.3080 -0.2024
vn 0.8224 -0.5438 0.1672
vn 0.7668 -0.3727 0.5225
vn 0.8101 0.0297 0.5856
vn 0.9684 0.1076 0.2251
vn 0.8143 -0.1602 0.5578
vn 0.3906 -0.5808 0.7142
vn 0.7894 0.3368 0.5132
vn 0.8220 0.5627 -0.0878
vn 0.5118 0.7664 -0.3883
vn 0.3368 0.1118 -0.9349
vn 0.2117 -0.3081 -0.9275
vn 0.5153 -0.5362 -0.6686
vn 0.4273 -0.9022 -0.0584
vn 0.9531 0.2953 0.0659
vn 0.9383 0.1036 0.3300
vn 0.9919 0.0030 -0.1267
vn 0.9458 -0.1244 0.2999
vn 0.8573 -0.2747 -0.4354
vn 0.9519 -0.1220 -0.2810
vn 0.0026 -0.8704 0.4923
vn -0.1848 0.8192 -0.5429
vn -0.0051 0.7968 -0.6042
vn -0.6332 0.6966 -0.3372
vn -0.3900 -0.8982 0.2029
vn -0.8506 -0.0468 0.5237
vn -0.8443 0.4456 0.2975
vn -0.2349 0.9081 0.3468
vn -0.7664 -0.5765 -0.2832
vn -0.7668 -0.0392 0.6407
vn 0.4178 0.8660 0.2748
vn 0.8198 0.0430 0.5710
vn -0.3690 0.9240 -0.1005
vn -0.1256 0.7119 0.6910
vn 0.0250 0.9574 0.2877
vn 0.6316 -0.7752 -0.0128
vn -0.2015 -0.8641 0.4613
vn 0.1595 -0.9870 0.0171
vn 0.8352 -0.5449 -0.0745
vn -0.0208 0.9755 0.2189
vn -0.3238 -0.0190 0.9459
vn 0.7945 0.5960 -0.1166
vn 0.6376 0.7521 -0.1665
vn 0.2143 0.5014 -0.8383
vn 0.0224 0.1477 0.9888
vn 0.4522 0.1315 0.8822
vn 0.4000 -0.1073 0.9102
vn 0.8948 0.1705 0.4126
vn 0.6625 0.4301 0.6133
vn 0.7392 0.4799 0.4725
vn 0.4514 0.6410 0.6208
vn -0.2850 0.3961 0.8729
vn -0.2153 0.5508 0.8064
vn 0.0370 0.5699 0.8209
vn 0.1620 0.5508 0.8188
vn 0.4635 0.7337 0.4969
vn 0.2744 0.6868 0.6731
vn 0.2128 0.7985 0.5632
vn 0.1756 0.8477 0.5005
vn 0.1438 0.7934 0.5915
vn 0.2999 0.6900 0.6588
vn 0.2194 0.5343 -0.8163
vn 0.0008 0.4976 -0.8674
vn -0.0024 0.4647 -0.8855
vn 0.0011 0.2556 -0.9668
vn 0.2614 0.7082 0.6558
vn 0.0484 0.1524 -0.9871
vn 0.6347 0.1992 0.7466
vn 0.0012 0.4017 0.9158
vn 0.0058 -0.0438 0.9990
vn 0.0013 0.5965 0.8026
vn 0.0094 -0.2960 0.9551
vn 0.0064 0.4781 -0.8783
vn -0.0020 0.5361 -0.8442
vn 0.5702 0.7887 -0.2299
vn 0.4436 0.8209 0.3597
vn 0.2274 0.5394 -0.8108
vn 0.0915 0.4759 0.8747
vn -0.1187 0.5785 0.8070
vn 0.2210 0.7472 0.6268
vn 0.2031 0.6764 0.7079
vn 0.1891 0.7916 0.5810
vn 0.0992 0.8624 0.4964
vn 0.9253 0.3704 -0.0811
vn 0.9707 0.2118 -0.1134
vn 0.9301 -0.3671 0.0116
vn 0.2209 0.9088 -0.3540
vn 0.7252 -0.6325 -0.2720
vn 0.1670 -0.9851 0.0416
vn 0.5028 -0.8425 -0.1934
vn -0.7911 -0.1151 0.6008
vn -0.8143 -0.2667 0.5156
vn -0.6304 -0.1196 0.7670
vn -0.7616 0.0381 -0.6470
vn -0.9580 -0.0568 -0.2810
vn -0.9079 -0.1345 -0.3970
vn -0.7654 -0.1552 -0.6246
vn -0.9754 0.0936 0.1997
vn -0.9565 0.1519 0.2491
vn -0.9853 -0.0443 0.1650
vn -0.6639 -0.7123 0.2276
vn -0.7799 -0.3886 0.4907
vn -0.6023 -0.3592 0.7129
vn -0.4946 -0.6275 0.6013
vn -0.5045 -0.8498 0.1528
vn -0.4784 -0.7430 0.4682
vn -0.7733 -0.5037 0.3852
vn -0.3922 -0.8998 0.1913
vn -0.6385 -0.7570 0.1388
vn -0.9669 0.2497 0.0518
vn -0.9850 0.1016 0.1394
vn -0.9557 0.1813 0.2319
vn -0.9364 0.1032 0.3355
vn -0.8267 0.1987 0.5263
vn -0.9262 0.1669 0.3381
vn -0.7887 0.0229 0.6144
vn -0.8136 -0.1250 0.5678
vn -0.6544 -0.3914 0.6470
vn -0.0387 0.5551 0.8309
vn 0.3492 -0.7420 0.5722
vn -0.6622 0.3419 0.6668
vn -0.5027 0.0112 0.8644
vn -0.3578 0.1819 0.9159
vn -0.2569 -0.1301 0.9576
vn -0.4915 0.3936 0.7769
vn -0.1764 -0.2798 0.9437
vn -0.0912 -0.9309 0.3536
vn -0.3151 -0.8956 0.3139
vn 0.0088 -0.3381 0.9411
vn -0.3063 -0.2073 0.9291
vn -0.4785 -0.8530 0.2083
vn -0.6431 -0.7639 -0.0535
vn 0.0774 -0.9879 0.1342
vn -0.9593 0.0060 0.2822
vn -0.9637 -0.1624 0.2120
vn -0.9849 -0.0986 0.1425
vn -0.9095 -0.2679 0.3179
vn -0.8798 -0.4078 0.2443
vn -0.6586 -0.2274 0.7173
vn -0.4234 -0.2606 0.8677
vn -0.5447 -0.1957 0.8155
vn -0.9236 -0.1499 0.3529
vn -0.6538 -0.0360 0.7558
vn -0.5599 -0.2577 0.7874
vn -0.6582 0.1874 0.7291
vn -0.3318 0.3231 0.8863
vn -0.5144 -0.0123 0.8575
vn -0.5432 -0.1484 0.8264
vn -0.7375 -0.2868 0.6114
vn -0.4729 0.7687 0.4307
vn 0.0045 -0.0229 0.9997
vn -0.8792 -0.2681 -0.3939
vn -0.7357 -0.4072 -0.5412
vn -0.8039 -0.3384 0.4891
vn -0.9094 -0.2138 0.3567
vn -0.9494 -0.2895 0.1222
vn -0.9674 -0.0325 0.2513
vn -0.3920 0.6267 0.6735
vn -0.2713 0.7943 0.5435
vn -0.7102 0.4737 0.5207
vn -0.7381 0.5565 0.3814
vn -0.8971 0.3699 0.2415
vn -0.8591 0.2707 0.4344
vn -0.1592 0.2423 0.9571
vn -0.6746 0.3683 0.6397
vn -0.6382 0.2102 0.7407
vn -0.5238 0.3022 0.7964
vn -0.4746 0.4997 0.7246
vn -0.6180 0.3818 0.6872
vn -0.6411 0.2733 0.7172
vn -0.6537 0.0885 0.7516
vn -0.4129 0.0395 0.9099
vn -0.4386 0.2947 0.8490
vn -0.3654 0.3480 0.8634
vn -0.4526 -0.5071 0.7335
vn -0.6111 -0.1313 0.7806
vn -0.2117 0.4309 0.8772
vn -0.2117 0.0901 0.9732
vn -0.1036 0.3165 0.9429
vn -0.4877 0.1291 0.8634
vn -0.9939 -0.0672 0.0871
vn -0.8402 0.5066 0.1935
vn -0.2092 0.4366 0.8750
vn -0.5042 0.7174 0.4808
vn -0.2460 0.9131 0.3251
vn -0.4941 0.8273 0.2674
vn -0.3730 0.9232 -0.0926
vn -0.4700 0.8773 0.0974
vn -0.2119 0.9712 0.1086
vn -0.3352 -0.5125 0.7905
vn 0.2605 -0.4655 0.8458
vn -0.3487 -0.5366 0.7684
vn -0.7951 0.3061 0.5235
vn -0.4436 -0.4383 0.7817
vn -0.5695 -0.5585 0.6030
vn -0.4508 0.1910 0.8720
vn 0.0885 -0.7002 0.7085
vn -0.2923 -0.7343 0.6127
vn -0.2515 -0.4652 0.8487
vn 0.0216 -0.9896 0.1423
vn -0.6485 0.4835 0.5880
vn -0.8841 0.0207 0.4668
vn -0.6958 -0.2015 0.6894
vn -0.0248 0.9417 -0.3356
vn -0.4597 -0.0172 0.8879
vn -0.6343 0.0730 0.7696
vn -0.3347 -0.0745 0.9394
vn -0.3903 0.0854 0.9167
vn -0.4282 0.1350 0.8936
vn -0.8262 0.0810 0.5575
vn -0.6572 0.0727 0.7502
vn -0.7734 0.0906 0.6274
vn -0.8516 -0.4957 -0.1703
vn -0.8881 -0.4523 -0.0823
vn -0.7704 -0.6314 0.0886
vn -0.7434 -0.6686 0.0193
vn -0.1786 0.2042 -0.9625
vn -0.1501 0.4892 -0.8591
vn -0.0911 -0.8802 0.4657
vn -0.2192 -0.4521 0.8646
vn -0.5059 -0.4283 0.7488
vn -0.2179 0.9031 -0.3699
vn -0.0295 0.0083 0.9995
vn -0.3417 0.9128 0.2239
vn 0.0103 0.7200 0.6939
vn -0.9749 0.0954 -0.2012
vn -0.8755 0.4341 0.2122
vn -0.2435 -0.2713 0.9312
vn -0.4432 -0.4018 0.8013
vn -0.7383 -0.4079 0.5372
vn -0.3901 0.1284 0.9118
vn -0.3264 -0.7767 0.5387
vn -0.7760 -0.5525 0.3041
vn -0.4943 -0.7791 0.3857
vn -0.5014 -0.3966 -0.7690
vn -0.2162 -0.4444 -0.8693
vn -0.4144 -0.0646 -0.9078
vn -0.4824 -0.2155 0.8490
vn 0.0809 -0.9370 0.3397
vn -0.3544 0.3584 0.8637
vn -0.3309 -0.1150 0.9366
vn -0.0884 -0.4049 0.9101
vn 0.3266 -0.7077 0.6265
vn -0.6490 -0.5909 0.4792
vn 0.3178 -0.5139 0.7968
vn -0.2274 0.6606 0.7155
vn -0.2574 0.2973 0.9194
vn -0.0849 -0.9921 0.0922
vn -0.6251 0.6567 -0.4218
vn -0.7406 0.4049 -0.5362
vn -0.9246 0.3217 -0.2039
vn -0.8102 0.5662 -0.1514
vn -0.6407 0.7640 -0.0762
vn -0.4919 0.8218 -0.2876
vn -0.8640 0.5004 0.0548
vn -0.6754 0.7340 0.0711
vn -0.2175 -0.9756 0.0307
vn -0.3372 0.7272 -0.5978
vn -0.4182 0.4707 -0.7768
vn -0.4893 -0.4705 -0.7343
vn -0.2053 -0.4581 -0.8649
vn -0.7611 -0.4315 -0.4844
vn -0.9374 -0.2464 -0.2462
vn -0.7961 -0.2887 -0.5319
vn -0.2021 -0.2491 -0.9472
vn -0.1932 -0.0290 -0.9807
vn -0.9685 -0.1017 -0.2272
vn -0.9690 0.0930 -0.2288
vn -0.8013 0.1421 -0.5812
vn -0.8139 -0.0900 -0.5739
vn -0.9979 0.0635 -0.0125
vn -0.7186 0.6649 0.2039
vn -0.6449 -0.2983 0.7037
vn -0.9850 -0.1704 0.0258
vn -0.9550 -0.2332 -0.1835
vn -0.2907 0.7284 0.6205
vn -0.2431 0.8464 -0.4738
vn 0.3247 -0.7036 -0.6321
vn -0.1796 -0.7873 -0.5899
vn -0.8233 0.3087 -0.4763
vn -0.9544 0.1690 0.2461
vn -0.9952 -0.0385 -0.0900
vn -0.7794 0.1823 -0.5994
vn -0.5296 -0.7147 -0.4568
vn -0.8891 -0.2709 0.3690
vn -0.9128 -0.3970 -0.0958
vn -0.4932 -0.2752 -0.8252
vn -0.4728 0.1938 -0.8596
vn -0.9666 -0.0351 0.2539
vn -0.4959 -0.0524 -0.8668
vn -0.8316 0.4944 0.2529
vn -0.9946 -0.0450 -0.0940
vn 0.6286 0.5872 0.5100
vn -0.5831 -0.3777 0.7193
vn -0.2729 -0.0485 0.9608
vn -0.6381 -0.1015 0.7633
vn -0.3015 0.2045 -0.9313
vn -0.7574 0.0331 0.6521
vn -0.9232 -0.3249 0.2051
vn -0.9846 -0.1705 -0.0383
vn -0.9741 -0.2223 0.0406
vn -0.9288 -0.3287 -0.1710
vn -0.7994 0.1546 0.5806
vn -0.9687 -0.1843 0.1661
vn -0.3149 0.7959 0.5170
vn -0.9538 -0.0190 0.2999
vn -0.1330 0.9856 -0.1049
vn -0.9743 0.1805 0.1344
vn -0.0981 0.6747 -0.7315
vn -0.9953 0.0845 -0.0475
vn -0.1971 0.1269 -0.9721
vn -0.9974 -0.0581 -0.0424
vn -0.1121 -0.3213 -0.9403
vn -0.9723 -0.2070 -0.1089
vn -0.1991 -0.9732 -0.1152
vn -0.8523 -0.4826 0.2016
vn -0.9222 -0.3455 -0.1738
vn -0.2204 -0.6812 -0.6981
vn -0.8140 -0.5636 -0.1408
vn -0.9310 -0.3060 -0.1991
vn -0.8229 -0.5425 0.1688
vn -0.7693 -0.3689 0.5217
vn -0.8086 0.0300 0.5876
vn -0.9692 0.0996 0.2254
vn -0.8147 -0.1627 0.5565
vn -0.3906 -0.5820 0.7132
vn -0.7810 0.3861 0.4909
vn -0.8166 0.5708 -0.0857
vn -0.5121 0.7664 -0.3877
vn -0.3370 0.1124 -0.9348
vn -0.2125 -0.3089 -0.9270
vn -0.5118 -0.5371 -0.6705
vn -0.4216 -0.9049 -0.0584
vn -0.9354 0.1012 0.3389
vn -0.9526 0.2968 0.0659
vn -0.9917 0.0001 -0.1287
vn -0.9462 -0.1218 0.2999
vn -0.8558 -0.2764 -0.4373
vn -0.9517 -0.1208 -0.2823
vn 0.1845 0.8218 -0.5391
vn 0.6292 0.7026 -0.3325
vn 0.8564 -0.0421 0.5145
vn 0.4260 -0.8811 0.2054
vn 0.2491 0.9116 0.3270
vn 0.8427 0.4456 0.3021
vn 0.7993 -0.0057 0.6009
vn 0.7692 -0.5805 -0.2672
vn -0.5655 0.7343 0.3756
vn -0.8190 -0.1872 0.5425
vn 0.3115 0.9464 -0.0850
vn -0.0110 0.9466 0.3222
vn -0.8178 -0.5399 -0.1995
vn 0.1847 -0.8611 0.4736
vn -0.1361 -0.9890 0.0573
vn -0.4928 -0.8529 0.1724
vn 0.3488 -0.0226 0.9369
vn -0.7907 0.6036 -0.1024
vn -0.2229 0.5054 -0.8336
vn -0.6403 0.7517 -0.1581
vn -0.0179 0.1428 0.9896
vn -0.3935 -0.1128 0.9124
vn -0.4510 0.1314 0.8828
vn -0.7390 0.4806 0.4722
vn -0.6659 0.4298 0.6098
vn -0.8968 0.1759 0.4059
vn -0.4520 0.6410 0.6203
vn 0.2850 0.3931 0.8742
vn -0.1647 0.5483 0.8199
vn -0.0380 0.5700 0.8208
vn 0.2148 0.5483 0.8082
vn -0.4636 0.7332 0.4975
vn -0.2738 0.6863 0.6738
vn -0.1749 0.8491 0.4985
vn -0.2118 0.7991 0.5627
vn -0.3049 0.6869 0.6598
vn -0.1436 0.7954 0.5889
vn -0.2163 0.5257 -0.8227
vn -0.2596 0.7081 0.6567
vn -0.6398 0.1923 0.7441
vn -0.0120 0.5343 -0.8452
vn -0.5747 0.7852 -0.2306
vn -0.4488 0.8197 0.3558
vn -0.2241 0.5418 -0.8101
vn -0.0919 0.4739 0.8758
vn 0.1191 0.5768 0.8081
vn -0.2203 0.7479 0.6262
vn -0.2026 0.6785 0.7061
vn -0.1843 0.7924 0.5815
vn -0.0979 0.8633 0.4951
vn 0.3156 -0.0958 0.9440
vn -0.2988 -0.0622 0.9523
vt 0.521000 0.984000
vt 0.517123 0.996485
vt 0.478874 0.983994
vt 0.548205 0.955378
vt 0.537525 0.953881
vt 0.543752 0.938389
vt 0.533000 0.967000
vt 0.533000 0.994000
vt 0.643872 0.450716
vt 0.610235 0.422941
vt 0.629616 0.392887
vt 0.886000 0.312000
vt 0.897000 0.370000
vt 0.860000 0.369000
vt 0.844000 0.308000
vt 0.736652 0.609129
vt 0.741557 0.510912
vt 0.780013 0.584139
vt 0.644000 0.213000
vt 0.561000 0.175000
vt 0.565170 0.141517
vt 0.644000 0.174000
vt 0.569414 0.255412
vt 0.598390 0.282902
vt 0.550550 0.262676
vt 0.567833 0.206398
vt 0.625827 0.255859
vt 0.802225 0.727405
vt 0.723667 0.707595
vt 0.773516 0.657310
vt 0.616089 0.573811
vt 0.635125 0.574359
vt 0.632806 0.599053
vt 0.624941 0.569543
vt 0.651030 0.639406
vt 0.649431 0.595288
vt 0.616607 0.752218
vt 0.567514 0.688864
vt 0.590072 0.649395
vt 0.556394 0.646754
vt 0.584000 0.769000
vt 0.586511 0.595411
vt 0.550202 0.592617
vt 0.568327 0.577366
vt 0.586067 0.575804
vt 0.575237 0.627000
vt 0.521000 0.441000
vt 0.526000 0.450000
vt 0.517668 0.446114
vt 0.719992 0.503891
vt 0.701381 0.476860
vt 0.720397 0.430014
vt 0.575414 0.377080
vt 0.566663 0.362757
vt 0.582701 0.350359
vt 0.595759 0.371036
vt 0.640762 0.493277
vt 0.623908 0.459548
vt 0.671144 0.448858
vt 0.565336 0.340053
vt 0.534042 0.344521
vt 0.547099 0.332605
vt 0.585865 0.403237
vt 0.549323 0.382095
vt 0.561431 0.362491
vt 0.534999 0.352333
vt 0.908000 0.437000
vt 0.876490 0.432074
vt 0.605041 0.337145
vt 0.691000 0.326000
vt 0.672101 0.382277
vt 0.723000 0.365000
vt 0.762877 0.445526
vt 0.768322 0.508828
vt 0.637000 0.789000
vt 0.656530 0.737032
vt 0.710818 0.777017
vt 0.665000 0.817000
vt 0.551185 0.769410
vt 0.534682 0.686242
vt 0.540372 0.549445
vt 0.553071 0.557079
vt 0.549161 0.569251
vt 0.514609 0.523715
vt 0.548560 0.501918
vt 0.547353 0.525564
vt 0.511573 0.777000
vt 0.509497 0.727452
vt 0.469105 0.686297
vt 0.496453 0.650455
vt 0.586679 0.543118
vt 0.570739 0.537431
vt 0.595767 0.498879
vt 0.545000 0.436000
vt 0.512985 0.423199
vt 0.532013 0.415379
vt 0.556965 0.447621
vt 0.511280 0.384143
vt 0.528302 0.383982
vt 0.500260 0.400319
vt 0.590563 0.461921
vt 0.556166 0.473287
vt 0.558277 0.568126
vt 0.553817 0.827956
vt 0.627000 0.847000
vt 0.674000 0.871000
vt 0.645000 0.898000
vt 0.581354 0.872863
vt 0.773094 0.933563
vt 0.709000 0.921000
vt 0.729000 0.888000
vt 0.792872 0.866598
vt 0.683071 0.964522
vt 0.605941 0.936368
vt 0.562572 0.369470
vt 0.548149 0.371223
vt 0.537585 0.467366
vt 0.512363 0.473972
vt 0.517000 0.456000
vt 0.532911 0.456018
vt 0.530000 0.438000
vt 0.509090 0.433052
vt 0.511745 0.374021
vt 0.531201 0.373133
vt 0.517526 0.366553
vt 0.478415 0.362000
vt 0.522607 0.362000
vt 0.508000 0.457000
vt 0.524534 0.490036
vt 0.497239 0.457000
vt 0.500000 0.474456
vt 0.638565 0.566263
vt 0.673814 0.572516
vt 0.682032 0.653783
vt 0.696477 0.592025
vt 0.691359 0.532213
vt 0.500000 0.162278
vt 0.533179 0.322926
vt 0.517007 0.313953
vt 0.541713 0.281433
vt 0.555762 0.365746
vt 0.555738 0.363661
vt 0.524579 0.361531
vt 0.733000 0.331000
vt 0.696000 0.288000
vt 0.706000 0.252000
vt 0.754463 0.311442
vt 0.655197 0.538090
vt 0.669708 0.498701
vt 0.999000 0.696000
vt 0.960957 0.773826
vt 0.967000 0.695000
vt 0.600000 0.811000
vt 0.525000 0.254000
vt 0.522000 0.274000
vt 0.762000 0.981000
vt 0.850089 0.928878
vt 0.835000 0.891000
vt 0.635000 0.701000
vt 0.569000 0.562883
vt 0.581522 0.559274
vt 0.550000 0.458000
vt 0.578320 0.297607
vt 0.557000 0.364000
vt 0.772471 0.415461
vt 0.509480 0.444296
vt 0.500000 0.539853
vt 0.940810 0.402614
vt 0.929268 0.281168
vt 0.973621 0.377458
vt 0.605000 0.574438
vt 0.607088 0.594803
vt 0.510259 0.581441
vt 0.510445 0.337492
vt 0.535664 0.445961
vt 0.545000 0.448000
vt 0.617026 0.640686
vt 0.509699 0.347386
vt 0.500000 0.444000
vt 0.541725 0.240666
vt 0.500000 0.242942
vt 0.857000 0.816000
vt 0.825000 0.804000
vt 0.851000 0.737000
vt 0.886000 0.748000
vt 0.821000 0.866000
vt 0.783000 0.797000
vt 0.755000 0.848000
vt 0.549204 0.224437
vt 0.884000 0.835000
vt 0.908000 0.854000
vt 0.919000 0.761000
vt 0.947000 0.512000
vt 0.974000 0.519000
vt 0.915000 0.504000
vt 0.917000 0.564000
vt 0.890000 0.556000
vt 0.999000 0.634000
vt 0.973000 0.633000
vt 0.975000 0.577000
vt 0.999000 0.579000
vt 0.882000 0.614000
vt 0.911000 0.622000
vt 0.901000 0.679000
vt 0.868000 0.671000
vt 0.833000 0.667000
vt 0.708000 0.836000
vt 0.500000 0.205000
vt 0.567317 0.315323
vt 0.826000 0.364000
vt 0.801000 0.303000
vt 0.613000 0.529000
vt 0.600136 0.555206
vt 0.537000 0.365973
vt 0.524000 0.902000
vt 0.612523 0.559543
vt 0.595833 0.563500
vt 0.575539 0.567346
vt 0.606000 0.568000
vt 0.872000 0.222000
vt 0.876000 0.265000
vt 0.825000 0.258000
vt 0.816934 0.183503
vt 0.820107 0.412229
vt 0.726000 0.227000
vt 0.777000 0.371000
vt 0.947000 0.571000
vt 0.999000 0.386861
vt 0.999000 0.524000
vt 0.936000 0.877000
vt 0.999000 0.302014
vt 0.935000 0.689000
vt 0.766825 0.203300
vt 0.967119 0.221676
vt 0.943000 0.628000
vt 0.811822 0.602594
vt 0.851000 0.611000
vt 0.486458 0.836948
vt 0.527234 0.599608
vt 0.493476 0.361000
vt 0.500964 0.355768
vt 0.500000 0.312259
vt 0.500000 0.273000
vt 0.627658 0.544962
vt 0.506741 0.616161
vt 0.636000 0.139000
vt 0.919140 0.200007
vt 0.705713 0.163624
vt 0.999000 0.218000
vt 0.803136 0.521771
vt 0.794000 0.535000
vt 0.783000 0.527000
vt 0.791000 0.508000
vt 0.789000 0.571000
vt 0.797000 0.562000
vt 0.813000 0.591000
vt 0.815000 0.578000
vt 0.839000 0.583000
vt 0.835000 0.574000
vt 0.850000 0.569000
vt 0.845000 0.560000
vt 0.855000 0.539000
vt 0.847000 0.535000
vt 0.850000 0.501000
vt 0.841000 0.502000
vt 0.793069 0.427534
vt 0.836000 0.464000
vt 0.825664 0.474044
vt 0.789519 0.440722
vt 0.818000 0.567000
vt 0.807000 0.550000
vt 0.831000 0.561000
vt 0.838802 0.551115
vt 0.830730 0.505150
vt 0.790345 0.461207
vt 0.773000 0.456000
vt 0.779000 0.433000
vt 0.797000 0.489000
vt 0.788240 0.487709
vt 0.848000 0.587000
vt 0.862000 0.546000
vt 0.859000 0.500000
vt 0.843865 0.447296
vt 0.791000 0.404000
vt 0.787262 0.477981
vt 0.813000 0.487000
vt 0.778000 0.489000
vt 0.822000 0.538000
vt 0.870000 0.496000
vt 0.872000 0.552000
vt 0.500000 0.183000
vt 0.512934 0.910010
vt 0.516000 0.930000
vt 0.500000 0.928000
vt 0.528000 0.934000
vt 0.541930 0.923191
vt 0.514756 0.970000
vt 0.520000 0.955000
vt 0.522000 0.944000
vt 0.512000 0.942000
vt 0.612000 0.569000
vt 0.617400 0.569000
vt 0.577255 0.966536
vt 0.573000 0.973000
vt 0.560805 0.965892
vt 0.577539 0.954038
vt 0.603595 0.956557
vt 0.606000 0.967000
vt 0.595000 0.960000
vt 0.570000 0.569000
vt 0.608557 0.567000
vt 0.616000 0.967000
vt 0.615241 0.977184
vt 0.605000 0.991000
vt 0.599000 0.986000
vt 0.593000 0.996000
vt 0.589000 0.989000
vt 0.562000 0.570000
vt 0.575932 0.990579
vt 0.584000 0.996000
vt 0.592000 0.953000
vt 0.566153 0.984721
vt 0.500000 0.943000
vt 0.509850 0.956000
vt 0.868905 0.144978
vt 0.867000 0.089089
vt 0.917679 0.114473
vt 0.554000 0.066000
vt 0.616751 0.092397
vt 0.558000 0.095000
vt 0.758000 0.148000
vt 0.747000 0.102000
vt 0.814172 0.123759
vt 0.749274 0.058183
vt 0.552000 0.038000
vt 0.551000 0.020000
vt 0.602000 0.021000
vt 0.605000 0.039000
vt 0.821000 0.050000
vt 0.712000 0.053000
vt 0.700000 0.022000
vt 0.739000 0.023000
vt 0.652000 0.022000
vt 0.659000 0.043000
vt 0.913000 0.055000
vt 0.959000 0.055000
vt 0.999000 0.053000
vt 0.999000 0.129366
vt 0.778000 0.038000
vt 0.967610 0.177770
vt 0.674000 0.083000
vt 0.500000 0.037000
vt 0.500000 0.066000
vt 0.500000 0.001992
vt 0.500000 0.092000
vt 0.999000 0.002000
vt 0.958000 0.002000
vt 0.867000 0.002000
vt 0.823000 0.002000
vt 0.908000 0.002000
vt 0.601000 0.002000
vt 0.550000 0.002000
vt 0.697000 0.002000
vt 0.650000 0.002000
vt 0.782000 0.002000
vt 0.740000 0.002000
vt 0.450088 0.946208
vt 0.456431 0.937431
vt 0.462433 0.953892
vt 0.458085 0.923134
vt 0.467000 0.967000
vt 0.467000 0.994000
vt 0.458000 0.987000
vt 0.355548 0.451654
vt 0.361999 0.403473
vt 0.392844 0.404550
vt 0.114000 0.312000
vt 0.156000 0.308000
vt 0.140000 0.369000
vt 0.103000 0.370000
vt 0.269061 0.600574
vt 0.219988 0.584140
vt 0.258316 0.511568
vt 0.356000 0.213000
vt 0.356000 0.174000
vt 0.434856 0.141377
vt 0.439000 0.175000
vt 0.429985 0.255331
vt 0.449314 0.262726
vt 0.403277 0.282171
vt 0.431337 0.206795
vt 0.373625 0.255963
vt 0.198159 0.727326
vt 0.226085 0.657421
vt 0.274684 0.708184
vt 0.318535 0.615778
vt 0.357566 0.679137
vt 0.328599 0.674727
vt 0.364211 0.620274
vt 0.350551 0.595673
vt 0.368462 0.585343
vt 0.372252 0.569454
vt 0.384210 0.573185
vt 0.383168 0.752829
vt 0.409870 0.649715
vt 0.432597 0.688245
vt 0.442482 0.647004
vt 0.416000 0.769000
vt 0.413387 0.596620
vt 0.414000 0.576919
vt 0.431687 0.577433
vt 0.435736 0.599872
vt 0.423807 0.627000
vt 0.479000 0.441000
vt 0.482314 0.446143
vt 0.474000 0.450000
vt 0.285279 0.513139
vt 0.279788 0.429567
vt 0.291000 0.467000
vt 0.322258 0.409639
vt 0.309959 0.331754
vt 0.403581 0.374294
vt 0.421968 0.361481
vt 0.420242 0.378969
vt 0.325292 0.455525
vt 0.434889 0.339982
vt 0.453047 0.333188
vt 0.465513 0.344743
vt 0.434640 0.357526
vt 0.410667 0.393667
vt 0.456528 0.382206
vt 0.411163 0.335656
vt 0.465125 0.352292
vt 0.437768 0.363204
vt 0.123508 0.432089
vt 0.092000 0.437000
vt 0.384068 0.351895
vt 0.237195 0.445432
vt 0.277000 0.365000
vt 0.231699 0.508774
vt 0.419100 0.818428
vt 0.466225 0.897400
vt 0.410000 0.868000
vt 0.363000 0.789000
vt 0.335000 0.817000
vt 0.289091 0.777048
vt 0.343417 0.737090
vt 0.462618 0.727317
vt 0.459387 0.549186
vt 0.448930 0.564357
vt 0.446566 0.554930
vt 0.484999 0.521806
vt 0.455188 0.527592
vt 0.451428 0.501933
vt 0.383366 0.639227
vt 0.390447 0.529627
vt 0.406187 0.515593
vt 0.429444 0.536335
vt 0.455000 0.436000
vt 0.442516 0.446297
vt 0.475062 0.412184
vt 0.485293 0.423324
vt 0.486900 0.385104
vt 0.471875 0.383407
vt 0.445617 0.569281
vt 0.440173 0.566828
vt 0.454873 0.775491
vt 0.373000 0.847000
vt 0.359280 0.901924
vt 0.326000 0.871000
vt 0.219089 0.896847
vt 0.271000 0.888000
vt 0.297463 0.931502
vt 0.452780 0.592948
vt 0.432042 0.366738
vt 0.444149 0.380301
vt 0.462164 0.467266
vt 0.465874 0.455775
vt 0.483000 0.456000
vt 0.487586 0.473101
vt 0.470000 0.438000
vt 0.490989 0.433004
vt 0.482569 0.374000
vt 0.481397 0.366528
vt 0.475169 0.489955
vt 0.322684 0.547991
vt 0.355478 0.576305
vt 0.469000 0.361853
vt 0.444392 0.363602
vt 0.398516 0.426704
vt 0.371058 0.469181
vt 0.437804 0.466653
vt 0.422298 0.480635
vt 0.399444 0.459268
vt 0.344074 0.491471
vt 0.369466 0.536546
vt 0.343757 0.545869
vt 0.267000 0.331000
vt 0.245581 0.311462
vt 0.294000 0.252000
vt 0.304000 0.288000
vt 0.001000 0.696000
vt 0.033000 0.695000
vt 0.050000 0.772000
vt 0.014000 0.778000
vt 0.475000 0.254000
vt 0.478000 0.274000
vt 0.458000 0.280000
vt 0.324000 0.977000
vt 0.234331 0.965866
vt 0.161810 0.898657
vt 0.413347 0.548685
vt 0.431000 0.562687
vt 0.414094 0.561578
vt 0.450000 0.458000
vt 0.447510 0.477325
vt 0.471020 0.310691
vt 0.468000 0.330000
vt 0.422055 0.297389
vt 0.426152 0.423227
vt 0.454617 0.371262
vt 0.227513 0.415508
vt 0.490569 0.444286
vt 0.059284 0.401335
vt 0.026000 0.391799
vt 0.024289 0.304929
vt 0.070813 0.280141
vt 0.393172 0.592992
vt 0.395000 0.575200
vt 0.486774 0.580711
vt 0.449716 0.366915
vt 0.486000 0.338000
vt 0.483063 0.314630
vt 0.466000 0.448000
vt 0.455000 0.448000
vt 0.460608 0.442351
vt 0.486000 0.348000
vt 0.399768 0.555059
vt 0.458264 0.240671
vt 0.143000 0.816000
vt 0.114000 0.748000
vt 0.149000 0.737000
vt 0.175000 0.804000
vt 0.202000 0.856000
vt 0.179000 0.866000
vt 0.217000 0.797000
vt 0.245000 0.848000
vt 0.451052 0.224278
vt 0.082644 0.861685
vt 0.116000 0.835000
vt 0.081000 0.761000
vt 0.053000 0.512000
vt 0.026000 0.519000
vt 0.085000 0.504000
vt 0.110000 0.556000
vt 0.083000 0.564000
vt 0.001000 0.634000
vt 0.001000 0.579000
vt 0.025000 0.577000
vt 0.027000 0.633000
vt 0.118000 0.614000
vt 0.132000 0.671000
vt 0.099000 0.679000
vt 0.089000 0.622000
vt 0.167000 0.667000
vt 0.292000 0.836000
vt 0.433223 0.314985
vt 0.199000 0.303000
vt 0.174000 0.364000
vt 0.463000 0.365940
vt 0.402000 0.945000
vt 0.388521 0.561705
vt 0.424719 0.567372
vt 0.394000 0.568000
vt 0.413000 0.568000
vt 0.128000 0.222000
vt 0.183114 0.183148
vt 0.175000 0.258000
vt 0.124000 0.265000
vt 0.179894 0.412225
vt 0.274000 0.227000
vt 0.223000 0.371000
vt 0.053000 0.571000
vt 0.001000 0.386861
vt 0.001000 0.524000
vt 0.144000 0.945000
vt 0.065000 0.689000
vt 0.233251 0.202994
vt 0.057000 0.628000
vt 0.188179 0.602597
vt 0.149000 0.611000
vt 0.442834 0.365297
vt 0.379039 0.569054
vt 0.376064 0.590574
vt 0.483562 0.610294
vt 0.364000 0.139000
vt 0.032118 0.218972
vt 0.080864 0.199963
vt 0.294939 0.162377
vt 0.197000 0.523000
vt 0.209000 0.508000
vt 0.217000 0.527000
vt 0.206000 0.535000
vt 0.211000 0.571000
vt 0.203000 0.562000
vt 0.187000 0.591000
vt 0.185000 0.578000
vt 0.161000 0.583000
vt 0.165000 0.574000
vt 0.150000 0.569000
vt 0.155000 0.560000
vt 0.145000 0.539000
vt 0.153000 0.535000
vt 0.150000 0.501000
vt 0.159000 0.502000
vt 0.206966 0.427517
vt 0.210499 0.440711
vt 0.174350 0.474056
vt 0.164000 0.464000
vt 0.182000 0.567000
vt 0.193000 0.550000
vt 0.169000 0.561000
vt 0.161200 0.551103
vt 0.169247 0.505138
vt 0.209638 0.461212
vt 0.227000 0.456000
vt 0.221000 0.433000
vt 0.203000 0.489000
vt 0.211757 0.487704
vt 0.152000 0.587000
vt 0.138000 0.546000
vt 0.141000 0.500000
vt 0.156159 0.447371
vt 0.209000 0.404000
vt 0.187150 0.487192
vt 0.212702 0.477979
vt 0.222000 0.489000
vt 0.178000 0.538000
vt 0.130000 0.496000
vt 0.128000 0.552000
vt 0.496242 0.910471
vt 0.484000 0.930000
vt 0.483983 0.909864
vt 0.472000 0.934000
vt 0.480000 0.955000
vt 0.484000 0.970000
vt 0.488000 0.942000
vt 0.478000 0.944000
vt 0.382598 0.569000
vt 0.388000 0.569000
vt 0.423302 0.967185
vt 0.437265 0.963123
vt 0.427622 0.977974
vt 0.422719 0.954116
vt 0.397183 0.956090
vt 0.405000 0.960000
vt 0.384465 0.967000
vt 0.436071 0.569786
vt 0.391910 0.567000
vt 0.384606 0.977163
vt 0.401000 0.986000
vt 0.395000 0.991000
vt 0.411000 0.989000
vt 0.407000 0.996000
vt 0.436404 0.989167
vt 0.416000 0.996000
vt 0.421000 0.987000
vt 0.408000 0.953000
vt 0.489000 0.956000
vt 0.131029 0.145915
vt 0.083146 0.119756
vt 0.133000 0.089231
vt 0.446000 0.066000
vt 0.442000 0.095000
vt 0.383179 0.092729
vt 0.185865 0.124242
vt 0.253000 0.102000
vt 0.242000 0.148000
vt 0.250260 0.058494
vt 0.448000 0.038000
vt 0.395000 0.039000
vt 0.398000 0.021000
vt 0.449000 0.020000
vt 0.179000 0.050000
vt 0.288000 0.053000
vt 0.261000 0.023000
vt 0.300000 0.022000
vt 0.341000 0.043000
vt 0.348000 0.022000
vt 0.087000 0.055000
vt 0.024786 0.060627
vt 0.014280 0.148362
vt 0.222000 0.038000
vt 0.326000 0.083000
vt 0.001000 0.175000
vt 0.001000 0.002000
vt 0.042000 0.002000
vt 0.133000 0.002000
vt 0.177000 0.002000
vt 0.092000 0.002000
vt 0.399000 0.002000
vt 0.450000 0.002000
vt 0.303000 0.002000
vt 0.350000 0.002000
vt 0.218000 0.002000
vt 0.260000 0.002000
vt 0.484054 0.996633
vt 0.588000 0.975000
vt 0.442205 0.968846
vt 0.412000 0.975000
s 1
f 25/1/1 26/2/2 24/3/3
f 28/4/4 29/5/5 30/6/6
f 28/4/4 31/7/7 29/5/5
f 25/1/1 31/7/7 28/4/4
f 25/1/1 28/4/4 33/8/8
f 37/9/9 38/10/10 36/11/11
f 40/12/12 41/13/13 42/14/14
f 40/12/12 42/14/14 39/15/15
f 44/16/16 45/17/17 43/18/18
f 47/19/19 48/20/20 49/21/21
f 47/19/19 49/21/21 46/22/22
f 50/23/23 34/24/24 51/25/25
f 48/20/20 47/19/19 52/26/26
f 47/19/19 35/27/27 52/26/26
f 54/28/28 55/29/29 53/30/30
f 59/31/31 60/32/32 58/33/33
f 59/31/31 62/34/34 60/32/32
f 55/29/29 44/16/16 53/30/30
f 56/35/35 58/33/33 61/36/36
f 64/37/37 65/38/38 63/39/39
f 65/38/38 66/40/40 63/39/39
f 64/37/37 67/41/41 65/38/38
f 69/42/42 72/43/43 70/44/44
f 69/42/42 70/44/44 68/45/45
f 66/40/40 71/46/46 63/39/39
f 74/47/47 75/48/48 73/49/49
f 76/50/50 77/51/51 78/52/52
f 76/50/50 78/52/52 45/17/17
f 80/53/53 90/54/54 81/55/55
f 36/11/11 38/10/10 82/56/56
f 82/56/56 80/53/53 81/55/55
f 85/57/57 86/58/58 37/9/9
f 37/9/9 36/11/11 87/59/59
f 89/60/60 90/54/54 91/61/61
f 89/60/60 91/61/61 88/62/62
f 92/63/63 93/64/64 80/53/53
f 91/61/61 90/54/54 95/65/65
f 91/61/61 95/65/65 94/66/66
f 41/13/13 100/67/67 101/68/68
f 41/13/13 101/68/68 42/14/14
f 102/69/69 34/24/24 36/11/11
f 36/11/11 34/24/24 103/70/70
f 36/11/11 103/70/70 79/71/71
f 78/52/52 104/72/72 105/73/73
f 106/74/74 45/17/17 78/52/52
f 106/74/74 78/52/52 105/73/73
f 110/75/75 111/76/76 112/77/77
f 110/75/75 112/77/77 109/78/78
f 54/28/28 112/77/77 55/29/29
f 65/38/38 114/79/79 113/80/80
f 99/81/81 132/82/82 115/83/83
f 116/84/84 97/85/85 98/86/86
f 114/79/79 118/87/87 117/88/88
f 445/89/89 119/90/90 113/80/80
f 117/88/88 445/89/89 113/80/80
f 122/91/91 123/92/92 121/93/93
f 125/94/94 126/95/95 124/96/96
f 127/97/97 125/94/94 124/96/96
f 128/98/98 129/99/99 124/96/96
f 128/98/98 124/96/96 131/100/100
f 98/86/86 97/85/85 130/101/101
f 98/86/86 130/101/101 121/93/93
f 130/101/101 97/85/85 96/102/102
f 132/82/82 133/103/103 115/83/83
f 107/104/104 118/87/87 114/79/79
f 134/105/105 135/106/106 136/107/107
f 134/105/105 136/107/107 108/108/108
f 138/109/109 139/110/110 140/111/111
f 138/109/109 140/111/111 137/112/112
f 139/110/110 141/113/113 142/114/114
f 139/110/110 142/114/114 136/107/107
f 66/40/40 65/38/38 113/80/80
f 113/80/80 119/90/90 66/40/40
f 83/115/115 80/53/53 93/64/64
f 83/115/115 93/64/64 143/116/116
f 145/117/117 146/118/118 147/119/119
f 145/117/117 147/119/119 144/120/120
f 148/121/121 74/47/47 149/122/122
f 148/121/121 149/122/122 126/95/95
f 129/99/99 128/98/98 151/123/123
f 129/99/99 151/123/123 150/124/124
f 150/124/124 151/123/123 152/125/125
f 124/96/96 126/95/95 131/100/100
f 360/126/126 26/127/2 152/125/125
f 147/119/119 146/118/118 153/128/127
f 154/129/128 116/84/84 146/118/118
f 157/130/129 153/128/127 146/118/118
f 157/130/129 146/118/118 156/131/130
f 55/29/29 112/77/77 111/76/76
f 61/36/36 160/132/131 158/133/132
f 57/134/133 159/135/134 44/16/16
f 45/17/17 44/16/16 159/135/134
f 45/17/17 159/135/134 76/50/50
f 159/135/134 173/136/135 76/50/50
f 161/137/136 49/21/21 48/20/20
f 165/138/137 166/139/138 164/140/139
f 28/141/4 95/65/65 83/115/115
f 94/66/66 23/142/140 27/143/141
f 38/10/10 37/9/9 86/58/58
f 38/10/10 92/63/63 80/53/53
f 169/144/142 170/145/143 171/146/144
f 169/144/142 171/146/144 168/147/145
f 56/35/35 61/36/36 158/133/132
f 173/136/135 84/148/146 172/149/147
f 61/36/36 60/32/32 160/132/131
f 175/150/148 176/151/149 174/152/150
f 107/104/104 114/79/79 67/41/41
f 107/104/104 67/41/41 177/153/151
f 134/105/105 177/153/151 110/75/75
f 134/105/105 110/75/75 109/78/78
f 94/66/66 95/65/65 23/142/140
f 179/154/152 51/25/25 164/140/139
f 179/154/152 164/140/139 178/155/153
f 35/27/27 170/145/143 103/70/70
f 35/27/27 103/70/70 34/24/24
f 87/59/59 172/149/147 37/9/9
f 141/113/113 138/109/109 180/156/154
f 182/157/155 138/109/109 181/158/156
f 79/71/71 103/70/70 104/72/72
f 79/71/71 104/72/72 78/52/52
f 64/37/37 185/159/157 111/76/76
f 72/43/43 115/83/83 70/44/44
f 183/160/158 132/82/82 184/161/159
f 127/97/97 96/102/102 187/162/160
f 162/163/161 51/25/25 34/24/24
f 130/101/101 92/63/63 38/10/10
f 30/164/6 23/142/140 95/65/65
f 95/65/65 28/141/4 30/164/6
f 47/19/19 171/146/144 170/145/143
f 47/19/19 170/145/143 35/27/27
f 104/72/72 169/144/142 188/165/162
f 104/72/72 188/165/162 105/73/73
f 189/166/163 147/119/119 153/128/127
f 146/118/118 116/84/84 190/167/164
f 146/118/118 190/167/164 156/131/130
f 192/168/165 193/169/166 191/170/167
f 68/45/45 194/171/168 186/172/169
f 68/45/45 186/172/169 69/42/42
f 115/83/83 133/103/103 70/44/44
f 155/173/170 190/167/164 116/84/84
f 28/141/4 83/115/115 143/116/116
f 91/61/61 165/138/137 88/62/62
f 195/174/171 166/139/138 165/138/137
f 195/174/171 165/138/137 91/61/61
f 97/85/85 116/84/84 154/129/128
f 196/175/172 197/176/173 144/120/120
f 145/117/117 187/162/160 96/102/102
f 154/129/128 145/117/117 96/102/102
f 154/129/128 146/118/118 145/117/117
f 63/39/39 71/46/46 120/177/174
f 198/178/175 195/174/171 91/61/61
f 198/178/175 91/61/61 94/66/66
f 189/166/163 200/179/176 149/122/122
f 73/49/49 189/166/163 149/122/122
f 73/49/49 149/122/122 74/47/47
f 203/180/177 179/154/152 202/181/178
f 51/25/25 203/180/177 50/23/23
f 205/182/179 206/183/180 207/184/181
f 205/182/179 207/184/181 204/185/182
f 205/182/179 208/186/183 137/112/112
f 205/182/179 137/112/112 206/183/180
f 207/184/181 206/183/180 209/187/184
f 207/184/181 209/187/184 54/28/28
f 137/112/112 140/111/111 210/188/185
f 50/23/23 203/180/177 211/189/186
f 182/157/155 181/158/156 213/190/187
f 182/157/155 213/190/187 212/191/188
f 213/190/187 205/182/179 204/185/182
f 213/190/187 204/185/182 214/192/189
f 216/193/190 192/168/165 191/170/167
f 216/193/190 191/170/167 215/194/191
f 101/68/68 100/67/67 217/195/192
f 217/195/192 218/196/193 219/197/194
f 217/195/192 219/197/194 101/68/68
f 221/198/195 222/199/196 223/200/197
f 221/198/195 223/200/197 220/201/198
f 170/145/143 169/144/142 104/72/72
f 170/145/143 104/72/72 103/70/70
f 123/92/92 122/91/91 132/82/82
f 123/92/92 99/81/81 98/86/86
f 225/202/199 226/203/200 227/204/201
f 225/202/199 227/204/201 224/205/202
f 207/184/181 54/28/28 228/206/203
f 207/184/181 228/206/203 224/205/202
f 53/30/30 228/206/203 54/28/28
f 53/30/30 44/16/16 43/18/18
f 58/33/33 56/35/35 120/177/174
f 135/106/106 229/207/204 210/188/185
f 135/106/106 210/188/185 140/111/111
f 109/78/78 112/77/77 229/207/204
f 135/106/106 134/105/105 109/78/78
f 135/106/106 109/78/78 229/207/204
f 56/35/35 57/134/133 185/159/157
f 56/35/35 185/159/157 120/177/174
f 60/32/32 61/36/36 58/33/33
f 211/189/186 203/180/177 202/181/178
f 211/189/186 202/181/178 230/208/205
f 164/140/139 162/163/161 163/209/206
f 39/15/15 42/14/14 232/210/207
f 39/15/15 232/210/207 231/211/208
f 122/91/91 233/212/209 201/213/210
f 58/33/33 186/172/169 59/31/31
f 90/54/54 83/115/115 95/65/65
f 93/64/64 129/99/99 150/124/124
f 150/124/124 152/125/125 33/214/8
f 33/214/8 152/125/125 26/127/2
f 142/114/114 234/215/211 108/108/108
f 235/216/212 236/217/213 201/213/210
f 59/31/31 186/172/169 194/171/168
f 132/82/82 183/160/158 133/103/103
f 164/140/139 51/25/25 162/163/161
f 164/140/139 166/139/138 178/155/153
f 183/160/158 238/218/214 133/103/103
f 238/218/214 183/160/158 184/161/159
f 194/171/168 68/45/45 240/219/215
f 160/132/131 60/32/32 62/34/34
f 163/209/206 162/163/161 102/69/69
f 163/209/206 102/69/69 81/55/55
f 203/180/177 51/25/25 179/154/152
f 90/54/54 89/60/60 81/55/55
f 121/93/93 123/92/92 98/86/86
f 130/101/101 86/58/58 121/93/93
f 155/173/170 116/84/84 98/86/86
f 66/40/40 72/43/43 71/46/46
f 69/42/42 71/46/46 72/43/43
f 120/177/174 185/159/157 64/37/37
f 120/177/174 64/37/37 63/39/39
f 242/220/216 243/221/217 244/222/218
f 242/220/216 244/222/218 241/223/219
f 168/147/145 231/211/208 232/210/207
f 168/147/145 232/210/207 245/224/220
f 168/147/145 171/146/144 246/225/221
f 168/147/145 245/224/220 247/226/222
f 216/193/190 215/194/191 223/200/197
f 216/193/190 223/200/197 248/227/223
f 249/228/224 250/229/225 215/194/191
f 249/228/224 215/194/191 191/170/167
f 176/151/149 251/230/226 212/191/188
f 182/157/155 212/191/188 251/230/226
f 191/170/167 252/231/227 249/228/224
f 253/232/228 174/152/150 176/151/149
f 253/232/228 176/151/149 214/192/189
f 182/157/155 180/156/154 138/109/109
f 246/225/221 254/233/229 231/211/208
f 246/225/221 231/211/208 168/147/145
f 231/211/208 254/233/229 244/222/218
f 231/211/208 244/222/218 39/15/15
f 243/221/217 40/12/12 39/15/15
f 243/221/217 39/15/15 244/222/218
f 40/12/12 243/221/217 193/169/166
f 191/170/167 255/234/230 252/231/227
f 224/205/202 227/204/201 204/185/182
f 224/205/202 204/185/182 207/184/181
f 175/150/148 174/152/150 222/199/196
f 175/150/148 222/199/196 221/198/195
f 227/204/201 226/203/200 256/235/231
f 227/204/201 256/235/231 253/232/228
f 257/236/232 258/237/233 228/206/203
f 257/236/232 228/206/203 53/30/30
f 65/38/38 67/41/41 114/79/79
f 117/88/88 113/80/80 114/79/79
f 234/215/211 259/238/234 107/104/104
f 234/215/211 107/104/104 108/108/108
f 118/87/87 107/104/104 259/238/234
f 84/148/146 85/57/57 172/149/147
f 172/149/147 87/59/59 77/51/51
f 77/51/51 87/59/59 79/71/71
f 34/24/24 102/69/69 162/163/161
f 62/34/34 235/216/212 160/132/131
f 110/75/75 64/37/37 111/76/76
f 177/153/151 67/41/41 64/37/37
f 177/153/151 64/37/37 110/75/75
f 57/134/133 111/76/76 185/159/157
f 58/33/33 120/177/174 186/172/169
f 186/172/169 120/177/174 71/46/46
f 186/172/169 71/46/46 69/42/42
f 82/56/56 38/10/10 80/53/53
f 163/209/206 88/62/62 165/138/137
f 163/209/206 165/138/137 164/140/139
f 163/209/206 89/60/60 88/62/62
f 102/69/69 82/56/56 81/55/55
f 148/121/121 126/95/95 125/94/94
f 148/121/121 125/94/94 196/175/172
f 197/176/173 187/162/160 145/117/117
f 197/176/173 145/117/117 144/120/120
f 197/176/173 196/175/172 125/94/94
f 260/239/235 72/43/43 66/40/40
f 85/57/57 37/9/9 172/149/147
f 27/143/141 32/240/236 199/241/237
f 199/241/237 198/178/175 94/66/66
f 199/241/237 94/66/66 27/143/141
f 195/174/171 261/242/238 166/139/138
f 166/139/138 261/242/238 262/243/239
f 166/139/138 262/243/239 178/155/153
f 167/244/240 233/212/209 85/57/57
f 167/244/240 85/57/57 84/148/146
f 233/212/209 167/244/240 201/213/210
f 201/213/210 236/217/213 184/161/159
f 233/212/209 122/91/91 121/93/93
f 200/179/176 189/166/163 153/128/127
f 200/179/176 153/128/127 157/130/129
f 99/81/81 123/92/92 132/82/82
f 201/213/210 184/161/159 122/91/91
f 122/91/91 184/161/159 132/82/82
f 235/216/212 201/213/210 167/244/240
f 99/81/81 155/173/170 98/86/86
f 196/175/172 144/120/120 75/48/48
f 159/135/134 57/134/133 56/35/35
f 159/135/134 56/35/35 158/133/132
f 158/133/132 173/136/135 159/135/134
f 173/136/135 172/149/147 77/51/51
f 79/71/71 87/59/59 36/11/11
f 36/11/11 82/56/56 102/69/69
f 78/52/52 77/51/51 79/71/71
f 90/54/54 80/53/53 83/115/115
f 43/18/18 257/236/232 53/30/30
f 160/132/131 235/216/212 167/244/240
f 77/51/51 76/50/50 173/136/135
f 127/97/97 130/101/101 96/102/102
f 124/96/96 93/64/64 92/63/63
f 124/96/96 92/63/63 127/97/97
f 93/64/64 124/96/96 129/99/99
f 93/64/64 150/124/124 143/116/116
f 150/124/124 33/214/8 28/141/4
f 150/124/124 28/141/4 143/116/116
f 147/119/119 73/49/49 75/48/48
f 147/119/119 75/48/48 144/120/120
f 154/129/128 96/102/102 97/85/85
f 260/239/235 155/173/170 99/81/81
f 260/239/235 99/81/81 115/83/83
f 263/245/241 155/173/170 260/239/235
f 138/109/109 141/113/113 139/110/110
f 108/108/108 136/107/107 142/114/114
f 107/104/104 177/153/151 134/105/105
f 107/104/104 134/105/105 108/108/108
f 224/205/202 228/206/203 258/237/233
f 224/205/202 258/237/233 225/202/199
f 89/60/60 163/209/206 81/55/55
f 264/246/242 46/22/22 49/21/21
f 254/233/229 241/223/219 244/222/218
f 193/169/166 265/247/243 255/234/230
f 246/225/221 266/248/244 254/233/229
f 246/225/221 171/146/144 47/19/19
f 246/225/221 47/19/19 46/22/22
f 255/234/230 267/249/245 252/231/227
f 137/112/112 208/186/183 181/158/156
f 137/112/112 181/158/156 138/109/109
f 41/13/13 40/12/12 193/169/166
f 41/13/13 193/169/166 192/168/165
f 212/191/188 213/190/187 214/192/189
f 212/191/188 214/192/189 176/151/149
f 192/168/165 216/193/190 217/195/192
f 192/168/165 217/195/192 100/67/67
f 192/168/165 100/67/67 41/13/13
f 226/203/200 218/196/193 248/227/223
f 226/203/200 248/227/223 256/235/231
f 227/204/201 253/232/228 214/192/189
f 227/204/201 214/192/189 204/185/182
f 193/169/166 255/234/230 191/170/167
f 253/232/228 256/235/231 222/199/196
f 253/232/228 222/199/196 174/152/150
f 265/247/243 193/169/166 243/221/217
f 265/247/243 243/221/217 242/220/216
f 173/136/135 158/133/132 84/148/146
f 57/134/133 55/29/29 111/76/76
f 57/134/133 44/16/16 55/29/29
f 206/183/180 137/112/112 210/188/185
f 206/183/180 210/188/185 209/187/184
f 205/182/179 213/190/187 181/158/156
f 205/182/179 181/158/156 208/186/183
f 121/93/93 86/58/58 85/57/57
f 130/101/101 127/97/97 92/63/63
f 86/58/58 130/101/101 38/10/10
f 197/176/173 125/94/94 127/97/97
f 197/176/173 127/97/97 187/162/160
f 269/250/246 270/251/247 271/252/248
f 269/250/246 271/252/248 268/253/249
f 273/254/250 271/252/248 270/251/247
f 273/254/250 270/251/247 272/255/251
f 275/256/252 273/254/250 272/255/251
f 275/256/252 272/255/251 274/257/253
f 277/258/254 275/256/252 274/257/253
f 277/258/254 274/257/253 276/259/255
f 279/260/256 277/258/254 276/259/255
f 279/260/256 276/259/255 278/261/257
f 281/262/258 279/260/256 278/261/257
f 281/262/258 278/261/257 280/263/259
f 283/264/260 281/262/258 280/263/259
f 283/264/260 280/263/259 282/265/261
f 285/266/262 286/267/263 287/268/264
f 285/266/262 287/268/264 284/269/265
f 289/270/266 274/257/253 272/255/251
f 289/270/266 272/255/251 288/271/267
f 290/272/268 276/259/255 274/257/253
f 290/272/268 274/257/253 289/270/266
f 291/273/269 278/261/257 276/259/255
f 291/273/269 276/259/255 290/272/268
f 291/273/269 280/263/259 278/261/257
f 280/263/259 291/273/269 292/274/270
f 280/263/259 292/274/270 282/265/261
f 287/268/264 293/275/271 284/269/265
f 294/276/272 295/277/273 284/269/265
f 294/276/272 284/269/265 293/275/271
f 297/278/274 268/253/249 296/279/275
f 106/74/74 271/252/248 273/254/250
f 106/74/74 273/254/250 43/18/18
f 273/254/250 275/256/252 257/236/232
f 273/254/250 257/236/232 43/18/18
f 298/280/276 257/236/232 275/256/252
f 298/280/276 275/256/252 277/258/254
f 299/281/277 298/280/276 279/260/256
f 299/281/277 279/260/256 281/262/258
f 299/281/277 281/262/258 283/264/260
f 299/281/277 283/264/260 300/282/278
f 286/267/263 285/266/262 245/224/220
f 286/267/263 245/224/220 301/283/279
f 285/266/262 302/284/280 245/224/220
f 285/266/262 295/277/273 188/165/162
f 285/266/262 188/165/162 302/284/280
f 294/276/272 105/73/73 188/165/162
f 294/276/272 188/165/162 295/277/273
f 272/255/251 270/251/247 269/250/246
f 272/255/251 269/250/246 288/271/267
f 297/278/274 303/285/281 304/286/282
f 297/278/274 304/286/282 269/250/246
f 297/278/274 296/279/275 303/285/281
f 303/285/281 296/279/275 305/287/283
f 296/279/275 268/253/249 271/252/248
f 296/279/275 271/252/248 305/287/283
f 290/272/268 306/288/284 291/273/269
f 306/288/284 292/274/270 291/273/269
f 287/268/264 282/265/261 292/274/270
f 282/265/261 287/268/264 286/267/263
f 282/265/261 286/267/263 283/264/260
f 301/283/279 300/282/278 283/264/260
f 301/283/279 283/264/260 286/267/263
f 306/288/284 290/272/268 289/270/266
f 306/288/284 289/270/266 288/271/267
f 304/286/282 287/268/264 292/274/270
f 268/253/249 297/278/274 269/250/246
f 294/276/272 293/275/271 303/285/281
f 294/276/272 303/285/281 305/287/283
f 304/286/282 303/285/281 293/275/271
f 304/286/282 293/275/271 287/268/264
f 271/252/248 106/74/74 305/287/283
f 106/74/74 105/73/73 294/276/272
f 106/74/74 294/276/272 305/287/283
f 307/289/285 300/282/278 301/283/279
f 307/289/285 308/290/286 299/281/277
f 307/289/285 299/281/277 300/282/278
f 245/224/220 232/210/207 301/283/279
f 245/224/220 302/284/280 247/226/222
f 308/290/286 258/237/233 298/280/276
f 308/290/286 298/280/276 299/281/277
f 219/197/194 225/202/199 258/237/233
f 219/197/194 258/237/233 308/290/286
f 42/14/14 101/68/68 301/283/279
f 42/14/14 301/283/279 232/210/207
f 101/68/68 307/289/285 301/283/279
f 188/165/162 247/226/222 302/284/280
f 230/208/205 309/291/287 52/26/26
f 230/208/205 52/26/26 211/189/186
f 260/239/235 115/83/83 72/43/43
f 158/133/132 160/132/131 84/148/146
f 160/132/131 167/244/240 84/148/146
f 147/119/119 189/166/163 73/49/49
f 85/57/57 233/212/209 121/93/93
f 246/225/221 46/22/22 264/246/242
f 246/225/221 264/246/242 266/248/244
f 218/196/193 226/203/200 225/202/199
f 218/196/193 225/202/199 219/197/194
f 220/201/198 223/200/197 215/194/191
f 220/201/198 215/194/191 250/229/225
f 223/200/197 222/199/196 256/235/231
f 223/200/197 256/235/231 248/227/223
f 218/196/193 217/195/192 216/193/190
f 218/196/193 216/193/190 248/227/223
f 307/289/285 101/68/68 219/197/194
f 307/289/285 219/197/194 308/290/286
f 106/74/74 43/18/18 45/17/17
f 136/107/107 135/106/106 140/111/111
f 136/107/107 140/111/111 139/110/110
f 112/77/77 54/28/28 209/187/184
f 229/207/204 112/77/77 209/187/184
f 229/207/204 209/187/184 210/188/185
f 258/237/233 257/236/232 298/280/276
f 66/40/40 119/90/90 263/245/241
f 66/40/40 263/245/241 260/239/235
f 27/292/141 311/293/288 310/294/289
f 312/295/290 311/293/288 23/296/140
f 30/6/6 312/295/290 23/296/140
f 31/7/7 313/297/291 314/298/292
f 31/7/7 314/298/292 29/5/5
f 312/295/290 315/299/293 316/300/294
f 312/295/290 316/300/294 311/293/288
f 62/34/34 59/31/31 317/301/295
f 62/34/34 317/301/295 237/302/296
f 240/219/215 317/301/295 59/31/31
f 240/219/215 59/31/31 194/171/168
f 318/303/297 319/304/298 133/305/103
f 318/303/297 133/305/103 238/306/214
f 239/307/299 320/308/300 321/309/301
f 68/45/45 70/44/44 322/310/302
f 236/217/213 235/216/212 239/311/299
f 236/217/213 238/218/214 184/161/159
f 320/308/300 62/312/34 237/313/296
f 235/216/212 62/34/34 239/311/299
f 237/313/296 317/314/295 323/315/303
f 323/315/303 317/314/295 240/316/215
f 323/315/303 240/316/215 324/317/304
f 133/103/103 325/318/305 322/310/302
f 133/103/103 322/310/302 70/44/44
f 322/319/302 324/317/304 68/320/45
f 238/306/214 236/321/213 321/309/301
f 238/306/214 321/309/301 318/303/297
f 133/305/103 319/304/298 325/322/305
f 34/24/24 50/23/23 35/27/27
f 179/154/152 178/155/153 262/243/239
f 179/154/152 262/243/239 202/181/178
f 309/291/287 161/137/136 48/20/20
f 309/291/287 48/20/20 52/26/26
f 35/27/27 50/23/23 211/189/186
f 35/27/27 211/189/186 52/26/26
f 168/147/145 247/226/222 188/165/162
f 168/147/145 188/165/162 169/144/142
f 304/286/282 292/274/270 306/288/284
f 304/286/282 306/288/284 269/250/246
f 196/175/172 75/48/48 74/47/47
f 196/175/172 74/47/47 148/121/121
f 25/1/1 24/3/3 313/297/291
f 311/293/288 316/300/294 326/323/306
f 311/293/288 326/323/306 310/294/289
f 316/300/294 327/324/307 326/323/306
f 329/325/308 330/326/309 328/327/310
f 332/328/311 333/329/312 331/330/313
f 241/223/219 335/331/314 336/332/315
f 241/223/219 336/332/315 334/333/316
f 337/334/317 334/333/316 336/332/315
f 339/335/318 340/336/319 341/337/320
f 339/335/318 341/337/320 338/338/321
f 330/326/309 334/333/316 342/339/322
f 343/340/323 344/341/324 345/342/325
f 343/340/323 345/342/325 337/334/317
f 338/338/321 341/337/320 347/343/326
f 338/338/321 347/343/326 346/344/327
f 347/343/326 344/341/324 343/340/323
f 347/343/326 343/340/323 346/344/327
f 348/345/328 349/346/329 328/327/310
f 351/347/330 350/348/331 328/327/310
f 351/347/330 328/327/310 349/346/329
f 330/326/309 348/345/328 328/327/310
f 334/333/316 330/326/309 329/325/308
f 336/332/315 343/340/323 337/334/317
f 345/342/325 352/349/332 337/334/317
f 342/339/322 334/333/316 337/334/317
f 342/339/322 337/334/317 352/349/332
f 265/247/243 353/350/333 255/234/230
f 354/351/334 336/332/315 335/331/314
f 354/351/334 335/331/314 266/248/244
f 354/351/334 266/248/244 333/329/312
f 353/350/333 267/249/245 255/234/230
f 332/328/311 339/335/318 338/338/321
f 332/328/311 338/338/321 333/329/312
f 346/344/327 343/340/323 336/332/315
f 346/344/327 336/332/315 354/351/334
f 354/351/334 333/329/312 338/338/321
f 354/351/334 338/338/321 346/344/327
f 356/352/335 339/335/318 332/328/311
f 356/352/335 332/328/311 355/353/336
f 241/223/219 334/333/316 329/325/308
f 340/336/319 339/335/318 356/352/335
f 340/336/319 356/352/335 2/354/337
f 241/223/219 329/325/308 242/220/216
f 357/355/338 331/330/313 49/21/21
f 357/355/338 49/21/21 161/137/136
f 329/325/308 265/247/243 242/220/216
f 331/330/313 333/329/312 264/246/242
f 331/330/313 264/246/242 49/21/21
f 241/223/219 254/233/229 335/331/314
f 328/327/310 353/350/333 265/247/243
f 266/248/244 335/331/314 254/233/229
f 333/329/312 266/248/244 264/246/242
f 350/348/331 353/350/333 328/327/310
f 355/353/336 332/328/311 331/330/313
f 355/353/336 331/330/313 357/355/338
f 329/325/308 328/327/310 265/247/243
f 1/356/339 351/347/330 349/346/329
f 1/356/339 349/346/329 22/357/340
f 20/358/341 330/326/309 342/339/322
f 20/358/341 342/339/322 18/359/342
f 330/326/309 20/358/341 21/360/343
f 330/326/309 21/360/343 348/345/328
f 15/361/344 341/337/320 340/336/319
f 15/361/344 340/336/319 13/362/345
f 19/363/346 344/341/324 347/343/326
f 19/363/346 347/343/326 14/364/347
f 342/339/322 352/349/332 16/365/348
f 342/339/322 16/365/348 18/359/342
f 17/366/349 345/342/325 344/341/324
f 17/366/349 344/341/324 19/363/346
f 21/360/343 22/357/340 349/346/329
f 21/360/343 349/346/329 348/345/328
f 13/362/345 340/336/319 2/354/337
f 341/337/320 15/361/344 14/364/347
f 341/337/320 14/364/347 347/343/326
f 17/366/349 16/365/348 352/349/332
f 17/366/349 352/349/332 345/342/325
f 30/6/6 29/5/5 315/299/293
f 30/6/6 315/299/293 312/295/290
f 363/367/350 359/368/351 362/369/352
f 359/368/351 363/367/350 358/370/353
f 363/367/350 362/369/352 364/371/354
f 24/3/3 365/372/355 366/373/356
f 24/3/3 366/373/356 364/371/354
f 370/374/357 371/375/358 369/376/359
f 373/377/360 374/378/361 375/379/362
f 373/377/360 375/379/362 372/380/363
f 377/381/364 378/382/365 376/383/366
f 380/384/367 381/385/368 382/386/369
f 380/384/367 382/386/369 379/387/370
f 383/388/371 384/389/372 368/390/373
f 379/387/370 385/391/374 380/384/367
f 380/384/367 385/391/374 367/392/375
f 387/393/376 388/394/377 386/395/378
f 389/396/379 390/397/380 391/398/381
f 395/399/382 390/397/380 389/396/379
f 395/399/382 389/396/379 394/400/383
f 392/401/384 397/402/385 396/403/386
f 386/395/378 388/394/377 377/381/364
f 399/404/387 400/405/388 398/406/389
f 398/406/389 400/405/388 401/407/390
f 399/404/387 398/406/389 402/408/391
f 407/409/392 403/410/393 404/411/394
f 407/409/392 404/411/394 406/412/395
f 401/407/390 400/405/388 405/413/396
f 409/414/397 410/415/398 408/416/399
f 412/417/400 376/383/366 413/418/401
f 412/417/400 413/418/401 411/419/402
f 371/375/358 414/420/403 415/421/404
f 414/420/403 413/418/401 415/421/404
f 371/375/358 418/422/405 369/376/359
f 418/422/405 416/423/406 417/424/407
f 370/374/357 422/425/408 371/375/358
f 423/426/409 424/427/410 425/428/411
f 423/426/409 425/428/411 511/429/412
f 426/430/413 417/424/407 553/431/414
f 423/426/409 416/423/406 427/432/415
f 417/424/407 426/430/413 418/422/405
f 425/428/411 428/433/416 489/434/417
f 425/428/411 489/434/417 511/429/412
f 372/380/363 375/379/362 434/435/418
f 372/380/363 434/435/418 433/436/419
f 435/437/420 368/390/373 427/432/415
f 371/375/358 415/421/404 368/390/373
f 413/418/401 437/438/421 436/439/422
f 438/440/423 437/438/421 413/418/401
f 438/440/423 413/418/401 376/383/366
f 440/441/424 259/238/234 234/442/211
f 440/441/424 234/442/211 439/443/425
f 442/444/426 443/445/427 444/446/428
f 442/444/426 444/446/428 441/447/429
f 387/393/376 386/395/378 444/446/428
f 398/406/389 445/89/89 446/448/430
f 432/449/431 463/450/432 447/451/433
f 448/452/434 431/453/435 429/454/436
f 117/88/88 446/448/430 445/89/89
f 390/397/380 395/399/382 450/455/437
f 452/456/438 453/457/439 451/458/440
f 455/459/441 456/460/442 457/461/443
f 455/459/441 457/461/443 454/462/444
f 459/463/445 457/461/443 458/464/446
f 459/463/445 131/100/100 457/461/443
f 463/450/432 464/465/447 462/466/448
f 259/238/234 440/441/424 449/467/449
f 466/468/450 439/443/425 467/469/451
f 466/468/450 467/469/451 465/470/452
f 469/471/453 470/472/454 468/473/455
f 401/407/390 445/89/89 398/406/389
f 445/89/89 401/407/390 119/90/90
f 405/413/396 406/412/395 471/474/456
f 419/475/457 472/476/458 416/423/406
f 474/477/459 475/478/460 476/479/461
f 474/477/459 476/479/461 473/480/462
f 477/481/463 454/462/444 478/482/464
f 477/481/463 478/482/464 409/414/397
f 458/464/446 479/483/465 459/463/445
f 479/483/465 151/123/123 128/98/98
f 479/483/465 128/98/98 459/463/445
f 360/126/126 152/125/125 480/484/466
f 476/479/461 157/130/129 473/480/462
f 481/485/467 473/480/462 448/452/434
f 157/130/129 156/131/130 473/480/462
f 386/395/378 441/447/429 444/446/428
f 394/400/383 483/486/468 484/487/469
f 483/486/468 394/400/383 389/396/379
f 376/383/366 412/417/400 377/381/364
f 377/381/364 412/417/400 389/396/379
f 161/137/136 379/387/370 382/386/369
f 428/433/416 361/488/470 358/489/353
f 490/490/471 421/491/472 370/374/357
f 490/490/471 370/374/357 369/376/359
f 461/492/473 460/493/474 491/494/475
f 369/376/359 426/430/413 490/490/471
f 492/495/476 493/496/477 420/497/478
f 495/498/479 496/499/480 497/500/481
f 495/498/479 497/500/481 494/501/482
f 483/486/468 492/495/476 420/497/478
f 175/502/148 498/503/483 499/504/484
f 175/502/148 499/504/484 176/505/149
f 440/441/424 402/408/391 449/467/449
f 466/468/450 443/445/427 442/444/426
f 466/468/450 442/444/426 440/441/424
f 428/433/416 358/489/353 489/434/417
f 500/506/485 501/507/486 502/508/487
f 500/506/485 502/508/487 384/389/372
f 367/392/375 368/390/373 415/421/404
f 367/392/375 415/421/404 494/501/482
f 422/425/408 370/374/357 492/495/476
f 468/473/455 141/509/113 180/510/154
f 503/511/488 469/471/453 180/510/154
f 506/512/489 452/456/438 451/458/440
f 506/512/489 451/458/440 447/451/433
f 415/421/404 413/418/401 436/439/422
f 399/404/387 441/447/429 390/397/380
f 406/412/395 404/411/394 464/465/447
f 406/412/395 464/465/447 471/474/456
f 505/513/490 504/514/491 506/512/489
f 505/513/490 506/512/489 447/451/433
f 456/460/442 508/515/492 430/516/493
f 456/460/442 430/516/493 461/492/473
f 424/427/410 488/517/494 509/518/495
f 486/519/496 368/390/373 384/389/372
f 490/490/471 426/430/413 510/520/497
f 472/476/458 419/475/457 489/434/417
f 472/476/458 489/434/417 512/521/498
f 380/384/367 367/392/375 494/501/482
f 380/384/367 494/501/482 497/500/481
f 436/439/422 437/438/421 513/522/499
f 436/439/422 513/522/499 495/498/479
f 514/523/500 157/130/129 476/479/461
f 473/480/462 156/131/130 190/167/164
f 473/480/462 190/167/164 448/452/434
f 516/524/501 517/525/502 252/526/227
f 516/524/501 252/526/227 515/527/503
f 403/410/393 407/409/392 507/528/504
f 403/410/393 507/528/504 518/529/505
f 429/454/436 460/493/474 461/492/473
f 429/454/436 461/492/473 430/516/493
f 482/530/506 448/452/434 190/167/164
f 482/530/506 190/167/164 155/173/170
f 366/531/356 512/521/498 489/434/417
f 425/428/411 424/427/410 509/518/495
f 519/532/507 425/428/411 509/518/495
f 519/532/507 509/518/495 487/533/508
f 429/454/436 481/485/467 448/452/434
f 487/533/508 509/518/495 488/517/494
f 521/534/509 475/478/460 522/535/510
f 521/534/509 522/535/510 520/536/511
f 474/477/459 430/516/493 508/515/492
f 481/485/467 430/516/493 474/477/459
f 481/485/467 474/477/459 473/480/462
f 400/405/388 450/455/437 405/413/396
f 199/241/237 523/537/512 198/178/175
f 523/537/512 428/433/416 425/428/411
f 523/537/512 425/428/411 519/532/507
f 361/488/470 199/241/237 32/240/236
f 514/523/500 478/482/464 149/122/122
f 514/523/500 149/122/122 200/179/176
f 410/415/398 409/414/397 478/482/464
f 410/415/398 478/482/464 514/523/500
f 506/512/489 504/514/491 524/538/513
f 526/539/514 202/181/178 500/506/485
f 384/389/372 383/388/371 526/539/514
f 528/540/515 529/541/516 530/542/517
f 528/540/515 530/542/517 527/543/518
f 528/540/515 527/543/518 532/544/519
f 528/540/515 532/544/519 531/545/520
f 530/542/517 387/393/376 533/546/521
f 530/542/517 533/546/521 527/543/518
f 469/471/453 532/544/519 534/547/522
f 469/471/453 534/547/522 470/472/454
f 383/388/371 535/548/523 526/539/514
f 503/511/488 251/549/226 536/550/524
f 536/550/524 537/551/525 529/541/516
f 536/550/524 529/541/516 528/540/515
f 538/552/526 539/553/527 517/525/502
f 538/552/526 517/525/502 516/524/501
f 434/435/418 540/554/528 433/436/419
f 540/554/528 434/435/418 542/555/529
f 540/554/528 542/555/529 541/556/530
f 221/557/195 220/558/198 544/559/531
f 221/557/195 544/559/531 543/560/532
f 494/501/482 415/421/404 436/439/422
f 494/501/482 436/439/422 495/498/479
f 451/458/440 431/453/435 432/449/431
f 546/561/533 547/562/534 548/563/535
f 546/561/533 548/563/535 545/564/536
f 530/542/517 547/562/534 549/565/537
f 530/542/517 549/565/537 387/393/376
f 388/394/377 387/393/376 549/565/537
f 388/394/377 378/382/365 377/381/364
f 465/470/452 470/472/454 534/547/522
f 465/470/452 534/547/522 550/566/538
f 443/445/427 550/566/538 444/446/428
f 465/470/452 550/566/538 443/445/427
f 465/470/452 443/445/427 466/468/450
f 484/487/469 392/401/384 394/400/383
f 535/548/523 230/208/205 202/181/178
f 535/548/523 202/181/178 526/539/514
f 502/508/487 488/517/494 485/567/539
f 502/508/487 485/567/539 486/519/496
f 374/378/361 551/568/540 552/569/541
f 374/378/361 552/569/541 375/379/362
f 452/456/438 506/512/489 524/538/513
f 553/431/414 512/521/498 479/483/465
f 553/431/414 479/483/465 458/464/446
f 131/100/100 459/463/445 128/98/98
f 479/483/465 512/521/498 365/570/355
f 479/483/465 365/570/355 480/484/466
f 365/570/355 360/126/126 480/484/466
f 151/123/123 479/483/465 480/484/466
f 151/123/123 480/484/466 152/125/125
f 142/571/114 467/469/451 234/442/211
f 554/572/542 524/538/513 504/514/491
f 392/401/384 396/403/386 518/529/505
f 392/401/384 518/529/505 507/528/504
f 463/450/432 462/466/448 505/513/490
f 463/450/432 505/513/490 447/451/433
f 502/508/487 486/519/496 384/389/372
f 502/508/487 501/507/486 488/517/494
f 505/513/490 462/466/448 556/573/543
f 556/573/543 504/514/491 505/513/490
f 518/529/505 558/574/544 559/575/545
f 518/529/505 559/575/545 403/410/393
f 485/567/539 427/432/415 486/519/496
f 526/539/514 500/506/485 384/389/372
f 368/390/373 435/437/420 371/375/358
f 511/429/412 416/423/406 423/426/409
f 453/457/439 460/493/474 431/453/435
f 453/457/439 431/453/435 451/458/440
f 482/530/506 431/453/435 448/452/434
f 429/454/436 431/453/435 460/493/474
f 401/407/390 405/413/396 471/474/456
f 407/409/392 406/412/395 405/413/396
f 450/455/437 400/405/388 399/404/387
f 450/455/437 399/404/387 390/397/380
f 464/465/447 463/450/432 471/474/456
f 389/396/379 391/398/381 377/381/364
f 561/576/546 562/577/547 563/578/548
f 561/576/546 563/578/548 560/579/549
f 496/499/480 564/580/550 552/569/541
f 496/499/480 552/569/541 551/568/540
f 496/499/480 565/581/551 497/500/481
f 496/499/480 566/582/552 564/580/550
f 538/552/526 567/583/553 544/559/531
f 538/552/526 544/559/531 539/553/527
f 249/584/224 517/525/502 539/553/527
f 249/584/224 539/553/527 250/585/225
f 499/504/484 251/549/226 176/505/149
f 182/586/155 251/549/226 503/511/488
f 517/525/502 249/584/224 252/526/227
f 568/587/554 537/551/525 499/504/484
f 568/587/554 499/504/484 498/503/483
f 182/586/155 503/511/488 180/510/154
f 565/581/551 496/499/480 551/568/540
f 565/581/551 551/568/540 569/588/555
f 551/568/540 374/378/361 563/578/548
f 551/568/540 563/578/548 569/588/555
f 560/579/549 563/578/548 374/378/361
f 560/579/549 374/378/361 373/377/360
f 373/377/360 515/527/503 560/579/549
f 547/562/534 530/542/517 529/541/516
f 547/562/534 529/541/516 548/563/535
f 175/502/148 221/557/195 543/560/532
f 175/502/148 543/560/532 498/503/483
f 548/563/535 568/587/554 570/589/556
f 548/563/535 570/589/556 545/564/536
f 572/590/557 388/394/377 549/565/537
f 572/590/557 549/565/537 571/591/558
f 398/406/389 446/448/430 449/467/449
f 398/406/389 449/467/449 402/408/391
f 118/87/87 449/467/449 446/448/430
f 118/87/87 446/448/430 117/88/88
f 449/467/449 118/87/87 259/238/234
f 411/419/402 414/420/403 422/425/408
f 368/390/373 486/519/496 427/432/415
f 489/434/417 358/489/353 363/592/350
f 554/572/542 397/402/385 484/487/469
f 554/572/542 484/487/469 420/497/478
f 397/402/385 554/572/542 525/593/559
f 442/444/426 441/447/429 399/404/387
f 440/441/424 442/444/426 399/404/387
f 440/441/424 399/404/387 402/408/391
f 391/398/381 390/397/380 441/447/429
f 393/594/560 395/399/382 394/400/383
f 393/594/560 394/400/383 392/401/384
f 393/594/560 507/528/504 450/455/437
f 393/594/560 450/455/437 395/399/382
f 507/528/504 407/409/392 405/413/396
f 507/528/504 405/413/396 450/455/437
f 418/422/405 426/430/413 369/376/359
f 485/567/539 488/517/494 424/427/410
f 485/567/539 424/427/410 423/426/409
f 435/437/420 427/432/415 418/422/405
f 553/431/414 456/460/442 510/520/497
f 477/481/463 520/536/511 455/459/441
f 477/481/463 455/459/441 454/462/444
f 522/535/510 475/478/460 474/477/459
f 522/535/510 474/477/459 508/515/492
f 522/535/510 455/459/441 520/536/511
f 573/595/561 401/407/390 471/474/456
f 492/495/476 370/374/357 421/491/472
f 199/241/237 361/488/470 428/433/416
f 199/241/237 428/433/416 523/537/512
f 195/174/171 519/532/507 487/533/508
f 195/174/171 487/533/508 261/242/238
f 488/517/494 261/242/238 487/533/508
f 488/517/494 501/507/486 262/243/239
f 488/517/494 262/243/239 261/242/238
f 452/456/438 524/538/513 554/572/542
f 452/456/438 554/572/542 493/496/477
f 200/179/176 157/130/129 514/523/500
f 432/449/431 447/451/433 451/458/440
f 507/528/504 393/594/560 392/401/384
f 392/401/384 484/487/469 397/402/385
f 432/449/431 431/453/435 482/530/506
f 521/534/509 408/416/399 475/478/460
f 412/417/400 422/425/408 492/495/476
f 412/417/400 492/495/476 483/486/468
f 371/375/358 422/425/408 414/420/403
f 371/375/358 435/437/420 418/422/405
f 413/418/401 414/420/403 411/419/402
f 427/432/415 416/423/406 418/422/405
f 378/382/365 388/394/377 572/590/557
f 420/497/478 493/496/477 554/572/542
f 411/419/402 422/425/408 412/417/400
f 454/462/444 457/461/443 131/100/100
f 454/462/444 131/100/100 126/95/95
f 491/494/475 490/490/471 461/492/473
f 510/520/497 456/460/442 461/492/473
f 456/460/442 553/431/414 458/464/446
f 456/460/442 458/464/446 457/461/443
f 553/431/414 472/476/458 512/521/498
f 512/521/498 366/531/356 365/570/355
f 476/479/461 475/478/460 408/416/399
f 476/479/461 408/416/399 410/415/398
f 481/485/467 429/454/436 430/516/493
f 573/595/561 463/450/432 432/449/431
f 573/595/561 432/449/431 482/530/506
f 263/245/241 573/595/561 482/530/506
f 263/245/241 482/530/506 155/173/170
f 180/510/154 469/471/453 468/473/455
f 439/443/425 234/442/211 467/469/451
f 440/441/424 439/443/425 466/468/450
f 547/562/534 546/561/533 571/591/558
f 547/562/534 571/591/558 549/565/537
f 423/426/409 427/432/415 485/567/539
f 519/532/507 195/174/171 198/178/175
f 519/532/507 198/178/175 523/537/512
f 574/596/562 382/386/369 381/385/368
f 569/588/555 563/578/548 562/577/547
f 515/527/503 252/526/227 267/597/245
f 515/527/503 267/597/245 575/598/563
f 565/581/551 569/588/555 576/599/564
f 565/581/551 381/385/368 380/384/367
f 565/581/551 380/384/367 497/500/481
f 469/471/453 503/511/488 531/545/520
f 372/380/363 516/524/501 515/527/503
f 372/380/363 515/527/503 373/377/360
f 251/549/226 499/504/484 537/551/525
f 251/549/226 537/551/525 536/550/524
f 516/524/501 433/436/419 540/554/528
f 516/524/501 540/554/528 538/552/526
f 516/524/501 372/380/363 433/436/419
f 545/564/536 570/589/556 567/583/553
f 545/564/536 567/583/553 541/556/530
f 548/563/535 529/541/516 537/551/525
f 548/563/535 537/551/525 568/587/554
f 568/587/554 498/503/483 543/560/532
f 568/587/554 543/560/532 570/589/556
f 575/598/563 561/576/546 560/579/549
f 575/598/563 560/579/549 515/527/503
f 421/491/472 493/496/477 492/495/476
f 391/398/381 441/447/429 386/395/378
f 391/398/381 386/395/378 377/381/364
f 527/543/518 533/546/521 534/547/522
f 527/543/518 534/547/522 532/544/519
f 528/540/515 531/545/520 503/511/488
f 528/540/515 503/511/488 536/550/524
f 460/493/474 453/457/439 421/491/472
f 460/493/474 421/491/472 491/494/475
f 461/492/473 490/490/471 510/520/497
f 491/494/475 421/491/472 490/490/471
f 510/520/497 426/430/413 553/431/414
f 454/462/444 126/95/95 149/122/122
f 454/462/444 149/122/122 478/482/464
f 522/535/510 508/515/492 456/460/442
f 522/535/510 456/460/442 455/459/441
f 578/600/565 579/601/566 580/602/567
f 578/600/565 580/602/567 577/603/568
f 581/604/569 582/605/570 577/603/568
f 581/604/569 577/603/568 580/602/567
f 583/606/571 584/607/572 582/605/570
f 583/606/571 582/605/570 581/604/569
f 585/608/573 586/609/574 584/607/572
f 585/608/573 584/607/572 583/606/571
f 587/610/575 588/611/576 586/609/574
f 587/610/575 586/609/574 585/608/573
f 589/612/577 590/613/578 588/611/576
f 589/612/577 588/611/576 587/610/575
f 591/614/579 592/615/580 590/613/578
f 591/614/579 590/613/578 589/612/577
f 594/616/581 595/617/582 596/618/583
f 594/616/581 596/618/583 593/619/584
f 597/620/585 598/621/586 582/605/570
f 597/620/585 582/605/570 584/607/572
f 599/622/587 597/620/585 584/607/572
f 599/622/587 584/607/572 586/609/574
f 600/623/588 599/622/587 586/609/574
f 600/623/588 586/609/574 588/611/576
f 600/623/588 588/611/576 590/613/578
f 590/613/578 592/615/580 601/624/589
f 590/613/578 601/624/589 600/623/588
f 596/618/583 595/617/582 602/625/590
f 604/626/591 602/625/590 595/617/582
f 604/626/591 595/617/582 603/627/592
f 605/628/593 606/629/594 579/601/566
f 438/440/423 378/382/365 581/604/569
f 438/440/423 581/604/569 580/602/567
f 581/604/569 378/382/365 572/590/557
f 581/604/569 572/590/557 583/606/571
f 607/630/595 585/608/573 583/606/571
f 607/630/595 583/606/571 572/590/557
f 608/631/596 589/612/577 587/610/575
f 608/631/596 587/610/575 607/630/595
f 608/631/596 609/632/597 591/614/579
f 608/631/596 591/614/579 589/612/577
f 593/619/584 610/633/598 564/580/550
f 593/619/584 564/580/550 594/616/581
f 594/616/581 564/580/550 611/634/599
f 594/616/581 611/634/599 513/522/499
f 594/616/581 513/522/499 603/627/592
f 604/626/591 603/627/592 513/522/499
f 604/626/591 513/522/499 437/438/421
f 582/605/570 598/621/586 578/600/565
f 582/605/570 578/600/565 577/603/568
f 605/628/593 613/635/600 612/636/601
f 605/628/593 612/636/601 606/629/594
f 612/636/601 614/637/602 606/629/594
f 606/629/594 614/637/602 580/602/567
f 606/629/594 580/602/567 579/601/566
f 599/622/587 600/623/588 615/638/603
f 615/638/603 600/623/588 601/624/589
f 596/618/583 601/624/589 592/615/580
f 592/615/580 591/614/579 593/619/584
f 592/615/580 593/619/584 596/618/583
f 610/633/598 593/619/584 591/614/579
f 610/633/598 591/614/579 609/632/597
f 615/638/603 598/621/586 597/620/585
f 615/638/603 597/620/585 599/622/587
f 613/635/600 601/624/589 596/618/583
f 579/601/566 578/600/565 613/635/600
f 579/601/566 613/635/600 605/628/593
f 604/626/591 614/637/602 612/636/601
f 604/626/591 612/636/601 602/625/590
f 613/635/600 596/618/583 602/625/590
f 613/635/600 602/625/590 612/636/601
f 580/602/567 614/637/602 438/440/423
f 438/440/423 614/637/602 604/626/591
f 438/440/423 604/626/591 437/438/421
f 616/639/604 610/633/598 609/632/597
f 616/639/604 609/632/597 608/631/596
f 616/639/604 608/631/596 617/640/605
f 564/580/550 610/633/598 552/569/541
f 564/580/550 566/582/552 611/634/599
f 617/640/605 608/631/596 607/630/595
f 617/640/605 607/630/595 571/591/558
f 542/555/529 617/640/605 571/591/558
f 542/555/529 571/591/558 546/561/533
f 375/379/362 552/569/541 610/633/598
f 375/379/362 610/633/598 434/435/418
f 434/435/418 610/633/598 616/639/604
f 513/522/499 611/634/599 566/582/552
f 230/208/205 535/548/523 385/391/374
f 230/208/205 385/391/374 309/291/287
f 573/595/561 471/474/456 463/450/432
f 483/486/468 420/497/478 484/487/469
f 389/396/379 412/417/400 483/486/468
f 476/479/461 410/415/398 514/523/500
f 472/476/458 553/431/414 417/424/407
f 472/476/458 417/424/407 416/423/406
f 416/423/406 511/429/412 419/475/457
f 421/491/472 453/457/439 452/456/438
f 421/491/472 452/456/438 493/496/477
f 565/581/551 576/599/564 574/596/562
f 565/581/551 574/596/562 381/385/368
f 541/556/530 542/555/529 546/561/533
f 541/556/530 546/561/533 545/564/536
f 220/558/198 250/585/225 539/553/527
f 220/558/198 539/553/527 544/559/531
f 544/559/531 567/583/553 570/589/556
f 544/559/531 570/589/556 543/560/532
f 541/556/530 567/583/553 538/552/526
f 541/556/530 538/552/526 540/554/528
f 616/639/604 617/640/605 542/555/529
f 616/639/604 542/555/529 434/435/418
f 438/440/423 376/383/366 378/382/365
f 467/469/451 468/473/455 470/472/454
f 467/469/451 470/472/454 465/470/452
f 444/446/428 533/546/521 387/393/376
f 550/566/538 534/547/522 533/546/521
f 550/566/538 533/546/521 444/446/428
f 142/571/114 141/509/113 468/473/455
f 142/571/114 468/473/455 467/469/451
f 571/591/558 607/630/595 572/590/557
f 401/407/390 573/595/561 119/90/90
f 119/90/90 573/595/561 263/245/241
f 32/641/236 310/294/289 618/642/606
f 32/641/236 618/642/606 361/643/470
f 619/644/607 358/370/353 618/642/606
f 359/368/351 358/370/353 619/644/607
f 364/371/354 362/369/352 621/645/608
f 364/371/354 621/645/608 620/646/609
f 619/644/607 618/642/606 623/647/610
f 619/644/607 623/647/610 622/648/611
f 525/593/559 555/649/612 624/650/613
f 525/593/559 624/650/613 396/403/386
f 558/574/544 518/529/505 396/403/386
f 558/574/544 396/403/386 624/650/613
f 626/651/614 462/652/448 625/653/615
f 626/651/614 556/654/543 462/652/448
f 557/655/616 627/656/617 525/657/559
f 559/575/545 628/658/618 404/411/394
f 559/575/545 404/411/394 403/410/393
f 504/514/491 557/659/616 554/572/542
f 554/572/542 557/659/616 525/593/559
f 555/660/612 629/661/619 624/662/613
f 629/661/619 630/663/620 558/664/544
f 629/661/619 558/664/544 624/662/613
f 464/465/447 404/411/394 628/658/618
f 628/665/618 559/666/545 630/663/620
f 628/665/618 630/663/620 631/667/621
f 556/654/543 626/651/614 627/656/617
f 556/654/543 627/656/617 504/668/491
f 628/665/618 631/667/621 625/653/615
f 628/665/618 625/653/615 462/652/448
f 368/390/373 367/392/375 383/388/371
f 500/506/485 202/181/178 262/243/239
f 500/506/485 262/243/239 501/507/486
f 309/291/287 385/391/374 379/387/370
f 309/291/287 379/387/370 161/137/136
f 367/392/375 385/391/374 535/548/523
f 367/392/375 535/548/523 383/388/371
f 496/499/480 495/498/479 513/522/499
f 496/499/480 513/522/499 566/582/552
f 613/635/600 615/638/603 601/624/589
f 521/534/509 477/481/463 409/414/397
f 521/534/509 409/414/397 408/416/399
f 520/536/511 477/481/463 521/534/509
f 24/3/3 620/646/609 313/297/291
f 618/642/606 310/294/289 326/323/306
f 618/642/606 326/323/306 623/647/610
f 623/647/610 326/323/306 327/324/307
f 623/647/610 327/324/307 632/669/622
f 620/646/609 632/669/622 327/324/307
f 620/646/609 327/324/307 313/297/291
f 634/670/623 635/671/624 633/672/625
f 637/673/626 638/674/627 636/675/628
f 562/577/547 640/676/629 641/677/630
f 562/577/547 641/677/630 639/678/631
f 642/679/632 641/677/630 640/676/629
f 644/680/633 645/681/634 646/682/635
f 644/680/633 646/682/635 643/683/636
f 633/672/625 647/684/637 640/676/629
f 649/685/638 642/679/632 650/686/639
f 649/685/638 650/686/639 648/687/640
f 645/681/634 651/688/641 652/689/642
f 645/681/634 652/689/642 646/682/635
f 652/689/642 651/688/641 649/685/638
f 652/689/642 649/685/638 648/687/640
f 653/690/643 635/671/624 351/691/330
f 351/691/330 635/671/624 350/692/331
f 633/672/625 635/671/624 653/690/643
f 640/676/629 634/670/623 633/672/625
f 641/677/630 642/679/632 649/685/638
f 650/686/639 642/679/632 654/693/644
f 647/684/637 654/693/644 642/679/632
f 647/684/637 642/679/632 640/676/629
f 575/598/563 267/597/245 350/692/331
f 655/694/645 576/599/564 639/678/631
f 655/694/645 639/678/631 641/677/630
f 655/694/645 636/675/628 576/599/564
f 353/695/333 350/692/331 267/597/245
f 637/673/626 636/675/628 645/681/634
f 637/673/626 645/681/634 644/680/633
f 651/688/641 655/694/645 641/677/630
f 651/688/641 641/677/630 649/685/638
f 655/694/645 651/688/641 645/681/634
f 655/694/645 645/681/634 636/675/628
f 356/352/335 355/353/336 637/673/626
f 356/352/335 637/673/626 644/680/633
f 562/577/547 634/670/623 640/676/629
f 643/683/636 2/354/337 356/352/335
f 643/683/636 356/352/335 644/680/633
f 562/577/547 561/576/546 634/670/623
f 357/355/338 161/137/136 382/386/369
f 357/355/338 382/386/369 638/674/627
f 634/670/623 561/576/546 575/598/563
f 638/674/627 382/386/369 574/596/562
f 638/674/627 574/596/562 636/675/628
f 562/577/547 639/678/631 569/588/555
f 635/671/624 575/598/563 350/692/331
f 576/599/564 569/588/555 639/678/631
f 636/675/628 574/596/562 576/599/564
f 355/353/336 357/355/338 638/674/627
f 355/353/336 638/674/627 637/673/626
f 634/670/623 575/598/563 635/671/624
f 1/696/339 12/697/646 351/691/330
f 10/698/647 8/699/648 647/684/637
f 10/698/647 647/684/637 633/672/625
f 633/672/625 653/690/643 11/700/649
f 633/672/625 11/700/649 10/698/647
f 5/701/650 3/702/651 643/683/636
f 5/701/650 643/683/636 646/682/635
f 9/703/652 4/704/653 652/689/642
f 9/703/652 652/689/642 648/687/640
f 647/684/637 8/699/648 6/705/654
f 647/684/637 6/705/654 654/693/644
f 7/706/655 9/703/652 648/687/640
f 7/706/655 648/687/640 650/686/639
f 11/700/649 653/690/643 351/691/330
f 11/700/649 351/691/330 12/697/646
f 3/702/651 2/354/337 643/683/636
f 646/682/635 652/689/642 4/704/653
f 646/682/635 4/704/653 5/701/650
f 7/706/655 650/686/639 654/693/644
f 7/706/655 654/693/644 6/705/654
f 489/434/417 419/475/457 511/429/412
f 359/368/351 619/644/607 622/648/611
f 359/368/351 622/648/611 362/369/352
f 396/403/386 397/402/385 525/593/559
f 366/531/356 489/434/417 363/592/350
f 313/297/291 31/7/7 25/1/1
f 26/2/2 25/1/1 33/8/8
f 26/2/2 360/707/126 24/3/3
f 285/266/262 284/269/265 295/277/273
f 277/258/254 279/260/256 298/280/276
f 27/292/141 23/296/140 311/293/288
f 27/292/141 310/294/289 32/641/236
f 240/316/215 68/320/45 324/317/304
f 239/307/299 321/309/301 236/321/213
f 656/708/656 320/308/300 237/313/296
f 656/708/656 324/317/304 322/319/302
f 656/708/656 237/313/296 323/315/303
f 656/708/656 318/303/297 321/309/301
f 320/308/300 656/708/656 321/309/301
f 322/319/302 325/322/305 656/708/656
f 656/708/656 325/322/305 319/304/298
f 320/308/300 239/307/299 62/312/34
f 318/303/297 656/708/656 319/304/298
f 324/317/304 656/708/656 323/315/303
f 269/250/246 306/288/284 288/271/267
f 327/324/307 316/300/294 314/298/292
f 327/324/307 314/298/292 313/297/291
f 314/298/292 315/299/293 29/5/5
f 316/300/294 315/299/293 314/298/292
f 628/665/618 462/652/448 464/709/447
f 364/371/354 620/646/609 24/3/3
f 24/3/3 360/707/126 365/372/355
f 366/373/356 363/367/350 364/371/354
f 469/471/453 531/545/520 532/544/519
f 595/617/582 594/616/581 603/627/592
f 587/610/575 585/608/573 607/630/595
f 358/370/353 361/643/470 618/642/606
f 559/666/545 558/664/544 630/663/620
f 627/656/617 557/655/616 504/668/491
f 525/657/559 657/710/657 555/660/612
f 630/663/620 657/710/657 631/667/621
f 555/660/612 657/710/657 629/661/619
f 626/651/614 657/710/657 627/656/617
f 657/710/657 525/657/559 627/656/617
f 625/653/615 631/667/621 657/710/657
f 657/710/657 626/651/614 625/653/615
f 657/710/657 630/663/620 629/661/619
f 615/638/603 578/600/565 598/621/586
f 613/635/600 578/600/565 615/638/603
f 623/647/610 632/669/622 621/645/608
f 621/645/608 632/669/622 620/646/609
f 622/648/611 621/645/608 362/369/352
f 622/648/611 623/647/610 621/645/608
